<svg viewBox="0 0 192 192" xmlns="http://www.w3.org/2000/svg" width="192" height="192"><g transform="rotate(0 3.14 2.18) translate(16.221285811496926 37.20668025136049) scale(0.45620422695355584)"><defs><style>.cls-1{fill:#fff;}.cls-1,.cls-10,.cls-11,.cls-12,.cls-13,.cls-14,.cls-15,.cls-16,.cls-17,.cls-18,.cls-2,.cls-20,.cls-21,.cls-22,.cls-23,.cls-24,.cls-25,.cls-26,.cls-3,.cls-4,.cls-5,.cls-6,.cls-7,.cls-8,.cls-9{fill-rule:evenodd;}.cls-2{fill:url(#a);}.cls-3{fill:url(#c);}.cls-4{fill:url(#d);}.cls-5{fill:#c93;}.cls-6{fill:url(#b);}.cls-7{fill:#cbb65e;}.cls-8{fill:#78451c;}.cls-9{fill:url(#h);}.cls-10{fill:#ff9;}.cls-11{fill:#c30;}.cls-12{fill:#a6923c;}.cls-13{fill:#900;}.cls-14{fill:#5c0000;}.cls-15{fill:#c63;}.cls-16{fill:#fffcd7;}.cls-17{fill:#9d8933;}.cls-18{fill:#8e8040;}.cls-19{fill:#ffc;}.cls-20{fill:none;}.cls-21{fill:url(#e);}.cls-22{fill:url(#g);}.cls-23{fill:#ffb;}.cls-24{fill:#ffffcf;}.cls-25{fill:url(#f);}.cls-26{fill:url(#i);}</style><linearGradient id="a" x1="-296.5" x2="-300.2" y1="571.4" y2="361.4" gradientTransform="translate(472 -318.1)" gradientUnits="userSpaceOnUse"><stop stop-color="#c1ae56" offset=".01"></stop><stop stop-color="#b07d33" offset=".39"></stop><stop stop-color="#dba826" offset=".52"></stop><stop stop-color="#ff0" offset=".66"></stop><stop stop-color="#ff0" offset=".74"></stop><stop stop-color="#c93" offset=".84"></stop></linearGradient><linearGradient id="c" x1="-474.6" x2="-267.8" y1="668.9" y2="668.9" gradientTransform="translate(545.4 -445)" gradientUnits="userSpaceOnUse"><stop stop-color="#e7cc1d" offset="0"></stop><stop stop-color="#e9d11a" offset=".15"></stop><stop stop-color="#e9d11a" offset=".81"></stop><stop stop-color="#e1bf24" offset="1"></stop></linearGradient><linearGradient id="d" x1="-337.5" x2="-329.9" y1="559.2" y2="558.3" gradientTransform="translate(559.5 -336.6) scale(.88 1)" gradientUnits="userSpaceOnUse"><stop stop-color="#c93" offset=".09"></stop><stop stop-color="#e3c67b" offset=".91"></stop></linearGradient><linearGradient id="b" x1="-474.4" x2="-268.3" y1="645.3" y2="645.3" gradientTransform="translate(545.4 -445)" gradientUnits="userSpaceOnUse"><stop stop-color="#dcd29d" offset="0"></stop><stop stop-color="#e7dba8" offset=".22"></stop><stop stop-color="#ede0ae" offset=".5"></stop><stop stop-color="#e7dba8" offset=".77"></stop><stop stop-color="#dcd29d" offset="1"></stop></linearGradient><linearGradient id="h" x1="-386.8" x2="-386.8" y1="580.9" y2="460.6" gradientTransform="translate(560.9 -377)" gradientUnits="userSpaceOnUse"><stop stop-color="#c93" offset=".01"></stop><stop stop-color="#e7cf47" offset=".3"></stop><stop stop-color="#ffff59" offset=".68"></stop><stop stop-color="#cbaf61" offset=".99"></stop></linearGradient><linearGradient id="e" x1="-304.3" x2="-333.7" y1="440.2" y2="443.3" gradientTransform="translate(545.4 -214.6)" gradientUnits="userSpaceOnUse"><stop stop-color="#e9d11a" offset=".18"></stop><stop stop-color="#c93" offset=".82"></stop></linearGradient><linearGradient id="g" x1="-445.5" x2="-407.8" y1="442.1" y2="443.4" gradientTransform="translate(545.4 -214.6)" gradientUnits="userSpaceOnUse"><stop stop-color="#e9d11a" offset=".2"></stop><stop stop-color="#c93" offset=".8"></stop></linearGradient><linearGradient id="f" x1="-402.7" x2="-421.8" y1="543.8" y2="500.8" gradientTransform="translate(682.5 -373.5)" gradientUnits="userSpaceOnUse"><stop stop-color="#ffc" offset=".07"></stop><stop stop-color="#fc0" offset=".53"></stop><stop stop-color="#ffc" offset=".93"></stop></linearGradient><linearGradient id="i" x1="-396.8" x2="-375.9" y1="544.6" y2="505.4" gradientTransform="translate(465.3 -375.8)" gradientUnits="userSpaceOnUse"><stop stop-color="#ffc" offset=".04"></stop><stop stop-color="#fc0" offset=".53"></stop><stop stop-color="#ffc" offset=".96"></stop></linearGradient></defs><g data-name="Layer 1"><path class="cls-1" d="m139.4 111.5a126.1 126.1 0 0 1 17.71-4.26v-4.8a106.3 106.3 0 0 0-17.7 9.06z"></path><path class="cls-2" d="M70.81,234.36s10.76,18.92,100.51,18.92S277.57,234.8,277.57,234.8q-.26-20.09-.52-40.19a3.71,3.71,0,0,0-1.28,0l-.7-14.54s10.15.33,10.07-6.28S272.68,132.06,260.3,121c-5.28-3.06-11.39.66-11.39.66S228.77,90.57,185.2,84.29c-1.32-5.95-7.86-40.86-10.93-41s-9.09,33.67-11,40.33C150.75,86.81,119.67,94.08,98.7,122c-9.16-4.38-11.12-2.69-14.61,2.89s-17.72,35.81-20.3,42.6-.16,12.35,8.83,12.68c-.17,8.18-.13,14.5-.41,14.34a1.8,1.8,0,0,0-1.24,0q-.08,19.9-.17,39.79Z"></path><path class="cls-3" d="m171.3 206.4c-91 1.18-99.7-8.42-100.3-11.15l-0.16 39.08s10.76 18.92 100.5 18.92 106.2-18.47 106.2-18.47l-0.52-40.19c-1.65 2.64 0.13 10.45-105.7 11.81z"></path><path class="cls-4" d="m264.6 215.8c1.86 0 3.37 2.84 3.37 6.34s-1.51 6.34-3.37 6.34-3.37-2.84-3.37-6.34 1.51-6.34 3.37-6.34z"></path><path class="cls-5" d="m83.56 215.4c1.94 0 3.51 2.84 3.51 6.34s-1.57 6.34-3.51 6.34-3.56-2.83-3.56-6.33 1.57-6.34 3.51-6.34z"></path><path class="cls-6" d="M275.78,194.61s1.38,7.85-101.16,9.17-102.3-9.61-102.3-9.61c0,.26-.07.38-.11.36a1.8,1.8,0,0,0-1.24,0v.71c.65,2.72,9.35,12.32,100.35,11.15,105.87-1.36,104.09-9.17,105.74-11.81a3.74,3.74,0,0,0-1.28,0Z"></path><polygon class="cls-7" points="159.8 203.9 159.7 84.53 158.1 84.94 158 204 159.8 203.9"></polygon><polygon class="cls-7" points="188.4 84.81 188.3 203.6 190.4 203.5 190.7 85.24 188.4 84.81"></polygon><path class="cls-8" d="M195,199.49c-5.86-4.46-3.45-114.08-3.45-114.08l-.8-.16-.37,118.27c8.89-.19,16.85-.44,24-.73-12-.66-13.5,1.16-19.36-3.3Z"></path><path class="cls-8" d="M157.35,85.15c-.87.62,1.37,112.79-3.2,115.57s-13.68,3-13.68,3c5.41.1,11.26.15,17.56.15l.1-118.95-.77.21Z"></path><path class="cls-8" d="M72.62,180.19C77.49,158.66,98.7,122,98.7,122q-1-.46-1.84-.84C79.18,149.63,70.38,180,70.38,180a19,19,0,0,0,2.24.21Z"></path><path class="cls-9" d="M159.75,175.43v28.46q7,0,14.86-.11,7.17-.09,13.67-.23l0-28.13,0-19.41.06-44.58v-9l0-17.6q-1.61-.28-3.26-.52s-15.93.5-22-.66l-3.53.9V111.4l0,44.63v19.4Z"></path><path class="cls-8" d="M248.91,121.64c20.06,29.91,26.16,58.42,26.16,58.42a17.37,17.37,0,0,0,2.2-.11c-1.35-19.94-26.58-59.17-26.58-59.17a13.06,13.06,0,0,0-1.78.85Z"></path><path class="cls-10" d="m184.3 83.6h-20.6c2.39 3.08 7.57 11.4 10.35 11.4s8.1-8.18 10.25-11.36z"></path><path class="cls-11" d="m282.9 172.8s85-64 54-168.3c-26.56 28-25.42 85.86-76.69 121.7 10 10.25 19.77 35.12 22.7 46.64z"></path><path class="cls-11" d="M13.54,6.06c-32.67,98,53.62,166.6,53.62,166.6q.14-.42.3-.85c2.59-6.79,16.82-37,20.3-42.6a27.09,27.09,0,0,1,2-2.95C48.61,103.61,37,33.92,13.54,6.06Z"></path><path class="cls-12" d="M163.24,83.63c4.1,1.92,20.35,1.29,22,.66-.08-.38-.19-.87-.31-1.47-8.68-2-21.46.13-21.46.13l-.19.67Z"></path><path class="cls-13" d="m281.4 167.8s52.79-47.15 61-99.09c1.4-10.72 3.82-31.75-5.58-64.16 1.2 115-65.05 139.5-65.05 139.5 2.85 6.37 8 18.56 9.6 23.73z"></path><path class="cls-14" d="m342.5 68.69c-8.24 51.94-61 99.09-61 99.09 0.59 1.87 1.08 3.58 1.46 5.06 0 0 51-38.4 59.58-104.2z"></path><path class="cls-15" d="m279.8 119.9c39.15-29.75 57.06-115.4 57.06-115.4-10.71 12.32-16.27 26-21.19 38.29-0.52 9-10.19 43.26-35.87 77.1z"></path><path class="cls-14" d="m264.6 131.7c26-13.47 49.42-60.32 51.06-88.85-11 27.63-22.22 60.14-55.5 83.39a43.57 43.57 0 0 1 4.44 5.46z"></path><path class="cls-13" d="m77.16 150.3c-31.83-27.7-64.71-67.68-63.62-144.2-5.05 16.24-6.2 25.61-6.79 31.8-3.84 65.61 62 130.9 62 130.9 1.88-4.39 14.3-13.37 8.45-18.47z"></path><path class="cls-16" d="M184.4,80.44c-8.56-3.76-20.42.27-20.42.27-.2.87-.38,1.63-.54,2.24,0,0,12.77-2.14,21.45-.13l-.49-2.38Z"></path><path class="cls-14" d="M16.19,9.45c12.45,68.2,40.62,104.44,69.92,122.7.68-1.27,1.24-2.27,1.65-2.93a27.09,27.09,0,0,1,2-2.95C50.19,104.48,37.91,39.21,16.19,9.45Z"></path><path class="cls-17" d="M173,44.68q.19,17.12.39,34.24c.43,0,.75-.06,1-.06L174,43.36a3.08,3.08,0,0,0-1,1.32Z"></path><path class="cls-18" d="m175.5 44.65 3.79 34.41a18.94 18.94 0 0 1 5.15 1.38c-1.93-9.45-6.12-30.31-8.94-35.8z"></path><path class="cls-18" d="M168.63,79.55l3-31.45C169,56.34,165.76,73,164,80.72a38.18,38.18,0,0,1,4.66-1.17Z"></path><circle class="cls-19" cx="264.7" cy="219" r="1.92"></circle><circle class="cls-19" cx="84.53" cy="219.7" r="1.8"></circle><path class="cls-10" d="m221.2 121.2c27.54 18 53.89 58.92 53.89 58.92s-5.14-24-21.46-51c-8 4.58-24.65-6.19-32.43-7.89z"></path><path class="cls-14" d="M53,150.94C33.82,127.07,4.14,82.54,6.75,37.86,2,88.05,26.52,127.94,45.74,150.94a166.28,166.28,0,0,0,21.42,21.73c.09-.28.19-.57.3-.85.29-.75.71-1.79,1.26-3A235.5,235.5,0,0,1,53,150.94Z"></path><path class="cls-8" d="M261.21,222.19c0-3.5,1.51-6.34,3.37-6.34,0,0-3.46-.14-4,5-.52,4.69,1,6.88,3.32,7.51-1.52-.62-2.65-3.16-2.65-6.2Z"></path><path class="cls-20" d="M83.56,215.41s5.32.83,4.54,7.2-4.82,5.47-4.82,5.47"></path><path class="cls-8" d="M84.77,215.8c1.34.89,2.3,3.22,2.3,6,0,3.5-1.57,6.34-3.51,6.34l-.28,0s4,.9,4.82-5.47c.54-4.37-1.81-6.14-3.33-6.81Z"></path><path class="cls-5" d="M134.8,206.26c-7.83,21.46-8.24,45.07-8.24,45.07,12.15,1.2,27,2,44.76,2s35.53-1,47.92-2.16c-.36-19.56-3.12-34.34-3.93-45.84-12.08.52-26.58.92-44,1.14-14,.18-26.12.11-36.52-.16Z"></path><path class="cls-21" d="M239.08,203.89c-6.65.52-16.16,1.06-25.43,1.46.82,11.5,2,26.49,2.4,46.05,7.4-.75,17.08-1.93,22.79-2.93,0-17.16.45-32,.24-44.59Z"></path><path class="cls-22" d="m128 251.5s1.1-23.69 8.93-45.15c-11.13-0.29-22.41-0.84-30-1.49a179.5 179.5 0 0 0-6.32 42.58 255.9 255.9 0 0 0 27.4 4.06z"></path><path class="cls-1" d="m188.4 112.2a98.76 98.76 0 0 0-28.69 0.53v27.94a102.6 102.6 0 0 0 28.64 0.64v-29.1z"></path><path class="cls-23" d="m157.1 140.1v-26.94c-10.66 2.28-18.65 6.69-19 13.26-0.4 6.77 7.85 11.34 19 13.69z"></path><path class="cls-23" d="M191.13,112.56c-.08,8.58-.12,18.43-.08,28.33,12.78-2,22.8-6.61,22.72-14s-10-12.24-22.64-14.32Z"></path><path class="cls-1" d="m159.7 106.8a110.9 110.9 0 0 1 28.7-0.87v-5.55c-8.32-2.56-17.43-2.76-28.71 1.1v5.32z"></path><path class="cls-24" d="m191.3 101.4c0 1.57 0 3.22-0.06 5a61.82 61.82 0 0 1 20.38 6.51c-6.89-4.68-13.38-8.85-20.32-11.46z"></path><path class="cls-24" d="m157.1 101.9c0 1.57 0 3.22 0.06 5a61.82 61.82 0 0 0-20.38 6.51c6.89-4.68 13.38-8.84 20.32-11.46z"></path><path class="cls-1" d="m25.62 68.94s0.66 16.5 21.12 38.06a236.4 236.4 0 0 0-21.12-38.06z"></path><path class="cls-1" d="m275.4 133.6c17.05-17.16 43.33-43.79 54.12-76.55-0.28 9.91-9.68 46.42-54.12 76.56z"></path><path class="cls-10" d="m72.62 180.2s32.7-25.37 40.84-52.65c-22.22 11-14.76-5.54-14.76-5.54s-21.21 36.65-26.08 58.18z"></path><path class="cls-8" d="M64.84,177.5c0-1.7,16.18-40.74,29.5-57.29l-1.44-.41S71.35,152,64.12,176.65a6.62,6.62,0,0,0,.73.85Z"></path><path class="cls-8" d="M254,119.9S278.05,149.36,281.4,179a8.83,8.83,0,0,0,1-.5s-3.05-28.58-26.85-58.69a7.41,7.41,0,0,0-1.56.12Z"></path><path class="cls-25" d="M281.4,179C278.05,149.36,254,119.9,254,119.9a14.64,14.64,0,0,0-3.29.89S275.93,160,277.28,180a14.86,14.86,0,0,0,4.12-1Zm-25.86-59.18c23.79,30.11,26.85,58.69,26.85,58.69a5.1,5.1,0,0,0,2.75-4.68,24.53,24.53,0,0,0-.89-5c-.38-1.49-.87-3.19-1.46-5.06a173.41,173.41,0,0,0-6.87-17.93A113.6,113.6,0,0,0,266,127.65a43.78,43.78,0,0,0-4.44-5.46q-.63-.64-1.26-1.21a9.19,9.19,0,0,0-4.76-1.21Z"></path><path class="cls-26" d="M64.12,176.65C71.35,152,92.9,119.8,92.9,119.8c-3.23-.75-5,.09-6.76,2.16a27.22,27.22,0,0,0-2,2.95c-.41.66-1,1.66-1.65,2.93C80.24,132,76.82,139,73.49,146S66.93,160.07,65,164.46c-.54,1.26-1,2.3-1.26,3q-.16.43-.3.85c-1.05,3.25-.9,6.17.63,8.3ZM70.38,180s8.8-30.35,26.48-58.81c-.92-.4-1.75-.72-2.52-1C81,136.76,64.82,175.8,64.84,177.5A9.83,9.83,0,0,0,70.38,180Z"></path><path class="cls-1" d="m266.2 153.8s-22.1-16.68-25.62-20.2c12 6.73 21.43 11 21.43 11l4.19 9.23z"></path><path class="cls-1" d="m80.59 157.6s22-16.67 25.52-20.19c-12 6.73-20.81 10.64-21.21 10.82l-4.31 9.37z"></path><polygon class="cls-1" points="171.7 48.1 168.6 79.55 170 79.28 171.7 79.04 173.4 78.92 173 44.68 172.6 45.51 172.1 46.68 171.7 48.1"></polygon><polygon class="cls-1" points="174 43.36 174.4 78.87 176 78.8 177.6 78.84 179.2 79.06 175.5 44.65 175 43.8 174.6 43.32 174.3 43.3 174.2 43.3 174.1 43.32 174 43.36"></polygon></g></g></svg>