<svg width="192" height="192" enable-background="new 0 0 200 200" version="1.1" viewBox="0 0 192 192" xml:space="preserve" xmlns="http://www.w3.org/2000/svg"><g transform="rotate(0 3.14 2.18) translate(1.7586583725925635 1.7586583725925635) scale(0.9435929074083348)"><path d="m178.8 122.5c-6.473-15.84-39.28-27.89-78.82-27.89s-72.34 12.06-78.82 27.89h-1.16v5.729c0 18.57 35.82 33.62 80 33.62s80-15.06 80-33.62v-5.729h-1.2z" fill="#EAC269"></path><ellipse cx="100" cy="122.5" rx="80" ry="33.62" fill="#FADC8F"></ellipse><path d="m100 42.44c-29.66 0-53.71 24.05-53.71 53.71v14.32c0 9.053 24.05 16.39 53.71 16.39s53.71-7.338 53.71-16.39v-14.35c0-29.67-24-53.71-53.7-53.71z" fill="#EAC269"></path><path d="m152.3 83.76-52.3 28.44-52.26-28.44c-0.344 1.455-0.638 2.928-0.861 4.426l52.09 28.39c0.102 0.056 0.21 0.085 0.316 0.124 0.055 0.021 0.109 0.051 0.168 0.063 0.18 0.049 0.36 0.073 0.542 0.073h2e-3c0.184 0 0.364-0.024 0.544-0.073 0.059-0.014 0.109-0.044 0.168-0.063 0.105-0.039 0.213-0.068 0.316-0.124l52.09-28.38c-0.2-1.53-0.5-3-0.8-4.46z" fill="#DAA848"></path><path d="m100 126.6-52.68-28.75c-0.328-0.178-0.68-0.252-1.028-0.252v4.585l44.87 24.45c2.878 0.146 5.831 0.227 8.846 0.227 3.017 0 5.968-0.08 8.849-0.227l44.86-24.44v-4.587c-0.347 0-0.698 0.074-1.026 0.252l-52.7 28.74z" fill="#DAA848"></path><rect x="97.85" y="42.44" width="4.296" height="84.42" fill="#FADC8F"></rect><path d="m27.61 136.8v5.729c3.116 2.777 7.116 5.346 11.84 7.643v-5.725c0.676 0.328 1.367 0.651 2.073 0.969 38.46-9.008 78.49-9.008 117 0 0.705-0.316 1.396-0.641 2.072-0.969v5.725c4.725-2.297 8.725-4.864 11.84-7.643v-5.729c-47.4-13.2-97.45-13.2-144.8 0z" fill="#703F18"></path><path d="m39.45 144.5v5.729c0.677 0.328 1.366 0.654 2.073 0.974v-5.729c38.46-9.008 78.49-9.008 117 0v5.729c0.707-0.317 1.396-0.646 2.072-0.974v-5.729c-39.8-9.6-81.36-9.6-121.2 0z" fill="#2D1100"></path><g fill="#F1F2F2"><path d="m141.5 143.5c-4.909-0.81-9.839-1.476-14.78-1.995 0.516-4.867 1.028-9.731 1.541-14.6 5.225 0.551 10.44 1.253 15.63 2.11-0.7 4.9-1.5 9.7-2.3 14.5zm-11.6-4.5c3.043 0.354 6.082 0.766 9.113 1.231 0.453-2.951 0.903-5.9 1.356-8.85-3.14-0.48-6.283-0.906-9.433-1.273-0.4 3-0.7 5.9-1.1 8.9z"></path><path d="m73.28 141.5c-4.942 0.521-9.871 1.187-14.78 1.995-0.797-4.829-1.594-9.657-2.39-14.48 5.193-0.856 10.41-1.56 15.63-2.109 0.51 4.9 1.02 9.7 1.54 14.6zm-12.34-1.3c3.033-0.466 6.071-0.876 9.114-1.23-0.347-2.963-0.692-5.928-1.039-8.893-3.148 0.368-6.293 0.795-9.432 1.274 0.46 2.9 0.9 5.9 1.36 8.8z"></path></g><path d="m75.92 48.14c-12.58 9.753-21.03 27.62-21.03 48v23.21c0.686 0.322 1.393 0.641 2.148 0.945v-24.15c0-22.3 10.12-41.58 24.69-50.52-2 0.72-3.94 1.57-5.81 2.51z" fill="#DAA848"></path><path d="m124.1 48.15c-1.878-0.944-3.815-1.79-5.812-2.514 14.58 8.942 24.69 28.21 24.69 50.52v24.16c0.756-0.306 1.463-0.623 2.148-0.945v-23.25c0-20.39-8.4-38.25-21-48z" fill="#DAA848"></path><path d="m151.8 81.88-51.8 28.22-51.78-28.22c-0.393 1.427-0.727 2.877-1.001 4.349l51.75 28.2c0.102 0.056 0.21 0.086 0.316 0.123 0.055 0.021 0.109 0.052 0.168 0.066 0.18 0.047 0.36 0.071 0.542 0.071h2e-3c0.184 0 0.364-0.024 0.544-0.071 0.059-0.017 0.109-0.046 0.168-0.066 0.105-0.037 0.213-0.067 0.316-0.123l51.75-28.2c-0.3-1.45-0.6-2.9-1-4.32z" fill="#FADC8F"></path><path d="m100 42.44c-3.149 0-6.23 0.287-9.232 0.808 0.558 3.219 4.409 5.638 9.232 5.638 4.826 0 8.675-2.419 9.234-5.638-3-0.53-6-0.81-9.2-0.81z" fill="#DAA848"></path><path d="m95.39 126.8c1.521 0.039 3.053 0.064 4.608 0.064 1.553 0 3.089-0.025 4.609-0.064l49.1-26.76v-3.894c0-0.232-0.014-0.462-0.02-0.694-0.342 2e-3 -0.686 0.077-1.008 0.252l-52.7 28.73-52.68-28.69c-0.323-0.175-0.669-0.25-1.012-0.252-3e-3 0.232-0.017 0.462-0.017 0.694v3.891l49.1 26.8z" fill="#FADC8F"></path><path d="m118.4 45.66c-5.731-2.087-11.92-3.228-18.37-3.228-6.453 0-12.64 1.141-18.37 3.226-14.53 8.971-24.6 28.23-24.6 50.48v24.16c1.327 0.538 2.767 1.049 4.297 1.533v-25.69c0-28.43 17.35-51.56 38.67-51.56 21.33 0 38.67 23.13 38.67 51.56v25.69c1.526-0.484 2.97-0.995 4.298-1.533v-24.15c0-22.26-10.1-41.51-24.6-50.49z" fill="#FADC8F"></path><path d="m97.85 48.71c0.689 0.109 1.407 0.172 2.148 0.172 0.744 0 1.46-0.062 2.148-0.172v-6.273h-4.296v6.27z" fill="#EAC269"></path><path d="m90.76 43.23c0.155 0.904 0.569 1.741 1.192 2.483 2.596-0.735 5.286-1.131 8.043-1.131 2.759 0 5.45 0.396 8.046 1.131 0.621-0.742 1.034-1.579 1.19-2.483-3.002-0.52-6.086-0.796-9.236-0.796-3.11 0.01-6.19 0.28-9.2 0.8z" fill="#EAC269"></path><ellipse cx="100" cy="42.44" rx="7.161" ry="4.297" fill="#FADC8F"></ellipse></g></svg>