<svg enable-background="new 0 0 153 153.3" version="1.1" viewBox="0 0 192 192" xml:space="preserve" xmlns="http://www.w3.org/2000/svg" width="192" height="192"><g transform="rotate(0 3.14 2.18) translate(24.1525726430516 23.429276394491723) scale(0.9643949980798443)"><style type="text/css"> .st0{opacity:0.75;fill:#D22C00;} </style><path class="st0" d="m65.3 134c4.5 0.2 30.2-2.8 39.2-4.9s14.9-4.7 16.4-4.9c1.4-0.2 2.6-1.5 2.4-0.2s0 1.7 0.8 1.3 2.7-0.6 2.1 0.2-2.1 1.7-2.9 2.1-1.8 0.9-2.4 1.3-1.3 1.5-0.8 1.3 1.3-0.6 1.8-0.6 0.6-1.1 0.5 0c-0.2 1.1-1.1 1.5-1.8 2.1-0.6 0.6-1.4 2.1-2.9 2.6-1.4 0.6-2.7 0.6-3.7 0.9-1 0.4-2.1 1.1-3.1 1.3s-1.8 0.2-2.4 0.8-0.6 1.3-0.6 1.3-3.1 1.5-5.3 2.5c-2.2 0.9-3.9 1.3-3.9 1.3s-0.6-0.8-1.6-0.4-1 1.1-1 1.1-6.7 1.5-8.5 1.7-8 1.7-10 1.7c-1.9 0-19.8 1.7-29.4-0.9s-19.7-8.9-28-19.4-16.2-29.6-13.1-50.2 22.5-50 44.4-59.8c21.8-9.8 50.6-8.3 65.4-1.1 12.1 5.9 18.9 29.4 18.9 32.7v8.1c-0.7 3.8 1.6-19.6-16.7-30-20.2-11.5-55.2-9.1-79.6 10.8-24.5 19.7-32.3 34.4-29.4 55.2 2.9 20.5 18.8 40.1 55.2 42.1z"></path><path class="st0" d="m96.8 12.6c-3-1.3-6.6-1.6-9.9-1.6-15.5 0-30.9 4.3-43.7 13.3-11.9 8.3-21.2 20.2-26.4 33.7-3.6 9.4-5.2 19.7-3.4 29.6 1.5 8.4 5.6 16.3 10.9 22.9 6.6 8.1 15.3 14.6 25.3 17.6 11.5 3.6 24.2 2.4 35.5-2.1s21-12 29.2-20.9c6.6-7.2 12.3-15.5 15-24.9 2.1-7.3 2.4-15 2.2-22.6-0.1-3.8-0.3-7.5-0.7-11.3-0.3-3-2-8.4-0.9-11 0.6 0.3 0.8 0.7 1.2 1.3 10.1 15.9 2.7 42.6-3.1 58.6-5.4 14.8-13.6 27-27.3 35-14.1 8.2-30.8 12.4-47.1 11.1-20-1.6-39.4-24.8-44-56-6.1-42.1 27.1-87.3 72.4-80.5 8.4 1.3 19.7 4.3 22.8 13.3-1.5 0.3-2.6-1.3-3.6-2.4-1.2-1.4-2.7-2.4-4.4-3.1z"></path><path class="st0" d="m140.4 53.9c0.3 3.8-0.5 3.2-1.6 0.4 1 2.4-10.7-22.2-22.3-28.5-16.4-8.9-35.2-9.3-50.4-5.1-15.3 4.2-43.4 19.3-53.2 44.9-8.1 21.4-3.2 37.8-3.3 37.6 1 4.2 1.2 3.3-0.8-1.5-3-7.5-8.6-41.7 13.6-65.9 22.1-24.1 35.5-31.6 73.2-28.9 38.3 2.8 45.1 49.9 44.8 47z"></path><path class="st0" d="m136.3 58.9c0.1-3.6-1.8-13.7-4.4-20.7s3.4-2.7 5.7 5.2c2.2 7.9 9.3 16.6 3.5 40s-32.1 48.7-53.8 55.7-41 13-61.1-5.7-20.4-43.4-19.4-52.5c0 0 1.6-3.4 1.4-0.4s-0.7 28.1 16.8 40.8c17.5 12.6 49.5 13.4 73.8-3 24.2-16.4 32-28.9 35.5-39.1 3.4-10.2 1.8-14.9 2-20.3z"></path></g></svg>