<svg enable-background="new 0 0 56.4 39.3" version="1.1" viewBox="0 0 192 192" xml:space="preserve" xmlns="http://www.w3.org/2000/svg" width="192" height="192"><g transform="rotate(0 3.14 2.18) translate(12.298329899569168 37.70776546577139) scale(2.9893453607296725)"><style type="text/css"> .st0{fill:#EFCF33;} .st1{fill:#AA0096;} .st2{fill:none;stroke:#EFCF33;stroke-width:0.72;stroke-linecap:round;stroke-miterlimit:10;stroke-dasharray:0,1.3943;} .st3{fill:none;stroke:#EFCF33;stroke-width:0.72;stroke-linecap:round;stroke-miterlimit:10;stroke-dasharray:0,1.39;} .st4{fill:#AA0096;stroke:#000000;stroke-width:2.81;stroke-linecap:round;stroke-miterlimit:10;} .st5{opacity:0.2;fill:#FFFFFF;enable-background:new ;} </style><path class="st0" d="m43 16.3c-1.9 0-3.6-0.5-5.1-1.6l-0.8-0.6 2.1-3.1c-1.1-0.9-1.8-2.2-1.8-3.8 0-3.3 2.5-5.6 6-5.6 2 0 3.4 0.6 4.7 1.8 0.8 0.8 1.8 2.3 1.8 5.1 0 4.8-2.7 7.8-6.9 7.8zm0.6-9.7c-0.3 0-0.3 0.3-0.3 0.4 0 0.2 0.1 0.4 0.3 0.4 0.3 0 0.3-0.2 0.3-0.3 0.1-0.2 0-0.5-0.3-0.5z"></path><path class="st1" d="m45 9.9c-0.9 0.8-1.8 1.1-2.7 1.1-2.1 0-3.8-1.5-3.8-3.8 0-2.9 2.2-4.6 5-4.6 1.9 0 3 0.6 3.9 1.5s1.5 2.3 1.5 4.4c0 4-2.1 6.7-5.9 6.7-1.9 0-3.3-0.5-4.5-1.4l1.7-2.6c0.8 0.6 1.6 0.9 2.5 0.9 1.8 0.1 2.2-1.3 2.3-2.2zm0-2.8c0-0.8-0.6-1.5-1.3-1.5s-1.4 0.6-1.4 1.4 0.6 1.4 1.3 1.4 1.4-0.6 1.4-1.3z"></path><path class="st2" d="m46.9 6.1c-0.3-1.5-2-2.3-4.1-1.8-2 0.4-3.1 1.9-2.8 3.3v0.1c0.3 1.4 1.9 2.2 4 1.8s3.2-2.1 2.9-3.4z"></path><path class="st3" d="m39.8 12.7c2.8 1.5 4.9 1.2 6.1 0.1 1.6-1.3 1.3-4.3 1.3-4.3"></path><path class="st0" d="m6.8 16.1v-4.4l3.6-2.7-4.1-3.4 0.7-0.8c1.4-2 3.7-3.1 6.1-3 3.3 0 5.7 2.1 5.7 5 0 1.7-0.8 3.3-2.2 4.2h2.4v5.1h-12.2zm6-8.9c-0.2 0-0.6 0.1-1.6 1.2l-0.3 0.4 1.4-1c0.1-0.2 0.3-0.4 0.5-0.6z"></path><path class="st0" d="m24.6 16.3c-3.9 0-6.8-3.1-6.8-7.3 0-3.7 2.3-7.3 6.8-7.3 3.9 0 6.8 3.1 6.8 7.3 0 3.7-2.3 7.3-6.8 7.3zm0-9.1c-0.5 0-0.8 0.9-0.8 1.8 0 1.1 0.4 1.8 0.8 1.8s0.8-0.9 0.8-1.8c0-1-0.3-1.8-0.8-1.8z"></path><polygon class="st0" points="32.2 16.1 32.2 7.7 30.5 8.1 29.3 3.2 34 1.9 38.2 1.9 38.2 16.1"></polygon><path class="st1" d="m7.8 12.1 5-3.6c0.8-0.5 1.1-1 1.1-1.5s-0.4-0.9-1.1-0.9-1.3 0.4-2.3 1.5l-2.8-2.2c1.2-1.7 3.2-2.7 5.3-2.7 2.8 0 4.7 1.7 4.7 4 0 1.9-1 2.8-2.4 3.8l-2.1 1.4h4.7v3.2h-10.1v-3z"></path><path class="st1" d="m18.8 9.1c0-3.3 2.2-6.3 5.8-6.3s5.8 2.9 5.8 6.2-2.2 6.3-5.8 6.3-5.8-2.9-5.8-6.2zm7.6 0c0-1.7-0.7-2.8-1.8-2.8s-1.8 1.1-1.8 2.7 0.7 2.8 1.8 2.8 1.8-1.1 1.8-2.7z"></path><path class="st1" d="m33.2 6.5-2 0.4-0.7-3 3.6-1h3v12.2h-4l0.1-8.6z"></path><circle class="st4" cx="14.2" cy="26.1" r="10.3"></circle><circle class="st4" cx="42.5" cy="26.1" r="10.3"></circle><path class="st5" d="M6.9,33.4C3,29.3,3.1,22.8,7.2,18.9c4-3.8,10.3-3.8,14.3,0L6.9,33.4z"></path><path class="st5" d="M35.2,33.4c-3.9-4.1-3.8-10.6,0.3-14.5c4-3.8,10.3-3.8,14.3,0L35.2,33.4z"></path><path d="M31,26.8c-1.6-1.1-3.7-1.1-5.3,0l-1.5-2.4c2.6-1.7,5.8-1.7,8.4,0L31,26.8z"></path><path class="st0" d="m14.2 36.4c0-0.2 0.2-0.4 0.4-0.4s0.4 0.2 0.4 0.4-0.1 0.4-0.3 0.4c-0.3 0-0.5-0.2-0.5-0.4zm-1.1 0.3c-0.2 0-0.4-0.2-0.3-0.4 0-0.2 0.2-0.4 0.4-0.3 0.2 0 0.4 0.2 0.3 0.4 0 0.2-0.2 0.3-0.4 0.3zm2.5-0.4c0-0.2 0.1-0.4 0.3-0.4s0.4 0.1 0.4 0.3-0.1 0.4-0.3 0.4-0.3-0.1-0.4-0.3zm-4 0.2c-0.2-0.1-0.3-0.3-0.3-0.5s0.2-0.3 0.4-0.3 0.3 0.2 0.3 0.4c0 0.3-0.1 0.4-0.4 0.4zm5.4-0.5c-0.1-0.2 0-0.4 0.2-0.5s0.4 0 0.5 0.2 0 0.4-0.2 0.5h-0.1c-0.2 0-0.3-0.1-0.4-0.2zm-6.8 0c-0.2-0.1-0.3-0.3-0.2-0.5s0.3-0.3 0.5-0.2 0.3 0.3 0.2 0.5c-0.1 0.1-0.2 0.2-0.4 0.2h-0.1zm8.1-0.5c-0.1-0.2 0-0.4 0.2-0.5s0.4 0 0.5 0.2 0 0.4-0.2 0.5h-0.2s-0.2-0.1-0.3-0.2zm-9.5-0.1c-0.2-0.1-0.2-0.3-0.1-0.5s0.3-0.2 0.5-0.1 0.2 0.3 0.1 0.5c-0.1 0.1-0.2 0.2-0.3 0.2 0-0.1-0.1-0.1-0.2-0.1zm10.8-0.6c-0.1-0.2-0.1-0.4 0.1-0.5s0.4-0.1 0.5 0.1 0.1 0.4-0.1 0.5c0 0.1-0.1 0.1-0.2 0.1s-0.2-0.1-0.3-0.2zm-12-0.3c-0.1-0.1-0.2-0.4 0-0.5 0.1-0.2 0.4-0.2 0.5-0.1 0.2 0.1 0.2 0.4 0.1 0.5s-0.2 0.1-0.3 0.2c-0.1 0-0.2 0-0.3-0.1zm13.2-0.5c-0.1-0.1-0.1-0.4 0-0.5s0.4-0.1 0.5 0 0.1 0.4 0 0.5-0.2 0.1-0.2 0.1c-0.1 0-0.2 0-0.3-0.1zm-14.3-0.5c-0.1-0.1-0.1-0.4 0-0.5s0.4-0.1 0.5 0 0.2 0.4 0 0.5c-0.1 0.1-0.2 0.1-0.3 0.1 0 0-0.1 0-0.2-0.1zm15.3-0.5c-0.1-0.1-0.1-0.4 0-0.5s0.4-0.1 0.5 0c0.2 0.1 0.2 0.4 0 0.5-0.1 0.1-0.2 0.1-0.3 0.1 0 0-0.1 0-0.2-0.1zm-16.2-0.6c-0.1-0.2-0.1-0.4 0.1-0.5s0.4-0.1 0.5 0.1 0.1 0.4-0.1 0.5c-0.1 0-0.1 0.1-0.2 0.1s-0.3-0.1-0.3-0.2zm17.1-0.5c-0.2-0.1-0.2-0.3-0.1-0.5s0.3-0.2 0.5-0.1 0.2 0.3 0.1 0.5c-0.1 0.1-0.2 0.2-0.3 0.2s-0.1-0.1-0.2-0.1zm-17.9-0.8c-0.1-0.2 0-0.4 0.2-0.5s0.4 0 0.5 0.1c0.1 0.2 0 0.4-0.2 0.5h-0.2c-0.1 0.1-0.3 0.1-0.3-0.1zm18.6-0.5c-0.2-0.1-0.3-0.3-0.2-0.5s0.3-0.3 0.5-0.2 0.3 0.3 0.2 0.5c-0.1 0.1-0.2 0.2-0.3 0.2-0.1 0.1-0.1 0.1-0.2 0zm-19.2-0.8c-0.1-0.2 0-0.4 0.2-0.5s0.4 0 0.5 0.2 0 0.4-0.2 0.5h-0.1c-0.2 0-0.4-0.1-0.4-0.2zm19.8-0.5c-0.2-0.1-0.3-0.2-0.3-0.4 0.1-0.2 0.3-0.3 0.5-0.3 0.2 0.1 0.3 0.3 0.3 0.5s-0.2 0.3-0.4 0.3l-0.1-0.1zm-20.2-1c0-0.2 0.1-0.4 0.3-0.4s0.4 0.1 0.4 0.3c0.1 0.2-0.1 0.4-0.2 0.4h-0.2c-0.1 0-0.3-0.1-0.3-0.3zm20.5-0.4c-0.2 0-0.4-0.2-0.3-0.4 0-0.2 0.2-0.3 0.4-0.3s0.3 0.2 0.3 0.4-0.1 0.3-0.4 0.3zm-20.7-1c0-0.2 0.1-0.4 0.3-0.4s0.4 0.1 0.4 0.4c0 0.2-0.1 0.4-0.3 0.4s-0.4-0.2-0.4-0.4zm20.5-0.8c0-0.2 0.2-0.4 0.4-0.4s0.4 0.2 0.4 0.4-0.2 0.4-0.4 0.4-0.4-0.1-0.4-0.4zm-20.2-0.3c-0.2 0-0.4-0.2-0.3-0.4 0-0.2 0.2-0.4 0.4-0.4h0.1c0.2 0 0.3 0.2 0.3 0.4-0.1 0.2-0.2 0.4-0.5 0.4zm20.1-1.1c0-0.2 0.1-0.4 0.3-0.4s0.4 0.1 0.4 0.3-0.1 0.4-0.3 0.4h-0.1c-0.1 0-0.3-0.1-0.3-0.3zm-19.9-0.3c-0.2 0-0.3-0.2-0.3-0.4s0.2-0.3 0.4-0.3 0.3 0.2 0.3 0.4-0.2 0.3-0.4 0.3zm19.6-1c-0.1-0.2 0-0.4 0.2-0.4 0.2-0.1 0.4 0.1 0.5 0.2 0.1 0.2-0.1 0.4-0.2 0.5h-0.1c-0.2-0.1-0.4-0.2-0.4-0.3zm-19.3-0.4c-0.2-0.1-0.3-0.3-0.2-0.5s0.3-0.3 0.5-0.2 0.3 0.3 0.2 0.5c-0.1 0.1-0.2 0.2-0.4 0.2h-0.1zm18.8-0.9c-0.1-0.2 0-0.4 0.2-0.5s0.4 0 0.5 0.2 0 0.4-0.2 0.5h-0.1c-0.2 0-0.3-0.1-0.4-0.2zm-18.3-0.4c-0.2-0.1-0.3-0.3-0.2-0.5 0.2-0.2 0.4-0.3 0.5-0.2 0.2 0.1 0.3 0.3 0.2 0.5-0.1 0.1-0.2 0.2-0.3 0.2h-0.2zm17.7-0.8c-0.1-0.2-0.1-0.4 0.1-0.5s0.4-0.1 0.5 0.1 0 0.4-0.1 0.5h-0.2c-0.1 0-0.3 0-0.3-0.1zm-17-0.5c-0.2-0.1-0.2-0.3-0.1-0.5s0.4-0.2 0.5-0.1c0.2 0.1 0.2 0.4 0.1 0.5s-0.2 0.2-0.3 0.1c0 0.1-0.1 0-0.2 0zm16.2-0.7c-0.1-0.1-0.1-0.4 0-0.5s0.4-0.1 0.5 0 0.1 0.4 0 0.5-0.2 0.1-0.2 0.1c-0.2 0-0.3 0-0.3-0.1zm-15.3-0.4c-0.1-0.2-0.1-0.4 0-0.5 0.2-0.1 0.4-0.1 0.5 0s0.1 0.4 0 0.5-0.2 0.1-0.3 0.1-0.1-0.1-0.2-0.1zm14.3-0.6c-0.1-0.1-0.1-0.4 0-0.5s0.4-0.1 0.5 0 0.2 0.4 0 0.5c-0.1 0.1-0.2 0.1-0.3 0.1s-0.1 0-0.2-0.1zm-13.3-0.4c-0.1-0.2-0.1-0.4 0.1-0.5s0.4-0.1 0.5 0.1 0.1 0.4-0.1 0.5c-0.1 0.1-0.1 0.1-0.2 0.1-0.1-0.1-0.2-0.1-0.3-0.2zm12.2-0.4c-0.2-0.1-0.2-0.3-0.1-0.5s0.3-0.2 0.5-0.1 0.2 0.3 0.1 0.5c-0.1 0.1-0.2 0.2-0.3 0.2s-0.1-0.1-0.2-0.1zm-11-0.5c-0.1-0.2 0-0.4 0.1-0.5 0.2-0.1 0.4 0 0.5 0.1 0.1 0.2 0 0.4-0.1 0.5-0.1 0-0.1 0.1-0.2 0-0.1 0.1-0.2 0-0.3-0.1zm9.8-0.2c-0.2-0.1-0.3-0.3-0.2-0.5s0.3-0.3 0.5-0.2 0.2 0.3 0.2 0.5c-0.1 0.1-0.2 0.2-0.3 0.2h-0.2zm-8.5-0.5c-0.1-0.2 0-0.4 0.2-0.5s0.4 0 0.5 0.2 0 0.4-0.2 0.5h-0.1c-0.2 0-0.3 0-0.4-0.2zm7.2 0c-0.2-0.1-0.3-0.3-0.2-0.5s0.3-0.3 0.5-0.2 0.3 0.3 0.2 0.5-0.2 0.3-0.4 0.3l-0.1-0.1zm-5.9-0.4c-0.1-0.2 0.1-0.4 0.3-0.5 0.2 0 0.4 0.1 0.5 0.3 0 0.2-0.1 0.4-0.3 0.4h-0.1c-0.2 0.1-0.4-0.1-0.4-0.2zm4.6 0.1c-0.2 0-0.3-0.2-0.3-0.4s0.2-0.3 0.4-0.3 0.3 0.2 0.3 0.4-0.1 0.3-0.4 0.3c0.1 0 0 0 0 0zm-3.1-0.4c0-0.2 0.1-0.4 0.3-0.4s0.4 0.1 0.4 0.3-0.1 0.4-0.3 0.4c-0.2 0.1-0.4 0-0.4-0.3-0.1 0-0.1 0 0 0zm1.7 0.3c-0.2 0-0.4-0.2-0.4-0.4s0.2-0.4 0.4-0.4 0.4 0.2 0.4 0.4-0.2 0.4-0.4 0.4z"></path><path class="st0" d="m42.5 36.4c0-0.2 0.2-0.4 0.4-0.4s0.4 0.1 0.4 0.3-0.1 0.4-0.3 0.4c-0.3 0.1-0.5-0.1-0.5-0.3zm-1.1 0.3c-0.2 0-0.4-0.2-0.3-0.4 0-0.2 0.2-0.4 0.4-0.3 0.2 0 0.4 0.2 0.3 0.4 0 0.2-0.2 0.3-0.4 0.3zm2.5-0.4c0-0.2 0.1-0.4 0.3-0.4s0.4 0.1 0.5 0.3c0 0.2-0.1 0.4-0.3 0.4h-0.1c-0.2 0-0.3-0.1-0.4-0.3zm-4 0.2c-0.2-0.1-0.3-0.3-0.3-0.5s0.2-0.3 0.4-0.3 0.3 0.2 0.3 0.4c0 0.3-0.1 0.4-0.4 0.4zm5.4-0.5c-0.1-0.2 0-0.4 0.2-0.5s0.4 0 0.5 0.2 0 0.4-0.2 0.5h-0.1c-0.2 0.1-0.3 0-0.4-0.2zm-6.8 0c-0.2-0.1-0.3-0.3-0.2-0.5s0.3-0.3 0.5-0.2 0.3 0.3 0.2 0.5c0 0.1-0.2 0.2-0.3 0.2h-0.2zm8.2-0.5c-0.1-0.2 0-0.4 0.2-0.5s0.4 0 0.5 0.2 0 0.4-0.2 0.5h-0.2c-0.1 0-0.2-0.1-0.3-0.2zm-9.5-0.1c-0.2-0.1-0.3-0.4-0.2-0.5 0.1-0.2 0.3-0.2 0.5-0.1s0.2 0.3 0.1 0.5c-0.1 0.1-0.2 0.2-0.3 0.2 0-0.1-0.1-0.1-0.1-0.1zm10.7-0.5c-0.1-0.2-0.1-0.4 0.1-0.5s0.4-0.1 0.5 0.1 0.1 0.4-0.1 0.5c-0.1 0-0.1 0.1-0.2 0.1-0.1-0.1-0.2-0.1-0.3-0.2zm-12-0.4c-0.2-0.1-0.2-0.4-0.1-0.5 0.1-0.2 0.4-0.2 0.5-0.1 0.2 0.1 0.2 0.4 0.1 0.5s-0.2 0.1-0.3 0.2c0 0-0.1 0-0.2-0.1zm13.2-0.5c-0.1-0.1-0.1-0.4 0-0.5s0.4-0.1 0.5 0 0.1 0.4 0 0.5-0.2 0.1-0.2 0.1c-0.1 0-0.2 0-0.3-0.1zm-14.3-0.5c-0.1-0.1-0.1-0.4 0-0.5s0.4-0.1 0.5 0 0.1 0.4 0 0.5-0.2 0.1-0.3 0.1c0 0-0.1 0-0.2-0.1zm15.3-0.5c-0.1-0.1-0.1-0.4 0-0.5 0.1-0.2 0.4-0.2 0.5 0 0.2 0.1 0.2 0.4 0.1 0.5s-0.2 0.1-0.3 0.1-0.2 0-0.3-0.1zm-16.2-0.6c-0.1-0.2-0.1-0.4 0.1-0.5s0.4-0.1 0.5 0.1 0.1 0.4-0.1 0.5c-0.1 0-0.1 0.1-0.2 0.1s-0.2-0.1-0.3-0.2zm17.1-0.5c-0.2-0.1-0.2-0.3-0.1-0.5s0.3-0.2 0.5-0.1 0.2 0.3 0.1 0.5c-0.1 0.1-0.2 0.2-0.3 0.2-0.1-0.1-0.1-0.1-0.2-0.1zm-17.9-0.8c-0.1-0.2 0-0.4 0.2-0.5s0.4 0 0.5 0.1c0.1 0.2 0 0.4-0.2 0.5h-0.2c-0.1 0.1-0.2 0.1-0.3-0.1zm18.7-0.5c-0.2-0.1-0.3-0.3-0.2-0.5s0.3-0.3 0.5-0.2 0.3 0.3 0.2 0.5c-0.1 0.1-0.2 0.2-0.3 0.2-0.2 0.1-0.2 0.1-0.2 0zm-19.3-0.8c-0.1-0.2 0-0.4 0.2-0.5s0.4 0 0.5 0.2 0 0.4-0.2 0.5h-0.1c-0.2 0-0.3-0.1-0.4-0.2zm19.8-0.5c-0.2-0.1-0.3-0.2-0.3-0.4 0.1-0.2 0.3-0.3 0.5-0.3 0.2 0.1 0.3 0.3 0.3 0.5-0.1 0.1-0.2 0.2-0.5 0.2zm-20.2-0.9c0-0.2 0.1-0.4 0.3-0.4s0.4 0.1 0.4 0.3-0.1 0.4-0.3 0.4h-0.1c-0.1-0.1-0.3-0.2-0.3-0.3zm20.5-0.5c-0.2 0-0.3-0.2-0.3-0.4s0.2-0.3 0.4-0.3 0.3 0.2 0.3 0.4-0.1 0.3-0.4 0.3zm-20.7-1c0-0.2 0.1-0.4 0.3-0.4s0.4 0.1 0.4 0.4c0 0.2-0.1 0.4-0.3 0.4s-0.4-0.2-0.4-0.4zm20.5-0.8c0-0.2 0.2-0.4 0.4-0.4s0.4 0.2 0.4 0.4-0.2 0.4-0.4 0.4-0.4-0.1-0.4-0.4zm-20.2-0.3c-0.2 0-0.4-0.2-0.4-0.4s0.2-0.4 0.4-0.4 0.4 0.2 0.3 0.4c0.1 0.2-0.1 0.4-0.3 0.4zm20.1-1.1c0-0.2 0.1-0.4 0.3-0.4s0.4 0.1 0.4 0.3-0.1 0.4-0.3 0.4-0.4-0.1-0.4-0.3zm-20-0.3c-0.2 0-0.3-0.2-0.3-0.4s0.2-0.3 0.4-0.3 0.3 0.2 0.3 0.4-0.1 0.3-0.4 0.3zm19.7-1c-0.1-0.2 0.1-0.4 0.2-0.5 0.2-0.1 0.4 0.1 0.5 0.2 0.1 0.2-0.1 0.4-0.3 0.5h-0.1c-0.1 0-0.3-0.1-0.3-0.2zm-19.3-0.4c-0.2-0.1-0.3-0.3-0.2-0.5s0.3-0.3 0.5-0.2 0.3 0.3 0.2 0.5c-0.1 0.1-0.2 0.2-0.4 0.2h-0.1zm18.8-0.9c-0.1-0.2 0-0.4 0.2-0.5s0.4 0 0.5 0.2 0 0.4-0.2 0.5h-0.2c-0.1 0-0.2-0.1-0.3-0.2zm-18.3-0.4c-0.2-0.1-0.2-0.3-0.2-0.5 0.1-0.2 0.3-0.3 0.5-0.2s0.2 0.3 0.2 0.5c-0.1 0.1-0.2 0.2-0.3 0.2h-0.2zm17.7-0.8c-0.1-0.2-0.1-0.4 0.1-0.5s0.4-0.1 0.5 0.1 0.1 0.4-0.1 0.5c-0.1 0-0.1 0.1-0.2 0-0.1 0-0.3-0.1-0.3-0.1zm-16.9-0.5c-0.2-0.1-0.2-0.3-0.1-0.5s0.4-0.2 0.5-0.1c0.2 0.1 0.2 0.4 0.1 0.5s-0.2 0.1-0.3 0.1c-0.1 0.1-0.1 0-0.2 0zm16.1-0.7c-0.1-0.1-0.1-0.4 0-0.5s0.4-0.1 0.5 0 0.1 0.4 0 0.5-0.2 0.1-0.2 0.1c-0.1 0-0.2 0-0.3-0.1zm-15.2-0.4c-0.1-0.1-0.1-0.4 0-0.5s0.4-0.1 0.5 0 0.1 0.4 0 0.5-0.2 0.1-0.3 0.1-0.2 0-0.2-0.1zm14.3-0.6c-0.1-0.2-0.1-0.4 0-0.5s0.4-0.1 0.5 0 0.1 0.4 0 0.5-0.2 0.1-0.3 0.1c-0.1 0.1-0.2 0-0.2-0.1zm-13.3-0.4c-0.1-0.1-0.1-0.4 0-0.5 0.2-0.1 0.4-0.1 0.5 0.1s0.1 0.4 0 0.5c-0.1 0-0.1 0.1-0.2 0.1-0.1-0.1-0.3-0.1-0.3-0.2zm12.1-0.4c-0.2-0.1-0.2-0.3-0.1-0.5s0.3-0.2 0.5-0.1 0.2 0.3 0.1 0.5c-0.1 0.1-0.2 0.2-0.3 0.2-0.1-0.1-0.1-0.1-0.2-0.1zm-11-0.5c-0.1-0.2 0-0.4 0.1-0.5 0.2-0.1 0.4 0 0.5 0.1 0.1 0.2 0 0.4-0.1 0.5-0.1 0-0.1 0.1-0.2 0-0.1 0.1-0.2 0-0.3-0.1zm9.8-0.2c-0.2-0.1-0.3-0.3-0.2-0.5s0.3-0.3 0.5-0.2 0.3 0.3 0.2 0.5c-0.1 0.1-0.2 0.2-0.3 0.2h-0.2zm-8.5-0.5c-0.1-0.2 0-0.4 0.2-0.5s0.4 0 0.5 0.2 0 0.4-0.2 0.5h-0.1c-0.2 0-0.4 0-0.4-0.2zm7.2 0c-0.2-0.1-0.3-0.3-0.2-0.5s0.3-0.3 0.5-0.2 0.3 0.3 0.2 0.4c0 0.2-0.2 0.3-0.3 0.3h-0.2zm-5.9-0.5c-0.1-0.2 0.1-0.4 0.3-0.5s0.4 0.1 0.5 0.3-0.1 0.4-0.3 0.5h-0.1c-0.2 0-0.3-0.1-0.4-0.3zm4.6 0.2c-0.2 0-0.3-0.2-0.3-0.4s0.2-0.3 0.4-0.3 0.3 0.2 0.3 0.4c0 0.1-0.2 0.3-0.4 0.3zm-3.2-0.5c0-0.2 0.1-0.4 0.3-0.4s0.4 0.1 0.4 0.3-0.1 0.4-0.3 0.4c-0.2 0.1-0.4-0.1-0.4-0.3zm1.8 0.3c-0.2 0-0.4-0.2-0.4-0.4s0.2-0.4 0.4-0.4 0.4 0.2 0.4 0.4c0 0.3-0.2 0.4-0.4 0.4z"></path><path class="st0" d="m15.6 13.3c0-0.2 0.2-0.4 0.4-0.3 0.2 0 0.4 0.2 0.4 0.4s-0.2 0.4-0.4 0.4c-0.2-0.1-0.4-0.2-0.4-0.5v0zm-1.4 0c0-0.2 0.1-0.4 0.3-0.4s0.4 0.2 0.4 0.4-0.2 0.4-0.4 0.4c-0.1 0-0.3-0.2-0.3-0.4zm-1.4 0c0-0.2 0.2-0.4 0.4-0.4s0.4 0.2 0.4 0.4-0.2 0.4-0.4 0.4-0.4-0.2-0.4-0.4zm-1.4 0c0-0.2 0.2-0.4 0.4-0.4s0.4 0.2 0.4 0.4-0.2 0.4-0.4 0.4-0.4-0.2-0.4-0.4zm-1.4 0c0-0.2 0.2-0.3 0.4-0.3s0.4 0.2 0.4 0.4-0.2 0.4-0.4 0.4c-0.2-0.1-0.4-0.2-0.4-0.5v0zm-1.4 0c0.1-0.1 0.2-0.3 0.4-0.3s0.4 0.1 0.4 0.3-0.2 0.3-0.4 0.3c-0.2 0.1-0.4-0.1-0.4-0.3zm1.2-0.5c-0.1-0.2-0.1-0.4 0.1-0.5s0.4-0.1 0.5 0.1 0.1 0.4-0.1 0.5c-0.1 0-0.1 0.1-0.2 0.1-0.1-0.1-0.2-0.1-0.3-0.2zm1.2-0.8c-0.1-0.2-0.1-0.4 0.1-0.5s0.4-0.1 0.5 0.1 0.1 0.4-0.1 0.5c-0.1 0-0.1 0.1-0.2 0.1s-0.2-0.1-0.3-0.2zm1.2-0.8c-0.1-0.2-0.1-0.4 0.1-0.5s0.4-0.1 0.5 0.1 0.1 0.4-0.1 0.5c-0.1 0-0.1 0.1-0.2 0.1-0.2 0-0.3-0.1-0.3-0.2zm1.1-0.7c-0.1-0.2-0.1-0.4 0.1-0.5s0.4-0.1 0.5 0.1 0.1 0.4-0.1 0.5c-0.1 0-0.1 0.1-0.2 0.1-0.1-0.1-0.2-0.1-0.3-0.2zm1.2-0.8c-0.1-0.1-0.1-0.4 0-0.5s0.4-0.1 0.5 0 0.1 0.4 0 0.5-0.2 0.1-0.2 0.1c-0.1 0-0.2 0-0.3-0.1zm0.8-1.1c-0.2-0.1-0.3-0.3-0.2-0.5 0.1-0.1 0.3-0.2 0.5-0.1s0.3 0.3 0.2 0.5c-0.1 0.1-0.2 0.2-0.3 0.2s-0.1 0-0.2-0.1zm0.4-1.3c-0.2 0-0.3-0.2-0.3-0.4s0.2-0.3 0.4-0.3 0.3 0.2 0.3 0.4-0.2 0.3-0.4 0.3zm-0.5-1.6c-0.1-0.2 0-0.4 0.2-0.5s0.4 0 0.5 0.2 0 0.4-0.2 0.5h-0.1c-0.2 0-0.3 0-0.4-0.2zm-4.7-0.1c-0.1-0.1-0.1-0.4 0-0.5 0.2-0.1 0.4-0.1 0.5 0s0.1 0.4 0 0.5-0.2 0.1-0.2 0.1c-0.1 0-0.2 0-0.3-0.1zm1.1-0.8c-0.1-0.2 0-0.4 0.2-0.5s0.4 0 0.5 0.2 0 0.4-0.2 0.5h-0.1c-0.2 0-0.3-0.1-0.4-0.2zm2.9 0.1c-0.2-0.1-0.3-0.3-0.2-0.5s0.3-0.2 0.5-0.2c0.2 0.2 0.2 0.4 0.2 0.5-0.1 0.1-0.2 0.2-0.3 0.2-0.1 0.1-0.2 0.1-0.2 0zm-1.6-0.6c0-0.2 0.2-0.4 0.4-0.4s0.4 0.2 0.4 0.4-0.2 0.4-0.4 0.4-0.4-0.2-0.4-0.4z"></path><path class="st0" d="m24.2 13.6c0-0.2 0.2-0.3 0.4-0.3h0.2c0.2 0 0.3 0.1 0.3 0.3s-0.1 0.3-0.3 0.4h-0.2c-0.2 0-0.4-0.2-0.4-0.4zm-1 0.2c-0.2-0.1-0.3-0.2-0.2-0.4 0-0.2 0.2-0.3 0.4-0.2 0.2 0 0.3 0.2 0.2 0.4 0 0.1-0.2 0.3-0.3 0.2h-0.1zm2.6-0.3c-0.1-0.2 0-0.4 0.2-0.4 0.2-0.1 0.4 0 0.4 0.2 0.1 0.2 0 0.4-0.2 0.4h-0.1c-0.2 0-0.3-0.1-0.3-0.2zm-3.9-0.4c-0.1-0.1-0.2-0.3-0.1-0.5s0.3-0.2 0.5-0.1c0.1 0.1 0.2 0.3 0.1 0.5-0.1 0.1-0.2 0.1-0.3 0.1-0.1 0.1-0.1 0.1-0.2 0zm5.1-0.2c-0.1-0.1-0.1-0.3 0-0.5 0.1-0.1 0.3-0.1 0.5 0 0.1 0.1 0.1 0.4 0 0.5s-0.2 0.1-0.2 0.1c-0.1 0-0.2 0-0.3-0.1zm-6-0.8c-0.1-0.1-0.1-0.4 0.1-0.5 0.1-0.1 0.4-0.1 0.5 0.1s0.1 0.4-0.1 0.5c-0.1 0-0.1 0.1-0.2 0.1-0.2 0-0.3-0.1-0.3-0.2zm7-0.1c-0.2-0.1-0.2-0.3-0.1-0.5s0.3-0.2 0.5-0.1 0.2 0.3 0.1 0.4-0.2 0.2-0.3 0.2-0.2 0-0.3-0.1l0.1 0.1zm-7.5-1.2c-0.1-0.2 0-0.4 0.2-0.4 0.2-0.1 0.4 0 0.4 0.2 0.1 0.2 0 0.4-0.2 0.4h-0.1c-0.2 0.1-0.4 0-0.4-0.2h0.1zm8.1 0c-0.2 0-0.3-0.2-0.2-0.4 0-0.2 0.2-0.3 0.4-0.2 0.2 0 0.3 0.2 0.2 0.4 0 0.1-0.2 0.2-0.4 0.2zm-8.5-1.4c0-0.2 0.1-0.4 0.3-0.4s0.4 0.1 0.4 0.3-0.1 0.3-0.3 0.4c-0.2 0-0.4-0.1-0.4-0.3zm8.7 0.1c-0.2 0-0.3-0.2-0.3-0.4s0.2-0.3 0.3-0.3c0.2 0 0.3 0.2 0.3 0.4s-0.1 0.3-0.3 0.3zm-8.3-1.1c-0.2 0-0.3-0.2-0.3-0.4s0.2-0.3 0.4-0.3 0.3 0.2 0.3 0.4c-0.1 0.2-0.2 0.3-0.4 0.3zm7.8-0.4c0-0.2 0.1-0.4 0.3-0.4s0.4 0.1 0.4 0.3-0.1 0.4-0.3 0.4h-0.1c-0.1 0-0.2-0.1-0.3-0.3zm-7.6-0.8c-0.2-0.1-0.2-0.3-0.2-0.5 0.1-0.2 0.2-0.3 0.4-0.2s0.3 0.3 0.2 0.5c-0.1 0.1-0.2 0.2-0.3 0.2h-0.1zm7.3-0.4c-0.1-0.2 0-0.4 0.2-0.5s0.4 0 0.5 0.1c0.1 0.2 0 0.4-0.2 0.5h-0.1c-0.2 0-0.3 0-0.4-0.1zm-6.6-0.9c-0.1-0.1-0.1-0.4 0-0.5s0.3-0.1 0.5 0c0.1 0.1 0.1 0.3 0 0.5-0.1 0.1-0.2 0.1-0.3 0.1-0.1 0.1-0.2 0-0.2-0.1zm5.9-0.1c-0.1-0.1-0.1-0.4 0-0.5s0.4-0.1 0.5 0 0.1 0.4 0 0.5-0.2 0.1-0.2 0.1c-0.1 0-0.3 0-0.3-0.1zm-5-0.8c-0.1-0.2 0-0.4 0.1-0.5 0.2-0.1 0.4 0 0.5 0.1 0.1 0.2 0 0.4-0.1 0.5h-0.2c-0.1 0.1-0.2 0-0.3-0.1zm4 0.1c-0.2-0.1-0.3-0.3-0.2-0.4 0.1-0.2 0.3-0.2 0.5-0.2 0.2 0.1 0.2 0.3 0.2 0.5-0.1 0.1-0.2 0.2-0.3 0.2-0.1-0.1-0.2-0.1-0.2-0.1zm-2.8-0.6c0-0.2 0.1-0.4 0.3-0.4s0.4 0.1 0.4 0.3-0.1 0.4-0.3 0.4h-0.1c-0.1 0-0.3-0.1-0.3-0.3zm1.6 0.3c-0.2 0-0.3-0.2-0.3-0.4s0.2-0.3 0.4-0.3 0.3 0.2 0.3 0.4c0 0.1-0.1 0.3-0.4 0.3z"></path><path class="st0" d="m34.7 12.8c0-0.2 0.2-0.4 0.4-0.4s0.4 0.2 0.4 0.4-0.2 0.4-0.4 0.4-0.4-0.2-0.4-0.4zm0-1.4c0-0.2 0.2-0.4 0.4-0.4s0.4 0.2 0.4 0.4-0.2 0.4-0.4 0.4-0.4-0.1-0.4-0.4zm0-1.3c0-0.2 0.2-0.4 0.4-0.4s0.4 0.2 0.4 0.4-0.2 0.4-0.4 0.4c-0.2-0.1-0.4-0.2-0.4-0.4zm0-1.4c0-0.2 0.2-0.4 0.4-0.4s0.4 0.2 0.4 0.4-0.2 0.4-0.4 0.4c-0.2-0.1-0.4-0.2-0.4-0.4zm0-1.4c0-0.2 0.2-0.4 0.4-0.4s0.4 0.2 0.4 0.4-0.2 0.4-0.4 0.4-0.4-0.2-0.4-0.4zm0-1.4c0-0.2 0.2-0.4 0.4-0.4s0.4 0.2 0.4 0.4-0.2 0.4-0.4 0.4-0.4-0.2-0.4-0.4zm-2.7-0.7c0-0.2 0.1-0.4 0.3-0.4s0.4 0.1 0.4 0.3-0.1 0.4-0.3 0.4h-0.1c-0.1 0-0.3-0.1-0.3-0.3zm1.4-0.3c0-0.2 0.1-0.4 0.3-0.4s0.4 0.1 0.4 0.3-0.1 0.4-0.3 0.4h-0.1c-0.2 0-0.3-0.1-0.3-0.3zm1.3-0.3c0-0.2 0.1-0.4 0.3-0.4s0.4 0.1 0.4 0.3-0.1 0.4-0.3 0.4h-0.1c-0.1 0-0.3-0.1-0.3-0.3z"></path></g></svg>