<svg enable-background="new 0 0 131.6 140.3" version="1.1" viewBox="0 0 192 192" xml:space="preserve" xmlns="http://www.w3.org/2000/svg" width="192" height="192"><g transform="rotate(0 3.14 2.18) translate(27.486066019209417 23.425010658971345) scale(1.048014286513049)"><style type="text/css"> .st0{fill:url(#f);} .st1{fill:#A71C20;} .st2{fill:url(#e);} .st3{fill:url(#d);} .st4{fill:url(#c);} .st5{fill:#CEC3BA;} .st6{fill:url(#b);} .st7{fill:url(#a);} </style><linearGradient id="f" x1="16.29" x2="109.2" y1="85.65" y2="85.65" gradientTransform="matrix(1 0 0 -1 0 142)" gradientUnits="userSpaceOnUse"><stop stop-color="#EC2224" offset=".17"></stop><stop stop-color="#D22024" offset=".35"></stop><stop stop-color="#A71C20" offset=".55"></stop><stop stop-color="#9B1E20" offset=".75"></stop><stop stop-color="#86231F" offset="1"></stop></linearGradient><path class="st0" d="m17.6 36.3c-6.3 18.1 12.1 16.9 12.1 16.9-1.3-3.1 3.7-23.2 10-23.9s6.7 0.2 6.7 0.2c-0.3-0.5-3.1 5.3-1.3 8.4 5.6 9.6-1.5 11.4-1.5 11.4s-29.5 19.1-24.2 45.1c0 0 60.9 37.9 85.1-1.4 15.9-25.9-11.8-76.3-26.5-83.1-8.4-3.9-9.9-4.3-13.7-5.4-5.8-1.6-6.4-0.8-8.8-1.7-9.6-3.7-14.6 4.8-17.5 7.1-6.4 5.3-14.3 9.1-20.4 26.4z"></path><path class="st1" d="m74.2 17.9s-2.5-3.5-13 3.3c0 0-3.5 1.9-7.7 3.8s-9 3.8-11.7 3.7c-0.3 0-0.6 0.1-0.8 0.4 4.5-0.3 4.8 0.4 4.8 0.4-0.2-0.4-2.3 3.6-1.8 6.7 1.8-0.1 3.4-1 4.4-2.4 1.5-2.6 10.1-8 16.3-6.1 3.1 0.9 6.4-0.9 8.5-3.2s2.9-5.3 1-6.6z"></path><path class="st1" d="m74.2 17.9c-0.1 0-2.5-3.3-13 3.4 0 0-2.7 1.4-6.1 3-0.5 0.2-1 0.5-1.5 0.7-4.1 1.9-8.9 3.7-11.7 3.7-0.3 0-0.6 0.1-0.8 0.4 4.4-0.3 4.7 0.5 4.7 0.5-0.1-0.2-1 1.3-1.5 3.3-0.3 1.1-0.4 2.3-0.3 3.4 0.9-0.1 1.8-0.4 2.6-0.8 0.7-0.4 1.4-0.9 1.8-1.6 1.1-1.9 6.2-5.4 11.3-6.2 1.7-0.3 3.4-0.3 5.1 0.2 2.7 0.8 5.6-0.5 7.7-2.5 0.3-0.3 0.6-0.6 0.8-0.9 2-2.3 2.9-5.3 0.9-6.6z"></path><path class="st1" d="m74.2 18c-0.2 0-2.6-3.2-12.9 3.5-0.1 0-2.7 1.4-6.1 3-0.5 0.2-1 0.5-1.5 0.7-4.1 1.8-8.9 3.6-11.7 3.6-0.3 0-0.6 0.1-0.8 0.4 4.3-0.3 4.6 0.5 4.6 0.5-0.1-0.2-1 1.3-1.5 3.2-0.3 1.1-0.4 2.3-0.2 3.4 0.9-0.1 1.8-0.4 2.6-0.8 0.7-0.4 1.3-0.9 1.8-1.6 1.1-2 6.2-5.4 11.3-6.1 1.7-0.3 3.4-0.2 5.1 0.1 2.7 0.7 5.6-0.6 7.6-2.5 0.3-0.3 0.6-0.5 0.8-0.8 2-2.4 2.9-5.4 0.9-6.6z"></path><path class="st1" d="m74.3 18c-0.2 0.1-2.6-3-12.9 3.6-0.1 0-2.7 1.4-6.1 3l-1.5 0.7c-4.1 1.8-8.8 3.5-11.7 3.6-0.3 0-0.6 0.2-0.8 0.4 4.2-0.3 4.5 0.5 4.5 0.6-0.1-0.2-1 1.3-1.4 3.2-0.3 1.1-0.4 2.2-0.2 3.4 0.9-0.1 1.8-0.4 2.6-0.9 0.7-0.4 1.3-0.9 1.8-1.6 1.2-2 6.2-5.4 11.3-6.1 1.7-0.3 3.4-0.2 5.1 0.1 2.7 0.7 5.6-0.6 7.6-2.6 0.3-0.3 0.6-0.5 0.8-0.8 1.9-2.4 2.8-5.4 0.9-6.6z"></path><path class="st1" d="m74.3 18.1c-0.3 0.1-2.6-2.8-12.8 3.7-0.1 0-2.7 1.4-6.1 3l-1.5 0.7c-4 1.7-8.7 3.4-11.7 3.5-0.3 0-0.6 0.2-0.8 0.4 4.1-0.2 4.4 0.6 4.4 0.7-0.1-0.2-1 1.3-1.4 3.2-0.3 1.1-0.3 2.2-0.2 3.4 0.9-0.1 1.8-0.4 2.6-0.9 0.7-0.4 1.3-1 1.8-1.7 1.2-2 6.2-5.3 11.3-6 1.7-0.3 3.4-0.2 5.1 0.1 2.7 0.6 5.5-0.7 7.6-2.6 0.3-0.3 0.6-0.6 0.8-0.9 1.9-2.5 2.8-5.4 0.9-6.6z"></path><path class="st1" d="m74.3 18.1c-0.4 0.1-2.6-2.7-12.8 3.7-0.2 0.1-2.8 1.5-6.1 3l-1.5 0.7c-4 1.7-8.7 3.4-11.7 3.5-0.3 0-0.6 0.2-0.8 0.4 4-0.2 4.3 0.6 4.3 0.7-0.1-0.1-1 1.4-1.3 3.2-0.3 1.1-0.3 2.2-0.2 3.3 0.9-0.1 1.8-0.4 2.6-0.9 0.7-0.4 1.3-1 1.8-1.7 1.2-2 6.2-5.3 11.3-6 1.7-0.3 3.4-0.2 5.1 0.1 2.7 0.6 5.5-0.7 7.6-2.7 0.3-0.3 0.6-0.5 0.8-0.8 2-2.4 2.8-5.3 0.9-6.5z"></path><path class="st1" d="m74.3 18.2c-0.4 0.1-2.7-2.5-12.8 3.8-0.2 0.1-2.8 1.4-6.1 2.9-0.5 0.2-1 0.4-1.5 0.7-4 1.7-8.6 3.3-11.7 3.5-0.3 0-0.6 0.2-0.8 0.4 4-0.2 4.2 0.6 4.2 0.8-0.1-0.1-0.9 1.4-1.3 3.2-0.2 1.1-0.3 2.2-0.2 3.3 0.9-0.2 1.8-0.5 2.5-0.9s1.3-1 1.8-1.7c1.2-2 6.2-5.3 11.3-5.9 1.7-0.2 3.3-0.2 5 0.1 2.7 0.6 5.5-0.8 7.5-2.7 0.3-0.3 0.6-0.6 0.8-0.9 2.4-2.6 3.2-5.5 1.3-6.6z"></path><path class="st1" d="m74.3 18.2c-0.5 0.1-2.7-2.4-12.7 3.9-0.2 0.1-2.8 1.5-6.1 2.9l-1.5 0.6c-4 1.6-8.5 3.2-11.7 3.4-0.3 0-0.6 0.2-0.8 0.4 3.9-0.2 4.1 0.7 4.1 0.8-0.7 0.9-1.1 2-1.3 3.2-0.2 1.1-0.3 2.2-0.1 3.3 0.9-0.2 1.8-0.5 2.5-1 0.7-0.4 1.3-1 1.7-1.7 1.2-2 6.2-5.3 11.3-5.9 1.7-0.2 3.3-0.2 5 0 2.7 0.5 5.5-0.8 7.5-2.8 0.3-0.3 0.6-0.6 0.8-0.9 2.4-2.2 3.3-5.1 1.3-6.2z"></path><path class="st1" d="m74.3 18.3c-0.6 0.2-2.7-2.2-12.7 4-0.3 0.1-2.8 1.4-6.1 2.9l-1.5 0.6c-4 1.6-8.5 3.1-11.7 3.4-0.3 0-0.6 0.2-0.7 0.4 3.8-0.1 4 0.7 4 0.9-0.7 0.9-1.1 2-1.2 3.1-0.2 1.1-0.3 2.2-0.1 3.2 0.9-0.2 1.8-0.5 2.5-1 0.7-0.4 1.3-1 1.7-1.7 1.3-2 6.2-5.3 11.3-5.8 1.7-0.2 3.3-0.2 5 0 2.7 0.5 5.5-0.9 7.5-2.9 0.3-0.3 0.6-0.5 0.8-0.8 2.3-2.4 3.2-5.3 1.2-6.3z"></path><path class="st1" d="m74.3 18.3c-0.7 0.2-2.7-2-12.6 4.1-0.3 0.1-2.8 1.5-6.1 2.9l-1.6 0.6c-3.9 1.5-8.4 3-11.7 3.3-0.3 0-0.5 0.2-0.7 0.4 3.7-0.1 3.9 0.7 3.9 0.9-0.6 0.9-1 2-1.2 3.1s-0.2 2.2-0.1 3.2c0.9-0.2 1.8-0.5 2.5-1 0.7-0.4 1.3-1 1.7-1.7 1.3-2 6.2-5.3 11.4-5.8 1.7-0.2 3.3-0.2 5 0 2.7 0.4 5.4-1 7.5-2.9 0.3-0.3 0.6-0.6 0.8-0.9 2.3-2.3 3.2-5.2 1.2-6.2z"></path><path class="st1" d="m74.3 18.4c-0.8 0.2-2.7-1.9-12.6 4.2-0.3 0.1-2.8 1.4-6.1 2.9l-1.5 0.6c-3.7 1.6-7.7 2.7-11.7 3.3-0.3 0-0.5 0.2-0.7 0.4 3.6-0.1 3.8 0.8 3.8 1-0.6 0.9-1 2-1.1 3.1-0.2 1.1-0.2 2.1 0 3.2 0.9-0.2 1.7-0.5 2.5-1 0.7-0.4 1.3-1 1.7-1.7 1.3-2.1 6.2-5.3 11.4-5.7 1.7-0.2 3.3-0.2 5 0 2.6 0.4 5.4-1 7.4-3 0.3-0.3 0.6-0.6 0.8-0.9 2.2-2.6 3.1-5.5 1.1-6.4z"></path><path class="st1" d="m74.3 18.4c-0.8 0.2-2.8-1.7-12.5 4.3-0.3 0.1-2.9 1.5-6.1 2.8l-1.5 0.6c-3.7 1.5-7.7 2.6-11.7 3.2-0.3 0-0.5 0.2-0.7 0.4 3.5 0 3.7 0.8 3.7 1-0.6 0.9-1 2-1.1 3.1-0.2 1-0.2 2.1 0 3.2 0.9-0.2 1.7-0.5 2.5-1 0.7-0.4 1.3-1 1.7-1.7 1.3-2.1 6.2-5.3 11.4-5.6 1.7-0.2 3.3-0.2 5 0 2.6 0.4 5.4-1 7.4-3 0.3-0.3 0.6-0.6 0.8-0.9 2.2-2.5 3.1-5.5 1.1-6.4z"></path><path class="st1" d="m74.3 18.5c-0.9 0.3-2.8-1.5-12.5 4.4-0.4 0.2-2.9 1.4-6.1 2.8l-1.5 0.6c-3.8 1.5-7.7 2.5-11.7 3.2-0.3 0-0.5 0.2-0.7 0.4 3.4 0 3.6 0.8 3.6 1.1-0.6 0.9-0.9 2-1 3.1-0.2 1-0.2 2.1 0 3.1 0.9-0.2 1.7-0.5 2.5-1 0.7-0.5 1.2-1 1.7-1.7 1.4-2.1 6.2-5.3 11.4-5.6 1.7-0.1 3.3-0.1 5 0 2.6 0.3 5.4-1.1 7.4-3.1 0.3-0.3 0.6-0.6 0.8-0.9 2.2-2.6 3.1-5.6 1.1-6.4z"></path><path class="st1" d="m74.4 18.5c-1 0.3-2.8-1.4-12.5 4.5-0.4 0.2-2.9 1.5-6.1 2.8l-1.5 0.6c-3.8 1.5-7.7 2.5-11.6 3.1-0.3 0-0.5 0.2-0.7 0.4 3.3 0 3.5 0.9 3.5 1.2-0.6 0.9-0.9 2-1 3.1-0.2 1-0.2 2.1 0 3.1 0.9-0.2 1.7-0.6 2.5-1.1 0.7-0.5 1.2-1 1.7-1.7 1.4-2.1 6.3-5.3 11.4-5.5 1.7-0.1 3.3-0.2 5-0.1 2.6 0.3 5.4-1.2 7.4-3.1 0.3-0.3 0.6-0.6 0.8-0.9 2.1-2.6 3.1-5.6 1.1-6.4z"></path><path class="st1" d="m74.4 18.5c-1 0.3-2.8-1.2-12.4 4.5-0.5 0.2-2.9 1.4-6.1 2.8l-1.5 0.6c-3.8 1.4-7.7 2.4-11.7 3.1-0.3 0.1-0.5 0.2-0.7 0.4 3.2 0 3.4 0.9 3.4 1.2-0.5 0.9-0.9 2-1 3.1-0.1 1-0.1 2.1 0.1 3.1 0.9-0.2 1.7-0.6 2.5-1.1 0.7-0.5 1.2-1 1.7-1.7 1.3-2.1 6.1-5.3 11.3-5.5 1.7-0.1 3.3-0.2 5-0.1 2.6 0.2 5.3-1.2 7.4-3.2 0.3-0.3 0.6-0.6 0.8-0.9 2.2-2.5 3.2-5.5 1.2-6.3z"></path><path class="st1" d="m74.4 18.6c-1.1 0.3-2.8-1.1-12.3 4.6-0.5 0.2-2.9 1.5-6.1 2.8l-1.5 0.6c-3.8 1.4-7.7 2.4-11.6 3-0.3 0.1-0.5 0.2-0.7 0.4 3.1 0 3.3 0.9 3.3 1.3-0.5 0.9-0.8 1.9-0.9 3-0.1 1-0.1 2 0.1 3 0.9-0.2 1.7-0.6 2.4-1.1s1.2-1.1 1.7-1.7c1.4-2.1 6.2-5.2 11.4-5.4 1.7-0.1 3.3-0.2 5-0.1 2.6 0.2 5.3-1.3 7.3-3.2 0.3-0.3 0.6-0.6 0.8-0.9 2.1-2.6 3.1-5.6 1.1-6.3z"></path><path class="st1" d="m74.4 18.6c-1.2 0.3-2.9-0.9-12.3 4.7-0.5 0.2-3 1.4-6.1 2.7l-1.5 0.6c-3.8 1.4-7.7 2.4-11.6 3-0.3 0.1-0.5 0.2-0.6 0.4 3 0.1 3.2 1 3.2 1.3-0.5 0.9-0.8 2-0.9 3s-0.1 2 0.1 3c0.9-0.2 1.7-0.6 2.4-1.1 0.6-0.5 1.2-1.1 1.7-1.7 1.5-2.1 6.2-5.2 11.4-5.4 1.7 0 3.4-0.2 5-0.1 2.6 0.1 5.3-1.3 7.3-3.3 0.3-0.3 0.6-0.6 0.8-0.9 2.2-2.5 3.1-5.4 1.1-6.2z"></path><path class="st1" d="m74.4 18.7c-1.3 0.4-2.9-0.8-12.3 4.8-0.5 0.2-3 1.5-6.1 2.7-0.5 0.2-1 0.4-1.5 0.5-3.8 1.3-7.7 2.3-11.6 2.9-0.3 0.1-0.5 0.2-0.6 0.5 2.9 0.1 3 1 3 1.4-0.5 0.9-0.8 2-0.8 3-0.1 1 0 2 0.2 3 0.9-0.2 1.7-0.6 2.5-1.1 0.6-0.5 1.2-1.1 1.7-1.7 1.5-2.2 6.2-5.2 11.5-5.3 1.7 0 3.4-0.2 5-0.1 2.6 0.1 5.3-1.4 7.3-3.3 0.3-0.3 0.6-0.6 0.8-0.9 2-2.8 2.9-5.7 0.9-6.4z"></path><path class="st1" d="m74.4 18.7c-1.3 0.4-2.9-0.6-12.2 4.9-0.6 0.2-3 1.4-6.1 2.7-0.5 0.2-1 0.4-1.5 0.5-3.8 1.3-7.7 2.2-11.7 2.9-0.2 0.1-0.5 0.2-0.6 0.5 2.8 0.1 2.9 1 2.9 1.4-0.4 0.9-0.7 2-0.8 3s0 2 0.2 3c0.9-0.2 1.7-0.6 2.4-1.2 0.6-0.5 1.2-1.1 1.7-1.7 1.5-2.2 6.2-5.1 11.5-5.2 1.7-0.1 3.4-0.2 5-0.2 2.6 0.1 5.3-1.4 7.3-3.4 0.3-0.3 0.5-0.6 0.8-0.9 2.2-2.7 3.2-5.6 1.1-6.3z"></path><path class="st1" d="m74.4 18.8c-1.4 0.4-2.9-0.4-12.2 5-0.6 0.3-3 1.5-6.1 2.7-0.5 0.2-1 0.4-1.5 0.5-3.8 1.2-7.7 2.2-11.6 2.8-0.2 0.1-0.5 0.2-0.6 0.5 2.7 0.1 2.8 1.1 2.8 1.5-0.4 0.9-0.7 2-0.8 3s0 2 0.2 3c0.9-0.3 1.7-0.7 2.4-1.3 0.6-0.5 1.2-1.1 1.7-1.7 1.5-2.2 6.3-5.1 11.5-5.2 1.7 0 3.4-0.3 5-0.2 2.6 0.1 5.2-1.5 7.2-3.5 0.3-0.3 0.6-0.6 0.8-0.9 2.3-2.7 3.3-5.6 1.2-6.2z"></path><path class="st1" d="m74.4 18.8c-1.5 0.4-3-0.3-12.1 5.1-0.6 0.3-3 1.4-6.1 2.6-0.5 0.2-1 0.4-1.5 0.5-3.8 1.2-7.7 2.1-11.6 2.8-0.2 0.1-0.4 0.2-0.6 0.5 2.6 0.2 2.7 1.1 2.7 1.5-0.4 0.9-0.6 1.9-0.7 3-0.1 1 0 2 0.2 2.9 0.9-0.2 1.6-0.6 2.3-1.2 0.6-0.5 1.2-1.1 1.6-1.8 1.5-2.2 6.3-5 11.5-5.1 1.6 0 3.4-0.3 5-0.2 2.6 0.1 5.2-1.5 7.2-3.5 0.3-0.3 0.6-0.6 0.8-0.9 2.4-2.7 3.4-5.6 1.3-6.2z"></path><path class="st1" d="m74.4 18.9c-1.6 0.5-3-0.1-12.1 5.2-0.7 0.3-3.1 1.5-6.1 2.6-0.5 0.2-1 0.4-1.5 0.5-3.8 1.2-7.7 2.1-11.7 2.7-0.2 0.1-0.4 0.2-0.6 0.5 2.5 0.2 2.6 1.1 2.6 1.6-0.4 0.9-0.6 1.9-0.7 2.9 0 1 0 1.9 0.3 2.9 0.9-0.2 1.7-0.7 2.4-1.2 0.6-0.5 1.2-1.1 1.6-1.8 1.6-2.2 6.3-5.2 11.5-5.1 1.6 0 3.4-0.3 5-0.2 2.6 0.1 5.2-1.6 7.2-3.5 0.3-0.3 0.6-0.6 0.8-0.9 2.4-2.7 3.4-5.7 1.3-6.2z"></path><path class="st1" d="m74.4 18.9c-1.7 0.5-3 0.1-12 5.2-0.7 0.3-3.1 1.4-6.1 2.6-0.5 0.2-1 0.4-1.5 0.5-3.8 1.1-7.7 2-11.7 2.7-0.2 0.1-0.4 0.3-0.6 0.5 2.4 0.2 2.5 1.2 2.5 1.6-0.3 1-0.5 2-0.6 3 0 1 0.1 1.9 0.3 2.9 0.9-0.2 1.7-0.7 2.4-1.2 0.6-0.5 1.2-1.1 1.6-1.8 1.6-2.2 6.3-5.2 11.5-5 1.6 0 3.4-0.2 5-0.2 2.8-0.3 5.3-1.6 7.2-3.6 0.3-0.3 0.6-0.6 0.8-0.9 2.3-2.8 3.3-5.8 1.2-6.3z"></path><path class="st1" d="m74.4 19c-1.7 0.5-3 0.2-12 5.3-0.7 0.3-3.1 1.5-6.1 2.6-0.5 0.2-1 0.3-1.5 0.5-3.8 1.1-7.7 1.9-11.6 2.6-0.2 0.1-0.4 0.3-0.5 0.5 2.3 0.2 2.4 1.2 2.4 1.7-0.3 0.9-0.5 1.9-0.6 2.9 0 1 0.1 1.9 0.3 2.8 0.9-0.2 1.7-0.7 2.3-1.3 0.6-0.5 1.2-1.1 1.6-1.7 1.6-2.2 6.3-5.2 11.5-5 1.6 0.1 3.3-0.2 5-0.2 2.7-0.3 5.3-1.6 7.1-3.7 0.3-0.3 0.5-0.6 0.8-0.9 2.4-2.7 3.5-5.7 1.3-6.1z"></path><path class="st1" d="m74.5 19c-1.8 0.5-3 0.4-11.9 5.4-0.8 0.3-3.1 1.4-6.1 2.6-0.5 0.2-1 0.3-1.5 0.5-3.5 1-7.4 1.8-11.6 2.6-0.2 0.1-0.4 0.3-0.5 0.5 2.2 0.3 2.3 1.2 2.3 1.8-0.3 0.9-0.5 1.9-0.5 2.9s0.1 1.9 0.3 2.8c0.9-0.3 1.7-0.7 2.3-1.3 0.6-0.5 1.1-1.1 1.6-1.7 1.6-2.3 6.3-5.2 11.5-5 1.7 0 3.3-0.1 5-0.3 2.7-0.4 5.2-1.7 7.1-3.7 0.3-0.3 0.6-0.6 0.8-0.9 2.2-2.8 3.3-5.8 1.2-6.2z"></path><path class="st1" d="m74.5 19.1c-1.9 0.5-3.1 0.5-11.9 5.5-0.8 0.4-3.1 1.5-6.1 2.5-0.5 0.2-1 0.3-1.5 0.5-3.5 1-7.4 1.7-11.6 2.5-0.2 0.1-0.4 0.3-0.5 0.5 2.2 0.3 2.2 1.3 2.2 1.8-0.3 0.9-0.5 1.9-0.5 2.9 0 0.9 0.1 1.9 0.4 2.8 0.9-0.3 1.6-0.7 2.3-1.3 0.6-0.5 1.1-1.1 1.6-1.8 1.7-2.2 6.3-5.2 11.5-4.9 1.7 0 3.3-0.1 5-0.3 2.7-0.4 5.2-1.7 7.1-3.8 0.3-0.3 0.6-0.6 0.8-0.9 2.2-2.7 3.3-5.7 1.2-6z"></path><path class="st1" d="m74.5 19.1c-2 0.6-3.1 0.7-11.8 5.6-0.8 0.4-3.2 1.4-6.2 2.5-0.5 0.2-1 0.3-1.5 0.5-3.4 1-7.3 1.6-11.6 2.5-0.2 0.1-0.4 0.3-0.5 0.5 2.1 0.3 2.1 1.3 2.1 1.9-0.3 0.9-0.5 1.9-0.5 2.9 0 0.9 0.2 1.9 0.4 2.8 0.9-0.3 1.6-0.7 2.3-1.3 0.6-0.6 1.1-1.2 1.6-1.8 1.7-2.3 6.3-5.2 11.5-4.8 1.7 0 3.3-0.1 5-0.3 2.7-0.5 5.2-1.8 7.1-3.8 0.3-0.3 0.5-0.6 0.8-0.9 2.4-3 3.4-6 1.3-6.3z"></path><path class="st1" d="m74.5 19.1c-2 0.6-3.1 0.9-11.8 5.7-0.9 0.4-3.2 1.4-6.1 2.5-0.5 0.2-1 0.3-1.5 0.5-3.4 0.9-7.2 1.5-11.6 2.4-0.2 0.1-0.4 0.3-0.5 0.5 2 0.4 2 1.3 2 1.9-0.3 0.9-0.4 1.9-0.4 2.8s0.2 1.8 0.4 2.7c0.9-0.3 1.6-0.7 2.3-1.3 0.6-0.6 1.1-1.1 1.6-1.8 2.9-3.3 7.2-5.1 11.6-4.8 1.7 0 3.3-0.1 5-0.3 2.7-0.5 5.2-1.9 7-3.9 0.3-0.3 0.6-0.6 0.8-0.9 2.3-2.7 3.3-5.7 1.2-6z"></path><path class="st1" d="m74.5 19.2c-2.1 0.6-3.1 1-11.8 5.8-0.9 0.4-3.2 1.4-6.1 2.5-0.5 0.2-1 0.3-1.5 0.5-3.4 0.9-7.2 1.4-11.6 2.4-0.2 0.1-0.4 0.3-0.5 0.5 1.9 0.4 1.9 1.4 1.9 2-0.3 0.9-0.4 1.9-0.4 2.8 0.1 0.9 0.2 1.8 0.4 2.7 0.9-0.3 1.6-0.7 2.3-1.3 0.6-0.6 1.1-1.2 1.6-1.8 2.9-3.3 7.2-5 11.6-4.7 1.7 0.1 3.3-0.1 5-0.4 2.7-0.5 5.1-1.9 7-4 0.3-0.3 0.5-0.6 0.8-0.9 2.4-2.9 3.4-5.9 1.3-6.1z"></path><path class="st1" d="m74.5 19.2c-2.2 0.6-3.2 1.2-11.7 5.9-0.9 0.4-3.2 1.4-6.2 2.5-0.5 0.2-1 0.3-1.5 0.4-3.3 0.9-7.1 1.3-11.6 2.3-0.2 0.1-0.4 0.3-0.5 0.5 1.8 0.4 1.8 1.4 1.8 2-0.2 0.9-0.4 1.9-0.3 2.8s0.2 1.8 0.5 2.7c0.8-0.3 1.6-0.7 2.3-1.3 0.6-0.6 1.1-1.2 1.6-1.8 2.9-3.3 7.2-5 11.6-4.6 1.7 0.1 3.4-0.1 5-0.4 2.7-0.6 5.1-2 7-4 0.3-0.3 0.5-0.6 0.8-0.9 2.3-2.9 3.4-5.9 1.2-6.1z"></path><path class="st1" d="m74.5 19.3c-2.2 0.6-3.2 1.4-11.7 6-1 0.4-3.2 1.4-6.1 2.4-0.5 0.2-1 0.3-1.5 0.4-3.3 0.8-7 1.3-11.6 2.3-0.2 0.1-0.3 0.3-0.5 0.5 1.7 0.4 1.7 1.4 1.7 2.1-0.2 0.9-0.3 1.9-0.3 2.8 0.1 0.9 0.2 1.8 0.5 2.7 0.9-0.3 1.6-0.8 2.3-1.5 0.6-0.6 1.1-1.2 1.6-1.8 2.9-3.3 7.2-5 11.6-4.6 1.7 0.1 3.4 0 5-0.4 2.7-0.6 5.1-2 7-4 0.3-0.3 0.5-0.6 0.8-0.9 2.3-2.9 3.4-5.8 1.2-6z"></path><path class="st1" d="m74.5 19.3c-2.3 0.7-3.2 1.5-11.6 6-1 0.4-3.2 1.4-6.2 2.4-0.5 0.2-1 0.3-1.5 0.4-3.3 0.8-7 1.2-11.6 2.2-0.2 0.1-0.3 0.3-0.5 0.5 1 0.2 1.7 1.1 1.6 2.2-0.2 0.9-0.3 1.8-0.3 2.8 0.1 0.9 0.3 1.8 0.6 2.6 0.9-0.3 1.6-0.8 2.3-1.4 0.5-0.5 1-1.2 1.6-1.8 2.9-3.3 7.2-5 11.6-4.5 1.7 0.1 3.4 0 5-0.4 2.7-0.6 5.1-2.1 7-4.1 0.3-0.3 0.5-0.6 0.8-0.9 2.3-2.9 3.4-5.8 1.2-6z"></path><path class="st1" d="m74.5 19.4c-2.4 0.7-3.2 1.7-11.6 6.1-1 0.5-3.3 1.4-6.2 2.4-0.5 0.2-1 0.3-1.5 0.4-3.3 0.8-6.9 1.1-11.6 2.2-0.2 0.1-0.3 0.3-0.4 0.5 1 0.2 1.6 1.2 1.5 2.2-0.2 0.9-0.3 1.8-0.2 2.8 0.1 0.9 0.3 1.7 0.5 2.6 0.8-0.3 1.6-0.8 2.2-1.4 0.5-0.5 1-1.2 1.6-1.8 2.9-3.3 7.2-5 11.6-4.5 1.7 0.1 3.4 0 5-0.4 2.7-0.7 5.1-2.1 6.9-4.2 0.3-0.3 0.5-0.6 0.8-0.9 2.5-2.9 3.6-5.9 1.4-6z"></path><path class="st1" d="m74.6 19.4c-2.5 0.7-3.2 1.8-11.5 6.2-1 0.5-3.3 1.4-6.2 2.4-0.5 0.2-1 0.3-1.5 0.4-3.2 0.7-6.8 1-11.6 2.1-0.2 0.1-0.3 0.3-0.4 0.5 1 0.3 1.5 1.3 1.4 2.3-0.2 0.9-0.3 1.8-0.2 2.7s0.3 1.7 0.5 2.6c0.8-0.3 1.6-0.8 2.2-1.5 0.5-0.5 1-1.2 1.5-1.8 2.9-3.3 7.3-5 11.6-4.4 1.7 0.1 3.4 0 5-0.5 2.7-0.7 5.1-2.2 6.9-4.2 0.3-0.3 0.5-0.6 0.8-0.9 2.5-2.8 3.6-5.8 1.5-5.9z"></path><path class="st1" d="m74.6 19.5c-2.6 0.7-3.3 2-11.5 6.3-2 0.9-4.1 1.7-6.2 2.4-0.5 0.2-1 0.3-1.5 0.4-3.2 0.7-6.8 0.9-11.6 2.1-0.2 0.1-0.3 0.3-0.4 0.5 0.9 0.4 1.4 1.3 1.2 2.3-0.2 0.9-0.2 1.8-0.1 2.7s0.4 1.7 0.6 2.5c0.8-0.3 1.6-0.8 2.2-1.5 0.5-0.5 1-1.2 1.5-1.8 2.9-3.3 7.3-5 11.7-4.4 1.7 0.1 3.4 0 5-0.5 2.6-0.8 5-2.2 6.9-4.3 0.3-0.3 0.5-0.6 0.8-0.9 2.4-2.8 3.5-5.8 1.4-5.8z"></path><path class="st1" d="m74.6 19.5c-2.6 0.8-3.3 2.2-11.5 6.4-1.1 0.5-3.3 1.4-6.2 2.3-0.5 0.2-1 0.3-1.5 0.4-3.2 0.7-6.7 0.8-11.6 2-0.2 0.1-0.3 0.3-0.4 0.5 0.9 0.4 1.3 1.4 1.1 2.4-0.2 0.9-0.2 1.8-0.1 2.7 0.2 0.8 0.4 1.7 0.6 2.5 0.8-0.3 1.6-0.8 2.2-1.5 0.5-0.5 1-1.2 1.5-1.8 2.9-3.3 7.3-4.9 11.7-4.3 1.7 0.2 3.4 0 5-0.5 2.6-0.8 5-2.3 6.9-4.3 0.3-0.3 0.5-0.6 0.8-0.9 2.5-2.9 3.7-5.9 1.5-5.9z"></path><path class="st1" d="m74.6 19.6c-2.7 0.8-3.3 2.3-11.4 6.5-2 0.9-4.1 1.7-6.2 2.3-0.5 0.2-1 0.3-1.5 0.4-3.1 0.6-6.6 0.8-11.6 2-0.2 0.2-0.3 0.3-0.4 0.5 0.8 0.5 1.2 1.5 1 2.4-0.1 0.9-0.2 1.8 0 2.7 0.2 0.8 0.4 1.7 0.7 2.5 0.8-0.3 1.6-0.8 2.2-1.5 0.5-0.5 1-1.2 1.5-1.8 2.9-3.3 7.3-4.9 11.7-4.3 1.7 0.2 3.4 0 5-0.5 2.6-0.8 5-2.3 6.8-4.4 0.3-0.3 0.5-0.6 0.8-0.9 2.4-3 3.6-6 1.4-5.9z"></path><path class="st1" d="m74.6 19.6c-2.8 0.8-3.3 2.5-11.4 6.6-2 0.9-4.1 1.6-6.2 2.3-0.5 0.1-1 0.3-1.5 0.4-3.1 0.6-6.6 0.7-11.6 2-0.2 0.2-0.3 0.3-0.4 0.5 1 0.6 0.9 1.7 0.9 2.5-0.1 0.9-0.1 1.8 0 2.7 0.2 0.8 0.4 1.6 0.7 2.5 0.8-0.3 1.6-0.9 2.2-1.5l1.5-1.8c2.9-3.3 7.3-4.9 11.7-4.2 1.7 0.2 3.4 0 5-0.5 2.6-0.9 5-2.4 6.8-4.4 0.3-0.3 0.5-0.6 0.8-0.9 2.5-3.3 3.7-6.3 1.5-6.2z"></path><path class="st1" d="m74.6 19.7c-2.8 0.8-3.4 2.6-11.3 6.7-2 0.9-4.1 1.6-6.2 2.3-0.5 0.1-1 0.3-1.5 0.4-3.1 0.6-6.5 0.6-11.6 1.9-0.1 0.2-0.3 0.3-0.4 0.5 0.9 0.7 0.8 1.7 0.8 2.5-0.1 0.9-0.1 1.8 0 2.7 0.2 0.8 0.5 1.7 0.7 2.4 0.8-0.3 1.6-0.9 2.2-1.5 0.4-0.6 1-1.2 1.5-1.9 2.9-3.3 7.3-4.9 11.7-4.1 1.7 0.2 3.4 0 5-0.5 2.6-0.9 4.9-2.5 6.8-4.5 0.3-0.3 0.5-0.6 0.8-0.9 2.6-3.2 3.7-6.2 1.5-6z"></path><path class="st1" d="m74.6 19.7c-2.9 0.8-3.4 2.8-11.3 6.8-2 0.9-4.1 1.6-6.2 2.2-0.5 0.1-1 0.3-1.5 0.3-3 0.5-6.5 0.5-11.6 1.9-0.1 0.2-0.3 0.3-0.3 0.5 0.6 0.7 0.9 1.6 0.7 2.6-0.1 0.9-0.1 1.8 0.1 2.7 0.2 0.8 0.5 1.6 0.7 2.4 0.8-0.3 1.6-0.9 2.2-1.6 0.4-0.6 1-1.2 1.5-1.9 2.9-3.3 7.4-4.9 11.7-4.1 1.7 0.2 3.4 0 5-0.6 2.6-0.9 4.9-2.5 6.8-4.6 0.3-0.3 0.5-0.6 0.8-0.9 2.5-2.9 3.6-5.9 1.4-5.7z"></path><path class="st1" d="m74.6 19.8c-3 0.9-3.4 3-11.2 6.8-2 0.9-4.1 1.6-6.2 2.2-0.5 0.1-1 0.3-1.5 0.3-3 0.5-6.4 0.4-11.6 1.8-0.1 0.2-0.2 0.3-0.3 0.5 0.7 0.7 0.6 1.8 0.6 2.7-0.1 0.9-0.1 1.8 0.1 2.6s0.5 1.6 0.8 2.4c0.8-0.3 1.6-0.9 2.2-1.6 0.4-0.6 0.9-1.2 1.5-1.9 2.9-3.3 7.4-4.9 11.7-4 1.7 0.2 3.4 0 4.9-0.6 2.6-1 4.9-2.5 6.8-4.6 0.3-0.3 0.5-0.6 0.8-0.9 2.5-3 3.6-6 1.4-5.7z"></path><path class="st1" d="m74.6 19.8c-3.1 0.9-3.4 3.1-11.2 6.9-2 0.9-4.1 1.6-6.2 2.3l-1.5 0.3c-3 0.5-6.3 0.3-11.6 1.8-0.1 0.2-0.2 0.3-0.3 0.5 0.6 0.7 0.5 1.8 0.5 2.7-0.1 0.9 0 1.8 0.2 2.6s0.5 1.6 0.8 2.3c0.8-0.4 1.6-0.9 2.1-1.6 0.4-0.6 0.9-1.2 1.5-1.9 2.9-3.4 7.4-4.9 11.7-4 1.7 0.2 3.4 0 4.9-0.6 2.6-1 4.9-2.6 6.7-4.7 0.3-0.3 0.5-0.6 0.8-0.9 2.7-3 3.9-6 1.6-5.7z"></path><path class="st1" d="m74.6 19.9c-3.2 0.9-3.4 3.3-11.1 7-2 0.9-4.1 1.6-6.2 2.2l-1.5 0.3c-3 0.5-6.2 0.2-11.6 1.7-0.1 0.2-0.2 0.4-0.3 0.5 0.4 0.9 0.5 1.8 0.4 2.8-0.1 0.9 0 1.8 0.2 2.6 0.3 0.8 0.5 1.6 0.8 2.3 0.8-0.4 1.6-0.9 2.1-1.6 0.4-0.6 0.9-1.2 1.5-1.9 2.9-3.4 7.4-4.9 11.7-3.9 1.7 0.2 3.4 0 4.9-0.6 2.6-1 4.9-2.7 6.7-4.7 0.3-0.3 0.5-0.6 0.8-0.9 2.7-3.2 3.9-6.2 1.6-5.8z"></path><path class="st1" d="m74.7 19.9c-3.2 0.9-3.5 3.5-11.1 7.1-2 0.9-4.1 1.6-6.2 2.2l-1.5 0.3c-2.9 0.4-6.2 0.2-11.6 1.7-0.1 0.2-0.2 0.4-0.3 0.5 0.3 0.9 0.4 1.9 0.3 2.8s0 1.7 0.2 2.6c0.3 0.8 0.6 1.6 0.8 2.3 0.8-0.4 1.6-0.9 2.1-1.7 0.4-0.6 0.9-1.2 1.5-1.9 2.9-3.3 7.4-4.8 11.8-3.8 1.7 0.3 3.4 0 4.9-0.6 2.6-1.1 4.8-2.7 6.7-4.8 0.3-0.3 0.5-0.6 0.8-0.9 2.6-3.2 3.8-6.2 1.6-5.8z"></path><path class="st1" d="m74.7 19.9c-3.3 0.9-3.5 3.6-11 7.2-2 0.9-4.1 1.6-6.2 2.1l-1.5 0.3c-2.9 0.4-6.1 0.1-11.6 1.6-0.1 0.2-0.2 0.4-0.3 0.5 0.2 0.9 0.3 1.9 0.2 2.9-0.1 0.9 0 1.7 0.3 2.6 0.3 0.8 0.6 1.5 0.9 2.3 0.8-0.4 1.6-0.9 2.1-1.7 0.5-0.7 0.9-1.3 1.5-1.9 2.9-3.4 7.4-4.8 11.7-3.8 1.7 0.3 3.4 0 4.9-0.7 2.5-1.1 4.8-2.8 6.7-4.8 0.3-0.3 0.5-0.6 0.8-0.9 2.5-3.1 3.7-6.1 1.5-5.7z"></path><path class="st1" d="m74.7 20c-3.4 1-3.5 3.8-11 7.3-2 0.8-4.1 1.6-6.2 2.1l-1.5 0.3c-2.9 0.4-6 0-11.6 1.6-0.1 0.2-0.2 0.4-0.3 0.5 0.2 1 0.2 2 0.1 2.9s0 1.7 0.3 2.5 0.6 1.5 0.9 2.2c0.8-0.4 1.6-1 2.1-1.7s1-1.3 1.5-1.9c2.9-3.4 7.5-4.8 11.8-3.8 1.7 0.3 3.4 0 4.9-0.7 2.5-1.1 4.8-2.8 6.7-4.9 0.3-0.3 0.5-0.6 0.8-0.9 2.5-2.9 3.7-5.9 1.5-5.5z"></path><path class="st1" d="m74.7 20c-3.4 1-3.5 3.9-11 7.4-2 0.9-4.1 1.6-6.2 2.1l-1.5 0.3c-2.8 0.3-6-0.1-11.6 1.5-0.1 0.2-0.2 0.4-0.2 0.5 0.1 1 0.1 2 0 3 0 0.9 0.1 1.7 0.4 2.5s0.7 1.5 0.9 2.2c0.8-0.4 1.5-1 2.1-1.7 0.5-0.7 0.9-1.3 1.5-1.9 2.9-3.4 7.5-4.8 11.8-3.7 1.7 0.3 3.4 0 4.9-0.7 2.5-1.2 4.8-2.8 6.6-4.9 0.3-0.3 0.5-0.6 0.8-0.9 2.5-3.1 3.8-6.1 1.5-5.7z"></path><path class="st1" d="m74.7 20.1c-3.5 1-3.6 4.1-10.9 7.5-2 0.8-4.1 1.5-6.2 2.1l-1.5 0.3c-2.8 0.3-5.9-0.2-11.6 1.5-0.1 0.2-0.2 0.4-0.2 0.5 0.1 0.9-0.1 2-0.1 3 0 0.9 0.1 1.7 0.4 2.5s0.7 1.5 1 2.2c0.8-0.4 1.5-1 2.1-1.7 0.4-0.7 0.9-1.3 1.5-1.9 2.9-3.4 7.5-4.8 11.8-3.6 1.7 0.3 3.4 0.1 4.9-0.7 2.5-1.2 4.8-2.9 6.6-5 0.3-0.3 0.5-0.6 0.8-0.9 2.4-3.3 3.7-6.3 1.4-5.8z"></path><path class="st1" d="m74.7 20.1c-3.6 1-3.6 4.2-10.9 7.6-2 0.9-4.1 1.5-6.2 2.1l-1.5 0.3c-2.8 0.3-5.9-0.2-11.6 1.4-0.1 0.2-0.2 0.4-0.2 0.6 0 0.9-0.2 2-0.2 3.1 0 0.9 0.1 1.7 0.5 2.5s0.7 1.5 1 2.2c0.8-0.4 1.5-1 2-1.8 0.4-0.7 0.9-1.3 1.5-1.9 2.9-3.4 7.5-4.8 11.8-3.6 1.7 0.3 3.4 0.1 4.9-0.7 2.5-1.2 4.7-2.9 6.6-5 0.3-0.3 0.5-0.6 0.8-0.9 2.5-3.4 3.8-6.4 1.5-5.9z"></path><path class="st1" d="m74.7 20.2c-3.7 1-3.6 4.4-10.8 7.6-2 0.8-4.1 1.5-6.2 2-0.5 0.1-1 0.2-1.5 0.2-2.8 0.2-5.8-0.3-11.6 1.4-0.1 0.2-0.2 0.4-0.2 0.6-0.2 1.1-0.3 2.1-0.4 3.2 0 0.9 0.1 1.7 0.5 2.5s0.7 1.5 1 2.1c0.8-0.4 1.5-1 2-1.8 0.4-0.7 0.9-1.3 1.5-1.9 2.9-3.4 7.5-4.8 11.8-3.5 1.7 0.3 3.4 0.1 4.9-0.8 2.5-1.3 4.7-3 6.6-5.1 0.3-0.3 0.5-0.6 0.8-0.9 2.7-3.2 3.9-6.2 1.6-5.6z"></path><path class="st1" d="m74.7 20.2c-3.7 1.1-3.6 4.6-10.8 7.8-2 0.8-4.1 1.5-6.2 2-0.5 0.1-1 0.2-1.5 0.2-2.7 0.2-5.7-0.4-11.6 1.3-0.1 0.2-0.1 0.4-0.2 0.6-0.3 1-0.4 2.1-0.4 3.2 0 0.9 0.2 1.7 0.5 2.5 0.4 0.8 0.8 1.4 1 2.1 0.8-0.4 1.5-1 2-1.8 0.4-0.7 0.9-1.3 1.5-1.9 2.9-3.4 7.5-4.8 11.8-3.5 1.7 0.3 3.4 0.1 4.9-0.8 2.5-1.3 4.7-3 6.5-5.1l0.8-0.9c2.8-3.3 4-6.3 1.7-5.7z"></path><path class="st1" d="m74.7 20.3c-4.7 1.3-3.3 6.5-16.9 9.8-3.2 0.8-6.1-0.6-13.1 1.5-0.7 1.8-1.2 4.5-0.2 6.3 0.4 0.7 0.7 1.4 1 2.1 0.8-0.4 1.5-1 2-1.8 2.6-4.7 8.1-6.9 13.3-5.4 3.4 1 8.2-2.4 11.4-6s5-7.3 2.5-6.5z"></path><linearGradient id="e" x1="31.06" x2="52.7" y1="140.2" y2="103.1" gradientTransform="matrix(1 0 0 -1 0 142)" gradientUnits="userSpaceOnUse"><stop stop-color="#EC2224" offset=".34"></stop><stop stop-color="#941A1D" offset="1"></stop></linearGradient><path class="st2" d="m21 36.7s9-13.6 22.1-20.6c9-4.8 23.2-3.2 24.9-5.4 0 0 1.8-3.8-4.8-5-11.6-2.2-12-7.4-23.2 2.7 0 0-18 15.9-24.9 22.8l5.9 5.5z"></path><path class="st1" d="m44.1 27.3c6.2-0.9 11.9-3.6 16.7-7.6 0.1 0-13.2 6.7-16.7 7.6z"></path><linearGradient id="d" x1="68.55" x2="69.3" y1="125.9" y2="123.6" gradientTransform="matrix(1 0 0 -1 0 142)" gradientUnits="userSpaceOnUse"><stop stop-color="#F27263" offset=".01"></stop><stop stop-color="#D22024" offset=".54"></stop><stop stop-color="#C61F23" offset=".7"></stop><stop stop-color="#A81C20" offset=".99"></stop><stop stop-color="#A71C20" offset="1"></stop></linearGradient><path class="st3" d="m62.5 18.7s7.9-7.7 13.5-0.6c0.1 0-3.9-6.2-13.5 0.6z"></path><linearGradient id="c" x1="53.49" x2="54.29" y1="120.6" y2="113.3" gradientTransform="matrix(1 0 0 -1 0 142)" gradientUnits="userSpaceOnUse"><stop stop-color="#F27263" offset=".01"></stop><stop stop-color="#D22024" offset=".54"></stop><stop stop-color="#C61F23" offset=".7"></stop><stop stop-color="#A81C20" offset=".99"></stop><stop stop-color="#A71C20" offset="1"></stop></linearGradient><path class="st4" d="m46.2 27.3s4.3 0.3 15.1-6.7c0 0-8.6 4.9-15.1 6.7z"></path><path class="st5" d="m5 115.5-0.1 0.1 0.1-0.1zm111.9 11.6c-0.8 0.4-0.2 0.1 0 0zm-29.6-43.3v0 0zm34.2 4.2c0.5 0.1-2 0.6-4.6-1.9-0.6-0.6 3.7-2.2 3.7-2.7 0.1-0.8-16.8-0.1-18.1 2.4-1.1-2.7-4.3-2.9-7.6-3.2 2.2 1.2 2 2.5-0.5 4 2.9-5-4.9 0.6-4.9-3.7 6 2.7 0 3.4 1.8 1.5-6.2-1.4-3 1.5-11-0.9 2.5 2.2-0.1 1.2-0.1 3.6-1.8-1.1-4.1-2.5-6.1 1.4 0.9-1.6 1.4-2.2 0.1-4.1 1.9 5.6-14.4 1.5-14.1 1.2 5.1 3.7-6 2.2-2.8-1 2.1 3.1-4.1 4.4-4.1-0.2 0.5 0.6-9.4 3.3-9.6 3.5-7.9-7.1-4.1-0.9-4.4-0.7-7-6.2-8.6-8.9-7.1-0.1-2.6-2.1-4-1.1-4.4-4.3 0.5 3.1 0.8 3.6 3.1 5.5-3.6-2.4-7.1-7.8-6.9-10.5-0.1 1.1-0.7 1.5-1.6 0.9 0.8 0.3 0.9 4.4 1.4 6.1-3.5-10.7-2 1-3 1 0.2-2.1-0.7-3.6-2.5-4.4 2 1.5 2.3 2.7 0.7 3.8-2.7-1.4-1.1-5.2-6-3 2.6-0.6 3.8 0.4 3.5 2.8 0.2 0.5-3.8-1.3-7 1.5 0.6-0.1 2 7-1 6.8-0.3-0.2 9 0.5-0.7 1.3 3.5 3.4 0.1 7-2.7 10.1 5.5 1.2 5.9 2.1 0.6 5.3 0.4 0.7 1.4-0.9 3 0-4 2.5-4 2.8 0 0.7-4.1 2.8-4.1 3.5-0.1 1.9-5.1 2.3-2.3 3.1 0.9 7.6-3.3-1.1-3.7 1.7-4.3 1.5 0.7 3.4 1.9 3.2 2.4 5.3 2.5-0.8 4.9-0.6 7.1 0.5-9.6-3.1-2.3 4.6-1.7 2.6 1.3-3.6 3.2 0.1 1.6 0.7 3.5-0.6 13.5 2.2 5.4 1 21.7 3.3 7.4 0.7 7.4 2.3 0 0 20.8 0.8 20.8-1-2.6 1.5-5.5 2.4-8.4 2.8 12.8-0.9 12-5.2 9.6 0.6 0.6-0.1 17.3-4 17.2-4.3-2.5 0.2-3.8 1.3-3.8 3.4 0.4-0.6 20-4.1 20.4-3.3-3.6 0.3 4.5 5.2 10-0.4-9.6 12.5 0.6-0.7 4.9-0.7 0.3 2 0.5 2.5 1.2 3.2-2.5-3.5 3.1-6 9.9-5.5-2.8 4.4 12.9-3.5 12.7-9 3.9 1.9 4.2 1 0.9-2.6 7.7 6.3-2.4-5.5 3.3 2.4 0.9-1.9-0.5-16.7-5.3-16.7 5 2.8 0.2-7.5-0.9-12 1.4 1.9 1.8 1.1 3.3 0.6-0.7-0.6-1.6-3.6-1.6-3.6zm-48.5-1.1c0 0.1 2.3-0.5 0 0zm10.4-0.1v0zm13.3-2.4c0.4 0.6-0.8 2.4 0 0zm4.1 1.5c-0.6-0.9 0.3-2.1 0 0zm-94.2 12.3z"></path><radialGradient id="b" cx="2.5" cy="54.33" r="113" fx="-1.5" fy="54.41" gradientTransform="matrix(.9999 .01506 -.009285 .6166 .5048 20.79)" gradientUnits="userSpaceOnUse"><stop stop-color="#FFFFFC" offset="0"></stop><stop stop-color="#F8F2EE" offset=".63"></stop><stop stop-color="#F3EDE8" offset=".76"></stop><stop stop-color="#E5DDD6" offset=".93"></stop><stop stop-color="#DED5CD" offset="1"></stop></radialGradient><path class="st6" d="m52.7 132.5c0-0.4 0-0.7-0.3-1.1l-0.6-1h-1.2c-0.5 0-0.8 0.2-1.3 0.3-0.5 0.2-1.3 0.6-2.7 0.9l-0.3-0.9c-1.1 0.2-3.7 0.5-9.7 0.5h-3.2c-0.6-0.5-1.5-0.7-2.2-0.8-1.1-0.2-3.3-0.5-7-1-0.8-0.5-2-0.8-3.4-1.1-0.7-0.1-2.3-0.4-3.8-0.5-0.3-1-1-1.8-1.9-2.1l0.4-1c-1.6-0.8-3.3-1.2-5-1.2-0.6 0-1.2 0-1.8 0.1-0.2-0.3-0.4-0.5-0.5-0.8-0.3-0.4-0.6-0.8-0.8-1.5 0.3-0.4 0.4-0.4 0.6-0.4 0.1 0 0.4 0 0.8 0.2l5.9 2-3.6-5c-0.8-1.1-1.6-2-2.2-2.7-0.3-0.4-0.7-0.8-0.9-1.1 0.3-0.2 0.7-0.4 1.4-0.7l-0.6-1.4c0.3-0.2 0.6-0.4 1-0.7l-0.3-0.5c0.1 0 3.1-2 3.1-2l-2-1.1c0.6-0.8 0.9-1.6 0.8-2.5-0.2-1.3-1.3-2.1-2.7-2.7 1.7-2.1 3.1-4.7 2.4-7.3 2-0.3 3.1-0.9 3-2.5 0-1.2-0.7-1.8-1.9-2.1 0.1-0.9 0.1-2 0-3.1-0.1-0.4-0.1-0.8-0.2-1.2 0.6-0.2 1.3-0.4 2-0.4 0.6 0 1.1 0.1 1.5 0.1s0.7 0.1 0.8 0.1c0.6 0 1-0.2 1.3-0.4 0.1 0.1 0.3 0.2 0.4 0.2l0.6 0.3v0.4h2.2c1.6 0 2.1-1.2 2.3-2.7l1.6-0.5c1.5 2.2 3.4 4.1 5.2 5.4l1-1.4c0.1 0 4.2 3.4 4.2 3.4l-0.8-5.1c-0.1-0.7-0.2-1.3-0.3-1.8 0.5 0.4 1 0.9 1.4 1.3 0.8 0.7 1.7 1.5 2.7 2.4l1.1 1 1.3-0.7c0.3-0.2 0.6-0.4 0.7-0.7 0.4 0.3 0.8 0.7 1.3 1.1l1.4 1.3 1-1c0.4-0.1 1.1-0.4 1.8-0.6 2.5-0.8 4.3-1.3 5.5-1.8 0.9 1.4 2.3 2.1 3.8 2.1 0.5 0 1-0.1 1.5-0.3 1 0.4 2.1 0.7 3 0.7 1.6 0 2.4-0.7 2.8-1.3 2.1 0.4 4.7 0.8 6.9 0.8 1.2 0 2.2-0.1 3.1-0.4 0.3 0 1.3-0.1 2-0.6l1 0.6c0.3-0.5 0.7-1 1.1-1 0.5 0 1.3 0.5 1.9 0.9l3 1.9v-2.1l1.2 1.2 1.4-1.5c0.6-0.6 0.6-1.3 0.5-1.6h-2.9l0.5-0.5c0.9 0.2 1.6 0.3 2.2 0.3 0.9 0 1.5-0.2 2-0.3 0.5-0.3 0.8-0.3 1.2-0.3h0.7s0.1 0 0.1 0.1c0.4 0.8 1.3 1.4 2.3 1.4h0.1l-2.7 4.7 6.6-3.8c0.2-0.1 0.6-0.4 1-0.7 0.4 0 1.3-0.1 1.9-1.2 0.1-0.2 0.2-0.5 0.3-0.7 0.1 0.4 0.2 0.8 0.4 1.2l2.9 4.8 0.2-1.6 0.2 0.4 1.8-3.6c1.2-0.7 6-1.5 10.7-1.7-0.1 0.2-0.1 0.3-0.1 0.5-0.1 0.7 0.1 1.4 0.7 1.9 1.7 1.6 3.4 2.2 4.6 2.5v0.1l-2.3 1.1c0.3 1.1 0.8 2.5 1.3 4 0.6 1.7 1.5 4.5 1.8 6l-4.8 0.2 4.9 3.4c1.9 1.3 3 7.2 3.3 11l-0.3-0.3-1.9 2-2.4-1.1 0.1 3.3c0 0.2-0.1 1.1-1.6 2.7-1.7 1.8-4.1 3.4-6 4.4l-3-0.2c-0.6 0-1.2-0.1-1.7-0.1-3.2 0-6.9 0.7-9.1 2.4h-0.4c-1.6 0-3.4 1-5.2 2.3l-1.1-1c-1.7 1.7-3.6 2-4.9 2-0.6 0-1.1-0.1-1.5-0.2l-0.5-1c-0.6-1.2-1.9-1.2-2.4-1.2-2 0-7.2 0.8-11.4 1.5-3.2 0.6-5.3 1-6.7 1.3l-0.9-1.9c-2.8 0.7-7.4 1.8-10.7 2.6z"></path><path class="st5" d="m32.3 58.5c-0.5-0.4-0.8-0.8-1.2-1.2l-0.3-0.4h-3v-1.5l-1.5 0.8c-0.5 0.3-1.1 0.4-1.6 0.4-0.6 0-1.2-0.2-1.7-0.6l-2-1.4-0.7-2-1 0.4c-0.1 0-0.2 0.1-0.3 0.1v0.1 0.2l-0.4 0.1c-0.3 0.1-0.6 0.1-0.8 0.1-1.1 0-2.3-0.5-3.6-1.5l-0.9-0.7-2.2 3 0.4-3.9v-0.2c0-0.3 0.1-0.5 0.2-0.7l0.6-1.7-1.4 0.3-0.6-2.2-0.4-0.2c-1.3-0.5-2.3-1.1-3.2-1.9l-0.7-0.5 0.5-0.7c0.4-0.6 0.7-1.1 1.1-1.6l0.4-0.6-0.5-0.6c-0.8-1-1.6-2.6-2.4-4.8l-0.9-2.5 3.9 2.2-1.5-2.9c-1.3-2.6-1.1-3.6-0.8-4.1l0.1-0.1 0.7-0.9-2.2-1.2 3.6-0.4h1.4c1.3 0 2.5 0.1 3.4 0.4l0.7 0.2 1.7-2.5c0.1 0 1.3 0.7 1.3 0.7l0.4-1.1c0.1-0.4 0.2-0.8 0.3-1.4h1.8s0.4-1.9 0.5-2.9l1.4 1.5c0.4 0.5 0.7 0.9 0.9 1.4l0.4 0.9 0.9-0.4c1-0.5 2-1.1 2.5-1.9l2.1-0.6-0.6-1.5 1.9 0.5c2.8 0.8 4.6 1.7 5.6 3l0.5 0.7 3-1.8c1.5 2.2 3.7 4.2 5.2 5.3v2.9l2.2-0.5c0 0.6 0 1.1-0.2 1.5l-0.9 2.4 3.4-1.8-0.7 2.2c-0.3 1-0.6 1.8-1 2.4l-0.4 0.7 0.5 0.6c1.4 1.5 3 4.1 3 6.8v2.6l-0.4 0.1c-0.2 0.1-0.5 0.2-0.7 0.2l-1 0.4 0.9 2c-1.6 1.1-2.6 1.6-4 1.6-0.6 0-1.1-0.1-1.8-0.2l-0.7-0.1-0.4 0.6c-0.7 1.1-1.2 2-1.5 2.7l-0.6 1.5 0.8-0.1 0.3 2h-0.1c-0.3 0-0.5 0-0.8-0.1-0.4 0-0.6-0.1-0.9-0.2l-1.9-0.6 0.5 1.4-2.9 1.3-0.1 1.9-1.6-1.4z"></path><radialGradient id="a" cx="-6098" cy="15.41" r="33.93" gradientTransform="matrix(-.8901 .4557 .4557 .8901 -5420 2797)" gradientUnits="userSpaceOnUse"><stop stop-color="#FFFFFC" offset="0"></stop><stop stop-color="#F8F2EE" offset=".63"></stop><stop stop-color="#F3EDE8" offset=".76"></stop><stop stop-color="#E5DDD6" offset=".93"></stop><stop stop-color="#DED5CD" offset="1"></stop></radialGradient><path class="st7" d="m41.2 48.3c-0.1 0.5-5.7 7.6-0.1 6.7-2.4 0.2-3.8-0.5-4-2.3-1.1 0.7-0.8 1.9 0.9 3.5-0.7-0.8-3.4-3.6-1.4 1.7-2.1-6.3-3.3-6.4-3.6-0.3-3.5-3.1-0.4-4.1-2.2-5.8-1.1 1.3-2 3.1-1.9 6 0-2.1-0.1-4.2-0.4-6.3 0 1.3-2.6 5.3-4.9 3.7 1.5-0.4 2.2-1.3 2.1-2.9-5.8 0.8-2.8 3.1-4.9-1.7-1.6 2.3-3.6 2.5-5.9 0.6 2.6-0.5 2.1-1.5 3.8-0.3-3.8-1.5-5.8-3.5-6.1-0.2 2.5-3.4 1.6-4.5-2.7-3.5 5.7-2.1 1.1-1.1-2.4-4.1 4.8-7.6 2.8 2.6-1.3-8.5 5.3 3 5.7 1.8 1.3-3.4 2.9 4.2-3.5-4.5 0.7-3.4 6.3 2.1 6.3 1.6 0.1-1.7 3.2-0.1 6.1 0.1 6.3 2.2 1.4-2.1 1.6-3-0.4-4.7 1.2 0.6 3.7 3.1 4.3-3.1 0.3 4.8 0.9 4.8 1.8 0.2 1.2 1.4 1.4 2.6 0.3 3.5 1.3-0.9 6.7-2 6.3-5.2 0.4 1 2 3.7 1.4 4.1 0.9-1.1 1.1-2.3 0.5-3.8 6.3 1.8 5.6 3.9 6.1 5.1-0.7-2.4 4.2-0.8 2-4.5 2.4 4.2 7.9 8.1 7.7 7.2 0.7 2.8-1.1 3.2-3.4 3.8 1.3 1.8 3 2.2 5.2 1.1-0.6 2-1.4 3.2-2.4 3.7 1-0.2 4.4 3.6 4.4 7.1-2.8-2.7-5.3-0.4-2.4 1.4 0.2 0.1 1.9 0.4 3.4 0.2-1 0.2-13.1 4.5-1.2 2.5-3.2 2.4-3.7 2.1-7 1.4z"></path></g></svg>