<svg width="192" height="192" enable-background="new 0 0 200 200" version="1.1" viewBox="0 0 192 192" xml:space="preserve" xmlns="http://www.w3.org/2000/svg"><g transform="rotate(0 3.14 2.18) translate(-13.087349351961805 -13.087349351961805) scale(1.0922387920096301)"><path d="m63.66 94.66h-20.74v18.12c0 2.048 0.708 2.674 1.886 4.163-1.3 8.6-4.81 15.4-4.81 29.4 0 18.12 13.09 18.09 20.72 15.94-5.69-17.5-6.46-61.1 2.94-67.64z" fill="#E6E7E8"></path><path d="m44.74 147.1c0.267 1.434 0.61 2.812 1.058 4.141 0.461 1.318 1.028 2.587 1.807 3.693 0.756 1.123 1.736 2.066 2.889 2.791 1.158 0.726 2.491 1.193 3.909 1.553-1.452 0.164-2.982-0.049-4.368-0.689-1.396-0.623-2.593-1.689-3.46-2.941-0.859-1.267-1.424-2.692-1.716-4.148-0.29-1.6-0.37-3.1-0.12-4.5z" fill="#BCBEC0"></path><path d="m136.3 94.66h20.74v18.12c0 2.048-0.708 2.674-1.888 4.163 1.304 8.705 4.812 15.41 4.812 29.5 0 18.12-13.09 18.09-20.72 15.94 5.8-17.6 6.5-61.2-2.9-67.74z" fill="#E6E7E8"></path><path d="m155.3 147.1c0.252 1.444 0.178 2.939-0.117 4.396-0.293 1.456-0.856 2.884-1.717 4.147-0.867 1.254-2.064 2.319-3.461 2.942-1.386 0.642-2.918 0.854-4.367 0.688 1.416-0.356 2.75-0.826 3.908-1.551 1.152-0.726 2.135-1.67 2.889-2.791 0.78-1.107 1.346-2.377 1.809-3.694 0.4-1.2 0.8-2.6 1.1-4z" fill="#BCBEC0"></path><path d="m123.2 105.7c-10.17 0-12.81 3.137-23.19 3.137s-13.02-3.137-23.19-3.137c-9.028 0-17.01 1.859-23.19 4.224v5.818c1.916 0.259 2.714 1.788 2.812 3.712 0.401 7.789 2.661 12.49 5.105 15.1 3.907 4.176 9.533 5.95 15.27 5.771 11.4-0.355 17.52-7.811 19.39-19.79 0.984-6.324 6.604-6.324 7.592 0 1.871 11.98 7.992 19.44 19.4 19.79 5.735 0.179 11.36-1.596 15.27-5.771 2.44-2.605 4.703-7.312 5.104-15.1 0.099-1.924 0.896-3.453 2.812-3.712v-5.818c-6.2-2.3-14.2-4.2-23.2-4.2zm-46.39 30.8c-8.882 0.277-17.35-4.872-16.46-18.49 0.734-11.17 32.07-11.25 32.07 0 0.01 13.6-7.37 18.2-15.61 18.5zm46.39 0c-8.235-0.256-15.62-4.907-15.62-18.49 0-11.25 31.34-11.17 32.07 0 0.8 13.6-7.6 18.7-16.5 18.5z" fill="#E5BD91"></path><path d="m100 39.21c-23.98 0.328-50.77 3.941-50.77 28.38v26.79c16.41-5.906 33.59-8.86 50.77-8.86s34.36 2.954 50.77 8.86v-26.79c0-24.44-26.8-28.05-50.8-28.38z" fill="#E6E7E8"></path><path d="m150.8 93.88c-32.81-11.81-68.72-11.81-101.5 0v-25.04c32.81-11.81 68.72-11.81 101.5 0v25.04z" fill="#26334C"></path><path d="m150.8 70.09c-32.81-11.81-68.72-11.81-101.5 0v-2.507c32.81-11.81 68.72-11.81 101.5 0v2.51z" fill="#CC9432"></path><path d="m118.8 58.56c0 7.809-7.992 15.5-18.8 15.32-12.4-0.206-18.8-8.51-18.8-15.32v-9.372c0-6.924 7.014-12.54 15.67-12.54h6.267c8.654 0 15.67 5.611 15.67 12.54v9.37z" fill="#3C4A68"></path><polygon points="95.34 55.56 95.34 62.05 100 64.86 104.7 62.05 104.7 55.56" fill="#F1F2F2"></polygon><path d="m97.61 57.24c-0.502-0.501-1.304-0.517-1.791-0.029-0.358 0.357-0.445 0.887-0.266 1.342l-0.467 0.447-2.443-2.443-0.481 0.482 2.432 2.433-3.57 3.423c-0.072 0.071-0.781 0.782-1.266-0.686-0.487-1.473 0.624-1.477 0.707-1.427-0.398-0.753-0.426-1.767-0.342-2.693-1.314 0.487-1.536 2.19-1.638 2.363 0.184-7e-3 0.302 0.141 0.37 0.237-0.523 2.515 0.965 3.64 0.892 4.415 0.775-0.074 1.899 1.413 4.415 0.89 0.094 0.068 0.243 0.185 0.237 0.368 0.172-0.1 1.875-0.322 2.362-1.637-0.928 0.087-1.941 0.057-2.692-0.341 0.049 0.082 0.044 1.194-1.428 0.707-1.467-0.484-0.754-1.194-0.687-1.266l3.424-3.57 2.432 2.433 0.482-0.483-2.443-2.444 0.445-0.465c0.456 0.179 0.988 0.093 1.344-0.267 0.51-0.48 0.5-1.28-0.01-1.79zm-0.56 0.56c0.177 0.178 0.177 0.466 0 0.644-0.179 0.177-0.466 0.177-0.645 0-0.178-0.177-0.178-0.467-1e-3 -0.645 0.19-0.18 0.48-0.17 0.65 0z" fill="#CC9432"></path><path d="m102.4 59.04c0.354 0.359 0.889 0.445 1.342 0.267l0.447 0.465-2.443 2.444 0.482 0.483 2.434-2.433 3.423 3.57c0.069 0.072 0.782 0.782-0.685 1.266-1.473 0.487-1.479-0.625-1.43-0.707-0.754 0.397-1.766 0.428-2.691 0.341 0.488 1.315 2.188 1.538 2.363 1.637-9e-3 -0.183 0.141-0.3 0.234-0.368 2.516 0.523 3.639-0.964 4.414-0.89-0.074-0.775 1.414-1.9 0.893-4.415 0.066-0.096 0.187-0.244 0.371-0.237-0.104-0.173-0.324-1.876-1.642-2.363 0.085 0.927 0.06 1.94-0.341 2.693 0.08-0.05 1.191-0.046 0.705 1.427-0.483 1.468-1.192 0.756-1.266 0.686l-3.57-3.423 2.433-2.433-0.479-0.482-2.443 2.443-0.467-0.447c0.18-0.455 0.093-0.985-0.268-1.342-0.484-0.487-1.287-0.472-1.789 0.029-0.4 0.49-0.4 1.29 0.1 1.78zm1.2-1.24c0.177 0.178 0.177 0.467 0 0.645-0.178 0.177-0.466 0.177-0.646 0-0.178-0.177-0.178-0.466 0-0.644 0.1-0.17 0.4-0.18 0.6 0z" fill="#CC9432"></path><path d="m102 49.13v-3.731l0.748-1.232h-2.803c-0.91 0-1.681 0.591-1.951 1.41-0.952 0.18-1.673 1.014-1.673 2.017h1.568v1.537h-13.52c0 1.184 0.958 2.143 2.142 2.143h0.238c0 1.183 0.958 2.143 2.142 2.143h0.239c0 1.183 0.958 2.142 2.142 2.142h17.53c1.184 0 2.144-0.959 2.144-2.142h0.237c1.184 0 2.141-0.959 2.141-2.143h0.238c1.184 0 2.143-0.958 2.143-2.143l-13.5-0.01z" fill="#D1D3D4"></path><path d="m129.5 78.95c-19.52 3.09-39.4 3.09-58.91 0 8.612 4.852 18.42 7.368 29.46 7.374 11 0 20.8-2.52 29.5-7.37z"></path><path d="m100 83.88c-13.87 0-26.83-2.977-38.59-9.606-7.208-4.062-18.48-0.891-18.48 13.48v23.02c0-7.179 25.55-16.76 57.07-16.76s57.08 9.579 57.08 16.76v-23.05c0-14.38-11.27-17.55-18.48-13.48-11.8 6.63-24.7 9.61-38.6 9.61z" fill="#3C4A68"></path><path d="m76.81 105.7c-9.028 0-17.01 1.859-23.19 4.224v5.818c1.752 0.235 2.562 1.541 2.764 3.233l3.911 1.441c-0.015-0.782 4e-3 -1.596 0.06-2.441 0.636-9.675 24.21-11.02 30.52-3.906l7.572-5.262c-9.1-0.2-11.99-3-21.63-3z"></path><path d="m123.2 105.7c9.027 0 17.01 1.859 23.19 4.224v5.818c-1.753 0.235-2.562 1.541-2.765 3.233l-3.91 1.441c0.014-0.782-6e-3 -1.596-0.061-2.441-0.638-9.675-24.21-11.02-30.52-3.906l-7.572-5.262c9.2-0.2 12.1-3 21.7-3z"></path></g></svg>