<svg width="192" height="192" enable-background="new 0 0 200 200" version="1.1" viewBox="0 0 192 192" xml:space="preserve" xmlns="http://www.w3.org/2000/svg"><g transform="rotate(0 3.14 2.18) translate(-20.87876615273248 -20.87876615273248) scale(1.1702504746206006)"><path d="m72.52 80.12h-17.2c-11.26 0-18.97 9.165-18.97 20.43 0 16.2 11.77 28.89 28.66 28.89 13.33 0 24.35-7.92 28.42-19.22 0.983-2.74 3.574-4.583 6.488-4.609h0.164c2.913 0.026 5.505 1.869 6.486 4.609 4.062 11.3 15.09 19.22 28.42 19.22 16.9 0 28.66-12.69 28.66-28.89 0-11.26-7.703-20.43-18.97-20.43h-72.18z" enable-background="new " fill="#fff" opacity=".3"></path><rect x="25" y="88.85" width="11.27" height="23.39"></rect><rect x="163.7" y="88.85" width="11.27" height="23.39"></rect><path d="m144.7 68.07h-89.38c-12.24 0-21.47 9.857-21.47 22.93v9.547c0 1.381 1.12 2.5 2.5 2.5 0.035 0 0.066-9e-3 0.102-0.01-0.062-0.821-0.102-1.649-0.102-2.49 0-11.26 7.704-20.43 18.97-20.43h89.37c11.27 0 18.97 9.165 18.97 20.43 0 0.841-0.039 1.669-0.104 2.49 0.034 1e-3 0.064 0.01 0.104 0.01 1.381 0 2.5-1.119 2.5-2.5v-9.547c-0.1-13.02-9.3-22.88-21.5-22.88z" fill="#A7A9AC"></path><path d="m135 131.9c-14.13 0-26.21-8.19-30.77-20.87-0.63-1.752-2.302-2.938-4.161-2.957-1.977 0.02-3.647 1.205-4.275 2.955-4.56 12.68-16.64 20.87-30.77 20.87-17.77 0-31.16-13.49-31.16-31.39 0-13.07 9.228-22.93 21.47-22.93h89.37c12.24 0 21.47 9.856 21.47 22.93 0 17.9-13.3 31.4-31.1 31.4zm-35.09-28.8h0.176c3.967 0.037 7.51 2.558 8.843 6.269 3.835 10.67 14.06 17.56 26.06 17.56 15.16 0 26.16-11.1 26.16-26.39 0-10.39-6.924-17.93-16.47-17.93h-89.38c-9.543 0-16.47 7.539-16.47 17.93 0 15.29 11 26.39 26.16 26.39 12 0 22.23-6.896 26.06-17.56 1.332-3.71 4.875-6.229 8.817-6.269h0.02z" fill="#fff"></path></g></svg>