<svg enable-background="new 0 0 124.2 85.9" version="1.1" viewBox="0 0 192 192" xml:space="preserve" xmlns="http://www.w3.org/2000/svg" xmlns:xlink="http://www.w3.org/1999/xlink" width="192" height="192"><g transform="rotate(0 3.14 2.18) translate(4.280148629555995 33.83830385635924) scale(1.4331226776631876)"><style type="text/css"> .st0{fill:#101026;} .st1{fill:url(#l);} .st2{fill:url(#h);} .st3{fill:url(#g);} .st4{fill:url(#f);} .st5{fill:url(#e);} .st6{fill:#FFD86A;} .st7{fill:url(#d);} .st8{opacity:0.5;fill:#FFD86A;enable-background:new ;} .st9{fill:url(#c);} .st10{fill:url(#b);} .st11{fill:#FFD561;} .st12{fill:url(#a);} .st13{fill:url(#v);} .st14{fill:url(#u);} .st15{fill:url(#t);} .st16{fill:url(#s);} .st17{fill:url(#r);} .st18{fill:url(#q);} .st19{fill:url(#p);} .st20{fill:url(#o);} .st21{opacity:0.25;fill:url(#n);enable-background:new ;} .st22{opacity:0.28;fill:url(#m);enable-background:new ;} .st23{fill:#404097;} .st24{clip-path:url(#j);fill:url(#i);} .st25{fill:none;stroke:#20204C;stroke-width:2.8643;stroke-linecap:round;stroke-miterlimit:10;} .st26{fill:#303072;} .st27{fill:none;stroke:#404097;stroke-width:0.7111;stroke-miterlimit:10;} .st28{fill:#20204C;} .st29{fill:#EDB835;} .st30{opacity:0.59;fill:none;stroke:#FFFFFF;stroke-width:0.5395;stroke-linecap:round;stroke-miterlimit:10;enable-background:new ;} </style><path class="st0" d="m26.6 67.9c6.3-0.9 14-1.5 22.3-1.5h-0.3c-21.2 0-38.4 3.3-38.4 7.4 0 2.1 4.4 3.9 11.5 5.3 0.5-2.9 1.8-7.4 4.9-11.2z"></path><path class="st0" d="m57.2 66.6c4.1 0.2 7.9 0.5 11.4 0.9 3.8 3.9 5.6 8.7 6.4 11.7 7.4-1.3 12.1-3.3 12.1-5.4-0.1-3.5-12.9-6.5-29.9-7.2z"></path><path class="st0" d="m50.8 66.4h-0.9 0.9z"></path><path class="st0" d="m56.5 66.6h-0.8c0.3-0.1 0.6-0.1 0.8 0z"></path><radialGradient id="l" cx="-348.3" cy="117.1" r=".3446" gradientTransform="matrix(10 0 0 10.03 3539 -1153)" gradientUnits="userSpaceOnUse"><stop stop-color="#FCF38F" offset="0"></stop><stop stop-color="#FCE677" offset=".1629"></stop><stop stop-color="#F1BA1E" offset=".5618"></stop><stop stop-color="#F09C20" offset="1"></stop></radialGradient><path class="st1" d="m53.2 19.8s0.9-0.3 1.5 0.7c0.5 1-0.3 1.9-0.3 1.9l1.7-0.6-0.3-2.3s-0.7-0.7-0.8-0.7c-0.2 0-1.1 0.1-1.2 0.1s-0.9 0.4-0.9 0.4-0.8 0.6 0.3 0.5z"></path><radialGradient id="h" cx="-349.2" cy="116.9" r=".1949" gradientTransform="matrix(10 0 0 10.03 3539 -1153)" gradientUnits="userSpaceOnUse"><stop stop-color="#FCF38F" offset="0"></stop><stop stop-color="#FCE677" offset=".1629"></stop><stop stop-color="#F1BA1E" offset=".5618"></stop><stop stop-color="#F09C20" offset="1"></stop></radialGradient><path class="st2" d="m45.5 18s0.7-0.3 1.1 0.5-0.2 1.5-0.2 1.5l1.3-0.5-0.3-1.8s-0.5-0.6-0.6-0.6-0.9 0-0.9 0l-0.7 0.3s-0.6 0.7 0.3 0.6z"></path><radialGradient id="g" cx="-348.9" cy="117.2" r=".2979" gradientTransform="matrix(10 0 0 10.03 3539 -1153)" gradientUnits="userSpaceOnUse"><stop stop-color="#FCF38F" offset="0"></stop><stop stop-color="#FCE677" offset=".1629"></stop><stop stop-color="#F1BA1E" offset=".5618"></stop><stop stop-color="#F09C20" offset="1"></stop></radialGradient><path class="st3" d="m47.7 20.5s1.3-0.5 2.1 1-0.4 2.7-0.4 2.7l2.5-0.9-0.5-3.3s-1-1.1-1.2-1.1-1.6 0.1-1.7 0.1-1.3 0.5-1.3 0.5-1.2 1.2 0.5 1z"></path><linearGradient id="f" x1="49.75" x2="49.75" y1="773.5" y2="794.4" gradientTransform="translate(0 -756)" gradientUnits="userSpaceOnUse"><stop stop-color="#F7CE4C" offset="0"></stop><stop stop-color="#F7CE4C" offset=".5"></stop><stop stop-color="#F7C23B" offset=".8202"></stop><stop stop-color="#F6B23B" offset="1"></stop></linearGradient><path class="st4" d="m56.4 18.1-2.2-0.3c-0.1 0.2-0.4 0.4-0.8 0.4-0.5 0-0.8-0.3-0.9-0.6l-1.7-0.2c-0.2 0.2-0.7 0.3-1.4 0.2-0.5-0.1-0.9-0.3-1.1-0.5l-6.6-0.8-0.9 23.3 17.9-1.2-2.3-20.3zm-10.2 1.5c-0.5 0-0.8-0.4-0.8-0.9s0.4-0.9 0.8-0.9c0.5 0 0.8 0.4 0.8 0.9s-0.4 0.9-0.8 0.9zm3.6 3.6c-0.7 0.4-1.6 0-2-0.8s-0.2-1.7 0.5-2.1 1.6 0 2 0.8 0.2 1.7-0.5 2.1zm4.7-1.6c-0.4 0.2-1 0.1-1.3-0.4s-0.1-1.1 0.3-1.3 1-0.1 1.3 0.4c0.3 0.4 0.2 1-0.3 1.3z"></path><linearGradient id="e" x1="41.3" x2="39.29" y1="784" y2="783.8" gradientTransform="translate(0 -756)" gradientUnits="userSpaceOnUse"><stop stop-color="#FEF6AC" offset="0"></stop><stop stop-color="#FDE25C" offset=".264"></stop><stop stop-color="#FED25A" offset=".9719"></stop></linearGradient><polygon class="st5" points="40.8 39.6 41.7 16.3 40.1 17 38.4 38.4"></polygon><path class="st6" d="m51.7 26.7c0 0.8-0.6 1.4-1.3 1.4s-1.3-0.6-1.3-1.4 0.6-1.4 1.3-1.4 1.3 0.6 1.3 1.4z"></path><radialGradient id="d" cx="-348.9" cy="117.7" r=".2995" gradientTransform="matrix(10 0 0 10.03 3539 -1153)" gradientUnits="userSpaceOnUse"><stop stop-color="#FCF38F" offset="0"></stop><stop stop-color="#FCE677" offset=".09551"></stop><stop stop-color="#F6CB43" offset=".3146"></stop><stop stop-color="#F1BA1E" offset=".5618"></stop><stop stop-color="#D87D27" offset="1"></stop></radialGradient><path class="st7" d="m51.7 26.6c0 0.7-0.6 1.3-1.3 1.3s-1.3-0.6-1.3-1.3 0.6-1.3 1.3-1.3 1.3 0.6 1.3 1.3z"></path><path class="st8" d="m55.6 29.6c0 0.7-0.5 1.2-1.1 1.2s-1.1-0.5-1.1-1.2 0.5-1.2 1.1-1.2 1.1 0.5 1.1 1.2z"></path><radialGradient id="c" cx="-348.6" cy="118" r=".2742" gradientTransform="matrix(10 0 0 10.03 3539 -1153)" gradientUnits="userSpaceOnUse"><stop stop-color="#FCF38F" offset="0"></stop><stop stop-color="#FCE677" offset=".1629"></stop><stop stop-color="#F1BA1E" offset=".5618"></stop><stop stop-color="#F09C20" offset="1"></stop></radialGradient><path class="st9" d="m55.5 29.6c0 0.6-0.5 1.1-1 1.1-0.6 0-1-0.5-1-1.1s0.5-1.1 1-1.1c0.5-0.1 1 0.4 1 1.1z"></path><radialGradient id="b" cx="-348.8" cy="118.2" r=".1145" gradientTransform="matrix(10 0 0 10.03 3539 -1153)" gradientUnits="userSpaceOnUse"><stop stop-color="#FCF38F" offset="0"></stop><stop stop-color="#FCE677" offset=".1629"></stop><stop stop-color="#F1BA1E" offset=".5618"></stop><stop stop-color="#F09C20" offset="1"></stop></radialGradient><path class="st10" d="m52.1 32.5c0 0.3-0.2 0.6-0.5 0.6s-0.5-0.3-0.5-0.6 0.2-0.6 0.5-0.6c0.2 0 0.5 0.3 0.5 0.6z"></path><path class="st11" d="m47.3 34.6c0.2 1-0.4 2-1.4 2.2-0.9 0.2-1.8-0.6-2-1.6s0.4-2 1.4-2.2c0.9-0.1 1.8 0.6 2 1.6z"></path><radialGradient id="a" cx="-349.4" cy="118.6" r=".3595" gradientTransform="matrix(10 0 0 10.03 3539 -1153)" gradientUnits="userSpaceOnUse"><stop stop-color="#FCF38F" offset="0"></stop><stop stop-color="#FCE677" offset=".09551"></stop><stop stop-color="#F6CB43" offset=".3146"></stop><stop stop-color="#F1BA1E" offset=".5618"></stop><stop stop-color="#D87D27" offset="1"></stop></radialGradient><path class="st12" d="m47.4 34.6c0.2 1-0.4 2-1.4 2.1-0.9 0.2-1.8-0.5-2-1.6-0.2-1 0.4-2 1.4-2.1s1.8 0.6 2 1.6z"></path><linearGradient id="v" x1="49.57" x2="51.66" y1="791.4" y2="791.4" gradientTransform="translate(0 -756)" gradientUnits="userSpaceOnUse"><stop stop-color="#F7CE4C" offset="0"></stop><stop stop-color="#F7CE4C" offset=".5"></stop><stop stop-color="#F7C23B" offset=".8202"></stop><stop stop-color="#F6B23B" offset="1"></stop></linearGradient><path class="st13" d="m51.6 35.8c-0.2 0.6-0.8 0.9-1.3 0.7-0.6-0.2-0.9-0.8-0.7-1.4s0.8-0.9 1.3-0.7c0.6 0.2 0.9 0.8 0.7 1.4z"></path><radialGradient id="u" cx="-348.9" cy="118.6" r=".1957" gradientTransform="matrix(10 0 0 10.03 3539 -1153)" gradientUnits="userSpaceOnUse"><stop stop-color="#FCF38F" offset="0"></stop><stop stop-color="#FCE677" offset=".09551"></stop><stop stop-color="#F6CB43" offset=".3146"></stop><stop stop-color="#F1BA1E" offset=".5618"></stop><stop stop-color="#D87D27" offset="1"></stop></radialGradient><path class="st14" d="m51.5 35.6c-0.2 0.5-0.7 0.8-1.2 0.7-0.5-0.2-0.8-0.7-0.6-1.2s0.7-0.8 1.2-0.7c0.5 0.2 0.7 0.7 0.6 1.2z"></path><radialGradient id="t" cx="-348.5" cy="118.4" r=".1431" gradientTransform="matrix(10 0 0 10.03 3539 -1153)" gradientUnits="userSpaceOnUse"><stop stop-color="#FCF38F" offset="0"></stop><stop stop-color="#FCE677" offset=".1629"></stop><stop stop-color="#F1BA1E" offset=".5618"></stop><stop stop-color="#F09C20" offset="1"></stop></radialGradient><path class="st15" d="m55.3 33.7c-0.1 0.4-0.4 0.6-0.7 0.6-0.3-0.1-0.5-0.5-0.4-0.8 0.1-0.4 0.4-0.6 0.7-0.6 0.3 0.1 0.5 0.5 0.4 0.8z"></path><radialGradient id="s" cx="-348.4" cy="118.6" r=".126" gradientTransform="matrix(10 0 0 10.03 3539 -1153)" gradientUnits="userSpaceOnUse"><stop stop-color="#FCF38F" offset="0"></stop><stop stop-color="#FCE677" offset=".09551"></stop><stop stop-color="#F6CB43" offset=".3146"></stop><stop stop-color="#F1BA1E" offset=".5618"></stop><stop stop-color="#D87D27" offset="1"></stop></radialGradient><path class="st16" d="m56.1 35.8c0 0.2-0.2 0.4-0.4 0.4s-0.4-0.2-0.4-0.4 0.2-0.4 0.4-0.4c0.3 0 0.4 0.2 0.4 0.4z"></path><path class="st11" d="m47.8 28.1c0 0.8-0.6 1.4-1.3 1.4s-1.3-0.6-1.3-1.4 0.6-1.4 1.3-1.4 1.3 0.6 1.3 1.4z"></path><radialGradient id="r" cx="-349.4" cy="117.8" r=".2649" gradientTransform="matrix(10 0 0 10.03 3539 -1153)" gradientUnits="userSpaceOnUse"><stop stop-color="#FCF38F" offset="0"></stop><stop stop-color="#FCE677" offset=".1629"></stop><stop stop-color="#F1BA1E" offset=".5618"></stop><stop stop-color="#F09C20" offset="1"></stop></radialGradient><path class="st17" d="m47.8 28c0 0.7-0.6 1.3-1.2 1.3-0.7 0-1.2-0.6-1.2-1.3s0.6-1.3 1.2-1.3 1.2 0.6 1.2 1.3z"></path><radialGradient id="q" cx="-349.6" cy="118.1" r=".2577" gradientTransform="matrix(10 0 0 10.03 3539 -1153)" gradientUnits="userSpaceOnUse"><stop stop-color="#FCF38F" offset="0"></stop><stop stop-color="#FCE677" offset=".09551"></stop><stop stop-color="#F6CB43" offset=".3146"></stop><stop stop-color="#F1BA1E" offset=".5618"></stop><stop stop-color="#D87D27" offset="1"></stop></radialGradient><path class="st18" d="m45.3 31c-0.2 0.4-0.7 0.7-1.1 0.5s-0.5-0.7-0.3-1.1 0.7-0.7 1.1-0.5 0.5 0.7 0.3 1.1z"></path><radialGradient id="p" cx="-349.7" cy="117.8" r=".1463" gradientTransform="matrix(10 0 0 10.03 3539 -1153)" gradientUnits="userSpaceOnUse"><stop stop-color="#FCF38F" offset="0"></stop><stop stop-color="#FCE677" offset=".09551"></stop><stop stop-color="#F6CB43" offset=".3146"></stop><stop stop-color="#F1BA1E" offset=".5618"></stop><stop stop-color="#D87D27" offset="1"></stop></radialGradient><path class="st19" d="m43.3 28.2c0 0.3-0.2 0.5-0.4 0.5s-0.4-0.2-0.4-0.5 0.2-0.5 0.4-0.5 0.4 0.2 0.4 0.5z"></path><path class="st6" d="m45.6 24.1c0 0.7-0.5 1.3-1.1 1.3s-1.1-0.6-1.1-1.3 0.5-1.3 1.1-1.3c0.6 0.1 1.1 0.6 1.1 1.3z"></path><radialGradient id="o" cx="-349.5" cy="117.4" r=".1728" gradientTransform="matrix(10 0 0 10.03 3539 -1153)" gradientUnits="userSpaceOnUse"><stop stop-color="#FCED89" offset="0"></stop><stop stop-color="#FCE677" offset=".236"></stop><stop stop-color="#F4BC19" offset=".5618"></stop><stop stop-color="#ED9622" offset="1"></stop></radialGradient><path class="st20" d="m45.6 24.1c0 0.7-0.5 1.2-1.1 1.2s-1.1-0.5-1.1-1.2 0.5-1.2 1.1-1.2c0.6-0.1 1.1 0.5 1.1 1.2z"></path><linearGradient id="n" x1="49.74" x2="49.77" y1="794.6" y2="795.1" gradientTransform="translate(0 -756)" gradientUnits="userSpaceOnUse"><stop stop-color="#fff" offset=".005618"></stop><stop stop-color="#9D3E21" offset="1"></stop></linearGradient><polygon class="st21" points="58.7 38 40.8 39.2 40.8 39.2 40.8 39.6 58.7 38.4"></polygon><linearGradient id="m" x1="39.69" x2="39.54" y1="794.7" y2="795" gradientTransform="translate(0 -756)" gradientUnits="userSpaceOnUse"><stop stop-color="#fff" offset=".005618"></stop><stop stop-color="#F6851F" offset="1"></stop></linearGradient><polygon class="st22" points="38.4 38.4 40.8 39.6 40.8 39.2 38.4 38.1"></polygon><path class="st23" d="m118.8 59.5-22.6-1.9c-0.8-0.1-1.7 2-1.9 4.6s0.3 4.8 1.1 4.8l22.6 1.9c0.8 0.1 1.7-2 1.9-4.6 0.3-2.6-0.2-4.8-1.1-4.8z"></path><defs><path id="k" d="m118.8 59.5-22.6-1.9c-0.8-0.1-1.7 2-1.9 4.6s0.3 4.8 1.1 4.8l22.6 1.9c0.8 0.1 1.7-2 1.9-4.6 0.3-2.6-0.2-4.8-1.1-4.8z"></path></defs><clipPath id="j"><use xlink:href="#k"></use></clipPath><linearGradient id="i" x1="173.7" x2="173.8" y1="786.4" y2="796.7" gradientTransform="matrix(.9963 .08555 -.08555 .9963 1.755 -739.4)" gradientUnits="userSpaceOnUse"><stop stop-color="#303072" offset="0"></stop><stop stop-color="#0E1435" offset="1"></stop></linearGradient><polygon class="st24" points="120.3 69.1 93.3 66.8 94.2 57.3 121.1 59.7"></polygon><ellipse class="st23" transform="matrix(.08556 -.9963 .9963 .08556 25.45 152.1)" cx="95.6" cy="62.2" rx="4.1" ry="1.3"></ellipse><line class="st25" x1="81.4" x2="95" y1="61" y2="62.2"></line><path class="st26" d="m87 74.2c1.3-9.2 0.9-21.4-6-28.4-6.5-6.5-21.9-8.4-32.4-8.4s-25.9 1.9-32.4 8.4c-7 7-7.3 19.2-6 28.4 0-4.1 17.2-7.8 38.4-7.8s38.4 3.7 38.4 7.8z"></path><path class="st27" d="m21.7 79c-7-1.3-11.3-3.2-11.3-5.2 0-4 17.1-7.3 38.2-7.3s38.2 3.3 38.2 7.3c0 2.1-4.6 4-11.9 5.3"></path><path class="st28" d="m11.1 70.2c-0.8 0-1.4-0.6-1.4-1.4v-10.4c0-0.8 0.6-1.4 1.4-1.4s1.4 0.6 1.4 1.4v10.3c0 0.9-0.6 1.5-1.4 1.5z"></path><path class="st29" d="m10.2 69.8c-0.8 0-1.4-0.6-1.4-1.3v-20.1c0-0.7 0.6-1.3 1.4-1.3s1.4 0.6 1.4 1.3v20.1c0 0.7-0.6 1.3-1.4 1.3z"></path><path class="st29" d="m10.2 48.9c-0.3 0-0.5-0.2-0.5-0.5v-28.6c0-0.3 0.2-0.5 0.5-0.5s0.5 0.2 0.5 0.5v28.6c0 0.3-0.2 0.5-0.5 0.5z"></path><path class="st29" d="m10.2 20.3c-1 0-1.8-1-1.8-2.2v-5c0-0.3 0.2-0.5 0.5-0.5s0.5 0.2 0.5 0.5v5c0 0.7 0.4 1.2 0.7 1.2s0.7-0.5 0.7-1.2v-5c0-0.3 0.2-0.5 0.5-0.5s0.5 0.2 0.5 0.5v5c0.2 1.2-0.6 2.2-1.6 2.2z"></path><path class="st30" d="m9.5 48.6v20.3"></path><path class="st28" d="m22.1 67c-0.8 0-1.4-0.6-1.4-1.3v-20.2c0-0.7 0.6-1.3 1.4-1.3s1.4 0.6 1.4 1.3v20.1c0 0.8-0.7 1.4-1.4 1.4z"></path><path class="st29" d="m21.2 66.1c-0.8 0-1.4-0.6-1.4-1.3v-20.1c0-0.7 0.6-1.3 1.4-1.3s1.4 0.6 1.4 1.3v20.1c0 0.7-0.6 1.3-1.4 1.3z"></path><path class="st29" d="m21.2 45.2c-0.3 0-0.5-0.2-0.5-0.5v-28.7c0-0.3 0.2-0.5 0.5-0.5s0.5 0.2 0.5 0.5v28.6c0 0.3-0.2 0.6-0.5 0.6z"></path><path class="st29" d="m21.2 16.6c-1.3 0-2.4-1-2.4-2.2v-5c0-0.3 0.2-0.5 0.5-0.5s0.5 0.2 0.5 0.5v5c0 0.7 0.6 1.2 1.3 1.2s1.3-0.5 1.3-1.2v-5c0-0.3 0.2-0.5 0.5-0.5s0.5 0.2 0.5 0.5v5c0.1 1.2-0.9 2.2-2.2 2.2z"></path><path class="st30" d="m20.6 44.6v20.3"></path><path class="st28" d="m33.7 65.2c-0.8 0-1.4-0.6-1.4-1.3v-20.1c0-0.7 0.6-1.3 1.4-1.3s1.4 0.6 1.4 1.3v20.1c0 0.7-0.6 1.3-1.4 1.3z"></path><path class="st29" d="m33.2 64.1c-0.8 0-1.4-0.6-1.4-1.3v-20.2c0-0.7 0.6-1.3 1.4-1.3s1.4 0.6 1.4 1.3v20.1c0.1 0.8-0.6 1.4-1.4 1.4z"></path><path class="st29" d="m33.2 43.8c-0.3 0-0.5-0.2-0.5-0.5v-28.6c0-0.3 0.2-0.5 0.5-0.5s0.5 0.2 0.5 0.5v28.6c0.1 0.2-0.2 0.5-0.5 0.5z"></path><path class="st29" d="m33.2 15.2c-1.3 0-2.4-1-2.4-2.2v-5c0-0.3 0.2-0.5 0.5-0.5s0.5 0.2 0.5 0.5v5c0 0.7 0.6 1.2 1.3 1.2s1.3-0.5 1.3-1.2v-5c0-0.3 0.2-0.5 0.5-0.5s0.5 0.2 0.5 0.5v5c0.2 1.2-0.9 2.2-2.2 2.2z"></path><path class="st30" d="m32.7 42.5v20.3"></path><path class="st28" d="m62.9 65.2c0.8 0 1.4-0.6 1.4-1.3v-20.1c0-0.7-0.6-1.3-1.4-1.3s-1.4 0.6-1.4 1.3v20.1c-0.1 0.7 0.6 1.3 1.4 1.3z"></path><path class="st29" d="m63.3 64c-0.8 0-1.4-0.6-1.4-1.3v-20.1c0-0.7 0.6-1.3 1.4-1.3s1.4 0.6 1.4 1.3v20.1c0 0.7-0.6 1.3-1.4 1.3z"></path><path class="st29" d="m63.4 43.8c-0.3 0-0.5-0.2-0.5-0.5v-28.6c0-0.3 0.2-0.5 0.5-0.5s0.5 0.2 0.5 0.5v28.6c0 0.2-0.2 0.5-0.5 0.5z"></path><path class="st29" d="m63.4 15.2c-1.3 0-2.4-1-2.4-2.2v-5c0-0.3 0.2-0.5 0.5-0.5s0.5 0.2 0.5 0.5v5c0 0.7 0.6 1.2 1.3 1.2s1.3-0.5 1.3-1.2v-5c0-0.3 0.2-0.5 0.5-0.5s0.5 0.2 0.5 0.5v5c0.1 1.2-0.9 2.2-2.2 2.2z"></path><path class="st30" d="m62.8 42.5v20.3"></path><path class="st28" d="m74.4 66.9c0.8 0 1.4-0.6 1.4-1.3v-20.2c0-0.7-0.6-1.3-1.4-1.3s-1.4 0.6-1.4 1.3v20.1c0 0.8 0.6 1.4 1.4 1.4z"></path><path class="st29" d="m75.3 66.1c-0.8 0-1.4-0.6-1.4-1.3v-20.1c0-0.7 0.6-1.3 1.4-1.3s1.4 0.6 1.4 1.3v20.1c0.1 0.7-0.6 1.3-1.4 1.3z"></path><path class="st29" d="m75.4 45.2c-0.3 0-0.5-0.2-0.5-0.5v-28.7c0-0.3 0.2-0.5 0.5-0.5s0.6 0.3 0.6 0.5v28.6c0 0.3-0.3 0.6-0.6 0.6z"></path><path class="st29" d="m75.4 16.6c-1.3 0-2.4-1-2.4-2.2v-5c0-0.3 0.2-0.5 0.5-0.5s0.5 0.2 0.5 0.5v5c0 0.7 0.6 1.2 1.3 1.2s1.3-0.5 1.3-1.2v-5c0-0.3 0.2-0.5 0.5-0.5s0.5 0.2 0.5 0.5v5c0.2 1.2-0.9 2.2-2.2 2.2z"></path><path class="st30" d="m75.2 44.6v20.3"></path><path class="st28" d="m86.1 70.2c-0.8 0-1.4-0.7-1.4-1.6v-11.5c0-0.9 0.6-1.6 1.4-1.6s1.4 0.7 1.4 1.6v11.5c0.1 0.9-0.6 1.6-1.4 1.6z"></path><path class="st29" d="m86.9 69.8c-0.8 0-1.4-0.6-1.4-1.3v-20.1c0-0.7 0.6-1.3 1.4-1.3s1.4 0.6 1.4 1.3v20.1c0 0.7-0.6 1.3-1.4 1.3z"></path><path class="st29" d="m86.9 48.9c-0.3 0-0.5-0.2-0.5-0.5v-28.6c0-0.3 0.2-0.5 0.5-0.5s0.5 0.2 0.5 0.5v28.6c0 0.3-0.2 0.5-0.5 0.5z"></path><path class="st29" d="m86.9 20.3c-1 0-1.8-1-1.8-2.2v-5c0-0.3 0.2-0.5 0.5-0.5s0.5 0.2 0.5 0.5v5c0 0.7 0.4 1.2 0.7 1.2s0.7-0.5 0.7-1.2v-5c0-0.3 0.2-0.5 0.5-0.5s0.5 0.2 0.5 0.5v5c0.2 1.2-0.6 2.2-1.6 2.2z"></path><path class="st30" d="m86.4 48.2v20.3"></path></g></svg>