<svg viewBox="0 0 192 192" xmlns="http://www.w3.org/2000/svg" width="192" height="192"><g transform="rotate(0 3.14 2.18) translate(31.671367455101716 17.580333659552565) scale(1.6337430487593216)"><defs><style>.cls-1{fill:#231f20;}.cls-2{fill:#eb2227;}.cls-3{fill:#dc2327;}.cls-4{fill:#7d1f22;}.cls-5{fill:#fff;}.cls-6{fill:#ecd2cf;}</style></defs><path class="cls-1" d="M39.27,77.26c-3.14-1.43-5.45-1.93-7.35.7-.34.47-.65.38-1.05.25a9.52,9.52,0,0,0-3.49.06,2.93,2.93,0,0,0-2.55,2.27,1.51,1.51,0,0,1-2.15,1.21,2.69,2.69,0,0,0-3.64,2c-.47,1.46-.9,2.7-2.84,3-1.28.2-2.09,2.14-1.95,3.69h0a2.32,2.32,0,0,0,.07.46.3.3,0,0,1,0,.1c0,.11.07.23.12.34a1,1,0,0,1,0,.1l0,.06v0a2.31,2.31,0,0,0,1,1,2.83,2.83,0,0,0,3.82-.46,1.65,1.65,0,0,1,2.57-.21,2.17,2.17,0,0,0,2.34.44c1.17-.7,1.73,0,2.54.58,1.47,1,3,1.47,4.25-.42a1.21,1.21,0,0,1,1.52-.55c2.88,1.14,4.31-.33,5.22-2.81a7.45,7.45,0,0,1,1.48-1.33h0a8.46,8.46,0,0,1,1.52,1.32c.9,2.48,2.34,4,5.21,2.81a1.22,1.22,0,0,1,1.53.55c1.23,1.89,2.77,1.44,4.24.42.82-.56,1.37-1.28,2.54-.58a2.17,2.17,0,0,0,2.34-.44,1.66,1.66,0,0,1,2.58.21,2.83,2.83,0,0,0,3.82.46,2.36,2.36,0,0,0,1-1v0s0,0,0-.06l0-.1c0-.11.08-.23.11-.34l0-.1a3.4,3.4,0,0,0,.07-.46h0c.14-1.55-.68-3.49-2-3.69-1.94-.32-2.37-1.56-2.84-3a2.7,2.7,0,0,0-3.64-2,1.52,1.52,0,0,1-2.16-1.21,2.93,2.93,0,0,0-2.54-2.27,9.53,9.53,0,0,0-3.49-.06c-.4.13-.72.22-1.06-.25C44.71,75.33,42.41,75.83,39.27,77.26Z"></path><path class="cls-2" d="M16.34,48.43c-.89,0-1.67.18-2,.84-1.52,3.53,4.82,8,7.15,9.53A34.61,34.61,0,0,0,41.78,64c5-.37,11.23-2.12,15.46-5,3.65-2.46,7-6.35,6.95-11.18a1.82,1.82,0,0,0-1.68-.25,78,78,0,0,1-14.24,1.52c-5.49.25-11,.43-16.49.36-2.76,0-5.51-.14-8.26-.32C21.15,49,18.72,48.45,16.34,48.43Z"></path><path class="cls-2" d="m73.49 22.8c-6.23-13.39-17.84-19.01-31.89-19.8-12.06-0.68-23 2.48-31.6 11.69a25.41 25.41 0 0 0-6.32 11.21c-1.46 5.89-1.53 11.96 2.84 17.1a14.24 14.24 0 0 0 9.16 5 79 79 0 0 0 15.32 1.13h5.7c2.67 0.09 5.32-0.09 8-0.07 3.71 0 7.44 0.06 11.14-0.23a50.92 50.92 0 0 0 5.51-0.71 19.71 19.71 0 0 0 11.76-7.32c3.35-4.34 3.15-10.58 1.41-15.5-0.3-0.85-0.65-1.68-1.03-2.5z"></path><path class="cls-3" d="M13.89,48.13h0c-2.2-.62-5.44-.74-7.23-2.32-1.5-1.32-2.33-4-2.79-5.91C2.39,34,2.21,28.24,4.77,22.56,9,13.26,16.83,8.81,26.16,6.48c3.5-.87,7.15-1.58,10.82-.62s4.64,3.55,2.29,6.5C36.05,16.4,33.59,20.77,33,26a.77.77,0,0,1,.09.69c-1.36,1.8-2.66,3.64-2.93,6C29.63,37,31.51,40.05,35,42.35A.59.59,0,0,1,35,43C34.79,45.14,19.63,49.77,13.89,48.13Z"></path><path class="cls-4" d="M31.56,49.87c-.39.83-.79,1.65-1.15,2.48-1.44,3.27,0,5.77,3.84,6.41,1.34.23,2.75.19,4.4,1.52-4.86,0-8.9-1.3-12.95-2.21-3.89-.87-7.62-2.41-10.44-5.53a7.17,7.17,0,0,1-2-3.65l.15-.12c1.65-.61,3.29-.17,4.92,0a72.37,72.37,0,0,0,10.19.48c1,0,2-.23,2.9.43Z"></path><path class="cls-5" d="M48.53,30.28C46.93,25.52,40.29,21.15,33,26c0,.13,0,.26-.07.38-5.43,4-4.37,13.74,2,16.3h0A2.14,2.14,0,0,1,35,43c4.28,1.47,8.26,1.14,11.51-2.28C49.35,37.73,49.82,34.11,48.53,30.28Z"></path><path class="cls-6" d="m33.05 26.09a32.29 32.29 0 0 0 1.87 14.67 5.28 5.28 0 0 1 0.2 2.3c-6.61-2.66-7.72-12.8-2.07-16.97z"></path><path class="cls-4" d="m5.18 43c1 11.8 59 9.5 64.6 1.2-11.3 4.46-57 8.06-64.6-1.2z"></path></g></svg>