<svg enable-background="new 0 0 104.2 109.6" version="1.1" viewBox="0 0 192 192" xml:space="preserve" xmlns="http://www.w3.org/2000/svg" width="192" height="192"><g transform="rotate(0 3.14 2.18) translate(17.673355611991255 21.51118674013422) scale(1.3955749556883519)"><style type="text/css"> .st0{fill:#9C1722;} .st1{fill:#231F20;} .st2{fill:#720F1B;} </style><path class="st0" d="m73.3 36.1c3.8-0.2 6.2 0.1 8.5 0.5 2.2 0.4 4 1.1 5.6 2s3.1 2.2 4.5 3.9c1.4 1.8 2.9 3.8 4.5 7.2-2.8 2.5-5.8 3.3-8.6 3.4s-5.5-0.7-7.8-2c-2.3-1.4-4.3-3.3-5.6-5.8-1.1-2.6-1.9-5.5-1.1-9.2z"></path><path class="st0" d="m74.1 33.7c0.6-1 1.2-1.8 1.8-2.5 0.6-0.8 1.1-1.4 1.6-2s1-1.2 1.5-1.7 1-1 1.5-1.4c2-1.7 3.8-2.9 5.9-3.8 2-0.8 4.2-1.3 6.8-1.5 0.6 0 1.3-0.1 2.1 0 0.7 0 1.5 0 2.3 0.1s1.6 0.1 2.6 0.3c0.9 0.1 1.9 0.3 3 0.5 0.2 2.3-0.1 4.1-0.6 5.9-0.5 1.7-1.3 3.2-2.3 4.6-1.9 2.7-4.5 4.6-7.4 5.8s-6.1 1.6-9.4 1.1c-1.6-0.3-3.3-0.8-4.8-1.6-1.6-0.9-3.2-2-4.6-3.8z"></path><path class="st1" d="m76.7 39.8s0.9-13.3-0.9-17.3c-4.9-10.9-18.4-18.4-31.1-18.7h-0.3-0.3c-12.7 0.3-26.2 7.8-31.1 18.6-1.8 4-0.9 16.9-0.9 16.9s-0.3 12.7 0.1 15.9c0.2 2.6 1.6 8.8 1.8 10.7 0 0.3 0.1 0.7 0.1 1l2.7 15c0 6.6 13.5 20.5 27.3 20.9h0.3 0.3c13.8-0.4 27.3-14.3 27.3-20.9l2.7-15c0.1-0.3 0.1-0.7 0.1-1 0.2-1.8 1.6-8.1 1.8-10.7 0.4-3.1 0.1-15.4 0.1-15.4zm-3.8 13.5c-1.3 4.4-5.3 7.6-9.9 7.9-3.5 0.2-15.8-2.7-18.7-2.7-2.8 0-15.2 2.9-18.7 2.7-4.6-0.3-8.5-3.5-9.9-7.9-1.7-5.8-1.9-12.6 2.5-13.6 6.4-1.5 16.4 4.6 25.7 4.9h0.3 0.3c9.4-0.3 19.4-6.4 25.7-4.9 4.6 1 4.4 7.8 2.7 13.6z"></path><path class="st2" d="m11.2 26.4v10.8s18.8 6 31.2 6.3 34-3.9 34-3.9l0.5-11.6s-32.7 7.1-57.1 2l-8.6-3.6z"></path><path class="st1" d="m42.1 102.8"></path><path class="st0" d="m11.2 36.8c5.6 1.9 10.8 3 16.5 3.7 2.8 0.4 5.7 0.5 8.5 0.6h4.3c1.4-0.1 2.8-0.1 4.2-0.2 5.7-0.4 11.3-1.3 16.8-2.5 2.8-0.6 5.5-1.3 8.3-2.1 2.7-0.7 4.6-1.6 5.9-2.9l0.8 7c-5.8 1.3-8.8 2.1-14.8 2.4-5.9 0.3-11.9 0.3-17.8-0.3l-4.4-0.5-4.4-0.6-4.4-0.8-4.4-1c-5.8-1.4-11.5-3.2-17-5.5l1.9-7.8c5.1 1.3 10.9 2.2 16.3 2.7 5.5 0.5 11 0.7 16.6 1l4.2 0.2c1.3 0.1 2.7 0.1 4.1 0.1 2.7 0 5.5-0.1 8.3-0.3s5.5-0.4 8.3-0.8 5.5-0.7 8.2-1.6c-0.6 1.2-2.1 2-3.4 2.5s-2.7 1-4 1.4c-2.7 0.8-5.4 1.5-8.2 2.1s-6 0.4-8.8 0.8c-1.4 0.2-2.9 0.3-4.3 0.4l-4.2 0.3c-5.7 0.6-11.3 0.9-17 0.9-5.7-0.1-11.5-0.4-17.4-1.6l2.3-7.5c5.2 1.8 10.6 3.3 16 4.4l4.1 0.8 4.1 0.6 4.1 0.5 4.1 0.4c5.5 0.4 11.1 0.6 16.6 0.3 5.5-0.2 11.1-0.8 16.5-1.7 0 0-0.7 1.8-0.8 3.9 0 2.7 0.5 5.9-0.5 6.3-1.7 0.7-3.4 1.1-4.9 1.4l-4.4 0.9c-1.5 0.2-3 0.5-4.4 0.7-5.9 0.8-12 1.3-18 1-6-0.2-12-1.1-17.8-2.7-5.6-1.6-10.6-3.8-15.7-6.9z"></path><path class="st2" d="m62.3 33.2c-2.1 0.4-4.3 0.7-6.5 1l-3.3 0.3c-1.1 0.1-2.2 0.2-3.3 0.2-4.4 0.2-8.8 0.1-13.1-0.2-4.4-0.3-8.7-0.9-13-1.7-2.2-0.4-4.3-0.9-6.4-1.4-2.1-0.6-3.8-1.1-5.9-1.8 4.3 0.9 8.1 1.7 12.5 2.3 4.3 0.6 8.6 1.1 13 1.4 4.3 0.3 8.7 0.5 13 0.5 2.2 0 4.3 0 6.5-0.2 2.1 0 4.3-0.3 6.5-0.4z"></path><path class="st2" d="m18.5 36.8c2 0.9 4 1.6 6.1 2 2.1 0.5 4.2 0.8 6.3 1.2 4.2 0.7 8.5 1.3 12.8 1.9 4.3 0.5 8.5 0.9 12.8 1.3 2.1 0.2 4.3 0.3 6.4 0.4 2.1 0.2 4.3 0.2 6.5 0.4-2.2 0.1-4.3 0.2-6.5 0.2s-4.3-0.1-6.5-0.1c-4.3-0.2-8.6-0.5-12.9-1.1s-8.6-1.2-12.8-2.1c-2.1-0.5-4.2-0.9-6.3-1.5-2.1-0.7-4.1-1.5-5.9-2.6z"></path><path class="st2" d="m76.6 36.8c-2 1.3-4.5 1.9-6.8 2.3-2.4 0.4-4.8 0.6-7.2 0.8-2.4 0.1-4.8 0.1-7.2 0.1l-3.6-0.1c-1.2-0.1-2.4-0.1-3.6-0.3 2.4-0.2 4.8-0.3 7.2-0.4l7.2-0.3c2.4-0.1 4.8-0.3 7.1-0.5 0.6-0.1 1.2-0.1 1.8-0.2s1.2-0.2 1.7-0.3c1.2-0.3 2.3-0.6 3.4-1.1z"></path><path class="st2" d="m76.7 27.7c0.6 1.8 0.5 3.8 0.2 5.7l-0.2-0.3c1.2 0.5 0.8 2 0.1 2.5-0.2 0.2-0.3 0.6-0.3 0.8 0 0.1 0.1 0.2 0.2 0.3s0.3 0.2 0.5 0.5c0.2 0.2 0.3 0.6 0.2 0.8 0 0.3-0.1 0.5-0.1 0.7l-0.3 1.2c-0.2 0.8-0.4 1.6-0.9 2.3h-0.1c0.2-0.8 0.3-1.6 0.4-2.4l0.1-1.2c0.1-0.4 0.1-0.7-0.1-0.9l-0.4-0.4c-0.2-0.2-0.3-0.5-0.3-0.8 0-0.6 0.2-1 0.6-1.4 0.3-0.3 0.5-0.5 0.5-0.8s-0.1-0.7-0.3-0.8l-0.2-0.1v-0.2c0.5-1.7 0.7-3.6 0.4-5.5z"></path><path class="st2" d="m76.7 34.7c4.5 0.9 9.4 0.2 13.6-2-4 2.5-9 3.6-13.8 3l0.2-1z"></path><path class="st2" d="m76.6 32.9c1.5-1.2 3-2.3 4.6-3.3-1.4 1.3-2.7 2.6-3.9 4.1l-0.7-0.8z"></path><path class="st2" d="m100.3 32.2c-1.2 1.9-2.9 3.5-4.8 4.7s-4 2.1-6.3 2.5c-2.2 0.5-4.6 0.5-6.8-0.1-1.1-0.3-2.2-0.7-3.2-1.2s-1.9-1.3-2.7-2l0.1-0.1c0.5 0.2 1 0.5 1.5 0.7l0.7 0.4c0.2 0.1 0.5 0.2 0.8 0.3 1 0.4 2.1 0.7 3.1 0.9 2.1 0.4 4.3 0.6 6.4 0.2 4.4-0.5 8.5-2.8 11.2-6.3z"></path></g></svg>