<svg enable-background="new 0 0 123 134" version="1.1" viewBox="0 0 192 192" xml:space="preserve" xmlns="http://www.w3.org/2000/svg" width="192" height="192"><g transform="rotate(0 3.14 2.18) translate(19.70534370870891 13.812667003283977) scale(1.2405635169315625)"><style type="text/css"> .st0{fill:#414042;} .st1{fill:#231F20;} .st2{fill:#A7A9AC;} .st3{fill:#939598;} .st4{fill:#808285;} .st5{fill:#D1D3D4;} .st6{fill:#BCBEC0;} .st7{fill:none;stroke:#231F20;stroke-width:0.75;stroke-miterlimit:10;} .st8{fill:#A7A9AC;stroke:#231F20;stroke-width:0.75;stroke-miterlimit:10;} </style><path class="st0" d="m95.3 81.6v13.5c0 1.5-1.5 4.8-5.6 7.9-5.1 3.8-11.9 4.2-17.3 0.9-2.8-1.7-6.6-2.7-10.7-2.7s-7.9 1-10.7 2.8c-5.5 3.3-12.4 2.9-17.5-1-4.1-3.1-5.5-6.4-5.5-7.8v-13.6h-8v18.9c0 5 2.3 9.7 6.3 12.8l12.6 9.7c2.8 2.2 6.3 3.4 9.8 3.4h26c3.6 0 7-1.2 9.8-3.4l12.6-9.7c4-3.1 6.3-7.8 6.3-12.8v-18.9h-8.1z"></path><path class="st1" d="m74.7 126.3c-1.3-9.3-6.6-16.2-13-16.2s-11.7 6.9-13 16.2h26z"></path><rect class="st2" x="16.7" y="46" width="90" height="36.8"></rect><path class="st2" d="m16.7 38h90c0-42.1-90-42.2-90 0z"></path><rect class="st3" x="16.7" y="38" width="90" height="8.9"></rect><rect class="st4" x="16.7" y="38" width="90" height="1.9"></rect><rect class="st5" x="44.3" y="46" width="34.8" height="36.8"></rect><rect class="st6" x="44.3" y="38" width="34.8" height="8.9"></rect><rect class="st2" x="44.3" y="38" width="34.8" height="1.9"></rect><path class="st5" d="M44.3,8.6V38H79V8.6C68,5.7,55.3,5.6,44.3,8.6z"></path><path class="st1" d="m95.8 64.8c0 2.1-1.7 3.8-3.8 3.8h-60.6c-2.1 0-3.8-1.7-3.8-3.8s1.7-3.8 3.8-3.8h60.5c2.1 0 3.9 1.7 3.9 3.8z"></path><line class="st7" x1="95.8" x2="106.7" y1="64.8" y2="64.8"></line><line class="st7" x1="16.7" x2="27.6" y1="64.8" y2="64.8"></line><ellipse class="st2" cx="16.7" cy="64.8" rx="2.4" ry="13.5"></ellipse><path class="st7" d="M16.7,51.3c1.3,0,2.4,6,2.4,13.5S18,78.3,16.7,78.3"></path><ellipse class="st8" cx="15.5" cy="64.8" rx="1.2" ry="6.8"></ellipse><ellipse class="st2" cx="106.7" cy="64.8" rx="2.4" ry="13.5"></ellipse><path class="st7" d="m106.7 51.3c-1.3 0-2.4 6-2.4 13.5s1.1 13.5 2.4 13.5"></path><ellipse class="st8" cx="107.9" cy="64.8" rx="1.2" ry="6.8"></ellipse></g></svg>