<svg viewBox="0 0 192 192" xmlns="http://www.w3.org/2000/svg" width="192" height="192"><g transform="rotate(0 3.14 2.18) translate(8.085260521823514 46.502994467278704) scale(1.151093151923751)"><defs><style>.cls-1{fill:#e18a2a;}.cls-2{fill:#c07029;}.cls-3{fill:#f3b31f;}.cls-4{fill:#be202e;}.cls-5{fill:#fff;}.cls-6{fill:#231f20;}.cls-7{fill:#046938;}</style></defs><ellipse class="cls-1" transform="translate(-8.51 21.26) rotate(-15)" cx="76.49" cy="42.95" rx="74.04" ry="36.95"></ellipse><ellipse class="cls-2" transform="translate(-7.9 21.02) rotate(-15)" cx="75.87" cy="40.51" rx="61.63" ry="30.89"></ellipse><path class="cls-3" d="m83.15 67.94c-31 8.37-60.62 2.74-64.51-12.12s18.9-34.5 49.93-42.72 60.62-2.74 64.51 12.12-18.9 34.49-49.93 42.72z"></path><ellipse class="cls-4" transform="translate(-10.29 12.61) rotate(-15)" cx="42.75" cy="45.39" rx="12.85" ry="6.35"></ellipse><ellipse class="cls-4" transform="translate(-3.63 20.29) rotate(-15)" cx="75.22" cy="23.91" rx="12.85" ry="6.35"></ellipse><ellipse class="cls-4" transform="translate(-12.31 20.4) rotate(-15)" cx="71.32" cy="56.93" rx="12.84" ry="6.35"></ellipse><ellipse class="cls-4" transform="translate(-5.62 28.11) rotate(-15)" cx="103.9" cy="35.41" rx="12.84" ry="6.35"></ellipse><path class="cls-5" d="m110.3 22.62a1.73 1.73 0 0 1-1.73-1.62 1.8 1.8 0 0 1 1.59-2l12.7-1.3a1.82 1.82 0 1 1 0.43 3.61l-12.7 1.3z"></path><path class="cls-5" d="M52.7,24.06A1.73,1.73,0,0,1,51,22.48a1.8,1.8,0,0,1,1.59-2l12.7-1.3a1.82,1.82,0,1,1,.43,3.61L53,24.06Z"></path><path class="cls-5" d="m78.68 38.35a1.78 1.78 0 0 1-1.44-0.72 1.68 1.68 0 0 1 0.43-2.45l9.09-6.64a1.76 1.76 0 1 1 2 2.89l-9.09 6.64a2.67 2.67 0 0 1-0.99 0.28z"></path><path class="cls-5" d="m102.9 49.32-11.83-0.43a1.81 1.81 0 1 1 0.14-3.61l11.83 0.43a1.79 1.79 0 0 1 1.73 1.88 1.89 1.89 0 0 1-1.87 1.73z"></path><path class="cls-5" d="M41,61.88A1.81,1.81,0,0,1,39.42,61a1.85,1.85,0,0,1,.72-2.45l10.68-5.92a1.81,1.81,0,1,1,1.73,3.18L41.87,61.73A1.83,1.83,0,0,1,41,61.88Z"></path><rect class="cls-6" transform="translate(-8.61 21.81) rotate(-14.98)" x="75.82" y="42.2" width="5.63" height="2.89"></rect><rect class="cls-6" transform="translate(-2.7 26.53) rotate(-15.02)" x="96.49" y="22.06" width="5.63" height="2.89"></rect><rect class="cls-6" transform="translate(-8.22 31.65) rotate(-15.01)" x="113.2" y="45.58" width="5.63" height="2.89"></rect><rect class="cls-6" transform="translate(-15.4 14.71) rotate(-15)" x="45.36" y="64.42" width="5.63" height="2.89"></rect><rect class="cls-6" transform="translate(-8.02 10.26) rotate(-14.98)" x="32.2" y="34.17" width="5.63" height="2.89"></rect><rect class="cls-7" transform="translate(-7.73 37.67) rotate(-38.51)" x="45.51" y="28.09" width="9.09" height="3.61"></rect><rect class="cls-7" transform="translate(32.94 88.16) rotate(-58.29)" x="93.71" y="11.08" width="3.61" height="6.93"></rect><rect class="cls-7" transform="translate(-3.51 74.22) rotate(-57.19)" x="64.52" y="36.93" width="3.61" height="6.78"></rect><rect class="cls-7" transform="translate(-7.66 98.96) rotate(-54.11)" x="89.31" y="55.17" width="7.51" height="3.61"></rect></g></svg>