<svg enable-background="new 0 0 89.4 131.4" version="1.1" viewBox="0 0 192 192" xml:space="preserve" xmlns="http://www.w3.org/2000/svg" width="192" height="192"><g transform="rotate(0 3.14 2.18) translate(37.451422374150155 9.743926483607126) scale(1.3194045662163345)"><style type="text/css"> .st0{fill:#994828;} .st1{fill:#813C1E;} .st2{fill:#6A2F12;} .st3{opacity:0.6;fill:#231F20;} .st4{fill:#231F20;} .st5{fill:#9C1722;} .st6{fill:#BE1E2D;} </style><path class="st0" d="M14.4,41.1c-4,0-7.2,5.7-7.2,12.7s3.2,12.7,7.2,12.7V41.1z"></path><path class="st0" d="M75,41.1c4,0,7.2,5.7,7.2,12.7S79,66.5,75,66.5V41.1z"></path><path class="st1" d="M44.7,3.8C27.2,3.8,13,18,13,35.5V46h63.4V35.5C76.4,18,62.2,3.8,44.7,3.8z"></path><path class="st0" d="m19.4 43.8v-8.4c0-14 11.4-25.4 25.4-25.4s25.4 11.4 25.4 25.4v8.4h-50.8z"></path><path class="st2" d="m44.7 90.7c-17.5 0-31.7-14.2-31.7-31.7v-17.6h63.4v17.6c0 17.5-14.2 31.7-31.7 31.7zm-26.8-44.4v12.7c0 14.8 12 26.8 26.8 26.8s26.8-12 26.8-26.8v-12.7h-53.6z"></path><ellipse class="st3" cx="62.3" cy="52.7" rx="12.7" ry="9.5"></ellipse><ellipse class="st3" cx="27.1" cy="52.7" rx="12.7" ry="9.5"></ellipse><path class="st4" d="m27.1 64.3c-8.2 0-14.8-5.2-14.8-11.6s6.6-11.6 14.8-11.6 14.8 5.2 14.8 11.6-6.6 11.6-14.8 11.6zm0-19c-5.7 0-10.6 3.4-10.6 7.4s4.8 7.4 10.6 7.4c5.7 0 10.6-3.4 10.6-7.4s-4.9-7.4-10.6-7.4z"></path><path class="st4" d="m62.3 64.3c-8.2 0-14.8-5.2-14.8-11.6s6.6-11.6 14.8-11.6 14.8 5.2 14.8 11.6-6.6 11.6-14.8 11.6zm0-19c-5.7 0-10.6 3.4-10.6 7.4s4.8 7.4 10.6 7.4c5.7 0 10.6-3.4 10.6-7.4s-4.8-7.4-10.6-7.4z"></path><ellipse class="st4" cx="44.7" cy="52.7" rx="8.8" ry="3.9"></ellipse><path class="st5" d="m65.4 99.1h-12.3v27.8c0 0.4 0.3 0.7 0.7 0.7s0.7-0.3 0.7-0.7v-3.1h1.4v3.1c0 0.4 0.3 0.7 0.7 0.7s0.7-0.3 0.7-0.7v-3.1h1.4v3.1c0 0.4 0.3 0.7 0.7 0.7s0.7-0.3 0.7-0.7v-3.1h1.4v3.1c0 0.4 0.3 0.7 0.7 0.7s0.7-0.3 0.7-0.7v-3.1h1.4v3.1c0 0.4 0.3 0.7 0.7 0.7s0.7-0.3 0.7-0.7v-27.8z"></path><path class="st5" d="m69.2 80.4c-0.6-0.3-1.2-0.3-1.8 0-4.3 2.5-11.5 4.9-22.7 4.9-11.1 0-18.4-2.4-22.7-4.9-0.6-0.3-1.2-0.3-1.8 0s-0.9 0.9-0.9 1.6v7.3c0 3.7 11.4 7.9 25.4 7.9s25.4-4.2 25.4-7.9v-7.3c0-0.7-0.4-1.3-0.9-1.6z"></path><path class="st6" d="m72.2 89.9c-0.6-0.4-1.4-0.4-2 0-4.8 2.8-13 5.5-25.5 5.5s-20.7-2.7-25.5-5.5c-0.6-0.4-1.4-0.4-2 0s-1 1-1 1.8v8.2c0 4.2 12.8 8.9 28.5 8.9 15.8 0 28.5-4.7 28.5-8.9v-8.2c0-0.8-0.3-1.4-1-1.8z"></path><path class="st2" d="m44.7 44.8c0.6 0 1.1-0.5 1.1-1.2v-39.8h-1.1-1.1v39.8c0.1 0.7 0.5 1.2 1.1 1.2z"></path></g></svg>