<svg enable-background="new 0 0 104.2 109.6" version="1.1" viewBox="0 0 192 192" xml:space="preserve" xmlns="http://www.w3.org/2000/svg" width="192" height="192"><g transform="rotate(0 3.14 2.18) translate(14.848866448492004 7.418160243775603) scale(1.5643592009929252)"><style type="text/css"> .st0{fill:#231F20;} .st1{fill:#B5721C;} .st2{fill:#935512;} .st3{fill:#FFD633;} .st4{opacity:0.59;fill:#FFFFFF;enable-background:new ;} .st5{opacity:0.6;fill:#D99F22;enable-background:new ;} .st6{fill:#FFFFFF;} .st7{fill:#334036;} .st8{fill:#508372;} .st9{font-family:'Gotham-Black';} .st10{font-size:15px;} </style><path class="st0" d="m42.1 102.8"></path><path class="st1" d="m10.5 85.7h83.2v15s-23.1-5-41.3-5-41.9 5-41.9 5v-15z"></path><rect class="st2" x="10.5" y="85.7" width="83.2" height="3.2"></rect><path class="st3" d="M77.2,22.9v-4.2H27v4.2H14.4v16.8c0,6.7,5.9,12.6,12.6,12.6v4.2c1.7,6.3,12.6,10.9,20.9,12.6v8.4H35.3 c0,0-4.2,6.3-4.2,8.4H73c0-1.7-4.2-8.4-4.2-8.4H56.3v-8.4c8.4-1.7,19.3-6.3,20.9-12.6v-4.2c6.7-0.8,12.6-5.9,12.6-12.6V22.9H77.2z M27,43.8c-2.1,0-4.2-2.1-4.2-4.2v-8.4H27V43.8z M81.4,39.6c0,2.1-2.1,4.2-4.2,4.2V31.2h4.2V39.6z"></path><path class="st4" d="m32.3 55.5v-36.8h-5.3v37.7c1.6 6.2 12.1 10.8 20.9 12.6h2.1c-7.9-1.5-16.4-10.3-17.7-13.5z"></path><rect class="st4" x="47.9" y="71.3" width="2" height="6"></rect><polygon class="st5" points="56.3 71.3 47.9 71.3 47.9 68.9 51.5 69.1 56.3 69"></polygon><path class="st5" d="m26.9 50.4c-5.8-0.7-9-3.8-10.3-6.2-2.8-5.1-2.1-11.2-2.2-16.5v-4.8 16.8c0 6.7 5.9 12.6 12.6 12.6 0-0.7 0-1.3-0.1-1.9z"></path><polygon class="st6" points="62.1 54.3 52.1 48 42 53.8 46.2 42.5 35.3 35.4 47.9 35.4 52.1 24.1 56.3 35.4 68 35.4 58.4 43 62.6 54.3"></polygon><rect class="st7" x="55.7" y="14" width="35.4" height="22.9"></rect><rect class="st8" x="57.5" y="12.3" width="35.4" height="22.9"></rect><text class="st6 st9 st10" transform="translate(61.61 29)">+15</text></g></svg>