<svg viewBox="0 0 192 192" xmlns="http://www.w3.org/2000/svg" width="192" height="192"><g transform="rotate(0 3.14 2.18) translate(38.71564996162191 11.606436422333118) scale(1.2909149304423233)"><defs><style>.cls-1,.cls-2{fill:none;}.cls-2{stroke:#231f20;stroke-width:4.32px;}.cls-3{fill:#030303;}.cls-4{fill:url(#a);}.cls-5{fill:#fff;opacity:0.25;}.cls-6{fill:#ccc;}.cls-7{fill:#231f20;}.cls-8{fill:#be202e;}.cls-9{fill:url(#d);}.cls-10{fill:url(#c);}.cls-11{fill:url(#b);}</style><radialGradient id="a" cx="44.71" cy="41.83" r="24.5" gradientUnits="userSpaceOnUse"><stop stop-color="#424143" offset="0"></stop><stop offset="1"></stop></radialGradient><pattern id="d" width="72" height="72" data-name="10 lpi 60%" patternTransform="translate(-81.23 33.2) rotate(-45) scale(.53)" patternUnits="userSpaceOnUse" viewBox="0 0 72 72"><g transform="translate(-0)"><rect class="cls-1" width="72" height="72"></rect><line class="cls-2" x1="-.25" x2="72.25" y1="68.4" y2="68.4"></line><line class="cls-2" x1="-.25" x2="72.25" y1="54" y2="54"></line><line class="cls-2" x1="-.25" x2="72.25" y1="39.6" y2="39.6"></line><line class="cls-2" x1="-.25" x2="72.25" y1="25.2" y2="25.2"></line><line class="cls-2" x1="-.25" x2="72.25" y1="10.8" y2="10.8"></line><line class="cls-2" x1="-20" x2="-6" y1="10.8" y2="10.8"></line><line class="cls-2" x1="-.25" x2="72.25" y1="61.2" y2="61.2"></line><line class="cls-2" x1="-.25" x2="72.25" y1="46.8" y2="46.8"></line><line class="cls-2" x1="-.25" x2="72.25" y1="32.4" y2="32.4"></line><line class="cls-2" x1="-.25" x2="72.25" y1="18" y2="18"></line><line class="cls-2" x1="-.25" x2="72.25" y1="3.6" y2="3.6"></line><line class="cls-2" x1="-20" x2="-6" y1="3.6" y2="3.6"></line></g></pattern><pattern id="c" width="72" height="72" data-name="10 lpi 60%" patternTransform="translate(-82.55 24.23) rotate(-45) scale(.47)" patternUnits="userSpaceOnUse" viewBox="0 0 72 72"><g transform="translate(-0)"><rect class="cls-1" width="72" height="72"></rect><line class="cls-2" x1="-.25" x2="72.25" y1="68.4" y2="68.4"></line><line class="cls-2" x1="-.25" x2="72.25" y1="54" y2="54"></line><line class="cls-2" x1="-.25" x2="72.25" y1="39.6" y2="39.6"></line><line class="cls-2" x1="-.25" x2="72.25" y1="25.2" y2="25.2"></line><line class="cls-2" x1="-.25" x2="72.25" y1="10.8" y2="10.8"></line><line class="cls-2" x1="-20" x2="-6" y1="10.8" y2="10.8"></line><line class="cls-2" x1="-.25" x2="72.25" y1="61.2" y2="61.2"></line><line class="cls-2" x1="-.25" x2="72.25" y1="46.8" y2="46.8"></line><line class="cls-2" x1="-.25" x2="72.25" y1="32.4" y2="32.4"></line><line class="cls-2" x1="-.25" x2="72.25" y1="18" y2="18"></line><line class="cls-2" x1="-.25" x2="72.25" y1="3.6" y2="3.6"></line><line class="cls-2" x1="-20" x2="-6" y1="3.6" y2="3.6"></line></g></pattern><pattern id="b" width="72" height="72" data-name="10 lpi 60%" patternTransform="translate(-81.23 38.2) rotate(-45) scale(.53)" patternUnits="userSpaceOnUse" viewBox="0 0 72 72"><g transform="translate(-0)"><rect class="cls-1" width="72" height="72"></rect><line class="cls-2" x1="-.25" x2="72.25" y1="68.4" y2="68.4"></line><line class="cls-2" x1="-.25" x2="72.25" y1="54" y2="54"></line><line class="cls-2" x1="-.25" x2="72.25" y1="39.6" y2="39.6"></line><line class="cls-2" x1="-.25" x2="72.25" y1="25.2" y2="25.2"></line><line class="cls-2" x1="-.25" x2="72.25" y1="10.8" y2="10.8"></line><line class="cls-2" x1="-20" x2="-6" y1="10.8" y2="10.8"></line><line class="cls-2" x1="-.25" x2="72.25" y1="61.2" y2="61.2"></line><line class="cls-2" x1="-.25" x2="72.25" y1="46.8" y2="46.8"></line><line class="cls-2" x1="-.25" x2="72.25" y1="32.4" y2="32.4"></line><line class="cls-2" x1="-.25" x2="72.25" y1="18" y2="18"></line><line class="cls-2" x1="-.25" x2="72.25" y1="3.6" y2="3.6"></line><line class="cls-2" x1="-20" x2="-6" y1="3.6" y2="3.6"></line></g></pattern></defs><path class="cls-3" d="M67.11,43.36a32.59,32.59,0,0,1-10.76-3.41c-7.44-3.68-10.86-1.86-11.64.24-.78-2.09-4.2-3.91-11.64-.24a32.55,32.55,0,0,1-10.76,3.41A26.33,26.33,0,0,1,10.3,42c2.74,3.81,8.57,8.74,21.41,7.36,7.11-.67,11.74-3,13-6,1.26,3.06,5.89,5.35,13,6C70.56,50.74,76.39,45.82,79.13,42A26.34,26.34,0,0,1,67.11,43.36Z"></path><path class="cls-4" d="M67.11,43.35a32.56,32.56,0,0,1-10.76-3.41c-7.44-3.68-10.86-1.86-11.64.24-.78-2.09-4.2-3.91-11.64-.24a32.55,32.55,0,0,1-10.76,3.41A26.33,26.33,0,0,1,10.3,42c5.38,3.94,13.86,5.64,22.78,1.11,7.44-3.68,10.86-1.86,11.64.24.78-2.09,4.2-3.91,11.64-.24,8.92,4.53,17.4,2.84,22.78-1.11A26.32,26.32,0,0,1,67.11,43.35Z"></path><path class="cls-5" d="M24.5,31.6C16.1,31.87,8.1,27,8.94,14.13c.7-10.56,30.31-10.64,30.31,0C39.26,27,32.28,31.36,24.5,31.6Z"></path><path class="cls-5" d="M64.93,31.6C57.15,31.36,50.17,27,50.17,14.13c0-10.64,29.62-10.56,30.31,0C81.33,27,73.33,31.87,64.93,31.6Z"></path><path class="cls-3" d="M65,3.77c-8.88,0-11.19,2.74-20.25,2.74S33.34,3.77,24.46,3.77A57.2,57.2,0,0,0,4.21,7.46v5.08c1.67.23,2.37,1.56,2.46,3.24C7,22.58,9,26.69,11.13,29c3.41,3.65,8.33,5.2,13.34,5,10-.31,15.3-6.82,16.93-17.28.86-5.52,5.77-5.52,6.63,0C49.66,27.19,55,33.7,65,34c5,.16,9.92-1.39,13.34-5,2.13-2.28,4.11-6.39,4.46-13.19.09-1.68.78-3,2.46-3.24V7.46A57.2,57.2,0,0,0,65,3.77ZM24.46,30.64c-7.76.24-15.15-4.26-14.37-16.14.64-9.76,28-9.83,28,0C38.1,26.35,31.66,30.41,24.46,30.64Zm40.5,0c-7.19-.22-13.64-4.29-13.64-16.14,0-9.83,27.37-9.76,28,0C80.11,26.38,72.72,30.88,65,30.64Z"></path><path class="cls-6" d="M7.48,9.29A1.84,1.84,0,0,0,5.9,10a1.84,1.84,0,0,0,1.58.71A1.84,1.84,0,0,0,9.06,10,1.84,1.84,0,0,0,7.48,9.29Z"></path><path class="cls-6" d="M81.94,9.29a1.85,1.85,0,0,0-1.58.71,2.12,2.12,0,0,0,3.16,0A1.84,1.84,0,0,0,81.94,9.29Z"></path><path class="cls-7" d="m57.55 127.6a1 1 0 0 1-1-1v-7.92a1 1 0 1 1 2 0v7.92a1 1 0 0 1-1 1z"></path><path class="cls-7" d="m61.45 127.6a1 1 0 0 1-1-1v-7.92a1 1 0 1 1 2 0v7.92a1 1 0 0 1-1 1z"></path><path class="cls-7" d="m65.36 127.6a1 1 0 0 1-1-1v-7.92a1 1 0 1 1 2 0v7.92a1 1 0 0 1-1 1z"></path><path class="cls-7" d="m69.26 127.6a1 1 0 0 1-1-1v-7.92a1 1 0 1 1 2 0v7.92a1 1 0 0 1-1 1z"></path><path class="cls-7" d="m73.16 127.6a1 1 0 0 1-1-1v-7.92a1 1 0 1 1 2 0v7.92a1 1 0 0 1-1 1z"></path><rect class="cls-8" x="56.57" y="87.12" width="17.56" height="17.56"></rect><rect class="cls-8" x="56.57" y="104.7" width="17.56" height="17.56"></rect><rect class="cls-9" x="56.57" y="104.7" width="17.56" height="17.56"></rect><path class="cls-8" d="m79.43 60.61a2.55 2.55 0 0 0-2.55 0c-6 3.5-16.37 6.93-32.17 6.93s-26.14-3.44-32.17-6.93a2.55 2.55 0 0 0-3.83 2.21v10.41c0 5.3 16.12 11.23 36 11.23s36-5.93 36-11.23v-10.41a2.55 2.55 0 0 0-1.28-2.21z"></path><path class="cls-10" d="M23.11,81.95a84.32,84.32,0,0,0,14.4,2.25V67.29a74,74,0,0,1-14.4-2.38Z"></path><path class="cls-10" d="m51.91 84.2a84.15 84.15 0 0 0 14.4-2.25v-17a74 74 0 0 1-14.4 2.38z"></path><path class="cls-8" d="M83.77,74.07a2.87,2.87,0,0,0-2.87,0c-6.79,3.93-18.41,7.8-36.19,7.8S15.31,78,8.52,74.08a2.87,2.87,0,0,0-4.31,2.48V88.27c0,6,18.13,12.63,40.5,12.63s40.5-6.68,40.5-12.63V76.56A2.86,2.86,0,0,0,83.77,74.07Z"></path><path class="cls-11" d="M83.77,74.07a2.87,2.87,0,0,0-2.87,0c-6.79,3.93-18.41,7.8-36.19,7.8S15.31,78,8.52,74.08a2.87,2.87,0,0,0-4.31,2.48V88.27c0,6,18.13,12.63,40.5,12.63s40.5-6.68,40.5-12.63V76.56A2.86,2.86,0,0,0,83.77,74.07Z"></path><path class="cls-7" d="m20.41 98.07a94.68 94.68 0 0 0 16.2 2.53v-19a83.22 83.22 0 0 1-16.2-2.67z"></path><path class="cls-7" d="M52.81,100.6A94.52,94.52,0,0,0,69,98.07V78.91a83.23,83.23,0,0,1-16.2,2.67Z"></path></g></svg>