<svg viewBox="0 0 192 192" xmlns="http://www.w3.org/2000/svg" width="192" height="192"><g transform="rotate(0 3.14 2.18) translate(32.03024078591223 14.875443202184428) scale(1.282601688503013)"><defs><style>.cls-1{fill:#d2d3d4;}.cls-2{fill:#e9f7fe;}.cls-3,.cls-4,.cls-5{fill:none;}.cls-3{stroke:#603b17;stroke-width:3.32px;}.cls-4{stroke:#fbb042;stroke-width:2.21px;}.cls-5{stroke:#fff;stroke-width:1.11px;opacity:0.59;isolation:isolate;}.cls-6{fill:#c9e6ed;}.cls-7{fill:#fff;}.cls-8{fill:#030303;}.cls-9{fill:url(#n);}.cls-10{fill:url(#h);}.cls-11{fill:url(#i);}.cls-12{fill:url(#j);}.cls-13{fill:url(#k);}.cls-14{fill:url(#l);}.cls-15{fill:url(#m);}</style><radialGradient id="n" cx="49.51" cy="113.9" r="16.61" gradientUnits="userSpaceOnUse"><stop stop-color="#424143" offset="0"></stop><stop offset="1"></stop></radialGradient><linearGradient id="h" x1="5.83" x2="94.99" y1="-66.21" y2="-66.21" gradientTransform="matrix(1 0 0 -1 0 7.75)" gradientUnits="userSpaceOnUse"><stop stop-color="#1b1c20" offset="0"></stop><stop stop-color="#2d2f34" offset=".28"></stop><stop stop-color="#35383d" offset=".51"></stop><stop stop-color="#303237" offset=".7"></stop><stop stop-color="#1f2025" offset=".95"></stop><stop stop-color="#1b1c20" offset="1"></stop></linearGradient><linearGradient id="i" x1="3.87" x2="95.66" y1="-67.22" y2="-67.22" gradientTransform="matrix(1 0 0 -1 0 7.75)" gradientUnits="userSpaceOnUse"><stop stop-color="#575f67" offset="0"></stop><stop stop-color="#4b5259" offset=".02"></stop><stop stop-color="#383c42" offset=".05"></stop><stop stop-color="#2d3134" offset=".08"></stop><stop stop-color="#292d30" offset=".11"></stop><stop stop-color="#383c42" offset=".3"></stop><stop stop-color="#40454b" offset=".47"></stop><stop stop-color="#3c4146" offset=".64"></stop><stop stop-color="#303438" offset=".85"></stop><stop stop-color="#2a2d30" offset=".93"></stop><stop stop-color="#42474d" offset=".96"></stop><stop stop-color="#515960" offset=".98"></stop><stop stop-color="#575f67" offset="1"></stop></linearGradient><linearGradient id="j" x1="5.04" x2="94.47" y1="-66.57" y2="-66.57" gradientTransform="matrix(1 0 0 -1 0 7.75)" gradientUnits="userSpaceOnUse"><stop stop-color="#798190" offset="0"></stop><stop stop-color="#656b77" offset=".02"></stop><stop stop-color="#525761" offset=".04"></stop><stop stop-color="#474a54" offset=".06"></stop><stop stop-color="#434750" offset=".08"></stop><stop stop-color="#4a4f58" offset=".13"></stop><stop stop-color="#606672" offset=".34"></stop><stop stop-color="#686f7b" offset=".47"></stop><stop stop-color="#646b76" offset=".61"></stop><stop stop-color="#585d68" offset=".77"></stop><stop stop-color="#494d58" offset=".9"></stop><stop stop-color="#636a75" offset=".94"></stop><stop stop-color="#737a88" offset=".98"></stop><stop stop-color="#798190" offset="1"></stop></linearGradient><linearGradient id="k" x1="14.5" x2="85.23" y1="43.89" y2="43.89" gradientUnits="userSpaceOnUse"><stop stop-color="#323437" offset="0"></stop><stop stop-color="#222325" offset=".15"></stop><stop stop-color="#181a1b" offset=".3"></stop><stop stop-color="#151718" offset=".47"></stop><stop stop-color="#17191a" offset=".66"></stop><stop stop-color="#222325" offset=".84"></stop><stop stop-color="#323437" offset="1"></stop></linearGradient><linearGradient id="l" x1="19.32" x2="80.59" y1="-62.56" y2="-62.56" gradientTransform="matrix(1 0 0 -1 0 7.75)" gradientUnits="userSpaceOnUse"><stop stop-color="#20222a" offset="0"></stop><stop stop-color="#1b1d24" offset=".02"></stop><stop stop-color="#111114" offset=".04"></stop><stop stop-color="#020202" offset=".06"></stop><stop stop-color="#17191d" offset=".09"></stop><stop stop-color="#282b33" offset=".12"></stop><stop stop-color="#2e313b" offset=".14"></stop><stop stop-color="#060707" offset=".29"></stop><stop stop-color="#2d2e32" offset=".37"></stop><stop stop-color="#50535b" offset=".45"></stop><stop stop-color="#5d616a" offset=".49"></stop><stop stop-color="#595d65" offset=".53"></stop><stop stop-color="#4c5057" offset=".57"></stop><stop stop-color="#383b40" offset=".61"></stop><stop stop-color="#1b1c1f" offset=".66"></stop><stop stop-color="#08090a" offset=".68"></stop><stop stop-color="#1d1f24" offset=".72"></stop><stop stop-color="#2f3239" offset=".75"></stop><stop stop-color="#3a3d46" offset=".78"></stop><stop stop-color="#3d414a" offset=".81"></stop><stop stop-color="#020202" offset=".92"></stop><stop stop-color="#0e0f10" offset=".95"></stop><stop stop-color="#20222a" offset="1"></stop></linearGradient><linearGradient id="m" x1="17.93" x2="81.51" y1="-2.1" y2="-2.1" gradientTransform="matrix(1 0 0 -1 0 7.75)" gradientUnits="userSpaceOnUse"><stop stop-color="#4c5155" stop-opacity=".2" offset="0"></stop><stop stop-color="#393d40" stop-opacity=".4" offset=".15"></stop><stop stop-color="#2e3132" offset=".31"></stop><stop stop-color="#292c2d" offset=".47"></stop><stop stop-color="#2d3031" offset=".64"></stop><stop stop-color="#373a3d" stop-opacity=".4" offset=".82"></stop><stop stop-color="#4b5054" stop-opacity=".2" offset="1"></stop></linearGradient></defs><g data-name="Layer 2"><circle class="cls-1" cx="66.18" cy="95.52" r="11.94"></circle><circle class="cls-2" cx="66.06" cy="94.29" r="10.09"></circle><circle class="cls-3" cx="66.06" cy="94.29" r="10.09"></circle><circle class="cls-4" cx="66.06" cy="94.29" r="10.09"></circle><circle class="cls-5" cx="66.06" cy="94.29" r="10.09"></circle><circle class="cls-6" cx="66.06" cy="94.29" r="7.23"></circle><path class="cls-7" d="M70.73,91.36a5.38,5.38,0,0,1-8.48,6.32,5.24,5.24,0,0,1-.45-.47,5.38,5.38,0,1,0,8.93-5.85Z"></path></g><path class="cls-8" d="m65.22 115.7c-3.13-0.7-3.8-2.15-5.89-3.72-5-3.67-9.29-1.86-9.82 0.23-0.53-2.09-4.83-3.9-9.82-0.23-2.09 1.58-2.76 3-5.89 3.72-2.29 0.52-4.24-0.16-7.43-1.66 1.84 3.81 5.76 8.74 14.4 7.36 4.78-0.67 7.89-3 8.74-6 0.85 3.05 4 5.34 8.74 6 8.63 1.38 12.56-3.55 14.4-7.36-3.19 1.5-5.13 2.18-7.43 1.66z"></path><path class="cls-9" d="M59.34,112c-5-3.72-9.29-1.86-9.82.23-.53-2.09-4.87-3.95-9.82-.23-6.68,5-10.13,3.56-13.32,2.06,3.62,3.94,7.32,5.64,13.32,1.11,5-3.66,9.28-1.87,9.82.22v0h0v0c.54-2.09,4.83-3.88,9.82-.22,6,4.53,9.7,2.84,13.32-1.11C69.46,115.57,66,117,59.34,112Z"></path><path class="cls-10" d="M86.13,58C81.67,61.4,75,62.64,70.57,62.67c-1.71,0-20.34-.59-20.81-.59s-19.1.47-20.81.59c-3.77.26-10.79-1.54-15.76-4.73-5.36-3.43-9.46-2.11-6.92,8.58S20.78,91.76,49.58,91.76,90.73,77.22,93.28,66.52,91.11,54.23,86.13,58Z"></path><path class="cls-11" d="M90.56,56c-1.94.27-8.44,4.58-12.07,5.88-1.25.25-1.11,1,.17.67,2.9-.74,8.3-4.26,10.63-5.12s3.13.34,3.4,1.11c.55,1.56.49,4.14-.4,8C89.8,77.2,77.9,90.7,49.77,90.7h0c-28.15,0-40-13.5-42.52-24.19-.9-3.87-.95-6.44-.4-8,.27-.77,1-2,3.4-1.11S18,61.78,20.88,62.52c1.24.32,1.41-.43.17-.67-3.52-1.36-10-5.69-12.07-5.91-4-.41-6.57,4-4.21,13C7.53,79.64,20,94,49.77,94h0c29.79,0,42.23-14.38,45-25C97.13,59.92,94.51,55.42,90.56,56Z"></path><path class="cls-12" d="M94.32,59.76A7.88,7.88,0,0,0,94,58.28a4.15,4.15,0,0,0-.79-1.37,2.77,2.77,0,0,0-1.39-.84,3.9,3.9,0,0,0-1.58,0,9.86,9.86,0,0,0-2.83,1.05c-.44.23-.87.49-1.29.72l-1.27.72q-1.28.71-2.59,1.37a48.79,48.79,0,0,1-5.37,2.32,43.58,43.58,0,0,1-11.44,2.43A43.91,43.91,0,0,0,71.25,64a42,42,0,0,0,5.7-1.48,49,49,0,0,0,5.46-2.21Q83.74,59.69,85,59l1.29-.7c.43-.24.85-.48,1.28-.69a9.61,9.61,0,0,1,2.67-1,3.32,3.32,0,0,1,1.33,0,2.13,2.13,0,0,1,1.07.67,5,5,0,0,1,1,2.54,16.34,16.34,0,0,1,.11,2.87A23.38,23.38,0,0,1,90.37,73.7a30.66,30.66,0,0,1-7.74,8.53,39.91,39.91,0,0,1-10.16,5.53,48,48,0,0,1-11.22,2.76,86.16,86.16,0,0,1-22.93,0A57.81,57.81,0,0,1,27,87.69a39.93,39.93,0,0,1-10.16-5.53,32.2,32.2,0,0,1-4.26-3.9,28.4,28.4,0,0,1-3.46-4.63,23.38,23.38,0,0,1-3.4-10.91,16.39,16.39,0,0,1,.11-2.87,5,5,0,0,1,1-2.54,2.13,2.13,0,0,1,1.07-.67,3.32,3.32,0,0,1,1.34,0,9.6,9.6,0,0,1,2.67.95c.43.22.85.45,1.28.69l1.29.7q1.3.69,2.63,1.32a49.06,49.06,0,0,0,5.46,2.21A42.09,42.09,0,0,0,28.28,64a43.85,43.85,0,0,0,5.86.67A43.57,43.57,0,0,1,22.7,62.21a48.62,48.62,0,0,1-5.37-2.32q-1.31-.66-2.59-1.37l-1.27-.72c-.42-.24-.85-.5-1.29-.73a9.88,9.88,0,0,0-2.83-1,3.9,3.9,0,0,0-1.58,0,2.77,2.77,0,0,0-1.41.87,4.16,4.16,0,0,0-.79,1.37,8,8,0,0,0-.37,1.5,17.15,17.15,0,0,0-.15,3A24.17,24.17,0,0,0,8.41,74.09a29.28,29.28,0,0,0,3.5,4.82,32.41,32.41,0,0,0,4.37,4,40.93,40.93,0,0,0,10.4,5.7,60.41,60.41,0,0,0,11.48,3.19,78.74,78.74,0,0,0,23.23,0,50.71,50.71,0,0,0,11.48-3.21,45.35,45.35,0,0,0,5.4-2.47,36.62,36.62,0,0,0,5-3.24,30.52,30.52,0,0,0,7.87-8.85,24.16,24.16,0,0,0,3.35-11.34A17,17,0,0,0,94.32,59.76Z"></path><path class="cls-13" d="M81,9.35C76.09,7.65,64.48,5,49.87,5S23.63,7.65,18.71,9.35s-4.37,4.51-4,5.93a155.38,155.38,0,0,1,2.87,16.67c.6,5,1.49,20.19,1.93,30.66.26,6.16.25,10.59.25,10.59C21,80.12,42.08,82.8,49.87,82.8s28.83-2.68,30.06-9.61c0,0-.14-4.39.11-10.4C80.47,52.28,81.5,37,82.11,31.95A155.53,155.53,0,0,1,85,15.28C85.38,13.86,85.93,11,81,9.35Z"></path><path class="cls-14" d="M80.25,57.82c.06.64-.55,1.19-1.43,1.72C74.35,62.27,60.31,63.78,49,63.69A109.85,109.85,0,0,1,32.65,62.5c-7.16-1.16-12.72-3-13.14-4.68-.3,5.23-.16,15.65-.16,15.65,0,4.18,11,9.34,30.55,9.34s30.51-3.67,30.51-9.34Z"></path><path class="cls-15" d="M49.27,6.21c10.84.06,24.89,2.77,28.21,4s4.51,2.56-.69,2.94c-6.21.44-20.6.39-28,.31s-22.62.22-27.53-.66c-2.31-.42-3.29-1.18.08-2.5C26.94,8.1,37.56,6.15,49.27,6.21Z"></path></g></svg>