<svg enable-background="new 0 0 195 180.4" version="1.1" viewBox="0 0 192 192" xml:space="preserve" xmlns="http://www.w3.org/2000/svg" width="192" height="192"><g transform="rotate(0 3.14 2.18) translate(-5.5542537125894285 11.219752342370924) scale(1.0402484375169212)"><style type="text/css"> .st0{fill:#1F1F26;} .st1{fill:#8B8B94;} .st2{enable-background:new ;} .st3{fill:#666666;} .st4{fill:#B1B2B3;} .st5{fill:#2E2E39;} .st6{fill:#B2B1B8;} .st7{fill:#FFFFFF;} .st8{fill:#5E5F61;} .st9{fill:#4C4D4D;} .st10{fill:none;stroke:#000000;stroke-width:0.9938;stroke-linecap:round;stroke-miterlimit:10;} .st11{fill:#EFEA37;} .st12{fill:#7D7F81;} .st13{fill:#656666;} .st14{fill:#D1D3D4;} .st15{fill:none;stroke:#000000;stroke-width:0.9972;stroke-linecap:round;stroke-miterlimit:10;} </style><path d="m54.8 23.6c-0.1 0-0.2008-3.9e-4 -0.3008 0.0996l-3 2.301v0.9004l2e-3 0.0762-3.502 2.723-14.2 11.1-0.8398 0.6641a0.5 0.5 0 0 0-0.06055-0.0332v-0.0312l-0.02734 0.0215a0.5 0.5 0 0 0-0.07227-0.0215h-2e-3l-0.0078-2e-3a0.5 0.5 0 0 0-0.08008-8e-3l-0.9102-0.0898-1.102 0.8984 0.0918 0.01c-0.2941 0.2046-0.4938 0.6981-0.6914 1.291l-0.7617 2.314-0.8379-0.6152-0.2031 0.041c-0.06558-0.0282-0.1317-0.041-0.1973-0.041l-0.7402 0.084c0.01349 8e-3 0.02753 0.0227 0.04102 0.0332-0.487-0.094-0.8008 0.7693-0.8008 2.184l1.201 67.8c0 0.2047 0.0294 0.4014 0.04492 0.6035l-0.04492-4e-3c0.05066 0.6079 0.1527 1.136 0.293 1.512 0.2024 0.7122 0.4872 1.275 0.8066 1.488l2.6 1.9v-0.0293l21.99 15.92a0.5001 0.5001 0 0 0 0.1133 0.0859v0.0254l2.6 1.898c0.1549 0.1239 0.3092 0.1025 0.4492-0.0156l0.3281-0.0371c0.5379 0.7462 1.406 1.254 2.424 1.254h77.3c1.412 0 2.537-0.9033 2.881-2.182l0.7207 0.082c-0.2084 0-0.3859-0.254-0.5117-0.6719 0.2024 0.4199 0.4906 0.5844 0.8106 0.3711l2.6-1.9v0.2012l21.8-16.4v-0.2012l2.6-1.898c0.6-0.4 1.1-2.002 1.1-3.602v-61.3c-0.1978-0.5934-0.2985-1.19-0.4941-1.977l-6e-3 -3.725c0-1.491-0.3955-3.177-1.088-3.59l0.0879-0.01-3-2.199-0.8984 0.0996 0.0195 0.0137a0.5 0.5 0 0 0-0.01 0 0.5 0.5 0 0 0-0.127 0.0254l-2.584-1.939-14.4-10.8-1.898-1.5v-0.9004l-1.101-0.9002-0.7969 0.0879-0.0234-8e-3 0.7207-0.0801c-0.1-0.1-0.1988-0.0996-0.2988-0.0996l-0.9004 0.0998c0.0328 0 0.0795 4e-3 0.123 8e-3a0.5 0.5 0 0 0-0.4199 0.377c-0.0352 0.0366-0.0724 0.0686-0.1035 0.1152l-2.6 3.674v-2.574c0-1.7-1.3-3-3-3h-8.5v1h-56.9v-1h-3.1c-0.7 0-1.4 0.3008-2 0.8008l-8.301 6.599c-0.1494 0.2987-0.2783 0.5781-0.4102 0.8594l-0.08984-6.059c0-1.296-0.3298-2.117-0.7734-2.121a0.5 0.5 0 0 0-0.207-0.0449 0.5 0.5 0 0 0-0.1797 0.0351zm-27.44 21.68c-0.0532-0.0299-0.107-0.0356-0.1602 0.0176zm28.34 88.65h0.09961l2e-3 0.0684z" fill="#fff"></path><g opacity=".986"><g style=""><path class="st0" d="m57.1 31 8.3-6.6c0.6-0.5 1.3-0.8 2-0.8h3.1v1h6.9v22.4c0 1.6 1.3 3 3 3h44c1.7 0 3-1.3 3-3v-23.4h8.5c1.7 0 3 1.3 3 3v70.6c0 1.6-1.3 3-3 3h-76.9c-1.7 0-3-1.3-3-3v-63.9c0.4-0.8 0.7-1.5 1.1-2.3z" style=""></path><g style=""><path d="M76.2,24.6v23c0,1.7,1.4,3.1,3.1,3.1h45.2c1.7,0,3.1-1.4,3.1-3.1v-23H76.2z" style=""></path><g style=""><path class="st1" d="M75,24.6v23c0,1.7,1.4,3.1,3.1,3.1h35c1.7,0,3.1-1.4,3.1-3v-23H75z" style=""></path><rect x="82.9" y="27.2" width="8.2" height="19.8" style=""></rect></g></g></g><g style=""><g class="st2" style=""><g style=""><polygon class="st3" points="164.2 41.8 163.3 41.9 159.7 39.2 160.6 39.1" style=""></polygon></g><g style=""><path class="st4" d="m167.5 116.7-0.9 0.1c0.4 0 0.7-0.9 0.7-2.2l0.9-0.1c0.1 1.3-0.2 2.1-0.7 2.2z" style=""></path></g><g style=""><polygon class="st4" points="163.2 66 162.2 66.1 146.4 54.2 147.3 54.1" style=""></polygon></g><g style=""><path class="st4" d="m162.6 66.3c-0.1 0-0.2 0-0.3-0.1 0.3 0 0.6-0.1 0.8-0.1h0.1c0.1 0.1 0.2 0.1 0.3 0.1-0.3 0-0.7 0-0.9 0.1z" style=""></path></g><g style=""><path class="st5" d="m141.9 98.3-2.6-1.9c-0.6-0.4-1.1-2.1-1.1-3.6v-61.3c0.1-0.7 0.3-1.2 0.4-1.9l2.9-4.1c0.2-0.3 0.5-0.4 0.7-0.2l1.1 0.8v0.9l1.9 1.5v22.1c0 1.6 0.5 3.3 1.1 3.7l15.8 11.9c0.6 0.5 1.1-0.5 1.1-2.1v-23l3 2.2c0.6 0.4 1.1 2.1 1.1 3.6v67.8c0 1.6-0.5 2.5-1.1 2l-2.6-1.9-21.7-16.5z" style=""></path></g><g style=""><path class="st4" d="m141.9 25 0.9-0.1c0.1 0 0.2 0 0.3 0.1l-0.9 0.1c0-0.1-0.2-0.1-0.3-0.1z" style=""></path></g><g style=""><polygon class="st4" points="144.3 26.8 143.4 26.9 143.4 26 144.3 25.9" style=""></polygon></g><g style=""><polygon class="st4" points="144.3 25.9 143.4 26 142.3 25.1 143.2 25" style=""></polygon></g><g style=""><path class="st4" d="m147.3 54.1-0.9 0.1c-0.6-0.5-1.1-2.1-1.1-3.7l0.9-0.1c0.1 1.6 0.5 3.3 1.1 3.7z" style=""></path></g><g style=""><polygon class="st4" points="146.2 50.4 145.3 50.5 145.3 28.4 146.2 28.3" style=""></polygon></g><g style=""><polygon class="st4" points="146.2 28.3 145.3 28.4 143.4 26.9 144.3 26.8" style=""></polygon></g><g style=""><polygon class="st4" points="151.5 34.7 150.5 34.8 147.6 32.7 148.6 32.6" style=""></polygon></g><g style=""><polygon class="st6" points="148.6 51.6 147.7 51.7 147.6 32.7 148.6 32.6" style=""></polygon></g><g style=""><polygon class="st6" points="151.5 53.7 150.5 53.8 147.7 51.7 148.6 51.6" style=""></polygon></g><g style=""><polygon class="st5" points="147.6 32.7 150.5 34.8 150.5 53.8 147.7 51.7" style=""></polygon></g><g style=""><polygon class="st4" points="151.5 53.7 150.5 53.8 150.5 34.8 151.5 34.7" style=""></polygon></g><g style=""><polygon class="st4" points="159.6 63.3 158.6 63.4 146.4 54.2 147.3 54.1" style=""></polygon></g><g style=""><path class="st4" d="m159.9 63.4-0.9 0.1c-0.1 0-0.2 0-0.3-0.1l0.9-0.1c0.1 0.1 0.2 0.2 0.3 0.1z" style=""></path></g><g style=""><path class="st6" d="m159.9 63.4-0.9 0.1c0.4 0 0.8-0.9 0.8-2.2l0.9-0.1c0 1.3-0.4 2.2-0.8 2.2z" style=""></path></g><g style=""><path class="st1" d="m159.7 39.2v22.1c0 1.6-0.5 2.6-1.1 2.1l-12.2-9.2c-0.6-0.4-1.1-2.1-1.1-3.7v-22.1l14.4 10.8zm-12 12.5 2.9 2.2v-19l-2.9-2.2v19" style=""></path></g><g style=""><path class="st5" d="m159.7 39.2 3.6 2.7v22.1c0 1.6-0.5 2.6-1.1 2.1l-15.8-11.9 12.2 9.2c0.6 0.4 1.1-0.5 1.1-2.1v-22.1z" style=""></path></g><g style=""><polygon class="st6" points="160.6 39.1 159.7 39.2 145.3 28.4 146.2 28.3" style=""></polygon></g><g style=""><polygon class="st4" points="168.3 114.5 167.3 114.6 167.3 46.8 168.2 46.7" style=""></polygon></g><g style=""><path class="st4" d="m168.2 46.7-0.9 0.1c0-1.6-0.5-3.2-1.1-3.6l0.9-0.1c0.7 0.4 1.1 2.1 1.1 3.6z" style=""></path></g><g style=""><polygon class="st4" points="167.2 43.1 166.3 43.2 163.3 41 164.2 40.9" style=""></polygon></g></g></g><g style=""><g class="st2" style=""><g style=""><path class="st4" d="m49.3 51.9-0.9-0.1c0 1.6-0.4 3.3-1 3.7l0.9 0.1c0.5-0.4 1-2.1 1-3.7z" style=""></path></g><g style=""><path class="st4" d="m51.9 49c0 1.6-0.4 3.3-1 3.8 0.3 0 0.6 0 0.8 0.1h0.1c0.6-0.5 1.1-2.1 1-3.8-0.2 0-0.6 0-0.9-0.1z" style=""></path></g><g style=""><polygon class="st4" points="52.5 27 51.5 26.9 51.9 49 52.8 49.1" style=""></polygon></g><g style=""><path class="st5" d="m48.9 29.8 0.3 22.1c0 1.6-0.4 3.3-1 3.7l-12.1 9.4 15.6-12.2c0.6-0.5 1.1-2.1 1-3.8l-0.2-22-3.6 2.8z" style=""></path></g><g style=""><polygon class="st4" points="48.9 29.8 48 29.7 48.3 51.8 49.3 51.9" style=""></polygon></g><g style=""><polygon class="st6" points="39.9 39.4 39 39.3 39.3 58.3 40.2 58.4" style=""></polygon></g><g style=""><polygon class="st6" points="40.2 58.4 39.3 58.3 36.4 60.5 37.4 60.6" style=""></polygon></g><g style=""><polygon class="st5" points="37.1 41.6 37.4 60.6 40.2 58.4 39.9 39.4" style=""></polygon></g><g style=""><polygon class="st4" points="37.1 41.6 36.1 41.5 36.4 60.5 37.4 60.6" style=""></polygon></g><g style=""><path class="st6" d="m34.9 65.1 0.9 0.1c-0.4 0-0.8-0.9-0.8-2.2l-0.9-0.1c0 1.3 0.4 2.2 0.8 2.2z" style=""></path></g><g style=""><path class="st1" d="m49.3 51.9c0 1.6-0.4 3.3-1 3.7l-12.1 9.4c-0.6 0.5-1.1-0.5-1.1-2.1l-0.3-22.1 14.2-11.1 0.3 22.2zm-11.9 8.7 2.8-2.2-0.3-19-2.8 2.2 0.3 19" style=""></path></g><g style=""><path class="st4" d="m28.6 118 0.9 0.1c-0.4 0-0.7-0.9-0.8-2.1l-0.9-0.1c0.1 1.2 0.4 2.1 0.8 2.1z" style=""></path></g><g style=""><polygon class="st6" points="34.7 40.9 33.8 40.8 34.1 62.9 35 63" style=""></polygon></g><g style=""><polygon class="st4" points="34.7 40.9 33.8 40.8 31.9 42.3 32.8 42.4" style=""></polygon></g><g style=""><path class="st5" d="m54 99.2 2.6-2c0.6-0.4 1-2.1 1-3.6l-1-67.8c0-1.6-0.5-2.5-1.1-2l-2.9 2.3v0.9l0.4 22.1c0 1.6-0.4 3.3-1 3.8l-15.8 12.2c-0.2 0.2-0.5 0.1-0.6-0.1l-0.1-0.2c-0.2-0.4-0.4-1-0.4-1.9l-0.3-22.1-1.9 1.5v-0.9l-1.1 0.8c-0.3 0.2-0.5 0.7-0.7 1.3l-2.8 8.6c-0.1 0.9-0.2 1.6-0.4 2.5l0.9 61.3c0 1.6 0.5 2.5 1.1 2l2.6-2 21.5-16.7z" style=""></path></g><g style=""><path class="st4" d="m55.7 23.7-0.9-0.1c-0.1 0-0.2 0-0.3 0.1l0.9 0.1c0.1-0.1 0.2-0.1 0.3-0.1z" style=""></path></g><g style=""><polygon class="st4" points="52.5 26.1 51.5 26 51.5 26.9 52.5 27" style=""></polygon></g><g style=""><polygon class="st4" points="55.4 23.8 54.5 23.7 51.5 26 52.5 26.1" style=""></polygon></g><g style=""><polygon class="st4" points="52.5 27 51.6 26.9 48 29.7 48.9 29.8" style=""></polygon></g><g style=""><polygon class="st6" points="48.9 29.8 48 29.7 33.8 40.8 34.7 40.9" style=""></polygon></g><g style=""><polygon class="st4" points="32.8 41.4 31.8 41.3 30.7 42.2 31.7 42.3" style=""></polygon></g><g style=""><path class="st4" d="m31.7 42.3-0.9-0.1c-0.3 0.2-0.5 0.7-0.7 1.3l0.9 0.1c0.2-0.7 0.4-1.1 0.7-1.3z" style=""></path></g><g style=""><polygon class="st4" points="31 43.6 30.1 43.5 27.3 52 28.2 52.1" style=""></polygon></g><g style=""><path class="st4" d="m28.2 52.1-0.9-0.1c-0.1 0.9-0.2 1.6-0.4 2.5l0.9 0.1c0.2-0.8 0.3-1.6 0.4-2.5z" style=""></path></g><g style=""><polygon class="st4" points="27.9 54.6 26.9 54.5 27.9 115.9 28.8 116" style=""></polygon></g></g></g></g><g opacity=".986"><g style=""><g class="st2" style=""><g style=""><polygon class="st3" points="142.7 62.9 143.6 63 147.2 60.3 146.3 60.2" style=""></polygon></g><g style=""><path class="st4" d="m139.4 137.7 0.9 0.1c-0.4 0-0.7-0.9-0.7-2.2l-0.9-0.1c0 1.4 0.3 2.2 0.7 2.2z" style=""></path></g><g style=""><polygon class="st4" points="143.8 87.1 144.7 87.2 160.5 75.3 159.6 75.2" style=""></polygon></g><g style=""><path class="st4" d="m143.4 87.2 0.9 0.1c-0.4 0-0.8-0.9-0.8-2.2l-0.9-0.1c0.1 1.3 0.4 2.2 0.8 2.2z" style=""></path></g><g style=""><path class="st4" d="m144.4 87.3c0.1 0 0.2 0 0.3-0.1-0.3 0-0.6-0.1-0.8-0.1h-0.1c-0.1 0.1-0.2 0.1-0.3 0.1 0.2 0.1 0.6 0.1 0.9 0.1z" style=""></path></g><g style=""><polygon class="st7" points="142.3 96.5 143.2 96.6 165 80.2 164.1 80.1" style=""></polygon></g><g style=""><path class="st8" d="m168.7 52.4v61.3c0 1.6-0.5 3.2-1.1 3.6l-2.6 1.9v-39.2l-21.8 16.4v39.2l-2.6 1.9c-0.6 0.4-1.1-0.5-1.1-2v-67.8c0-1.6 0.5-3.2 1.1-3.6l3-2.2v23c0 1.6 0.5 2.6 1.1 2.1l15.8-11.9c0.6-0.5 1.1-2.1 1.1-3.7v-22.1l1.9-1.5v-0.9l1.1-0.8c0.3-0.2 0.5-0.1 0.7 0.2l2.9 4.1c0.2 0.8 0.3 1.4 0.5 2zm-26.7 80v-3.1l-1.1 0.9v3.1l1.1-0.9m25.3-19.1v-3.1l-1.1 0.9v3.1l1.1-0.9" style=""></path></g><g style=""><polygon class="st0" points="167.3 110.2 166.1 111.1 166.1 114.2 167.3 113.3" style=""></polygon></g><g style=""><path class="st4" d="m165 46.1-1-0.1c-0.1 0-0.2 0-0.3 0.1l0.9 0.1c0.2-0.1 0.3-0.1 0.4-0.1z" style=""></path></g><g style=""><polygon class="st4" points="162.6 47.9 163.6 48 163.6 47 162.6 46.9" style=""></polygon></g><g style=""><polygon class="st4" points="162.6 46.9 163.6 47 164.7 46.2 163.7 46.1" style=""></polygon></g><g style=""><path class="st4" d="m159.6 75.2 0.9 0.1c0.6-0.5 1.1-2.1 1.1-3.7l-0.9-0.1c0 1.6-0.5 3.2-1.1 3.7z" style=""></path></g><g style=""><polygon class="st4" points="160.7 71.4 161.6 71.5 161.6 49.4 160.7 49.3" style=""></polygon></g><g style=""><polygon class="st4" points="160.7 49.3 161.6 49.4 163.6 48 162.6 47.9" style=""></polygon></g><g style=""><polygon class="st4" points="155.5 55.8 156.4 55.9 159.3 53.7 158.3 53.6" style=""></polygon></g><g style=""><polygon class="st6" points="158.3 72.6 159.3 72.7 159.3 53.7 158.3 53.6" style=""></polygon></g><g style=""><polygon class="st6" points="155.5 74.8 156.4 74.9 159.3 72.7 158.3 72.6" style=""></polygon></g><g style=""><polygon class="st9" points="159.3 53.7 156.4 55.9 156.4 74.9 159.3 72.7" style=""></polygon></g><g style=""><polygon class="st4" points="155.5 74.8 156.4 74.9 156.4 55.9 155.5 55.8" style=""></polygon></g><g style=""><polygon class="st4" points="147.3 84.4 148.3 84.5 160.5 75.3 159.6 75.2" style=""></polygon></g><g style=""><path class="st4" d="m147 84.5 0.9 0.1c0.1 0 0.2 0 0.3-0.1l-0.9-0.1c-0.1 0.1-0.2 0.1-0.3 0.1z" style=""></path></g><g style=""><path class="st6" d="m147 84.5 0.9 0.1c-0.4 0-0.8-0.9-0.8-2.2l-0.9-0.1c0.1 1.3 0.4 2.2 0.8 2.2z" style=""></path></g><g style=""><polygon class="st0" points="142 129.3 140.9 130.1 140.9 133.2 142 132.4" style=""></polygon></g><g style=""><path class="st6" d="m161.6 49.4v22.1c0 1.6-0.5 3.3-1.1 3.7l-12.2 9.2c-0.6 0.4-1.1-0.5-1.1-2.1v-22.1l14.4-10.8zm-2.3 23.3v-19l-2.9 2.2v19l2.9-2.2" style=""></path></g><g style=""><path class="st9" d="m147.2 60.3-3.6 2.7v22.1c0 1.6 0.5 2.6 1.1 2.1l15.8-11.9-12.2 9.2c-0.6 0.4-1.1-0.5-1.1-2.1v-22.1z" style=""></path></g><g style=""><polygon class="st6" points="146.3 60.2 147.2 60.3 161.6 49.4 160.7 49.3" style=""></polygon></g><g style=""><path class="st7" d="m143.2 135.8v-39.2l21.8-16.4v39.2l-21.8 16.4z" style=""></path></g><g style=""><polygon class="st4" points="138.7 135.6 139.6 135.7 139.6 67.9 138.7 67.8" style=""></polygon></g><g style=""><path class="st4" d="m138.7 67.8 0.9 0.1c0-1.6 0.5-3.2 1.1-3.6l-0.9-0.1c-0.6 0.4-1.1 2-1.1 3.6z" style=""></path></g><g style=""><polygon class="st4" points="139.7 64.2 140.7 64.3 143.6 62.1 142.7 62" style=""></polygon></g></g></g><g style=""><g class="st2" style=""><g style=""><path class="st4" d="m34.6 73.2 0.9-0.1c0 1.6 0.5 3.3 1.1 3.7l-0.9 0.1c-0.6-0.4-1.1-2.1-1.1-3.7z" style=""></path></g><g style=""><path class="st4" d="m31.9 70.4c0 1.6 0.5 3.3 1.2 3.7-0.3 0-0.6 0.1-0.8 0.1h-0.1c-0.6-0.4-1.1-2.1-1.2-3.7 0.2 0 0.6 0 0.9-0.1z" style=""></path></g><g style=""><polygon class="st4" points="30.5 48.5 31.5 48.4 31.9 70.4 30.9 70.6" style=""></polygon></g><g style=""><path class="st9" d="m34.2 51.1 0.4 22.1c0 1.6 0.5 3.3 1.1 3.7l12.4 9-16-11.7c-0.6-0.4-1.1-2.1-1.2-3.7l-0.4-22.1 3.7 2.7z" style=""></path></g><g style=""><polygon class="st4" points="34.2 51.1 35.1 51 35.5 73.1 34.6 73.2" style=""></polygon></g><g style=""><polygon class="st6" points="43.5 60.4 44.5 60.3 44.8 79.3 43.9 79.4" style=""></polygon></g><g style=""><polygon class="st6" points="43.9 79.4 44.8 79.3 47.7 81.4 46.8 81.5" style=""></polygon></g><g style=""><polygon class="st9" points="46.4 62.5 46.8 81.5 43.9 79.4 43.5 60.4" style=""></polygon></g><g style=""><polygon class="st4" points="46.4 62.5 47.4 62.4 47.7 81.4 46.8 81.5" style=""></polygon></g><g style=""><path class="st6" d="m49.4 85.9-0.9 0.1c0.4-0.1 0.7-0.9 0.7-2.2l0.9-0.1c0 1.3-0.3 2.2-0.7 2.2z" style=""></path></g><g style=""><path class="st6" d="m34.2 51.1 14.6 10.6 0.4 22.1c0 1.6-0.4 2.6-1 2.1l-12.4-9c-0.6-0.4-1.1-2.1-1.1-3.7l-0.5-22.1zm12.6 30.4-0.3-19-2.9-2.1 0.3 19 2.9 2.1" style=""></path></g><g style=""><path class="st4" d="m57.4 138.6-0.9 0.1c0.4-0.1 0.7-0.9 0.7-2.2l0.9-0.1c0 1.3-0.3 2.2-0.7 2.2z" style=""></path></g><g style=""><polygon class="st6" points="48.8 61.7 49.7 61.6 50.1 83.7 49.2 83.8" style=""></polygon></g><g style=""><polygon class="st4" points="48.8 61.7 49.7 61.6 51.7 63 50.7 63.1" style=""></polygon></g><g style=""><path class="st8" d="m57.2 136.6-1.1-61.3c-0.2-0.9-0.3-1.6-0.4-2.5l-3.1-8.5c-0.2-0.6-0.5-1.1-0.7-1.3l-1.1-0.8v0.9l-2-1.4 0.4 22.1c0 0.8-0.1 1.5-0.3 1.9l-0.1 0.2c-0.2 0.2-0.4 0.3-0.6 0.1l-16-11.7c-0.6-0.4-1.1-2.1-1.2-3.7l-0.4-22.1v-0.9l-3-2.2c-0.6-0.4-1 0.5-1 2.1l1.2 67.8c0 1.6 0.5 3.2 1.1 3.6l2.6 1.9-0.7-39.2 22.1 16 0.7 39.2 2.6 1.9c0.5 0.4 1-0.6 1-2.1zm-28.2-22-0.1-3.1 1.2 0.8 0.1 3.1-1.2-0.8m25.6 18.6-0.1-3.1 1.2 0.8 0.1 3.1-1.2-0.8" style=""></path></g><g style=""><polygon class="st0" points="30.1 112.4 30.1 115.4 29 114.6 28.9 111.5" style=""></polygon></g><g style=""><path class="st4" d="m27.2 45.3 0.9-0.1c0.1 0 0.2 0 0.3 0.1l-0.9 0.1c-0.1-0.1-0.2-0.2-0.3-0.1z" style=""></path></g><g style=""><polygon class="st4" points="30.5 47.5 31.5 47.4 31.5 48.4 30.5 48.5" style=""></polygon></g><g style=""><polygon class="st4" points="27.5 45.4 28.5 45.2 31.5 47.4 30.5 47.5" style=""></polygon></g><g style=""><polygon class="st4" points="30.5 48.5 31.5 48.3 35.1 51 34.2 51.1" style=""></polygon></g><g style=""><path class="st7" d="m53.5 136.7-0.7-39.2-22.1-16 0.7 39.2 22.1 16z" style=""></path></g><g style=""><polygon class="st0" points="55.7 131 55.7 134 54.6 133.2 54.5 130.1" style=""></polygon></g><g style=""><polygon class="st6" points="34.2 51.1 35.1 51 49.7 61.6 48.8 61.7" style=""></polygon></g><g style=""><polygon class="st4" points="50.7 62.2 51.7 62.1 52.8 62.9 51.8 63" style=""></polygon></g><g style=""><path class="st4" d="m51.8 63 0.9-0.1c0.3 0.2 0.5 0.7 0.7 1.3l-0.9 0.1c-0.1-0.6-0.4-1.1-0.7-1.3z" style=""></path></g><g style=""><polygon class="st4" points="52.6 64.3 53.5 64.2 56.6 72.6 55.6 72.8" style=""></polygon></g><g style=""><path class="st4" d="m55.6 72.8 0.9-0.1c0.2 0.9 0.3 1.6 0.4 2.5l-0.9 0.1c-0.1-0.9-0.2-1.7-0.4-2.5z" style=""></path></g><g style=""><polygon class="st4" points="56.1 75.2 57 75.1 58.1 136.5 57.2 136.6" style=""></polygon></g></g></g><path class="st10" d="m45.5 108.9-11-8" style=""></path><path class="st10" d="m45.4 114.1-10.8-7.9" style=""></path><line class="st10" x1="34.4" x2="42.2" y1="95.6" y2="101.3" style=""></line><path class="st10" d="m146.6 111 10.9-8.2" style=""></path><path class="st10" d="m146.6 116.3 10.7-8" style=""></path><path class="st10" d="m146.6 105.7 7.7-5.8" style=""></path></g><g opacity=".986"><path class="st11" d="m53.5 136.7-0.2-11.2-22.1-16 0.2 11.2 22.1 16z" style=""></path></g><g opacity=".986"><path class="st11" d="m143.2 135.8v-11.2l21.8-16.4v11.2l-21.8 16.4z" style=""></path></g><g opacity=".986"><g style=""><path class="st12" d="m138.5 70.4-8.3-6.6c-0.6-0.5-1.3-0.8-2.1-0.8h-3.2v1h-6.9v22.5c0 1.6-1.3 3-3 3h-44.1c-1.7 0-3-1.3-3-3v-23.5h-8.5c-1.7 0-3 1.3-3 3v70.9c0 1.6 1.3 3 3 3h77.3c1.7 0 3-1.3 3-3v-64.2c-0.5-0.8-0.8-1.5-1.2-2.3z" style=""></path><g style=""><path class="st13" d="M119.4,64v23.1c0,1.7-1.4,3.1-3.1,3.1H70.9c-1.7,0-3.1-1.4-3.1-3.1V64H119.4z" style=""></path><g style=""><path class="st14" d="M119.4,64v23.1c0,1.7-1.4,3.1-3.1,3.1H81.2c-1.7,0-3.1-1.4-3.1-3.1V64H119.4z" style=""></path><rect class="st13" x="104.4" y="66.7" width="8.3" height="19.9" style=""></rect></g></g><rect class="st7" x="66.7" y="98.9" width="62.4" height="41" style=""></rect><line class="st15" x1="76.4" x2="98.5" y1="110.7" y2="110.7" style=""></line><line class="st15" x1="76.4" x2="107.5" y1="116.2" y2="116.2" style=""></line><line class="st15" x1="76.4" x2="107" y1="121.8" y2="121.8" style=""></line><rect class="st0" x="59.9" y="132.1" width="3.3" height="3.2" style=""></rect><rect class="st0" x="132.4" y="132.1" width="3.3" height="3.2" style=""></rect></g><rect class="st11" x="66.7" y="127.2" width="62.4" height="12.7" style=""></rect></g></g></svg>