<svg enable-background="new 0 0 90.2 87.2" version="1.1" viewBox="0 0 192 192" xml:space="preserve" xmlns="http://www.w3.org/2000/svg" width="192" height="192"><g transform="rotate(0 3.14 2.18) translate(15.280159387526524 21.97084136342673) scale(1.7266276066839246)"><style type="text/css"> .st0{fill:#DD337F;} .st1{opacity:0.23;fill:url(#a);} .st2{fill:none;stroke:#890E46;stroke-width:2;stroke-linecap:round;stroke-miterlimit:10;} .st3{fill:none;stroke:#B7125D;stroke-width:2;stroke-linecap:round;stroke-miterlimit:10;} .st4{fill:none;stroke:#D4719E;stroke-width:0.25;stroke-linecap:round;stroke-miterlimit:10;} .st5{fill:#890E46;} .st6{fill:#B7125D;} .st7{fill:#A6265F;} .st8{fill:#D4719E;} .st9{fill:#E45C99;} </style><path class="st0" d="m12.2 56.8c-1.5-5.4-5.7-17.7-2.5-28.3 2.3-7.8 7.6-14.5 14.2-18.5 7-4.1 17.2-6 25.2-5.1 3.4 0.4 6.9 1.6 10.1 3 3.3 1.4 5.5 3.5 7.9 6.3 2.5 2.9 4.7 7.5 5.8 11.2 0.3 1.1 2.5 12.1 2.3 12.1 0 0-15.7-1.6-25 0.6s-25 8-31.5 13.2c-6.6 5.4-6.5 5.5-6.5 5.5z"></path><linearGradient id="a" x1="64.46" x2="4.83" y1="14.3" y2="52.28" gradientUnits="userSpaceOnUse"><stop stop-color="#fff" offset="0"></stop><stop offset="1"></stop></linearGradient><path class="st1" d="m12.2 56.8c-1.5-5.4-5.7-17.7-2.5-28.3 2.3-7.8 7.6-14.5 14.2-18.5 7-4.1 17.2-6 25.2-5.1 3.4 0.4 6.9 1.6 10.1 3 3.3 1.4 5.5 3.5 7.9 6.3 2.5 2.9 4.7 7.5 5.8 11.2 0.3 1.1 2.5 12.1 2.3 12.1 0 0-15.7-1.6-25 0.6s-25 8-31.5 13.2c-6.6 5.4-6.5 5.5-6.5 5.5z"></path><path class="st2" d="M11.4,53.4C22,38.1,39.6,28,58.1,26.7c5.7-0.4,12.1,0.2,15.8,4.5"></path><path class="st2" d="m8.6 41.6c9.8-15.1 27.8-24.6 45.8-24.2 6.2 0.1 12.9 3.3 17.4 7.2"></path><path class="st3" d="M11.4,52.9C22,37.7,39.6,27.6,58.1,26.2c5.7-0.4,12.1,0.2,15.8,4.5"></path><path class="st3" d="M8.6,41.2C18.4,26.1,36.3,16.6,54.3,17c6.2,0.1,13,3.1,17.4,7.2"></path><path class="st4" d="m10.5 53.4c10.6-15.2 29.2-26.3 47.7-27.7 5.7-0.4 12.9 0.4 16.7 5.2"></path><path class="st4" d="m7.7 41.6c9.8-15.1 28.6-25.5 46.6-25.1 6.2 0.1 14 3.4 18.3 7.8"></path><path class="st5" d="m23.6 20.9c2 0.2 3.2 1 11.2 0s9.2-0.7 9.2-0.7 0.5-3.1 2.2-3.9c1.8-0.8-1.2-2-1.2-2s-6.4-2.2-10.2-1.8-9.2 5-10.2 6.7-1 1.7-1 1.7z"></path><path class="st6" d="m23.6 20.1c2 0.2 3.2 1 11.2 0s9.2-0.7 9.2-0.7 0.5-3.1 2.2-3.9c1.8-0.8-1.2-2-1.2-2s-6.4-2.2-10.2-1.8-9.2 5-10.2 6.7-1 1.7-1 1.7z"></path><path class="st5" d="m27.4 22c-4-0.2-7.8-1.5-10.9-0.3s-4.8 7.7-4.6 10.1c0 0 3.4 0.3 6.3-0.9s7-4.3 8.6-6.5c1.4-2.1 0.6-2.4 0.6-2.4z"></path><path class="st6" d="m27.4 21.2c-4-0.2-7.8-1.5-10.9-0.3s-4.8 7.7-4.6 10.1c0 0 3.4 0.3 6.3-0.9s7-4.3 8.6-6.5c1.4-2.2 0.6-2.4 0.6-2.4z"></path><path class="st7" d="m72 69.1c1.3-5 4-17.5 1.7-28.2 7.1 1.7 10.9 6.1 10.5 13.3-0.5 9-7.1 14-10.7 16-0.8 0.6-1.7-0.2-1.5-1.1z"></path><path class="st7" d="m23.3 51c-7.3 4.8-12.3 10-13.3 13.2-2 6.6 0.2 12.3 8.4 16 0.2 0.1 0.4 0.2 0.7 0.2 1.2 0.3 5.2 1.8 6.1 0.8 1.2-1.3-0.7-6.5-1-8-1.2-7-2.9-15.1-0.8-22.1-0.1 0-0.1 0-0.1-0.1z"></path><path class="st5" d="m39.3 25.1c-3.4 1.1-3.7 3.1-6.1 4.7s-11.8 2.3-13.1 4.2 0.8-7.8 3.3-10.2 9.5-5.4 13.8-3.4l2.1 4.7z"></path><path class="st6" d="m39.3 24.5c-3.4 1.1-3.7 3.1-6.1 4.7-2.3 1.6-11.8 2.3-13.1 4.2s0.8-7.8 3.3-10.2 9.5-5.4 13.8-3.4l2.1 4.7z"></path><path class="st5" d="m44 15.6c0.4-3.1 4-5.2 8-4.7s7 3.5 6.6 6.6-3.8 3.6-7.8 3.1-7.2-1.9-6.8-5z"></path><path class="st6" d="m51.1 15.5c0.4 0.1 0.7 0.3 1.1 0.4 0.2 0.1 0.4 0.1 0.5 0 0.1 0 0.2-0.2 0.2-0.4v0.1c-0.3-0.5-1-0.8-1.6-0.7-0.3 0-0.6 0.1-0.7 0.3 0 0 0 0.3 0.2 0.5 0.4 0.4 0.9 0.7 1.5 1.1 0.6 0.3 1.2 0.7 1.7 0.7 0.2 0 0.4 0 0.5-0.1s0.2-0.4 0.2-0.6c0.1-0.4-0.1-0.9-0.5-1.3-0.8-0.9-2-1.6-3.1-1.7-1.2-0.1-2.4 0.2-2.9 1-0.2 0.4-0.3 0.9-0.3 1.5v0.2 0.1c0-0.1 0 0 0.1 0.1s0.3 0.3 0.6 0.5c1 0.7 2.3 1.2 3.5 1.6 0.6 0.2 1.3 0.4 1.9 0.5 0.3 0.1 0.6 0.1 0.9 0.1h0.3c0.1 0 0.2 0 0.3-0.1 0.7-0.3 1.3-1.4 1.1-2.5-0.1-1.1-0.7-2.2-1.6-3.1s-2-1.7-3.1-2.1-2.4-0.5-3.5-0.1-2.2 1.2-2.9 2.2-1 2.3-0.6 3.5 1.7 1.8 3 2.2 2.7 0.7 4.1 0.9c-1.4 0.1-2.8-0.1-4.2-0.4-0.7-0.2-1.4-0.3-2.1-0.7-0.7-0.3-1.3-0.9-1.6-1.6-0.4-0.7-0.4-1.6-0.3-2.3 0.1-0.8 0.3-1.5 0.8-2.2 0.8-1.3 2-2.3 3.5-3 1.4-0.6 3.2-0.7 4.7-0.1 1.5 0.5 2.7 1.4 3.9 2.4 1.1 1.1 2 2.5 2.2 4.2 0.1 0.8 0 1.7-0.4 2.5-0.3 0.8-1 1.6-1.9 2-0.2 0.1-0.5 0.2-0.7 0.2h-0.7c-0.4 0-0.8-0.1-1.2-0.1-0.8-0.1-1.5-0.3-2.2-0.6-1.4-0.5-2.7-1-4-1.9-0.3-0.2-0.7-0.5-1-0.9-0.2-0.2-0.3-0.5-0.4-0.9v-0.4-0.3c0-0.8 0.1-1.7 0.7-2.5 0.5-0.8 1.4-1.3 2.2-1.5s1.6-0.2 2.4-0.1c0.9 0.1 1.6 0.5 2.2 0.9 0.7 0.4 1.3 0.9 1.8 1.6 0.5 0.6 0.9 1.5 0.7 2.5-0.1 0.5-0.3 0.9-0.7 1.3s-1.1 0.5-1.5 0.4c-0.9-0.2-1.5-0.6-2.1-1-0.5-0.4-1.2-0.8-1.7-1.6-0.2-0.4-0.4-0.9 0-1.4 0.4-0.4 0.9-0.4 1.2-0.4 0.8 0.1 1.6 0.4 1.9 1.2 0 0.2-0.2 0.5-0.4 0.5s-0.4 0-0.6-0.1c-0.7-0.1-1.1-0.4-1.4-0.5z"></path><path class="st8" d="m51.1 14.8c0.4 0.1 0.7 0.3 1.1 0.5 0.2 0.1 0.4 0.1 0.6 0.1s0.3-0.3 0.3-0.4c-0.4-0.7-1.1-1-1.8-1-0.3 0-0.7 0.1-0.9 0.3s-0.1 0.6 0.1 0.9c0.4 0.6 1 0.9 1.6 1.3s1.2 0.7 1.8 0.8c0.3 0 0.6 0 0.9-0.2 0.2-0.2 0.4-0.5 0.4-0.8 0.1-0.6-0.2-1.3-0.6-1.8-0.9-1-2.1-1.8-3.4-2s-2.8 0.1-3.5 1.2c-0.3 0.5-0.5 1.2-0.4 1.9v0.5c0 0.1 0.1 0.2 0.2 0.4 0.2 0.2 0.5 0.5 0.7 0.6 1.1 0.8 2.4 1.3 3.7 1.7 0.7 0.2 1.3 0.4 2 0.5s1.4 0.2 1.9 0c1.2-0.5 1.7-2 1.6-3.3s-0.9-2.6-1.8-3.5c-1-1-2.1-1.8-3.4-2.2-1.3-0.5-2.7-0.5-4 0s-2.4 1.4-3.1 2.5-1 2.6-0.5 3.9c0.3 0.6 0.7 1.1 1.3 1.5s1.3 0.6 1.9 0.8c1.3 0.4 2.7 0.6 4.1 0.7-1.4 0-2.8-0.2-4.1-0.6-0.7-0.2-1.4-0.4-2-0.7s-1.2-0.9-1.5-1.5c-0.6-1.4-0.3-2.9 0.5-4.1s1.9-2.1 3.3-2.7c1.3-0.5 2.9-0.6 4.2-0.1 1.4 0.5 2.5 1.3 3.6 2.3 1 1 1.8 2.3 2 3.8 0.1 0.7 0 1.5-0.3 2.2s-0.8 1.3-1.5 1.6c-0.3 0.2-0.8 0.2-1.1 0.2-0.4 0-0.7-0.1-1.1-0.1-0.7-0.1-1.4-0.3-2.1-0.5-1.3-0.4-2.7-1-3.8-1.8-0.3-0.2-0.6-0.4-0.8-0.7-0.1-0.2-0.2-0.3-0.3-0.6v-0.6c0-0.7 0.1-1.5 0.5-2.1 0.4-0.7 1.1-1.1 1.8-1.3s1.4-0.2 2.2-0.1c0.7 0.1 1.4 0.4 2 0.8s1.2 0.8 1.6 1.4 0.8 1.3 0.6 2.1c-0.1 0.4-0.2 0.7-0.5 1s-0.7 0.3-1.1 0.3c-0.7-0.1-1.4-0.5-1.9-0.9-0.6-0.4-1.2-0.8-1.6-1.4-0.2-0.3-0.3-0.7-0.1-1.1 0.3-0.3 0.7-0.3 1-0.3 0.7 0 1.5 0.3 1.8 1 0 0.2-0.1 0.4-0.3 0.5-0.2 0-0.4 0-0.6-0.1-0.5-0.5-0.8-0.7-1.2-0.8z"></path><path class="st5" d="m54.9 23.6c0 4.3-4.5 7.7-10 7.7s-10-3.5-10-7.7 4.6-5.1 10.1-5.1 9.9 0.8 9.9 5.1z"></path><path class="st6" d="m45.4 25c-0.5-0.1-1-0.3-1.4-0.4-0.5-0.1-1-0.1-1 0.3-0.1 0.5 0.2 0.6 0.6 0.7s0.9 0.1 1.3 0 0.9-0.2 1.1-0.5c0 0 0.1-0.1 0-0.1v0c0-0.1-0.1-0.3-0.2-0.4-0.2-0.3-0.6-0.5-1-0.7s-0.8-0.4-1.3-0.6c-0.9-0.4-1.8-0.7-2.4-0.7-0.3 0-0.4 0.1-0.5 0.3-0.1 0.1-0.2 0.6-0.2 0.8 0 0.5 0.4 1.2 1.1 1.7 0.6 0.5 1.4 0.9 2.2 1.2 0.4 0.1 0.8 0.3 1.2 0.3 0.4 0.1 0.7 0.1 1.1 0 0.8-0.1 1.6-0.3 2.2-0.7s0.9-0.8 1.1-1.5c0.1-0.3 0.1-0.7 0.1-1.1 0-0.2 0-0.4-0.1-0.6v-0.1 0.1c0.1 0.1-0.2-0.2-0.5-0.4s-0.7-0.4-1.1-0.6c-0.8-0.3-1.7-0.6-2.6-0.8-1.8-0.4-3.7-0.7-5.4-0.7-0.5 0-0.6 0.1-0.8 0.2s-0.4 0.3-0.6 0.5c-0.4 0.5-0.6 1.2-0.6 1.9 0 1.5 0.8 3 1.9 4.2 1.2 1.2 2.8 2.2 4.4 2.8s3.4 0.6 4.9 0c3.1-1.2 5.8-4.9 4.6-8.2-0.3-0.8-0.9-1.4-1.6-1.8-0.8-0.4-1.7-0.7-2.6-0.9-1.9-0.4-3.8-0.6-5.8-0.6 1.9-0.3 4-0.4 6-0.2 1 0.1 2 0.2 3 0.7 1 0.4 1.9 1.2 2.5 2.3 1 2.1 0.8 4.5-0.3 6.5-1 1.9-2.7 3.5-4.7 4.5-1 0.5-2.2 0.7-3.3 0.8-1.1 0-2.3-0.2-3.3-0.5-1.1-0.3-2-0.8-3-1.3-0.9-0.5-1.8-1.2-2.6-1.9-1.6-1.5-2.9-3.7-2.9-6.2 0-1.2 0.3-2.5 1.2-3.6 0.4-0.5 1-1 1.6-1.4s1.5-0.5 2-0.5c2.3-0.1 4.3 0.3 6.3 0.8 1 0.3 2 0.6 3 1 0.5 0.2 1 0.5 1.5 0.8 0.5 0.4 1.1 0.7 1.6 1.6 0.1 0.1 0.1 0.3 0.1 0.4v0.2l0.1 0.4c0 0.3 0.1 0.6 0.1 0.9 0 0.6 0 1.2-0.2 1.9-0.3 1.3-1.3 2.5-2.4 3.1s-2.3 0.8-3.4 0.9c-0.5 0-1.2 0-1.8-0.1s-1.1-0.3-1.6-0.5c-1-0.4-2-1-2.8-1.8-0.4-0.4-0.8-0.8-1.1-1.4-0.3-0.5-0.6-1.2-0.5-2 0-0.4 0.1-0.7 0.2-1s0.3-0.7 0.5-1 0.6-0.6 1-0.7c0.4-0.2 0.8-0.2 1.1-0.2 1.3 0.1 2.3 0.6 3.2 1 0.8 0.4 1.9 0.9 2.6 2 0.2 0.3 0.3 0.6 0.4 0.9v0.3c0 0.1 0 0.3-0.1 0.4-0.1 0.2-0.3 0.4-0.4 0.5-0.6 0.4-1.1 0.5-1.7 0.5-0.5 0-1.1 0-1.6-0.3-0.3-0.1-0.5-0.3-0.7-0.5-0.2-0.3-0.2-0.6-0.1-0.9s0.4-0.6 0.7-0.6 0.5 0.1 0.8 0.2c0 0 0.4 0.2 0.9 0.4z"></path><path class="st8" d="m45.4 24c-0.5-0.1-1-0.3-1.5-0.5-0.3-0.1-0.5-0.1-0.8 0-0.2 0.1-0.3 0.4-0.3 0.7 0 0.5 0.5 0.8 0.9 0.9s0.9 0.1 1.4 0c0.4-0.1 0.9-0.2 1.2-0.5 0.4-0.3 0.2-0.8-0.1-1.1-0.5-0.7-1.4-1.1-2.2-1.5s-1.7-0.8-2.6-0.9c-0.4 0-0.9 0-1.2 0.2s-0.5 0.7-0.6 1.1c-0.2 0.9 0.2 1.8 0.8 2.4 1.2 1.3 3 2.2 4.8 2.4 1.8 0.1 3.8-0.3 4.9-1.8 0.5-0.7 0.7-1.6 0.7-2.5 0-0.4-0.1-0.9-0.2-1.3-0.1-0.3-0.5-0.7-0.8-0.9-1.5-1-3.4-1.5-5.1-1.9-1.8-0.4-3.7-0.6-5.4-0.4-0.8 0.1-1.6 0.7-2 1.5s-0.6 1.7-0.6 2.6c0.1 1.8 1.1 3.5 2.3 4.8 1.3 1.3 2.9 2.2 4.7 2.9 1.7 0.6 3.6 0.8 5.4 0.2 1.7-0.6 3.2-1.8 4.3-3.2 1.1-1.5 1.7-3.3 1.4-5.1-0.1-0.9-0.6-1.7-1.4-2.2s-1.7-0.8-2.6-0.9c-1.8-0.3-3.7-0.3-5.6-0.2 1.9-0.2 3.7-0.2 5.6 0 0.9 0.2 1.9 0.4 2.7 0.9s1.4 1.4 1.5 2.4c0.3 1.9-0.3 3.9-1.4 5.4s-2.6 2.8-4.5 3.4c-1.8 0.6-3.8 0.5-5.6-0.2-1.8-0.6-3.4-1.6-4.8-2.9s-2.4-3.1-2.5-5c-0.1-1 0.1-2 0.6-2.8 0.5-0.9 1.3-1.6 2.3-1.8 1.9-0.3 3.8 0.1 5.6 0.4 1.8 0.4 3.7 1 5.3 2 0.4 0.3 0.8 0.6 1 1.1 0.1 0.5 0.2 0.9 0.2 1.4 0 1-0.2 2-0.7 2.8-0.6 0.8-1.5 1.3-2.4 1.6s-1.9 0.4-2.8 0.3c-1-0.1-1.9-0.4-2.7-0.9-0.8-0.4-1.6-1-2.3-1.7-0.6-0.7-1.1-1.7-0.8-2.7 0.1-0.5 0.3-1 0.8-1.3 0.4-0.3 1-0.3 1.4-0.3 1 0.1 1.8 0.6 2.7 1 0.8 0.4 1.7 0.8 2.3 1.6 0.1 0.2 0.2 0.4 0.3 0.7s-0.1 0.6-0.3 0.7c-0.4 0.3-0.9 0.4-1.3 0.5-0.5 0.1-0.9 0-1.4-0.1-0.4-0.1-0.9-0.4-0.9-1 0-0.3 0.1-0.6 0.4-0.7s0.5 0 0.8 0c0.1 0 0.6 0.2 1.1 0.4z"></path><path class="st5" d="m20.1 33.5c-0.1 0.1-0.1 0.2-0.3 0.3-0.2 0-0.2-0.2-0.2-0.3v-0.7c0-0.5 0.1-1 0.2-1.5 0.2-1 0.4-1.9 0.7-2.8s0.7-1.8 1.1-2.7c0.5-0.9 1-1.7 1.7-2.4-0.6 0.8-1 1.6-1.4 2.5s-0.7 1.8-1 2.7-0.6 1.8-0.8 2.8c-0.1 0.5-0.2 0.9-0.3 1.4 0 0.2-0.1 0.5-0.1 0.7 0 0.1 0 0.3 0.1 0.3 0.2-0.1 0.3-0.3 0.3-0.3z"></path><path class="st8" d="m25.9 21.8c0.7-0.6 1.5-1 2.4-1.4 0.8-0.4 1.7-0.6 2.6-0.8 0.9-0.1 1.8-0.2 2.8-0.1 0.9 0.1 1.8 0.3 2.6 0.9-0.8-0.4-1.7-0.5-2.6-0.6-0.9 0-1.8 0-2.7 0.2-0.9 0.1-1.8 0.4-2.6 0.7-0.9 0.3-1.8 0.6-2.5 1.1z"></path><path class="st8" d="m23.9 29.2c0.6-0.8 1.4-1.4 2.3-2 0.9-0.5 1.8-0.9 2.8-1.2 0.5-0.1 1-0.3 1.4-0.4 0.5-0.1 0.9-0.3 1.4-0.5 0.9-0.4 1.8-0.9 2.6-1.4-0.7 0.7-1.6 1.2-2.5 1.7-0.4 0.2-0.9 0.4-1.4 0.6l-1.5 0.6c-0.9 0.3-1.8 0.6-2.7 1s-1.7 1-2.4 1.6z"></path><path class="st8" d="m45 13.4c-1.7-0.4-3.4-0.9-5.1-1.2-0.8-0.2-1.7-0.3-2.6-0.4s-1.7-0.2-2.6-0.1c0.9-0.2 1.7-0.2 2.6-0.1 0.9 0 1.7 0.2 2.6 0.4 1.8 0.3 3.5 0.7 5.1 1.4z"></path><path class="st8" d="m25 19.3c1.1-0.9 2.3-1.8 3.6-2.4 1.3-0.7 2.7-1.2 4.1-1.5 1.5-0.3 2.9-0.2 4.4 0 0.7 0.1 1.4 0.3 2.1 0.6s1.3 0.6 2 0.6c-0.7 0.1-1.4-0.2-2.1-0.4s-1.4-0.3-2.1-0.4c-1.4-0.1-2.9-0.1-4.2 0.1-1.4 0.2-2.7 0.7-4 1.3-1.4 0.6-2.6 1.3-3.8 2.1z"></path><path class="st8" d="m22.5 23.3c-1.1 0.6-2.3 1-3.4 1.6-0.6 0.3-1.1 0.6-1.6 0.9s-1 0.7-1.6 1.1c0.7-1 1.8-1.9 3-2.4 1.1-0.6 2.3-1 3.6-1.2z"></path><path class="st8" d="m16.5 20.9c-0.8 0.5-1.5 1.2-2 2s-0.9 1.7-1.2 2.5l-0.9 2.7c-0.2 0.9-0.4 1.9-0.5 2.8-0.1-1 0-1.9 0.1-2.9 0.2-1 0.4-1.9 0.8-2.8s0.8-1.8 1.4-2.6c0.6-0.7 1.3-1.4 2.3-1.7z"></path><path class="st6" d="m72.4 40.5c1.4-1.2 2.9-2 4.5-2.4-5.1-3.3-13.4-5-27-2.5-21.1 4-32.7 13-37.5 21.8 1.7-0.8 3.5-1.3 5.4-1.4 5.4-5.3 15.5-11.5 34.3-15.8 8-1.8 14.8-1.1 19.6 0.2 0.3-0.1 0.5 0 0.7 0.1z"></path><path class="st9" d="m79.1 65.8c2.4-2.7 4.2-6.9 4.5-11.8 0.4-7.2-3.2-11.3-10.3-13-5.1-1.2-12.7-1.7-20.5-0.2-33.1 6.7-40.2 20-41.8 24.3-1.5 4.1-0.4 8.6 2.3 11.8-0.2-0.2-0.5-0.3-0.7-0.5-9.7-7.4-3.4-32.8 38-40.3 31.2-5.6 36.1 9.4 35.7 16.7-0.3 5.9-3.5 9.7-4.8 11.2-0.9 1-2.4 1.8-2.4 1.8z"></path></g></svg>