<svg enable-background="new 0 0 87.2 49.6" version="1.1" viewBox="0 0 192 192" xml:space="preserve" xmlns="http://www.w3.org/2000/svg" width="192" height="192"><g transform="rotate(0 3.14 2.18) translate(8.86077647240647 43.93918594357831) scale(2.2272006013442436)"><style type="text/css"> .st0{fill:#74B643;} .st1{fill:#D4DF5B;} .st2{fill:#005E48;} .st3{fill:#B7C24F;} .st4{fill:#53A143;} .st5{opacity:0.33;fill:#002F24;enable-background:new ;} .st6{fill:none;stroke:#49332D;stroke-width:3;stroke-linecap:round;stroke-miterlimit:10;} .st7{fill:none;stroke:#49332D;stroke-width:0.5;stroke-linecap:round;stroke-miterlimit:10;} .st8{fill:#49332D;} .st9{fill:none;} </style><path class="st0" d="m10.8 22c1.6 0.6 3.1 2 4 3.7 0.1 0.1 0.1 0.2 0.1 0.3 0.1 0.7-1.4 0.4-1.7 0.4-2.4-0.6-2.3-4.1-4.8-4.8 0.9 0.1 1.7 0.2 2.4 0.4z"></path><path class="st1" d="m14.9 26c0-0.1-0.1-0.2-0.1-0.3-0.9-1.7-2.3-3.1-4-3.7-0.7-0.3-1.5-0.3-2.3-0.4 1 0.4 3.1 1.9 4.2 3.4s2.2 1.2 2.2 1.2"></path><polygon class="st2" points="74.6 13.5 74.6 40 59.8 38.1 59.8 8"></polygon><polygon class="st0" points="75.1 31.2 75.1 37.2 58.8 34.7 58.8 27.9"></polygon><polygon class="st0" points="75.1 16.2 75.1 22.1 58.8 17.4 58.8 10.6"></polygon><polygon class="st0" points="75.1 23.7 75.1 29.7 58.8 26.1 58.8 19.2"></polygon><polygon class="st1" points="65.8 8.6 69.1 9.9 69.1 40.6 65.8 40.3"></polygon><polygon class="st3" points="69 37.1 69.1 38 68.8 37.9"></polygon><polygon class="st3" points="68.6 37 68.8 37.9 68.4 37.8"></polygon><polygon class="st3" points="68.1 36.9 68.4 37.8 67.9 37.8"></polygon><polygon class="st3" points="67.7 36.9 67.9 37.8 67.5 37.7"></polygon><polygon class="st3" points="67.3 36.8 67.5 37.7 67.1 37.7"></polygon><polygon class="st3" points="66.9 36.8 67.1 37.7 66.7 37.6"></polygon><polygon class="st3" points="66.4 36.7 66.7 37.6 66.2 37.6"></polygon><polygon class="st3" points="66 36.7 66.2 37.6 65.8 37.5"></polygon><polygon class="st0" points="75.1 38.8 75.1 41.3 58.8 39.4 58.8 36.5"></polygon><polygon class="st4" points="73.5 29 73.1 29.2 73.1 28.4"></polygon><polygon class="st4" points="73.5 28.2 73.1 28.4 73.1 27.7"></polygon><polygon class="st4" points="73.5 27.5 73.1 27.7 73.1 26.9"></polygon><polygon class="st4" points="73.5 26.7 73.1 26.9 73.1 26.2"></polygon><polygon class="st4" points="73.5 25.9 73.1 26.2 73.1 25.4"></polygon><polygon class="st4" points="73.5 25.1 73.1 25.4 73.1 24.7"></polygon><polygon class="st4" points="73.5 24.4 73.1 24.7 73.1 23.9"></polygon><polygon class="st4" points="73.5 23.6 73.1 23.9 73.1 23.2"></polygon><polygon class="st4" points="69.5 22.6 70 22.3 70 23.1"></polygon><polygon class="st4" points="69.5 23.3 70 23.1 70 23.8"></polygon><polygon class="st4" points="69.5 24.2 70 23.8 70 24.7"></polygon><polygon class="st4" points="69.5 24.9 70 24.7 70 25.4"></polygon><polygon class="st4" points="69.5 25.7 70 25.4 70 26.2"></polygon><polygon class="st4" points="69.5 26.5 70 26.2 70 27"></polygon><polygon class="st4" points="69.5 27.3 70 27 70 27.8"></polygon><polygon class="st4" points="69.5 28.1 70 27.8 70 28.5"></polygon><polygon class="st1" points="70 10.2 73.1 11.3 73.1 41 70 40.7"></polygon><polygon class="st3" points="70.2 21.6 70 20.6 70.4 20.7"></polygon><polygon class="st3" points="70.6 21.7 70.4 20.7 70.8 20.8"></polygon><polygon class="st3" points="71 21.8 70.8 20.8 71.1 21"></polygon><polygon class="st3" points="71.3 21.9 71.1 21 71.6 21.1"></polygon><polygon class="st3" points="71.8 22 71.6 21.1 72 21.2"></polygon><polygon class="st3" points="72.1 22.1 72 21.2 72.3 21.3"></polygon><polygon class="st3" points="72.5 22.2 72.3 21.3 72.7 21.4"></polygon><polygon class="st3" points="73 22.3 72.7 21.4 73.1 21.5"></polygon><polygon class="st3" points="73 14.5 73.1 15.5 72.7 15.3"></polygon><polygon class="st3" points="72.5 14.3 72.7 15.3 72.3 15.2"></polygon><polygon class="st3" points="72.1 14.2 72.3 15.2 72 15.1"></polygon><polygon class="st3" points="71.8 14.1 72 15.1 71.6 15"></polygon><polygon class="st3" points="71.3 14 71.6 15 71.1 14.8"></polygon><polygon class="st3" points="71 13.8 71.1 14.8 70.8 14.7"></polygon><polygon class="st3" points="70.6 13.7 70.8 14.7 70.4 14.5"></polygon><polygon class="st3" points="70.2 13.6 70.4 14.5 70 14.4"></polygon><polygon class="st3" points="70.2 37.4 70 36.4 70.4 36.5"></polygon><polygon class="st3" points="70.6 37.4 70.4 36.5 70.8 36.5"></polygon><polygon class="st3" points="71 37.5 70.8 36.5 71.1 36.7"></polygon><polygon class="st3" points="71.3 37.5 71.1 36.7 71.6 36.7"></polygon><polygon class="st3" points="71.8 37.6 71.6 36.7 72 36.8"></polygon><polygon class="st3" points="72.1 37.7 72 36.8 72.3 36.8"></polygon><polygon class="st3" points="72.5 37.7 72.3 36.8 72.7 36.9"></polygon><polygon class="st3" points="73 37.8 72.7 36.9 73.1 36.9"></polygon><polygon class="st3" points="73 29.9 73.1 30.9 72.7 30.8"></polygon><polygon class="st3" points="72.5 29.8 72.7 30.8 72.3 30.7"></polygon><polygon class="st3" points="72.1 29.7 72.3 30.7 72 30.6"></polygon><polygon class="st3" points="71.8 29.7 72 30.6 71.6 30.6"></polygon><polygon class="st3" points="71.3 29.6 71.6 30.6 71.1 30.5"></polygon><polygon class="st3" points="71 29.5 71.1 30.5 70.8 30.4"></polygon><polygon class="st3" points="70.6 29.4 70.8 30.4 70.4 30.2"></polygon><polygon class="st3" points="70.2 29.3 70.4 30.2 70 30.2"></polygon><polygon class="st1" points="61.3 6.9 64.9 8.2 64.9 40.2 61.3 39.7"></polygon><polygon class="st3" points="61.5 36.1 61.3 35.2 61.8 35.3"></polygon><polygon class="st3" points="62.1 36.2 61.8 35.3 62.3 35.3"></polygon><polygon class="st3" points="62.5 36.3 62.3 35.3 62.7 35.4"></polygon><polygon class="st3" points="62.9 36.3 62.7 35.4 63.1 35.4"></polygon><polygon class="st3" points="63.3 36.4 63.1 35.4 63.6 35.5"></polygon><polygon class="st3" points="63.9 36.4 63.6 35.5 64.1 35.6"></polygon><polygon class="st3" points="64.3 36.5 64.1 35.6 64.5 35.6"></polygon><polygon class="st3" points="64.7 36.7 64.5 35.6 64.9 35.7"></polygon><polygon class="st3" points="64.7 28.2 64.9 29.2 64.5 29.1"></polygon><polygon class="st3" points="64.3 28.1 64.5 29.1 64.1 29"></polygon><polygon class="st3" points="63.9 28 64.1 29 63.6 28.9"></polygon><polygon class="st3" points="63.3 27.9 63.6 28.9 63.1 28.9"></polygon><polygon class="st3" points="62.9 27.8 63.1 28.9 62.7 28.8"></polygon><polygon class="st3" points="62.5 27.7 62.7 28.8 62.3 28.6"></polygon><polygon class="st3" points="62.1 27.6 62.3 28.6 61.8 28.5"></polygon><polygon class="st3" points="61.5 27.5 61.8 28.5 61.3 28.4"></polygon><polygon class="st3" points="61.5 19.2 61.3 18.2 61.8 18.3"></polygon><polygon class="st3" points="62.1 19.4 61.8 18.3 62.3 18.4"></polygon><polygon class="st3" points="62.5 19.5 62.3 18.4 62.7 18.5"></polygon><polygon class="st3" points="62.9 19.6 62.7 18.5 63.1 18.7"></polygon><polygon class="st3" points="63.3 19.7 63.1 18.7 63.6 18.8"></polygon><polygon class="st3" points="63.9 19.9 63.6 18.8 64.1 18.9"></polygon><polygon class="st3" points="64.3 20 64.1 18.9 64.5 19"></polygon><polygon class="st3" points="64.7 20.1 64.5 19 64.9 19.1"></polygon><polygon class="st3" points="64.7 11.7 64.9 12.6 64.5 12.5"></polygon><polygon class="st3" points="64.3 11.5 64.5 12.5 64.1 12.4"></polygon><polygon class="st3" points="63.9 11.3 64.1 12.4 63.6 12.2"></polygon><polygon class="st3" points="63.3 11.1 63.6 12.2 63.1 12.1"></polygon><polygon class="st3" points="62.9 11 63.1 12.1 62.7 11.9"></polygon><polygon class="st3" points="62.5 10.9 62.7 11.9 62.3 11.8"></polygon><polygon class="st3" points="62.1 10.7 62.3 11.8 61.8 11.6"></polygon><polygon class="st3" points="61.5 10.6 61.8 11.6 61.3 11.5"></polygon><polygon class="st4" points="65.5 27.1 64.9 27.5 64.9 26.6"></polygon><polygon class="st4" points="65.5 26.3 64.9 26.6 64.9 25.8"></polygon><polygon class="st4" points="65.5 25.5 64.9 25.8 64.9 25"></polygon><polygon class="st4" points="65.5 24.7 64.9 25 64.9 24.2"></polygon><polygon class="st4" points="65.5 23.9 64.9 24.2 64.9 23.4"></polygon><polygon class="st4" points="65.5 23.1 64.9 23.4 64.9 22.6"></polygon><polygon class="st4" points="65.5 22.2 64.9 22.6 64.9 21.7"></polygon><polygon class="st4" points="65.5 21.5 64.9 21.7 64.9 21"></polygon><polygon class="st4" points="60.8 20.2 61.3 19.9 61.3 20.7"></polygon><polygon class="st4" points="60.8 21.1 61.3 20.7 61.3 21.6"></polygon><polygon class="st4" points="60.8 21.9 61.3 21.6 61.3 22.5"></polygon><polygon class="st4" points="60.8 22.8 61.3 22.5 61.3 23.3"></polygon><polygon class="st4" points="60.8 23.6 61.3 23.3 61.3 24.2"></polygon><polygon class="st4" points="60.8 24.5 61.3 24.2 61.3 25"></polygon><polygon class="st4" points="60.8 25.2 61.3 25 61.3 25.9"></polygon><polygon class="st4" points="60.8 26.1 61.3 25.9 61.3 26.6"></polygon><polygon class="st4" points="69.6 36 69.1 36.3 69.1 35.6"></polygon><polygon class="st4" points="69.6 35.3 69.1 35.6 69.1 34.7"></polygon><polygon class="st4" points="69.6 34.4 69.1 34.7 69.1 34"></polygon><polygon class="st4" points="69.6 33.7 69.1 34 69.1 33.1"></polygon><polygon class="st4" points="69.6 32.9 69.1 33.1 69.1 32.4"></polygon><polygon class="st4" points="69.6 32.1 69.1 32.4 69.1 31.6"></polygon><polygon class="st4" points="69.6 31.3 69.1 31.6 69.1 30.8"></polygon><polygon class="st4" points="69.6 30.6 69.1 30.8 69.1 30"></polygon><polygon class="st4" points="65.4 29.6 65.8 29.4 65.8 30.1"></polygon><polygon class="st4" points="65.4 30.5 65.8 30.1 65.8 31"></polygon><polygon class="st4" points="65.4 31.3 65.8 31 65.8 31.7"></polygon><polygon class="st4" points="65.4 32.1 65.8 31.7 65.8 32.6"></polygon><polygon class="st4" points="65.4 32.9 65.8 32.6 65.8 33.4"></polygon><polygon class="st4" points="65.4 33.8 65.8 33.4 65.8 34.2"></polygon><polygon class="st4" points="65.4 34.5 65.8 34.2 65.8 35.1"></polygon><polygon class="st4" points="65.4 35.4 65.8 35.1 65.8 35.8"></polygon><polygon class="st4" points="69.6 20.1 69.1 20.4 69.1 19.6"></polygon><polygon class="st4" points="69.6 19.4 69.1 19.6 69.1 18.8"></polygon><polygon class="st4" points="69.6 18.6 69.1 18.8 69.1 18.1"></polygon><polygon class="st4" points="69.6 17.8 69.1 18.1 69.1 17.2"></polygon><polygon class="st4" points="69.6 17 69.1 17.2 69.1 16.5"></polygon><polygon class="st4" points="69.6 16.3 69.1 16.5 69.1 15.7"></polygon><polygon class="st4" points="69.6 15.4 69.1 15.7 69.1 14.9"></polygon><polygon class="st4" points="69.6 14.7 69.1 14.9 69.1 14.1"></polygon><polygon class="st4" points="65.4 13.2 65.8 12.9 65.8 13.8"></polygon><polygon class="st4" points="65.4 14 65.8 13.8 65.8 14.5"></polygon><polygon class="st4" points="65.4 14.9 65.8 14.5 65.8 15.4"></polygon><polygon class="st4" points="65.4 15.6 65.8 15.4 65.8 16.3"></polygon><polygon class="st4" points="65.4 16.5 65.8 16.3 65.8 17"></polygon><polygon class="st4" points="65.4 17.3 65.8 17 65.8 17.9"></polygon><polygon class="st4" points="65.4 18.1 65.8 17.9 65.8 18.6"></polygon><polygon class="st4" points="65.4 18.9 65.8 18.6 65.8 19.5"></polygon><polygon class="st0" points="74.6 15.9 74.6 21.9 69.9 20.6 69.9 14.3"></polygon><polygon class="st3" points="66 28.6 65.8 27.7 66.2 27.7"></polygon><polygon class="st3" points="66.4 28.8 66.2 27.7 66.7 27.8"></polygon><polygon class="st3" points="66.9 28.9 66.7 27.8 67.1 27.9"></polygon><polygon class="st3" points="67.3 28.9 67.1 27.9 67.5 28"></polygon><polygon class="st3" points="67.7 29 67.5 28 67.9 28.1"></polygon><polygon class="st3" points="68.1 29.1 67.9 28.1 68.4 28.2"></polygon><polygon class="st3" points="68.6 29.2 68.4 28.2 68.8 28.3"></polygon><polygon class="st3" points="69 29.3 68.8 28.3 69.1 28.3"></polygon><polygon class="st3" points="69 21.1 69.1 22 68.8 21.9"></polygon><polygon class="st3" points="68.6 21 68.8 21.9 68.4 21.8"></polygon><polygon class="st3" points="68.1 20.8 68.4 21.8 67.9 21.7"></polygon><polygon class="st3" points="67.7 20.7 67.9 21.7 67.5 21.6"></polygon><polygon class="st3" points="67.3 20.6 67.5 21.6 67.1 21.5"></polygon><polygon class="st3" points="66.9 20.5 67.1 21.5 66.7 21.4"></polygon><polygon class="st3" points="66.4 20.4 66.7 21.4 66.2 21.3"></polygon><polygon class="st3" points="66 20.3 66.2 21.3 65.8 21.2"></polygon><polygon class="st0" points="69.3 22.1 69.3 28.4 65.6 27.6 65.6 21.1"></polygon><polygon class="st0" points="75.1 31.2 75.1 37.2 69.7 36.4 69.7 30.1"></polygon><polygon class="st0" points="65.2 29.2 65.2 35.7 59.7 34.9 59.7 28.1"></polygon><polygon class="st4" points="73.5 31.3 73.9 31 73.9 31.7"></polygon><polygon class="st4" points="73.5 32.1 73.9 31.7 73.9 32.5"></polygon><polygon class="st4" points="73.5 32.8 73.9 32.5 73.9 33.2"></polygon><polygon class="st4" points="73.5 33.6 73.9 33.2 73.9 34"></polygon><polygon class="st4" points="73.5 34.3 73.9 34 73.9 34.7"></polygon><polygon class="st4" points="73.5 35.1 73.9 34.7 73.9 35.5"></polygon><polygon class="st4" points="73.5 35.8 73.9 35.5 73.9 36.3"></polygon><polygon class="st4" points="73.5 36.5 73.9 36.3 73.9 37.1"></polygon><polygon class="st4" points="73.5 15.9 73.9 15.7 73.9 16.5"></polygon><polygon class="st4" points="73.5 16.7 73.9 16.5 73.9 17.2"></polygon><polygon class="st4" points="73.5 17.4 73.9 17.2 73.9 18"></polygon><polygon class="st4" points="73.5 18.3 73.9 18 73.9 18.7"></polygon><polygon class="st4" points="73.5 19 73.9 18.7 73.9 19.5"></polygon><polygon class="st4" points="73.5 19.8 73.9 19.5 73.9 20.2"></polygon><polygon class="st4" points="73.5 20.5 73.9 20.2 73.9 21.1"></polygon><polygon class="st4" points="73.5 21.3 73.9 21.1 73.9 21.8"></polygon><polygon class="st1" points="73.9 11.6 75.1 12.1 75.1 41.3 73.9 41.1"></polygon><polygon class="st0" points="75.1 23.7 75.1 29.7 73.8 29.4 73.8 23.3"></polygon><polygon class="st3" points="66 12.3 65.8 11.2 66.2 11.5"></polygon><polygon class="st3" points="66.4 12.4 66.2 11.5 66.7 11.6"></polygon><polygon class="st3" points="66.9 12.6 66.7 11.6 67.1 11.8"></polygon><polygon class="st3" points="67.3 12.7 67.1 11.8 67.5 11.9"></polygon><polygon class="st3" points="67.7 12.8 67.5 11.9 67.9 12"></polygon><polygon class="st3" points="68.1 13.1 67.9 12 68.4 12.2"></polygon><polygon class="st3" points="68.6 13.2 68.4 12.2 68.8 12.3"></polygon><polygon class="st3" points="69 13.3 68.8 12.3 69.1 12.4"></polygon><polygon class="st0" points="75.1 12.1 75.1 14.5 58.8 8.8 58.8 5.9"></polygon><polygon class="st1" points="70 10.2 73.1 11.3 73.1 14.2 70 13.2"></polygon><polygon class="st4" points="60.9 17.6 60.4 17.9 60.4 17"></polygon><polygon class="st4" points="60.9 16.8 60.4 17 60.4 16.2"></polygon><polygon class="st4" points="60.9 15.9 60.4 16.2 60.4 15.3"></polygon><polygon class="st4" points="60.9 15.1 60.4 15.3 60.4 14.5"></polygon><polygon class="st4" points="60.9 14.2 60.4 14.5 60.4 13.7"></polygon><polygon class="st4" points="60.9 13.4 60.4 13.7 60.4 12.8"></polygon><polygon class="st4" points="60.9 12.5 60.4 12.8 60.4 12"></polygon><polygon class="st4" points="60.9 11.8 60.4 12 60.4 11.1"></polygon><polygon class="st4" points="60.9 34.6 60.4 35.1 60.4 34.2"></polygon><polygon class="st4" points="60.9 33.8 60.4 34.2 60.4 33.3"></polygon><polygon class="st4" points="60.9 33 60.4 33.3 60.4 32.5"></polygon><polygon class="st4" points="60.9 32.2 60.4 32.5 60.4 31.6"></polygon><polygon class="st4" points="60.9 31.3 60.4 31.6 60.4 30.8"></polygon><polygon class="st4" points="60.9 30.5 60.4 30.8 60.4 29.9"></polygon><polygon class="st4" points="60.9 29.6 60.4 29.9 60.4 29.1"></polygon><polygon class="st4" points="60.9 28.8 60.4 29.1 60.4 28.2"></polygon><polygon class="st1" points="58.8 5.9 60.4 6.4 60.4 39.6 58.8 39.4"></polygon><polygon class="st0" points="60.6 19.8 60.6 26.5 58.8 26.1 58.8 19.2"></polygon><polygon class="st0" points="60.6 36.9 60.6 39.6 58.8 39.4 58.8 36.5"></polygon><polygon class="st0" points="60.6 6.5 60.6 9.4 58.8 8.8 58.8 5.9"></polygon><polygon class="st0" points="75.1 38.8 75.1 41.3 73.7 41.1 73.7 38.6"></polygon><polygon class="st2" points="65.4 10.2 65.4 38.8 46.5 36.5 46.5 3.3"></polygon><polygon class="st0" points="68.1 29.8 68.1 36.2 45.2 32.7 45.2 25.1"></polygon><polygon class="st0" points="68.1 13.8 68.1 20.1 45.2 13.5 45.2 6"></polygon><polygon class="st0" points="68.1 21.8 68.1 28.1 45.2 23.1 45.2 15.6"></polygon><polygon class="st1" points="54.3 4.2 58.6 5.8 58.6 39.4 54.3 38.9"></polygon><polygon class="st3" points="58.3 35.5 58.6 36.5 58 36.5"></polygon><polygon class="st3" points="57.8 35.4 58 36.5 57.5 36.4"></polygon><polygon class="st3" points="57.3 35.3 57.5 36.4 57 36.3"></polygon><polygon class="st3" points="56.7 35.3 57 36.3 56.5 36.2"></polygon><polygon class="st3" points="56.2 35.2 56.5 36.2 55.9 36.2"></polygon><polygon class="st3" points="55.7 35.1 55.9 36.2 55.4 36.1"></polygon><polygon class="st3" points="55.1 35 55.4 36.1 54.9 36"></polygon><polygon class="st3" points="54.6 35 54.9 36 54.3 36"></polygon><polygon class="st0" points="68.1 37.8 68.1 40.5 45.2 37.9 45.2 34.7"></polygon><polygon class="st4" points="64.1 26.8 63.5 27.1 63.5 26.3"></polygon><polygon class="st4" points="64.1 26 63.5 26.3 63.5 25.5"></polygon><polygon class="st4" points="64.1 25.2 63.5 25.5 63.5 24.7"></polygon><polygon class="st4" points="64.1 24.4 63.5 24.7 63.5 23.8"></polygon><polygon class="st4" points="64.1 23.6 63.5 23.8 63.5 23"></polygon><polygon class="st4" points="64.1 22.7 63.5 23 63.5 22.2"></polygon><polygon class="st4" points="64.1 21.9 63.5 22.2 63.5 21.4"></polygon><polygon class="st4" points="64.1 21.1 63.5 21.4 63.5 20.5"></polygon><polygon class="st4" points="59 19.7 59.6 19.5 59.6 20.3"></polygon><polygon class="st4" points="59 20.6 59.6 20.3 59.6 21.2"></polygon><polygon class="st4" points="59 21.5 59.6 21.2 59.6 22"></polygon><polygon class="st4" points="59 22.3 59.6 22 59.6 22.9"></polygon><polygon class="st4" points="59 23.2 59.6 22.9 59.6 23.7"></polygon><polygon class="st4" points="59 24 59.6 23.7 59.6 24.6"></polygon><polygon class="st4" points="59 24.9 59.6 24.6 59.6 25.4"></polygon><polygon class="st4" points="59 25.7 59.6 25.4 59.6 26.3"></polygon><polygon class="st1" points="59.6 6.2 63.5 7.7 63.5 40 59.6 39.5"></polygon><polygon class="st3" points="59.9 18.7 59.6 17.7 60.1 17.8"></polygon><polygon class="st3" points="60.4 18.9 60.1 17.8 60.6 18"></polygon><polygon class="st3" points="60.9 19 60.6 18 61.1 18.1"></polygon><polygon class="st3" points="61.4 19.2 61.1 18.1 61.6 18.2"></polygon><polygon class="st3" points="61.9 19.3 61.6 18.2 62.1 18.4"></polygon><polygon class="st3" points="62.3 19.4 62.1 18.4 62.6 18.5"></polygon><polygon class="st3" points="62.8 19.6 62.6 18.5 63.1 18.7"></polygon><polygon class="st3" points="63.3 19.7 63.1 18.7 63.5 18.8"></polygon><polygon class="st3" points="63.3 11.2 63.5 12.2 63.1 12.1"></polygon><polygon class="st3" points="62.8 11 63.1 12.1 62.6 11.9"></polygon><polygon class="st3" points="62.3 10.8 62.6 11.9 62.1 11.7"></polygon><polygon class="st3" points="61.9 10.7 62.1 11.7 61.6 11.6"></polygon><polygon class="st3" points="61.4 10.5 61.6 11.6 61.1 11.4"></polygon><polygon class="st3" points="60.9 10.3 61.1 11.4 60.6 11.2"></polygon><polygon class="st3" points="60.4 10.2 60.6 11.2 60.1 11.1"></polygon><polygon class="st3" points="59.9 10 60.1 11.1 59.6 10.9"></polygon><polygon class="st3" points="59.9 35.9 59.6 34.9 60.1 34.9"></polygon><polygon class="st3" points="60.4 36 60.1 34.9 60.6 35"></polygon><polygon class="st3" points="60.9 36 60.6 35 61.1 35.1"></polygon><polygon class="st3" points="61.4 36.1 61.1 35.1 61.6 35.2"></polygon><polygon class="st3" points="61.9 36.2 61.6 35.2 62.1 35.2"></polygon><polygon class="st3" points="62.3 36.3 62.1 35.2 62.6 35.3"></polygon><polygon class="st3" points="62.8 36.3 62.6 35.3 63.1 35.4"></polygon><polygon class="st3" points="63.3 36.4 63.1 35.4 63.5 35.5"></polygon><polygon class="st3" points="63.3 27.9 63.5 28.9 63.1 28.8"></polygon><polygon class="st3" points="62.8 27.8 63.1 28.8 62.6 28.7"></polygon><polygon class="st3" points="62.3 27.7 62.6 28.7 62.1 28.6"></polygon><polygon class="st3" points="61.9 27.6 62.1 28.6 61.6 28.5"></polygon><polygon class="st3" points="61.4 27.5 61.6 28.5 61.1 28.4"></polygon><polygon class="st3" points="60.9 27.4 61.1 28.4 60.6 28.3"></polygon><polygon class="st3" points="60.4 27.2 60.6 28.3 60.1 28.2"></polygon><polygon class="st3" points="59.9 27.1 60.1 28.2 59.6 28.1"></polygon><polygon class="st1" points="48.6 2 53.2 3.8 53.2 38.8 48.6 38.3"></polygon><polygon class="st3" points="48.9 34.3 48.6 33.2 49.2 33.3"></polygon><polygon class="st3" points="49.4 34.4 49.2 33.3 49.7 33.4"></polygon><polygon class="st3" points="50 34.5 49.7 33.4 50.3 33.5"></polygon><polygon class="st3" points="50.6 34.6 50.3 33.5 50.9 33.6"></polygon><polygon class="st3" points="51.2 34.7 50.9 33.6 51.5 33.6"></polygon><polygon class="st3" points="51.8 34.7 51.5 33.6 52 33.7"></polygon><polygon class="st3" points="52.3 34.8 52 33.7 52.6 33.8"></polygon><polygon class="st3" points="52.9 34.9 52.6 33.8 53.2 33.9"></polygon><polygon class="st3" points="52.9 25.7 53.2 26.8 52.6 26.6"></polygon><polygon class="st3" points="52.3 25.5 52.6 26.6 52 26.5"></polygon><polygon class="st3" points="51.8 25.4 52 26.5 51.5 26.4"></polygon><polygon class="st3" points="51.2 25.3 51.5 26.4 50.9 26.3"></polygon><polygon class="st3" points="50.6 25.2 50.9 26.3 50.3 26.2"></polygon><polygon class="st3" points="50 25 50.3 26.2 49.7 26.1"></polygon><polygon class="st3" points="49.4 24.9 49.7 26.1 49.2 25.9"></polygon><polygon class="st3" points="48.9 24.8 49.2 25.9 48.6 25.8"></polygon><polygon class="st3" points="48.9 15.7 48.6 14.5 49.2 14.7"></polygon><polygon class="st3" points="49.4 15.8 49.2 14.7 49.7 14.8"></polygon><polygon class="st3" points="50 16 49.7 14.8 50.3 15"></polygon><polygon class="st3" points="50.6 16.2 50.3 15 50.9 15.2"></polygon><polygon class="st3" points="51.2 16.3 50.9 15.2 51.5 15.3"></polygon><polygon class="st3" points="51.8 16.5 51.5 15.3 52 15.5"></polygon><polygon class="st3" points="52.3 16.6 52 15.5 52.6 15.7"></polygon><polygon class="st3" points="52.9 16.8 52.6 15.7 53.2 15.8"></polygon><polygon class="st3" points="52.9 7.5 53.2 8.7 52.6 8.5"></polygon><polygon class="st3" points="52.3 7.3 52.6 8.5 52 8.3"></polygon><polygon class="st3" points="51.8 7.1 52 8.3 51.5 8.1"></polygon><polygon class="st3" points="51.2 6.9 51.5 8.1 50.9 7.9"></polygon><polygon class="st3" points="50.6 6.7 50.9 7.9 50.3 7.7"></polygon><polygon class="st3" points="50 6.5 50.3 7.7 49.7 7.5"></polygon><polygon class="st3" points="49.4 6.3 49.7 7.5 49.2 7.3"></polygon><polygon class="st3" points="48.9 6.1 49.2 7.3 48.6 7.1"></polygon><polygon class="st4" points="53.8 24.6 53.2 24.9 53.2 24"></polygon><polygon class="st4" points="53.8 23.7 53.2 24 53.2 23.1"></polygon><polygon class="st4" points="53.8 22.8 53.2 23.1 53.2 22.2"></polygon><polygon class="st4" points="53.8 21.9 53.2 22.2 53.2 21.3"></polygon><polygon class="st4" points="53.8 21 53.2 21.3 53.2 20.4"></polygon><polygon class="st4" points="53.8 20.1 53.2 20.4 53.2 19.5"></polygon><polygon class="st4" points="53.8 19.2 53.2 19.5 53.2 18.6"></polygon><polygon class="st4" points="53.8 18.3 53.2 18.6 53.2 17.7"></polygon><polygon class="st4" points="47.9 16.7 48.6 16.5 48.6 17.4"></polygon><polygon class="st4" points="47.9 17.7 48.6 17.4 48.6 18.3"></polygon><polygon class="st4" points="47.9 18.6 48.6 18.3 48.6 19.2"></polygon><polygon class="st4" points="47.9 19.5 48.6 19.2 48.6 20.2"></polygon><polygon class="st4" points="47.9 20.5 48.6 20.2 48.6 21.1"></polygon><polygon class="st4" points="47.9 21.4 48.6 21.1 48.6 22"></polygon><polygon class="st4" points="47.9 22.3 48.6 22 48.6 22.9"></polygon><polygon class="st4" points="47.9 23.2 48.6 22.9 48.6 23.9"></polygon><polygon class="st4" points="59.2 34.4 58.6 34.7 58.6 33.9"></polygon><polygon class="st4" points="59.2 33.5 58.6 33.9 58.6 33"></polygon><polygon class="st4" points="59.2 32.7 58.6 33 58.6 32.1"></polygon><polygon class="st4" points="59.2 31.8 58.6 32.1 58.6 31.3"></polygon><polygon class="st4" points="59.2 31 58.6 31.3 58.6 30.4"></polygon><polygon class="st4" points="59.2 30.1 58.6 30.4 58.6 29.6"></polygon><polygon class="st4" points="59.2 29.3 58.6 29.6 58.6 28.7"></polygon><polygon class="st4" points="59.2 28.4 58.6 28.7 58.6 27.9"></polygon><polygon class="st4" points="53.7 27.3 54.3 27 54.3 27.9"></polygon><polygon class="st4" points="53.7 28.2 54.3 27.9 54.3 28.8"></polygon><polygon class="st4" points="53.7 29.1 54.3 28.8 54.3 29.7"></polygon><polygon class="st4" points="53.7 30 54.3 29.7 54.3 30.5"></polygon><polygon class="st4" points="53.7 30.9 54.3 30.5 54.3 31.4"></polygon><polygon class="st4" points="53.7 31.8 54.3 31.4 54.3 32.3"></polygon><polygon class="st4" points="53.7 32.7 54.3 32.3 54.3 33.2"></polygon><polygon class="st4" points="53.7 33.5 54.3 33.2 54.3 34.1"></polygon><polygon class="st4" points="59.2 17.1 58.6 17.4 58.6 16.5"></polygon><polygon class="st4" points="59.2 16.3 58.6 16.5 58.6 15.7"></polygon><polygon class="st4" points="59.2 15.4 58.6 15.7 58.6 14.8"></polygon><polygon class="st4" points="59.2 14.6 58.6 14.8 58.6 13.9"></polygon><polygon class="st4" points="59.2 13.7 58.6 13.9 58.6 13.1"></polygon><polygon class="st4" points="59.2 12.9 58.6 13.1 58.6 12.2"></polygon><polygon class="st4" points="59.2 12 58.6 12.2 58.6 11.4"></polygon><polygon class="st4" points="59.2 11.1 58.6 11.4 58.6 10.5"></polygon><polygon class="st4" points="53.7 9.3 54.3 9.1 54.3 10"></polygon><polygon class="st4" points="53.7 10.2 54.3 10 54.3 10.8"></polygon><polygon class="st4" points="53.7 11.1 54.3 10.8 54.3 11.7"></polygon><polygon class="st4" points="53.7 12 54.3 11.7 54.3 12.6"></polygon><polygon class="st4" points="53.7 12.9 54.3 12.6 54.3 13.5"></polygon><polygon class="st4" points="53.7 13.8 54.3 13.5 54.3 14.4"></polygon><polygon class="st4" points="53.7 14.6 54.3 14.4 54.3 15.3"></polygon><polygon class="st4" points="53.7 15.5 54.3 15.3 54.3 16.2"></polygon><polygon class="st0" points="53.5 8.8 53.5 15.9 45.2 13.5 45.2 6"></polygon><polygon class="st0" points="65.4 12.9 65.4 19.3 59.4 17.6 59.4 10.8"></polygon><polygon class="st3" points="54.6 26.2 54.3 25.1 54.9 25.2"></polygon><polygon class="st3" points="55.1 26.3 54.9 25.2 55.4 25.4"></polygon><polygon class="st3" points="55.7 26.4 55.4 25.4 55.9 25.5"></polygon><polygon class="st3" points="56.2 26.6 55.9 25.5 56.5 25.6"></polygon><polygon class="st3" points="56.7 26.7 56.5 25.6 57 25.7"></polygon><polygon class="st3" points="57.3 26.8 57 25.7 57.5 25.8"></polygon><polygon class="st3" points="57.8 26.9 57.5 25.8 58 25.9"></polygon><polygon class="st3" points="58.3 27 58 25.9 58.6 26"></polygon><polygon class="st3" points="58.3 18.1 58.6 19.2 58 19.1"></polygon><polygon class="st3" points="57.8 18 58 19.1 57.5 18.9"></polygon><polygon class="st3" points="57.3 17.8 57.5 18.9 57 18.8"></polygon><polygon class="st3" points="56.7 17.7 57 18.8 56.5 18.6"></polygon><polygon class="st3" points="56.2 17.5 56.5 18.6 55.9 18.5"></polygon><polygon class="st3" points="55.7 17.4 55.9 18.5 55.4 18.3"></polygon><polygon class="st3" points="55.1 17.2 55.4 18.3 54.9 18.2"></polygon><polygon class="st3" points="54.6 17.1 54.9 18.2 54.3 18"></polygon><polygon class="st0" points="58.8 19.3 58.8 26.1 54.1 25.1 54.1 18"></polygon><polygon class="st0" points="68.1 29.8 68.1 36.2 59.3 34.8 59.3 28"></polygon><polygon class="st0" points="53.4 26.8 53.4 33.9 46.4 32.9 46.4 25.4"></polygon><polygon class="st4" points="64 29.4 64.5 29.1 64.5 29.9"></polygon><polygon class="st4" points="64 30.2 64.5 29.9 64.5 30.7"></polygon><polygon class="st4" points="64 31 64.5 30.7 64.5 31.5"></polygon><polygon class="st4" points="64 31.8 64.5 31.5 64.5 32.3"></polygon><polygon class="st4" points="64 32.7 64.5 32.3 64.5 33.2"></polygon><polygon class="st4" points="64 33.5 64.5 33.2 64.5 34"></polygon><polygon class="st4" points="64 34.3 64.5 34 64.5 34.8"></polygon><polygon class="st4" points="64 35.1 64.5 34.8 64.5 35.6"></polygon><polygon class="st4" points="64 12.8 64.5 12.6 64.5 13.4"></polygon><polygon class="st4" points="64 13.6 64.5 13.4 64.5 14.2"></polygon><polygon class="st4" points="64 14.4 64.5 14.2 64.5 15"></polygon><polygon class="st4" points="64 15.2 64.5 15 64.5 15.8"></polygon><polygon class="st4" points="64 16.1 64.5 15.8 64.5 16.6"></polygon><polygon class="st4" points="64 16.9 64.5 16.6 64.5 17.5"></polygon><polygon class="st4" points="64 17.7 64.5 17.5 64.5 18.3"></polygon><polygon class="st4" points="64 18.5 64.5 18.3 64.5 19.1"></polygon><polygon class="st1" points="64.5 8.1 68.1 9.4 68.1 40.5 64.5 40.1"></polygon><polygon class="st0" points="68.1 21.8 68.1 28.1 64.4 27.3 64.4 20.8"></polygon><polygon class="st3" points="54.6 8.3 54.3 7.2 54.9 7.4"></polygon><polygon class="st3" points="55.1 8.5 54.9 7.4 55.4 7.6"></polygon><polygon class="st3" points="55.7 8.7 55.4 7.6 55.9 7.8"></polygon><polygon class="st3" points="56.2 8.9 55.9 7.8 56.5 8"></polygon><polygon class="st3" points="56.7 9.1 56.5 8 57 8.2"></polygon><polygon class="st3" points="57.3 9.3 57 8.2 57.5 8.3"></polygon><polygon class="st3" points="57.8 9.4 57.5 8.3 58 8.5"></polygon><polygon class="st3" points="58.3 9.6 58 8.5 58.6 8.7"></polygon><polygon class="st0" points="68.1 9.4 68.1 12.1 45.2 4 45.2 0.8"></polygon><polygon class="st1" points="59.6 6.2 63.5 7.7 63.5 10.9 59.6 9.6"></polygon><polygon class="st1" points="48.6 2 53.2 3.8 53.2 7.3 48.6 5.7"></polygon><polygon class="st4" points="48 13.9 47.3 14.1 47.3 13.2"></polygon><polygon class="st4" points="48 12.9 47.3 13.2 47.3 12.3"></polygon><polygon class="st4" points="48 12 47.3 12.3 47.3 11.3"></polygon><polygon class="st4" points="48 11.1 47.3 11.3 47.3 10.4"></polygon><polygon class="st4" points="48 10.2 47.3 10.4 47.3 9.5"></polygon><polygon class="st4" points="48 9.2 47.3 9.5 47.3 8.5"></polygon><polygon class="st4" points="48 8.3 47.3 8.5 47.3 7.6"></polygon><polygon class="st4" points="48 7.4 47.3 7.6 47.3 6.7"></polygon><polygon class="st4" points="48 32.7 47.3 33 47.3 32.1"></polygon><polygon class="st4" points="48 31.7 47.3 32.1 47.3 31.2"></polygon><polygon class="st4" points="48 30.8 47.3 31.2 47.3 30.2"></polygon><polygon class="st4" points="48 29.9 47.3 30.2 47.3 29.3"></polygon><polygon class="st4" points="48 29 47.3 29.3 47.3 28.4"></polygon><polygon class="st4" points="48 28 47.3 28.4 47.3 27.4"></polygon><polygon class="st4" points="48 27.1 47.3 27.4 47.3 26.5"></polygon><polygon class="st4" points="48 26.2 47.3 26.5 47.3 25.6"></polygon><polygon class="st1" points="45.2 0.8 47.3 1.6 47.3 37.9 45.2 37.9"></polygon><polygon class="st0" points="47.5 16.2 47.5 23.6 45.2 23.1 45.2 15.6"></polygon><polygon class="st0" points="47.5 35 47.5 38.1 45.2 37.9 45.2 34.7"></polygon><polygon class="st0" points="47.5 1.7 47.5 4.8 45.2 4 45.2 0.8"></polygon><polygon class="st0" points="68.1 37.8 68.1 40.5 64.3 40.1 64.3 37.3"></polygon><polygon class="st3" points="67.9 36.9 68.1 37.8 67.7 37.8"></polygon><polygon class="st3" points="67.5 36.8 67.7 37.8 67.3 37.7"></polygon><polygon class="st3" points="67 36.7 67.3 37.7 66.8 37.7"></polygon><polygon class="st3" points="66.6 36.7 66.8 37.7 66.4 37.6"></polygon><polygon class="st3" points="66.1 36.6 66.4 37.6 65.9 37.5"></polygon><polygon class="st3" points="65.7 36.5 65.9 37.5 65.5 37.5"></polygon><polygon class="st3" points="65.2 36.5 65.5 37.5 65 37.4"></polygon><polygon class="st3" points="64.8 36.4 65 37.4 64.5 37.3"></polygon><polygon class="st3" points="64.8 28.4 64.5 27.3 65 27.4"></polygon><polygon class="st3" points="65.2 28.5 65 27.4 65.5 27.5"></polygon><polygon class="st3" points="65.7 28.5 65.5 27.5 65.9 27.6"></polygon><polygon class="st3" points="66.1 28.6 65.9 27.6 66.4 27.7"></polygon><polygon class="st3" points="66.6 28.7 66.4 27.7 66.8 27.8"></polygon><polygon class="st3" points="67 28.8 66.8 27.8 67.3 27.9"></polygon><polygon class="st3" points="67.5 28.9 67.3 27.9 67.7 28"></polygon><polygon class="st3" points="67.9 29 67.7 28 68.1 28.1"></polygon><polygon class="st3" points="67.9 20.8 68.1 21.8 67.7 21.7"></polygon><polygon class="st3" points="67.5 20.7 67.7 21.7 67.3 21.6"></polygon><polygon class="st3" points="67 20.6 67.3 21.6 66.8 21.4"></polygon><polygon class="st3" points="66.6 20.4 66.8 21.4 66.4 21.3"></polygon><polygon class="st3" points="66.1 20.3 66.4 21.3 65.9 21.2"></polygon><polygon class="st3" points="65.7 20.2 65.9 21.2 65.5 21.1"></polygon><polygon class="st3" points="65.2 20.1 65.5 21.1 65 21"></polygon><polygon class="st3" points="64.8 19.9 65 21 64.5 20.8"></polygon><polygon class="st3" points="64.8 11.9 64.5 10.8 65 11"></polygon><polygon class="st3" points="65.2 12 65 11 65.5 11.2"></polygon><polygon class="st3" points="65.7 12.2 65.5 11.2 65.9 11.3"></polygon><polygon class="st3" points="66.1 12.3 65.9 11.3 66.4 11.5"></polygon><polygon class="st3" points="66.6 12.5 66.4 11.5 66.8 11.6"></polygon><polygon class="st3" points="67 12.7 66.8 11.6 67.3 11.8"></polygon><polygon class="st3" points="67.5 12.8 67.3 11.8 67.7 12"></polygon><polygon class="st3" points="67.9 13 67.7 12 68.1 12.1"></polygon><polygon class="st2" points="44.2 3.1 44.2 36.4 22.5 38.8 22.5 10"></polygon><polygon class="st0" points="45.3 25.1 45.3 32.7 21.4 35.8 21.4 29.4"></polygon><polygon class="st0" points="45.3 6 45.3 13.5 21.4 19.5 21.4 13.1"></polygon><polygon class="st0" points="45.3 15.5 45.3 23.1 21.4 27.7 21.4 21.2"></polygon><polygon class="st1" points="30 5.8 34.8 4.2 34.8 38.9 30 39.4"></polygon><polygon class="st3" points="34.5 35 34.8 36 34.2 36"></polygon><polygon class="st3" points="33.9 35 34.2 36 33.6 36.1"></polygon><polygon class="st3" points="33.3 35.1 33.6 36.1 33 36.2"></polygon><polygon class="st3" points="32.7 35.2 33 36.2 32.4 36.2"></polygon><polygon class="st3" points="32.1 35.3 32.4 36.2 31.8 36.3"></polygon><polygon class="st3" points="31.5 35.3 31.8 36.3 31.2 36.4"></polygon><polygon class="st3" points="30.9 35.4 31.2 36.4 30.6 36.5"></polygon><polygon class="st3" points="30.3 35.5 30.6 36.5 30 36.5"></polygon><polygon class="st0" points="45.3 34.7 45.3 37.9 21.4 40.3 21.4 37.5"></polygon><polygon class="st4" points="42.2 23.2 41.4 23.9 41.4 22.9"></polygon><polygon class="st4" points="42.2 22.3 41.4 22.9 41.4 22"></polygon><polygon class="st4" points="42.2 21.4 41.4 22 41.4 21.1"></polygon><polygon class="st4" points="42.2 20.4 41.4 21.1 41.4 20.2"></polygon><polygon class="st4" points="42.2 19.5 41.4 20.2 41.4 19.2"></polygon><polygon class="st4" points="42.2 18.6 41.4 19.2 41.4 18.3"></polygon><polygon class="st4" points="42.2 17.7 41.4 18.3 41.4 17.4"></polygon><polygon class="st4" points="42.2 16.7 41.4 17.4 41.4 16.5"></polygon><polygon class="st4" points="35.4 18.3 36.2 17.7 36.2 18.6"></polygon><polygon class="st4" points="35.4 19.2 36.2 18.6 36.2 19.5"></polygon><polygon class="st4" points="35.4 20.1 36.2 19.5 36.2 20.4"></polygon><polygon class="st4" points="35.4 21 36.2 20.4 36.2 21.3"></polygon><polygon class="st4" points="35.4 21.9 36.2 21.3 36.2 22.2"></polygon><polygon class="st4" points="35.4 22.8 36.2 22.2 36.2 23.1"></polygon><polygon class="st4" points="35.4 23.7 36.2 23.1 36.2 24"></polygon><polygon class="st4" points="35.4 24.6 36.2 24 36.2 24.9"></polygon><polygon class="st1" points="36.2 3.8 41.4 2 41.4 38.3 36.2 38.8"></polygon><polygon class="st3" points="36.5 16.8 36.2 15.8 36.8 15.6"></polygon><polygon class="st3" points="37.1 16.6 36.8 15.6 37.5 15.5"></polygon><polygon class="st3" points="37.8 16.5 37.5 15.5 38.1 15.3"></polygon><polygon class="st3" points="38.4 16.3 38.1 15.3 38.8 15.2"></polygon><polygon class="st3" points="39.1 16.1 38.8 15.2 39.4 15"></polygon><polygon class="st3" points="39.7 16 39.4 15 40.1 14.8"></polygon><polygon class="st3" points="40.4 15.8 40.1 14.8 40.8 14.7"></polygon><polygon class="st3" points="41.1 15.7 40.8 14.7 41.4 14.5"></polygon><polygon class="st3" points="41.1 6.1 41.4 7.1 40.8 7.3"></polygon><polygon class="st3" points="40.4 6.3 40.8 7.3 40.1 7.5"></polygon><polygon class="st3" points="39.7 6.5 40.1 7.5 39.4 7.7"></polygon><polygon class="st3" points="39.1 6.7 39.4 7.7 38.8 7.9"></polygon><polygon class="st3" points="38.4 6.9 38.8 7.9 38.1 8.1"></polygon><polygon class="st3" points="37.8 7.1 38.1 8.1 37.5 8.3"></polygon><polygon class="st3" points="37.1 7.3 37.5 8.3 36.8 8.5"></polygon><polygon class="st3" points="36.5 7.5 36.8 8.5 36.2 8.7"></polygon><polygon class="st3" points="36.5 34.9 36.2 33.9 36.8 33.8"></polygon><polygon class="st3" points="37.1 34.8 36.8 33.8 37.5 33.7"></polygon><polygon class="st3" points="37.8 34.7 37.5 33.7 38.1 33.6"></polygon><polygon class="st3" points="38.4 34.7 38.1 33.6 38.8 33.6"></polygon><polygon class="st3" points="39.1 34.6 38.8 33.6 39.4 33.5"></polygon><polygon class="st3" points="39.7 34.5 39.4 33.5 40.1 33.4"></polygon><polygon class="st3" points="40.4 34.4 40.1 33.4 40.8 33.3"></polygon><polygon class="st3" points="41.1 34.3 40.8 33.3 41.4 33.2"></polygon><polygon class="st3" points="41.1 24.8 41.4 25.8 40.8 25.9"></polygon><polygon class="st3" points="40.4 24.9 40.8 25.9 40.1 26.1"></polygon><polygon class="st3" points="39.7 25 40.1 26.1 39.4 26.2"></polygon><polygon class="st3" points="39.1 25.2 39.4 26.2 38.8 26.3"></polygon><polygon class="st3" points="38.4 25.3 38.8 26.3 38.1 26.4"></polygon><polygon class="st3" points="37.8 25.4 38.1 26.4 37.5 26.5"></polygon><polygon class="st3" points="37.1 25.5 37.5 26.5 36.8 26.6"></polygon><polygon class="st3" points="36.5 25.6 36.8 26.6 36.2 26.8"></polygon><polygon class="st1" points="24.3 7.7 28.8 6.2 28.8 39.5 24.3 40"></polygon><polygon class="st3" points="24.6 36.4 24.3 35.5 24.9 35.4"></polygon><polygon class="st3" points="25.1 36.3 24.9 35.4 25.4 35.3"></polygon><polygon class="st3" points="25.7 36.3 25.4 35.3 26 35.2"></polygon><polygon class="st3" points="26.2 36.2 26 35.2 26.5 35.2"></polygon><polygon class="st3" points="26.8 36.1 26.5 35.2 27.1 35.1"></polygon><polygon class="st3" points="27.3 36 27.1 35.1 27.6 35"></polygon><polygon class="st3" points="27.9 36 27.6 35 28.2 34.9"></polygon><polygon class="st3" points="28.5 35.9 28.2 34.9 28.8 34.9"></polygon><polygon class="st3" points="28.5 27.1 28.8 28.1 28.2 28.2"></polygon><polygon class="st3" points="27.9 27.2 28.2 28.2 27.6 28.3"></polygon><polygon class="st3" points="27.3 27.3 27.6 28.3 27.1 28.4"></polygon><polygon class="st3" points="26.8 27.5 27.1 28.4 26.5 28.5"></polygon><polygon class="st3" points="26.2 27.6 26.5 28.5 26 28.6"></polygon><polygon class="st3" points="25.7 27.7 26 28.6 25.4 28.7"></polygon><polygon class="st3" points="25.1 27.8 25.4 28.7 24.9 28.8"></polygon><polygon class="st3" points="24.6 27.9 24.9 28.8 24.3 28.9"></polygon><polygon class="st3" points="24.6 19.7 24.3 18.8 24.9 18.7"></polygon><polygon class="st3" points="25.1 19.6 24.9 18.7 25.4 18.5"></polygon><polygon class="st3" points="25.7 19.4 25.4 18.5 26 18.4"></polygon><polygon class="st3" points="26.2 19.3 26 18.4 26.5 18.2"></polygon><polygon class="st3" points="26.8 19.2 26.5 18.2 27.1 18.1"></polygon><polygon class="st3" points="27.3 19 27.1 18.1 27.6 18"></polygon><polygon class="st3" points="27.9 18.9 27.6 18 28.2 17.8"></polygon><polygon class="st3" points="28.5 18.7 28.2 17.8 28.8 17.7"></polygon><polygon class="st3" points="28.5 10 28.8 10.9 28.2 11.1"></polygon><polygon class="st3" points="27.9 10.1 28.2 11.1 27.6 11.2"></polygon><polygon class="st3" points="27.3 10.3 27.6 11.2 27.1 11.4"></polygon><polygon class="st3" points="26.8 10.5 27.1 11.4 26.5 11.6"></polygon><polygon class="st3" points="26.2 10.7 26.5 11.6 26 11.7"></polygon><polygon class="st3" points="25.7 10.8 26 11.7 25.4 11.9"></polygon><polygon class="st3" points="25.1 11 25.4 11.9 24.9 12.1"></polygon><polygon class="st3" points="24.6 11.2 24.9 12.1 24.3 12.2"></polygon><polygon class="st4" points="29.4 25.7 28.8 26.3 28.8 25.4"></polygon><polygon class="st4" points="29.4 24.9 28.8 25.4 28.8 24.6"></polygon><polygon class="st4" points="29.4 24 28.8 24.6 28.8 23.7"></polygon><polygon class="st4" points="29.4 23.2 28.8 23.7 28.8 22.9"></polygon><polygon class="st4" points="29.4 22.3 28.8 22.9 28.8 22"></polygon><polygon class="st4" points="29.4 21.4 28.8 22 28.8 21.2"></polygon><polygon class="st4" points="29.4 20.6 28.8 21.2 28.8 20.3"></polygon><polygon class="st4" points="29.4 19.7 28.8 20.3 28.8 19.5"></polygon><polygon class="st4" points="23.7 21.1 24.3 20.5 24.3 21.4"></polygon><polygon class="st4" points="23.7 21.9 24.3 21.4 24.3 22.2"></polygon><polygon class="st4" points="23.7 22.7 24.3 22.2 24.3 23"></polygon><polygon class="st4" points="23.7 23.6 24.3 23 24.3 23.8"></polygon><polygon class="st4" points="23.7 24.4 24.3 23.8 24.3 24.7"></polygon><polygon class="st4" points="23.7 25.2 24.3 24.7 24.3 25.5"></polygon><polygon class="st4" points="23.7 26 24.3 25.5 24.3 26.3"></polygon><polygon class="st4" points="23.7 26.8 24.3 26.3 24.3 27.1"></polygon><polygon class="st4" points="35.6 33.5 34.8 34.1 34.8 33.2"></polygon><polygon class="st4" points="35.6 32.6 34.8 33.2 34.8 32.3"></polygon><polygon class="st4" points="35.6 31.8 34.8 32.3 34.8 31.4"></polygon><polygon class="st4" points="35.6 30.9 34.8 31.4 34.8 30.5"></polygon><polygon class="st4" points="35.6 30 34.8 30.5 34.8 29.6"></polygon><polygon class="st4" points="35.6 29.1 34.8 29.6 34.8 28.8"></polygon><polygon class="st4" points="35.6 28.2 34.8 28.8 34.8 27.9"></polygon><polygon class="st4" points="35.6 27.3 34.8 27.9 34.8 27"></polygon><polygon class="st4" points="29.3 28.4 30 27.9 30 28.7"></polygon><polygon class="st4" points="29.3 29.3 30 28.7 30 29.6"></polygon><polygon class="st4" points="29.3 30.1 30 29.6 30 30.4"></polygon><polygon class="st4" points="29.3 31 30 30.4 30 31.3"></polygon><polygon class="st4" points="29.3 31.8 30 31.3 30 32.1"></polygon><polygon class="st4" points="29.3 32.7 30 32.1 30 33"></polygon><polygon class="st4" points="29.3 33.5 30 33 30 33.9"></polygon><polygon class="st4" points="29.3 34.4 30 33.9 30 34.7"></polygon><polygon class="st4" points="35.6 15.5 34.8 16.2 34.8 15.3"></polygon><polygon class="st4" points="35.6 14.6 34.8 15.3 34.8 14.4"></polygon><polygon class="st4" points="35.6 13.7 34.8 14.4 34.8 13.5"></polygon><polygon class="st4" points="35.6 12.9 34.8 13.5 34.8 12.6"></polygon><polygon class="st4" points="35.6 12 34.8 12.6 34.8 11.7"></polygon><polygon class="st4" points="35.6 11.1 34.8 11.7 34.8 10.8"></polygon><polygon class="st4" points="35.6 10.2 34.8 10.8 34.8 9.9"></polygon><polygon class="st4" points="35.6 9.3 34.8 9.9 34.8 9.1"></polygon><polygon class="st4" points="29.3 11.1 30 10.5 30 11.4"></polygon><polygon class="st4" points="29.3 12 30 11.4 30 12.2"></polygon><polygon class="st4" points="29.3 12.8 30 12.2 30 13.1"></polygon><polygon class="st4" points="29.3 13.7 30 13.1 30 13.9"></polygon><polygon class="st4" points="29.3 14.6 30 13.9 30 14.8"></polygon><polygon class="st4" points="29.3 15.4 30 14.8 30 15.7"></polygon><polygon class="st4" points="29.3 16.3 30 15.7 30 16.5"></polygon><polygon class="st4" points="29.3 17.1 30 16.5 30 17.4"></polygon><polygon class="st0" points="29.1 10.8 29.1 17.6 21.4 19.5 21.4 13.1"></polygon><polygon class="st0" points="44.2 6.3 44.2 13.8 35.9 15.9 35.9 8.8"></polygon><polygon class="st3" points="30.3 27 30 26 30.6 25.9"></polygon><polygon class="st3" points="30.9 26.9 30.6 25.9 31.2 25.8"></polygon><polygon class="st3" points="31.5 26.8 31.2 25.8 31.8 25.7"></polygon><polygon class="st3" points="32.1 26.7 31.8 25.7 32.4 25.6"></polygon><polygon class="st3" points="32.7 26.5 32.4 25.6 33 25.5"></polygon><polygon class="st3" points="33.3 26.4 33 25.5 33.6 25.3"></polygon><polygon class="st3" points="33.9 26.3 33.6 25.3 34.2 25.2"></polygon><polygon class="st3" points="34.5 26.2 34.2 25.2 34.8 25.1"></polygon><polygon class="st3" points="34.5 17.1 34.8 18 34.2 18.2"></polygon><polygon class="st3" points="33.9 17.2 34.2 18.2 33.6 18.3"></polygon><polygon class="st3" points="33.3 17.4 33.6 18.3 33 18.5"></polygon><polygon class="st3" points="32.7 17.5 33 18.5 32.4 18.6"></polygon><polygon class="st3" points="32.1 17.7 32.4 18.6 31.8 18.8"></polygon><polygon class="st3" points="31.5 17.8 31.8 18.8 31.2 18.9"></polygon><polygon class="st3" points="30.9 18 31.2 18.9 30.6 19"></polygon><polygon class="st3" points="30.3 18.1 30.6 19 30 19.2"></polygon><polygon class="st0" points="35.1 18 35.1 25.1 29.7 26.1 29.7 19.3"></polygon><polygon class="st0" points="45.3 25.1 45.3 32.7 35.7 34 35.7 26.8"></polygon><polygon class="st0" points="29 28 29 34.8 22.4 35.7 22.4 29.2"></polygon><polygon class="st4" points="42.1 26.2 42.9 25.5 42.9 26.5"></polygon><polygon class="st4" points="42.1 27.1 42.9 26.5 42.9 27.4"></polygon><polygon class="st4" points="42.1 28 42.9 27.4 42.9 28.3"></polygon><polygon class="st4" points="42.1 28.9 42.9 28.3 42.9 29.3"></polygon><polygon class="st4" points="42.1 29.9 42.9 29.3 42.9 30.2"></polygon><polygon class="st4" points="42.1 30.8 42.9 30.2 42.9 31.1"></polygon><polygon class="st4" points="42.1 31.7 42.9 31.1 42.9 32.1"></polygon><polygon class="st4" points="42.1 32.7 42.9 32.1 42.9 33"></polygon><polygon class="st4" points="42.1 7.4 42.9 6.7 42.9 7.6"></polygon><polygon class="st4" points="42.1 8.3 42.9 7.6 42.9 8.5"></polygon><polygon class="st4" points="42.1 9.2 42.9 8.5 42.9 9.5"></polygon><polygon class="st4" points="42.1 10.1 42.9 9.5 42.9 10.4"></polygon><polygon class="st4" points="42.1 11.1 42.9 10.4 42.9 11.3"></polygon><polygon class="st4" points="42.1 12 42.9 11.3 42.9 12.3"></polygon><polygon class="st4" points="42.1 12.9 42.9 12.3 42.9 13.2"></polygon><polygon class="st4" points="42.1 13.9 42.9 13.2 42.9 14.1"></polygon><polygon class="st1" points="42.9 1.5 45.3 0.8 45.3 37.9 42.9 38.1"></polygon><polygon class="st0" points="45.3 15.5 45.3 23.1 42.7 23.6 42.7 16.2"></polygon><polygon class="st3" points="30.3 9.6 30 8.7 30.6 8.5"></polygon><polygon class="st3" points="30.9 9.4 30.6 8.5 31.2 8.3"></polygon><polygon class="st3" points="31.5 9.3 31.2 8.3 31.8 8.1"></polygon><polygon class="st3" points="32.1 9.1 31.8 8.1 32.4 8"></polygon><polygon class="st3" points="32.7 8.9 32.4 8 33 7.8"></polygon><polygon class="st3" points="33.3 8.7 33 7.8 33.6 7.6"></polygon><polygon class="st3" points="33.9 8.5 33.6 7.6 34.2 7.4"></polygon><polygon class="st3" points="34.5 8.3 34.2 7.4 34.8 7.2"></polygon><polygon class="st0" points="45.3 0.8 45.3 3.9 21.4 11.4 21.4 8.7"></polygon><polygon class="st1" points="36.2 3.8 41.4 2 41.4 5.7 36.2 7.3"></polygon><polygon class="st1" points="24.3 7.7 28.8 6.2 28.8 9.6 24.3 10.9"></polygon><polygon class="st4" points="23.8 18.5 23.2 19.1 23.2 18.3"></polygon><polygon class="st4" points="23.8 17.7 23.2 18.3 23.2 17.4"></polygon><polygon class="st4" points="23.8 16.9 23.2 17.4 23.2 16.6"></polygon><polygon class="st4" points="23.8 16.1 23.2 16.6 23.2 15.8"></polygon><polygon class="st4" points="23.8 15.2 23.2 15.8 23.2 15"></polygon><polygon class="st4" points="23.8 14.4 23.2 15 23.2 14.2"></polygon><polygon class="st4" points="23.8 13.6 23.2 14.2 23.2 13.4"></polygon><polygon class="st4" points="23.8 12.8 23.2 13.4 23.2 12.5"></polygon><polygon class="st4" points="23.8 35.1 23.2 35.6 23.2 34.8"></polygon><polygon class="st4" points="23.8 34.3 23.2 34.8 23.2 34"></polygon><polygon class="st4" points="23.8 33.5 23.2 34 23.2 33.2"></polygon><polygon class="st4" points="23.8 32.7 23.2 33.2 23.2 32.3"></polygon><polygon class="st4" points="23.8 31.8 23.2 32.3 23.2 31.5"></polygon><polygon class="st4" points="23.8 31 23.2 31.5 23.2 30.7"></polygon><polygon class="st4" points="23.8 30.2 23.2 30.7 23.2 29.9"></polygon><polygon class="st4" points="23.8 29.4 23.2 29.9 23.2 29.1"></polygon><polygon class="st1" points="21.4 8.7 23.2 8.1 23.2 40.1 21.4 40.3"></polygon><polygon class="st0" points="23.4 20.8 23.4 27.3 21.4 27.7 21.4 21.2"></polygon><polygon class="st0" points="23.4 37.3 23.4 40.1 21.4 40.3 21.4 37.5"></polygon><polygon class="st0" points="23.4 8 23.4 10.7 21.4 11.4 21.4 8.7"></polygon><polygon class="st0" points="45.3 34.7 45.3 37.9 42.7 38.2 42.7 35"></polygon><polygon class="st5" points="45.3 37.8 21.4 40.1 21.4 8.5 45.1 0.7"></polygon><line class="st6" x1="17.8" x2="21.1" y1="10.8" y2="20.5"></line><line class="st6" x1="12.1" x2="18.5" y1="16.1" y2="24.1"></line><path class="st7" d="m18.5 24.1c2.2 1.8 4.5 6.6 4.4 10.4"></path><path class="st7" d="m21.1 20.6c1.8 3.6 2.9 8.9 3 14.1"></path><path class="st0" d="m12 29.6c2.1 1.5 5 2.1 7.8 1.7 0.2 0 0.3 0 0.5-0.1 0.9-0.4-0.6-2-1-2.4-2.7-2.5-7 0.6-9.9-1.7 0.9 0.9 1.7 1.8 2.6 2.5z"></path><path class="st4" d="m20.2 31.2c-0.2 0.1-0.3 0.1-0.5 0.1-2.8 0.4-5.7-0.2-7.8-1.7-0.9-0.7-1.6-1.5-2.4-2.4 1.2 0.9 4.8 2.2 7.6 2.3s3.3 1.6 3.3 1.6"></path><polygon class="st8" points="75.1 40.8 45.2 36.8 21.4 39 21.4 32.9 45.2 29.8 75.2 34.8"></polygon><polygon class="st1" points="3.4 46.1 3.3 45.1 24.9 43.7 45.3 36.9 45.3 37.9 25 44.7"></polygon><polygon class="st2" points="42.4 37.6 24 43.7 4.5 44.9 20.7 39.6"></polygon><polygon class="st0" points="40.5 38.4 33.6 40.7 11 42.5 17.1 40.5"></polygon><polygon class="st0" points="31.7 41.4 24.8 43.7 3.3 45.1 9.4 43.1"></polygon><polygon class="st1" points="30 38.3 34.9 37.8 15.5 44.3 11.2 44.6"></polygon><polygon class="st4" points="22.5 43.7 21.4 43.9 22.3 43.6"></polygon><polygon class="st4" points="23.4 43.4 22.3 43.6 23.1 43.3"></polygon><polygon class="st4" points="24.3 43.1 23.1 43.3 24 43"></polygon><polygon class="st4" points="25.1 42.8 24 43 24.8 42.8"></polygon><polygon class="st4" points="26 42.6 24.8 42.8 25.7 42.5"></polygon><polygon class="st4" points="26.8 42.3 25.7 42.5 26.5 42.2"></polygon><polygon class="st4" points="27.7 42 26.5 42.2 27.4 41.9"></polygon><polygon class="st4" points="28.5 41.7 27.4 41.9 28.2 41.6"></polygon><polygon class="st4" points="22.3 42.2 23.4 42 22.5 42.3"></polygon><polygon class="st4" points="21.4 42.5 22.5 42.3 21.7 42.5"></polygon><polygon class="st4" points="20.6 42.7 21.7 42.5 20.9 42.8"></polygon><polygon class="st4" points="19.8 43 20.9 42.8 20 43.1"></polygon><polygon class="st4" points="19 43.3 20 43.1 19.2 43.4"></polygon><polygon class="st4" points="18.1 43.6 19.2 43.4 18.4 43.6"></polygon><polygon class="st4" points="17.3 43.8 18.4 43.6 17.6 43.9"></polygon><polygon class="st4" points="16.5 44.1 17.6 43.9 16.7 44.2"></polygon><polygon class="st1" points="36.3 37.7 41.5 37.2 21.4 43.9 16.7 44.2"></polygon><polygon class="st3" points="24.4 41.7 25.1 41.4 25.7 41.4"></polygon><polygon class="st3" points="25 41.7 25.7 41.4 26.3 41.3"></polygon><polygon class="st3" points="25.6 41.6 26.3 41.3 26.9 41.3"></polygon><polygon class="st3" points="26.3 41.6 26.9 41.3 27.5 41.2"></polygon><polygon class="st3" points="26.9 41.5 27.5 41.2 28.2 41.2"></polygon><polygon class="st3" points="27.5 41.5 28.2 41.2 28.8 41.1"></polygon><polygon class="st3" points="28.1 41.4 28.8 41.1 29.4 41.1"></polygon><polygon class="st3" points="28.7 41.4 29.4 41.1 30 41"></polygon><polygon class="st3" points="37.5 38.5 36.8 38.8 36.2 38.8"></polygon><polygon class="st3" points="36.9 38.5 36.2 38.8 35.5 38.9"></polygon><polygon class="st3" points="36.2 38.6 35.5 38.9 34.9 38.9"></polygon><polygon class="st3" points="35.6 38.6 34.9 38.9 34.2 39"></polygon><polygon class="st3" points="34.9 38.7 34.2 39 33.6 39.1"></polygon><polygon class="st3" points="34.3 38.8 33.6 39.1 33 39.1"></polygon><polygon class="st3" points="33.6 38.8 33 39.1 32.4 39.2"></polygon><polygon class="st3" points="33 38.9 32.4 39.2 31.7 39.2"></polygon><polygon class="st1" points="24.2 38.9 28.8 38.4 10.1 44.6 6 44.9"></polygon><polygon class="st3" points="13.2 42.6 13.8 42.3 14.3 42.3"></polygon><polygon class="st3" points="13.7 42.5 14.3 42.3 14.9 42.2"></polygon><polygon class="st3" points="14.2 42.5 14.9 42.2 15.4 42.2"></polygon><polygon class="st3" points="14.7 42.5 15.4 42.2 15.9 42.1"></polygon><polygon class="st3" points="15.3 42.4 15.9 42.1 16.5 42.1"></polygon><polygon class="st3" points="15.8 42.4 16.5 42.1 17 42.1"></polygon><polygon class="st3" points="16.4 42.3 17 42.1 17.6 42"></polygon><polygon class="st3" points="16.9 42.3 17.6 42 18.1 42"></polygon><polygon class="st3" points="25.1 39.6 24.4 39.9 23.9 39.9"></polygon><polygon class="st3" points="24.5 39.6 23.9 39.9 23.3 40"></polygon><polygon class="st3" points="24 39.7 23.3 40 22.8 40"></polygon><polygon class="st3" points="23.4 39.7 22.8 40 22.2 40.1"></polygon><polygon class="st3" points="22.8 39.8 22.2 40.1 21.6 40.1"></polygon><polygon class="st3" points="22.3 39.8 21.6 40.1 21.1 40.2"></polygon><polygon class="st3" points="21.7 39.9 21.1 40.2 20.5 40.2"></polygon><polygon class="st3" points="21.2 39.9 20.5 40.2 20 40.3"></polygon><polygon class="st4" points="11.1 44.5 10.1 44.6 10.9 44.4"></polygon><polygon class="st4" points="11.9 44.2 10.9 44.4 11.7 44.1"></polygon><polygon class="st4" points="12.7 43.9 11.7 44.1 12.4 43.8"></polygon><polygon class="st4" points="13.5 43.7 12.4 43.8 13.2 43.6"></polygon><polygon class="st4" points="14.3 43.4 13.2 43.6 14 43.3"></polygon><polygon class="st4" points="15.1 43.1 14 43.3 14.8 43.1"></polygon><polygon class="st4" points="15.9 42.9 14.8 43.1 15.6 42.8"></polygon><polygon class="st4" points="16.7 42.6 15.6 42.8 16.4 42.5"></polygon><polygon class="st4" points="11.2 43 12.2 42.8 11.4 43.1"></polygon><polygon class="st4" points="10.4 43.3 11.4 43.1 10.6 43.4"></polygon><polygon class="st4" points="9.6 43.5 10.6 43.4 9.9 43.6"></polygon><polygon class="st4" points="8.9 43.8 9.9 43.6 9.1 43.9"></polygon><polygon class="st4" points="8.1 44 9.1 43.9 8.3 44.1"></polygon><polygon class="st4" points="7.3 44.3 8.3 44.1 7.5 44.4"></polygon><polygon class="st4" points="6.6 44.6 7.5 44.4 6.8 44.6"></polygon><polygon class="st4" points="5.8 44.8 6.8 44.6 6 44.9"></polygon><polygon class="st4" points="25 41.3 23.8 41.5 24.7 41.2"></polygon><polygon class="st4" points="25.8 41 24.7 41.2 25.5 41"></polygon><polygon class="st4" points="26.6 40.8 25.5 41 26.3 40.7"></polygon><polygon class="st4" points="27.4 40.5 26.3 40.7 27.1 40.4"></polygon><polygon class="st4" points="28.3 40.2 27.1 40.4 28 40.2"></polygon><polygon class="st4" points="29.1 40 28 40.2 28.8 39.9"></polygon><polygon class="st4" points="29.9 39.7 28.8 39.9 29.6 39.6"></polygon><polygon class="st4" points="30.7 39.4 29.6 39.6 30.4 39.3"></polygon><polygon class="st4" points="24.6 39.9 25.7 39.8 24.9 40"></polygon><polygon class="st4" points="23.8 40.2 24.9 40 24.1 40.3"></polygon><polygon class="st4" points="23 40.5 24.1 40.3 23.3 40.6"></polygon><polygon class="st4" points="22.2 40.7 23.3 40.6 22.5 40.8"></polygon><polygon class="st4" points="21.4 41 22.5 40.8 21.7 41.1"></polygon><polygon class="st4" points="20.6 41.3 21.7 41.1 20.9 41.3"></polygon><polygon class="st4" points="19.8 41.5 20.9 41.3 20.1 41.6"></polygon><polygon class="st4" points="19 41.8 20.1 41.6 19.3 41.9"></polygon><polygon class="st0" points="24.8 39.8 18.4 41.9 11 42.5 17.1 40.5"></polygon><polygon class="st0" points="39.5 38.5 32.6 40.8 24.8 41.4 31.4 39.2"></polygon><line class="st9" x1="11.2" x2="11.7" y1="44.6" y2="44.5"></line><line class="st9" x1="11.7" x2="12.3" y1="44.5" y2="44.5"></line><line class="st9" x1="12.3" x2="12.8" y1="44.5" y2="44.4"></line><line class="st9" x1="12.8" x2="13.3" y1="44.4" y2="44.4"></line><line class="st9" x1="13.3" x2="13.9" y1="44.4" y2="44.4"></line><line class="st9" x1="13.9" x2="14.4" y1="44.4" y2="44.3"></line><line class="st9" x1="14.4" x2="15" y1="44.3" y2="44.3"></line><line class="st9" x1="15" x2="15.5" y1="44.3" y2="44.3"></line><polygon class="st3" points="22.8 41.8 22.1 42.1 21.5 42.1"></polygon><polygon class="st3" points="22.2 41.8 21.5 42.1 21 42.2"></polygon><polygon class="st3" points="21.6 41.9 21 42.2 20.4 42.2"></polygon><polygon class="st3" points="21 41.9 20.4 42.2 19.8 42.3"></polygon><polygon class="st3" points="20.5 42 19.8 42.3 19.2 42.3"></polygon><polygon class="st3" points="19.9 42 19.2 42.3 18.7 42.4"></polygon><polygon class="st3" points="19.3 42.1 18.7 42.4 18.1 42.4"></polygon><polygon class="st3" points="18.8 42.1 18.1 42.4 17.6 42.4"></polygon><polygon class="st0" points="22.3 42.1 15.8 44.3 10.9 44.6 17.3 42.5"></polygon><polygon class="st4" points="37.1 38.9 38.3 38.6 37.4 38.9"></polygon><polygon class="st4" points="36.2 39.1 37.4 38.9 36.5 39.2"></polygon><polygon class="st4" points="35.3 39.4 36.5 39.2 35.7 39.5"></polygon><polygon class="st4" points="34.5 39.7 35.7 39.5 34.8 39.8"></polygon><polygon class="st4" points="33.6 40 34.8 39.8 34 40.1"></polygon><polygon class="st4" points="32.8 40.3 34 40.1 33.1 40.3"></polygon><polygon class="st4" points="31.9 40.6 33.1 40.3 32.2 40.6"></polygon><polygon class="st4" points="31.1 40.8 32.2 40.6 31.4 40.9"></polygon><polygon class="st1" points="43 37.1 45.3 36.9 24.8 43.7 22.7 43.8"></polygon><polygon class="st0" points="31.7 41.4 24.8 43.7 22.5 43.8 29.4 41.5"></polygon><polygon class="st3" points="26.7 39.5 27.4 39.2 27.9 39.1"></polygon><polygon class="st3" points="27.3 39.4 27.9 39.1 28.5 39.1"></polygon><polygon class="st3" points="27.9 39.4 28.5 39.1 29.1 39"></polygon><polygon class="st3" points="28.5 39.3 29.1 39 29.7 39"></polygon><polygon class="st3" points="29.1 39.3 29.7 39 30.3 38.9"></polygon><polygon class="st3" points="29.7 39.2 30.3 38.9 30.9 38.9"></polygon><polygon class="st3" points="30.3 39.2 30.9 38.9 31.6 38.8"></polygon><polygon class="st3" points="30.9 39.1 31.6 38.8 32.2 38.8"></polygon><polygon class="st0" points="45.3 36.9 42.3 37.8 18.7 40 21.2 39.1"></polygon><polygon class="st1" points="36.3 37.7 41.5 37.2 38.2 38.3 33 38.8"></polygon><polygon class="st1" points="24.2 38.9 28.8 38.4 25.7 39.5 21.2 39.9"></polygon><polygon class="st4" points="13.7 42.2 12.7 42.4 13.5 42.1"></polygon><polygon class="st4" points="14.5 42 13.5 42.1 14.3 41.9"></polygon><polygon class="st4" points="15.3 41.7 14.3 41.9 15 41.6"></polygon><polygon class="st4" points="16 41.5 15 41.6 15.8 41.4"></polygon><polygon class="st4" points="16.8 41.2 15.8 41.4 16.6 41.1"></polygon><polygon class="st4" points="17.6 40.9 16.6 41.1 17.3 40.9"></polygon><polygon class="st4" points="18.3 40.7 17.3 40.9 18.1 40.6"></polygon><polygon class="st4" points="19.1 40.4 18.1 40.6 18.9 40.4"></polygon><polygon class="st1" points="21.2 39.1 23.1 39 5 45 3.3 45.1"></polygon><polygon class="st0" points="11.3 42.9 5.2 45 3.3 45.1 9.4 43.1"></polygon><polygon class="st0" points="23.4 39 20.8 39.9 18.8 40 21.3 39.1"></polygon><polygon class="st5" points="24.9 43.7 3.3 45.1 3.4 46.1 25 44.7"></polygon></g></svg>