<svg enable-background="new 0 0 114.5 123" version="1.1" viewBox="0 0 192 192" xml:space="preserve" xmlns="http://www.w3.org/2000/svg" xmlns:xlink="http://www.w3.org/1999/xlink" width="192" height="192"><g transform="rotate(0 3.14 2.18) translate(24.103677974470287 19.561208826887793) scale(1.2530949372641345)"><style type="text/css"> .st0{fill:url(#v);} .st1{fill:url(#k);} .st2{fill:url(#g);} .st3{fill:url(#f);} .st4{fill:url(#e);} .st5{fill:url(#d);} .st6{fill:url(#c);} .st7{fill:url(#b);} .st8{fill:none;} .st9{clip-path:url(#af);} .st10{fill:url(#ae);} .st11{opacity:0.12;} .st12{fill:#D15B13;} .st13{opacity:0.34;fill:#B13E08;} .st14{opacity:0.2;fill:#B13E08;} .st15{opacity:9.000000e-02;} .st16{fill:#F9BA75;} .st17{opacity:0.13;fill:#B13E08;} .st18{fill:url(#ad);} .st19{fill:url(#ac);} .st20{fill:url(#ab);} .st21{fill:url(#aa);} .st22{fill:url(#z);} .st23{fill:url(#y);} .st24{fill:url(#x);} .st25{fill:url(#w);} .st26{fill:url(#u);} .st27{fill:url(#t);} .st28{fill:url(#s);} .st29{fill:url(#r);} .st30{fill:url(#q);} .st31{fill:url(#p);} .st32{fill:url(#o);} .st33{fill:url(#n);} .st34{fill:url(#m);} .st35{fill:url(#l);} .st36{fill:url(#j);} .st37{fill:url(#i);} .st38{fill:url(#h);} </style><radialGradient id="v" cx="26" cy="55.17" r="14.12" gradientUnits="userSpaceOnUse"><stop stop-color="#7F260F" offset=".1939"></stop><stop stop-color="#681E0E" offset="1"></stop></radialGradient><path class="st0" d="m25.2 43.5c-7.6 1.2-13.4 7.9-14.2 9.2 0 25.6 4 50.6 10.2 60 1.2 1.9 3.5 4.2 5.7 5.4 0.3-0.1 2.2-0.5 2.7-1.3-2.6-5.4-6.4-22.2-6.9-29.8-0.4-6.4 0-13.4 3.5-17.4-0.5-1.1-1-2.3-1.3-3.5-0.8-4.6-0.6-18.2 0.3-22.6z"></path><radialGradient id="k" cx="90.67" cy="58.17" r="6.914" gradientUnits="userSpaceOnUse"><stop stop-color="#7F260F" offset=".1939"></stop><stop stop-color="#681E0E" offset="1"></stop></radialGradient><path class="st1" d="m89.3 43.5c7.6 1.2 13.4 7.9 14.2 9.2 0 25.6-4 50.6-10.2 60-1.2 1.9-3.5 4.2-5.7 5.4-0.3-0.1-2.2-0.4-2.7-1.2 2.6-5.4 6.4-22.3 6.9-29.9 0.4-6.4 0-13.4-3.5-17.4 0.5-1.1 1-2.3 1.3-3.5 0.9-4.6 0.7-18.2-0.3-22.6z"></path><radialGradient id="g" cx="58.25" cy="4.5" r="54.26" gradientUnits="userSpaceOnUse"><stop stop-color="#DA5E00" offset=".1429"></stop><stop stop-color="#681E0E" offset="1"></stop></radialGradient><path class="st2" d="m89.3 45.5c-14.8-2.3-15.9-3.6-30.3-3.6s-20.7-0.5-33.9 3.6c-1.4 1.9-3.8 12.6 0.2 22.4 0.3 1.2 0.3 0.6 0.8 1.7 0.9-1 2-1.8 3.4-2.4 4.6-1.7 12.7-3.5 27.6-3.6 14.9 0 23 1.9 27.6 3.6 1.4 0.5 2.5 1.4 3.4 2.4 0.5-1.1 0.5-0.5 0.8-1.7 4.4-10.4 1.8-20.6 0.4-22.4z"></path><linearGradient id="f" x1="57.35" x2="57.35" y1="63.16" y2="122.8" gradientUnits="userSpaceOnUse"><stop stop-color="#CD6500" offset="0"></stop><stop stop-color="#722600" offset="1"></stop></linearGradient><path class="st3" d="m93.5 73.1c0-11.3-21.8-12.7-36.6-12.7s-35.2 0.9-35.8 12.7c-2.1 28.4 5.5 44.4 5.7 44.8s2.9-0.3 2.8-1.2c0 0-5.6-13.1-5.3-35.5 0.3-9.3-4.1-17.3 32.7-17.3 34.3 0 33.2 9.4 33.1 17.1 0 21.9-3.1 30.5-5.2 35.8-0.1 0.9 2.6 1.5 2.8 1.1 0.3-0.4 8.4-20.5 5.8-44.8z"></path><linearGradient id="e" x1="10.71" x2="104.1" y1="51.6" y2="51.6" gradientUnits="userSpaceOnUse"><stop stop-color="#AD5900" offset="0"></stop><stop stop-color="#FFA236" offset=".5153"></stop><stop stop-color="#AD5900" offset="1"></stop></linearGradient><path class="st4" d="m11 56.6c-0.1 0-0.2-0.1-0.3-0.2-0.1-0.2 0-0.4 0.1-0.5 0 0 0.6-0.4 1.8-0.9 0.2-0.1 0.4 0 0.4 0.1 0.1 0.2 0 0.4-0.1 0.4-1.1 0.6-1.7 0.9-1.7 0.9 0 0.1-0.1 0.2-0.2 0.2zm92.5-0.1s-0.1-0.1-0.4-0.2c-0.2-0.1-0.2-0.3-0.1-0.4 0.1-0.2 0.3-0.2 0.4-0.1 0.5 0.3 0.6 0.4 0.5 0.6l-0.6-0.2 0.3 0.1-0.1 0.2zm-1.3-0.8h-0.2c-0.5-0.3-1.1-0.6-1.8-0.9-0.2-0.1-0.2-0.3-0.2-0.4 0.1-0.2 0.3-0.2 0.4-0.2l1.8 0.9c0.2 0.1 0.2 0.3 0.1 0.4 0.1 0.1 0 0.2-0.1 0.2zm-88.2-0.6c-0.1 0-0.2-0.1-0.3-0.2-0.1-0.2 0-0.4 0.2-0.4 0.6-0.3 1.2-0.5 1.8-0.8 0.2-0.1 0.4 0 0.4 0.2 0.1 0.2 0 0.4-0.2 0.4-0.6 0.3-1.2 0.5-1.8 0.8-0.1-0.1-0.1 0-0.1 0zm85.2-0.8h-0.1c-0.6-0.2-1.2-0.5-1.8-0.7-0.2-0.1-0.3-0.3-0.2-0.4 0.1-0.2 0.3-0.3 0.4-0.2 0.6 0.2 1.2 0.5 1.8 0.7 0.2 0.1 0.2 0.3 0.2 0.4s-0.2 0.2-0.3 0.2zm-82.2-0.5c-0.1 0-0.3-0.1-0.3-0.2-0.1-0.2 0-0.4 0.2-0.4 0.6-0.2 1.2-0.5 1.9-0.7 0.2-0.1 0.4 0 0.4 0.2 0.1 0.2 0 0.4-0.2 0.4-0.6 0.2-1.2 0.5-1.8 0.7h-0.2zm79.2-0.7h-0.1l-1.8-0.6c-0.3-0.1-0.4-0.3-0.3-0.5s0.2-0.3 0.4-0.2c0.6 0.2 1.3 0.4 1.9 0.6 0.2 0.1 0.3 0.2 0.2 0.4s-0.2 0.3-0.3 0.3zm-76.1-0.4c-0.1 0-0.3-0.1-0.3-0.2-0.1-0.2 0-0.4 0.2-0.4 0.6-0.2 1.2-0.4 1.9-0.6 0.2-0.1 0.4 0 0.4 0.2 0.1 0.2 0 0.4-0.2 0.4-0.6 0.2-1.3 0.4-1.9 0.6h-0.1zm73-0.7c-0.1 0-0.1 0 0 0-0.7-0.2-1.3-0.4-2-0.6-0.2-0.1-0.3-0.2-0.2-0.4 0-0.2 0.2-0.3 0.4-0.2 0.6 0.2 1.3 0.4 1.9 0.6 0.2 0.1 0.3 0.2 0.2 0.4s-0.2 0.2-0.3 0.2zm-69.9-0.3c-0.1 0-0.3-0.1-0.3-0.2-0.1-0.2 0-0.4 0.2-0.4 0.6-0.2 1.2-0.4 1.9-0.5 0.2 0 0.4 0.1 0.4 0.2 0 0.2-0.1 0.4-0.2 0.4-0.7 0.1-1.3 0.3-2 0.5zm66.7-0.6c-0.7-0.2-1.3-0.3-2-0.5-0.2 0-0.3-0.2-0.2-0.4 0-0.2 0.2-0.3 0.4-0.2 0.7 0.2 1.3 0.3 1.9 0.5 0.2 0 0.3 0.2 0.2 0.4 0 0.1-0.1 0.2-0.3 0.2zm-63.6-0.3c-0.1 0-0.3-0.1-0.3-0.2 0-0.2 0.1-0.4 0.2-0.4 0.6-0.2 1.3-0.3 1.9-0.5 0.2 0 0.4 0.1 0.4 0.2 0 0.2-0.1 0.4-0.2 0.4-0.6 0.2-1.3 0.4-2 0.5 0.1 0 0.1 0 0 0zm60.4-0.5c-0.7-0.2-1.3-0.3-2-0.4-0.2 0-0.3-0.2-0.3-0.4s0.2-0.3 0.4-0.3c0.7 0.1 1.3 0.3 1.9 0.4 0.2 0 0.3 0.2 0.2 0.4 0.1 0.2 0 0.3-0.2 0.3zm-57.2-0.2c-0.2 0-0.3-0.1-0.3-0.3s0.1-0.4 0.3-0.4c0.6-0.1 1.3-0.3 1.9-0.4 0.2 0 0.3 0.1 0.4 0.3 0 0.2-0.1 0.3-0.3 0.4-0.6 0.1-1.3 0.3-2 0.4 0.1 0 0.1 0 0 0zm54-0.5c-0.7-0.1-1.3-0.3-2-0.4-0.2 0-0.3-0.2-0.3-0.4s0.2-0.3 0.4-0.3c0.7 0.1 1.3 0.2 1.9 0.4 0.2 0 0.3 0.2 0.3 0.4s-0.1 0.3-0.3 0.3zm-50.8-0.1c-0.2 0-0.3-0.1-0.3-0.3s0.1-0.3 0.3-0.4c0.6-0.1 1.3-0.2 1.9-0.3 0.2 0 0.3 0.1 0.4 0.3 0 0.2-0.1 0.3-0.3 0.4-0.6 0-1.3 0.1-2 0.3 0.1-0.1 0.1 0 0 0zm47.6-0.4c-0.7-0.1-1.3-0.2-2-0.3-0.2 0-0.3-0.2-0.3-0.4s0.2-0.3 0.4-0.3c0.7 0.1 1.3 0.2 1.9 0.3 0.2 0 0.3 0.2 0.3 0.4 0 0.1-0.1 0.3-0.3 0.3zm-44.3-0.2c-0.2 0-0.3-0.1-0.3-0.3s0.1-0.3 0.3-0.4c0.6-0.1 1.3-0.2 1.9-0.3 0.2 0 0.3 0.1 0.4 0.3 0 0.2-0.1 0.3-0.3 0.4-0.7 0.1-1.4 0.2-2 0.3zm41.1-0.3c-0.7-0.1-1.3-0.2-2-0.3-0.2 0-0.3-0.2-0.3-0.4s0.2-0.3 0.4-0.3c0.7 0.1 1.3 0.2 2 0.3 0.2 0 0.3 0.2 0.3 0.4-0.1 0.1-0.3 0.3-0.4 0.3zm-37.9-0.2c-0.2 0-0.3-0.1-0.3-0.3s0.1-0.3 0.3-0.4c0.6-0.1 1.3-0.2 2-0.2 0.2 0 0.3 0.1 0.4 0.3 0 0.2-0.1 0.3-0.3 0.4-0.8 0.1-1.4 0.2-2.1 0.2zm34.6-0.2c-0.7-0.1-1.3-0.1-2-0.2-0.2 0-0.3-0.2-0.3-0.4s0.2-0.3 0.4-0.3c0.7 0.1 1.3 0.1 2 0.2 0.2 0 0.3 0.2 0.3 0.4-0.1 0.1-0.2 0.3-0.4 0.3zm-31.3-0.1c-0.2 0-0.3-0.1-0.3-0.3s0.1-0.3 0.3-0.4c0.6-0.1 1.3-0.1 2-0.2 0.2 0 0.3 0.1 0.4 0.3 0 0.2-0.1 0.3-0.3 0.4-0.8 0-1.5 0.1-2.1 0.2zm28.1-0.3c-0.7-0.1-1.3-0.1-2-0.2-0.2 0-0.3-0.2-0.3-0.4s0.2-0.3 0.3-0.3c0.7 0 1.3 0.1 2 0.2 0.2 0 0.3 0.2 0.3 0.4s-0.2 0.3-0.3 0.3zm-24.9 0c-0.2 0-0.3-0.1-0.3-0.3s0.1-0.3 0.3-0.4c0.6-0.1 1.3-0.1 2-0.1 0.2 0 0.3 0.1 0.3 0.3s-0.1 0.3-0.3 0.3c-0.7 0.1-1.3 0.1-2 0.2zm21.6-0.2c-0.7 0-1.3-0.1-2-0.1-0.2 0-0.3-0.2-0.3-0.3 0-0.2 0.2-0.3 0.3-0.3 0.7 0 1.3 0.1 2 0.1 0.2 0 0.3 0.2 0.3 0.3 0 0.2-0.1 0.3-0.3 0.3zm-18.3-0.1c-0.2 0-0.3-0.1-0.3-0.3s0.1-0.3 0.3-0.3c0.6 0 1.3-0.1 2-0.1 0.2 0 0.3 0.1 0.3 0.3s-0.1 0.3-0.3 0.3c-0.7 0.1-1.4 0.1-2 0.1zm15-0.1c-0.7 0-1.3 0-2-0.1-0.2 0-0.3-0.2-0.3-0.3 0-0.2 0.2-0.3 0.3-0.3 0.7 0 1.3 0 2 0.1 0.2 0 0.3 0.2 0.3 0.3 0.1 0.2-0.1 0.3-0.3 0.3zm-11.7 0c-0.2 0-0.3-0.1-0.3-0.3s0.1-0.3 0.3-0.3c0.6 0 1.3 0 2-0.1 0.2 0 0.3 0.1 0.3 0.3s-0.1 0.3-0.3 0.3c-0.7 0.1-1.4 0.1-2 0.1zm8.5-0.1h-2c-0.2 0-0.3-0.1-0.3-0.3s0.1-0.3 0.3-0.3h2c0.2 0 0.3 0.2 0.3 0.3 0 0.2-0.2 0.3-0.3 0.3zm-5.3 0c-0.2 0-0.3-0.1-0.3-0.3s0.1-0.3 0.3-0.3h2c0.2 0 0.3 0.1 0.3 0.3s-0.1 0.3-0.3 0.3h-2z"></path><radialGradient id="d" cx="473.4" cy="57.7" r="32.44" gradientTransform="matrix(-.8775 0 0 .9575 508.4 9.214)" gradientUnits="userSpaceOnUse"><stop stop-color="#DA5E00" offset=".1429"></stop><stop stop-color="#681E0E" offset="1"></stop></radialGradient><path class="st5" d="m103.3 63.8c-5.7 12.3-9.6 29.1-10.1 48.8 10.7-3.2 19.9-38.8 10.1-48.8z"></path><linearGradient id="c" x1="273.6" x2="277.3" y1="71.14" y2="70.15" gradientTransform="matrix(-.9167 .0668 .0246 .9935 352.8 2.095)" gradientUnits="userSpaceOnUse"><stop stop-color="#662500" offset="0"></stop><stop stop-color="#260000" offset="1"></stop></linearGradient><path class="st6" d="m101.3 90.5c-1 4.2-1.2 7.7-0.5 7.9s2.1-3.1 3-7.3c1-4.2 1.2-7.7 0.5-7.9-0.6-0.1-2 3.1-3 7.3z"></path><linearGradient id="b" x1="92.53" x2="92.53" y1="47.17" y2="118.8" gradientUnits="userSpaceOnUse"><stop stop-color="#AD5900" offset="0"></stop><stop stop-color="#EF8F22" offset=".2194"></stop><stop stop-color="#AD5900" offset="1"></stop></linearGradient><path class="st7" d="m89.8 117.2h-0.1c-0.2-0.1-0.2-0.3-0.1-0.4 0 0 0.3-0.6 0.8-1.8 0.1-0.2 0.3-0.3 0.4-0.2 0.2 0.1 0.3 0.3 0.2 0.4-0.5 1.2-0.8 1.8-0.8 1.8-0.2 0.1-0.3 0.2-0.4 0.2zm1.2-3.1h-0.1c-0.2-0.1-0.3-0.2-0.2-0.4 0.2-0.6 0.4-1.2 0.6-1.9 0.1-0.2 0.2-0.3 0.4-0.2s0.3 0.2 0.2 0.4c-0.2 0.7-0.4 1.3-0.6 1.9 0 0.1-0.2 0.2-0.3 0.2zm1-3.1c-0.1 0-0.1 0 0 0-0.3-0.1-0.4-0.2-0.3-0.4 0.2-0.6 0.3-1.2 0.5-1.9 0-0.2 0.2-0.3 0.4-0.2 0.2 0 0.3 0.2 0.2 0.4-0.2 0.6-0.3 1.3-0.5 1.9-0.1 0.1-0.2 0.2-0.3 0.2zm0.8-3.2s-0.1 0 0 0c-0.3-0.1-0.4-0.2-0.3-0.4 0.1-0.6 0.3-1.3 0.4-1.9 0-0.2 0.2-0.3 0.4-0.3s0.3 0.2 0.3 0.4c-0.1 0.6-0.3 1.3-0.4 1.9-0.1 0.2-0.3 0.3-0.4 0.3zm0.7-3.2c-0.1 0-0.1 0 0 0-0.2 0-0.4-0.2-0.3-0.4 0.1-0.6 0.2-1.3 0.3-1.9 0-0.2 0.2-0.3 0.4-0.3s0.3 0.2 0.3 0.4c-0.1 0.7-0.2 1.3-0.3 1.9-0.1 0.2-0.3 0.3-0.4 0.3zm0.5-3.2c-0.2 0-0.4-0.2-0.3-0.4 0.1-0.6 0.2-1.3 0.3-1.9 0-0.2 0.2-0.3 0.4-0.3s0.3 0.2 0.3 0.4c-0.1 0.7-0.2 1.3-0.3 2-0.1 0.1-0.2 0.2-0.4 0.2zm0.5-3.3c-0.1 0-0.1 0 0 0-0.2 0-0.3-0.2-0.3-0.4 0.1-0.6 0.1-1.3 0.2-1.9 0-0.2 0.2-0.3 0.4-0.3s0.3 0.2 0.3 0.4c-0.1 0.7-0.1 1.3-0.2 2-0.1 0.1-0.3 0.2-0.4 0.2zm0.3-3.2c-0.2 0-0.3-0.2-0.3-0.4 0.1-0.6 0.1-1.3 0.2-2 0-0.2 0.2-0.3 0.4-0.3s0.3 0.2 0.3 0.4c0 0.7-0.1 1.3-0.2 2-0.1 0.2-0.2 0.3-0.4 0.3zm0.2-3.3c-0.2 0-0.3-0.2-0.3-0.3 0-0.6 0.1-1.3 0.1-2 0-0.2 0.2-0.3 0.3-0.3 0.2 0 0.3 0.2 0.3 0.3 0 0.7-0.1 1.3-0.1 2 0.1 0.2-0.1 0.3-0.3 0.3zm0.2-3.2c-0.2 0-0.3-0.2-0.3-0.3 0-0.6 0-1.3 0.1-2 0-0.2 0.1-0.3 0.3-0.3s0.3 0.2 0.3 0.3c0 0.7 0 1.3-0.1 2 0 0.1-0.1 0.3-0.3 0.3zm0.1-3.3c-0.2 0-0.3-0.2-0.3-0.3v-1.7-0.3c0-0.2 0.1-0.3 0.3-0.3s0.3 0.1 0.3 0.3v0.3 1.7c0 0.1-0.1 0.3-0.3 0.3zm0-3.3c-0.2 0-0.3-0.1-0.3-0.3v-2c0-0.2 0.1-0.3 0.3-0.3s0.3 0.1 0.3 0.3v2c0 0.2-0.1 0.3-0.3 0.3zm-0.1-3.3c-0.2 0-0.3-0.1-0.3-0.3 0-0.6 0-1.3-0.1-2 0-0.2 0.1-0.3 0.3-0.3s0.3 0.1 0.3 0.3c0 0.7 0.1 1.3 0.1 2 0 0.2-0.1 0.3-0.3 0.3zm-0.1-3.2c-0.2 0-0.3-0.1-0.3-0.3v-0.8c0-0.4-0.1-0.8-0.1-1.1 0-0.2 0.1-0.3 0.3-0.4 0.2 0 0.3 0.1 0.4 0.3 0.1 0.4 0.1 0.8 0.1 1.2v0.8c-0.1 0.1-0.2 0.3-0.4 0.3zm-0.5-3.3c-0.1 0-0.3-0.1-0.3-0.3-0.2-0.7-0.4-1.3-0.6-1.8-0.1-0.2 0-0.4 0.2-0.4 0.2-0.1 0.4 0 0.4 0.2 0.3 0.5 0.5 1.2 0.7 1.9 0 0.2-0.1 0.4-0.4 0.4 0.1 0 0.1 0 0 0zm-1.3-2.9c-0.1 0-0.2 0-0.2-0.1-0.4-0.5-0.9-0.7-1.5-0.8-0.2 0-0.3-0.2-0.3-0.4s0.2-0.3 0.4-0.3c0.7 0.1 1.4 0.5 1.9 1 0.1 0.1 0.1 0.3 0 0.5-0.2 0.1-0.2 0.1-0.3 0.1zm-1.2-2.2h-0.1c-0.2-0.1-0.3-0.2-0.2-0.4 0.2-0.6 0.4-1.2 0.5-1.9 0-0.2 0.2-0.3 0.4-0.2 0.2 0 0.3 0.2 0.2 0.4-0.2 0.7-0.4 1.3-0.6 1.9 0 0.2-0.1 0.2-0.2 0.2zm0.8-3.1c-0.2 0-0.4-0.2-0.3-0.4 0.1-0.6 0.2-1.3 0.3-1.9 0-0.2 0.2-0.3 0.4-0.3s0.3 0.2 0.3 0.4c-0.1 0.7-0.2 1.3-0.4 1.9 0 0.2-0.1 0.3-0.3 0.3zm0.5-3.3c-0.2 0-0.3-0.2-0.3-0.4 0.1-0.6 0.1-1.3 0.2-1.9 0-0.2 0.2-0.3 0.4-0.3s0.3 0.2 0.3 0.4c0 0.7-0.1 1.3-0.2 2-0.1 0.1-0.2 0.2-0.4 0.2zm0.3-3.2c-0.2 0-0.3-0.2-0.3-0.3v-1.5-0.5c0-0.2 0.1-0.3 0.3-0.3s0.3 0.1 0.3 0.3v0.5 1.5c0 0.1-0.1 0.3-0.3 0.3zm0-3.3c-0.2 0-0.3-0.1-0.3-0.3 0-0.6-0.1-1.2-0.1-1.7v-0.2c0-0.2 0.1-0.3 0.3-0.4 0.2 0 0.3 0.1 0.4 0.3v0.2c0.1 0.6 0.1 1.2 0.1 1.8-0.1 0.1-0.2 0.3-0.4 0.3zm-0.3-3.3c-0.2 0-0.3-0.1-0.3-0.3v-0.7-0.9c0-0.2 0.2-0.3 0.3-0.3 0.2 0 0.3 0.2 0.3 0.3v0.9 0.7c0.1 0.2-0.1 0.3-0.3 0.3z"></path><path class="st8" d="m60 4.1"></path><path class="st8" d="m27.7 51.5h32.2s12 0 32.2 0"></path><path class="st8" d="m103.5 52.4c0-23.4-10.3-48.3-46.3-48.3s-46.2 24.9-46.2 48.3c0 0 12.9-9.7 46.3-9.7 33.3 0 46.2 9.7 46.2 9.7z"></path><defs><path id="a" d="m103.5 52.4c0-23.4-10.3-48.3-46.3-48.3s-46.2 24.9-46.2 48.3c0 0 12.9-9.7 46.3-9.7s46.2 9.7 46.2 9.7z"></path></defs><clipPath id="af"><use xlink:href="#a"></use></clipPath><g class="st9"><radialGradient id="ae" cx="23.68" cy="-128.6" r="35.7" gradientTransform="matrix(-1.958 0 0 -1 103.7 -101)" gradientUnits="userSpaceOnUse"><stop stop-color="#D15B13" offset="0"></stop><stop stop-color="#C04B0D" offset=".3145"></stop><stop stop-color="#B13E08" offset=".5333"></stop><stop stop-color="#A33506" offset=".6034"></stop><stop stop-color="#7E1F02" offset=".7355"></stop><stop stop-color="#681100" offset=".8061"></stop><stop stop-color="#560F01" offset=".9134"></stop><stop stop-color="#4C0E01" offset="1"></stop></radialGradient><rect class="st10" x="7.6" y="2.2" width="99.4" height="50.7"></rect><g class="st11"><path class="st12" d="m13.5 52.8m111.4-28.9c-2 0.1-0.9 1.5-2.9 1.7-2.3 0.2-5.1-0.3-7.2-0.7-2.8-0.5-7.8-1.4-6.4-3.6 1.2-1.7 5.7-1.1 7-2.9 1.2-1.6-1-3.3-1.3-4.9-0.6-3.2-2.4-10.6 4.3-12-5-1.5-17.6 5.8-20 7.4-5.8 3.8-9.1 1.6-17 3-1.7 0.3-0.8 1.6-2.6 1.9-3 0.5-8.6-0.3-11.5-0.6 3.4-2.1-0.4-7.7-5.8-7.6-3.1 0.1-9.9 3.4-13.2 3.9-7.2 1.2-15.8 0.9-20.9 3.3-4 1.9-5.5 4.5-12.3 5.2-4.3 0.4-10.5-0.8-12.4 2.3-4.3 6.8 19.5 1.5 23.1 0.6 4.3-1.1 23.9-3.6 19.4 2.9-0.8 1.2-7.1 2.6-9 3.5s-4.2 2.1-5.4 3.3c-2.7 2.8 3 7.5-2.8 9.1-8.1 2.2-13.8-9.6-19.4-2.9-2.8 3.3 12 9.2 1.1 11l3.8 5s46.3 5.2 55.7-7.8 16.9-17.7 25.9-16.5 24.2 2.7 28.4 0.8c4.2-2 1.4-5.4 1.4-5.4zm-12.1 11.4c-3.7-0.5-16-2-7.5-4.6m-6.8 20.1c2.1-3.5 10.2-1.5 15.9-1.3m-49.2 4.2c2-1.9 6.2-2.2 10.6-1.7m30.1-13c1.1 0 2 0.2 3 0.4 0.5 0.1 1.1 0.2 1.6 0.3h0.2 0.2c1.8-0.3 3.6 0.5 3.6 1.4 0 0.1 0.1 0.7 0 0.4 0 0.1 0.1 0.1 0.1 0.2 0.2 0 0.3 0 0.5 0.1 0.4 0 0.8 0.1 1.1 0.1 1.5 0.2 2.4 1 2 1.8s-2 1.3-3.5 1c-1.4-0.2-2.7-0.3-3.9-0.8-0.9-0.4-1.4-0.9-1.7-1.5-0.3 0-0.6-0.1-0.9-0.1-0.5-0.1-1-0.2-1.6-0.3-0.2 0-0.5-0.1-0.7-0.1s-0.8 0 0 0c-1.6 0-2.9-0.6-2.9-1.5 0.1-0.7 1.4-1.5 2.9-1.4zm-10.7-18.8h0.3c0.1-0.1 0.4-0.2 0.2 0 0.1-0.1 0.2-0.1 0.3-0.2 0 0 0-0.1 0.1-0.1 0 0 0-0.1 0.1-0.1 0.1-0.1 0.2-0.3 0.2-0.4 0.2-0.3 0.3-0.7 0.4-1 0.5-1.5 1.1-3.2 2.9-4.5 0.9-0.6 2.5-1 3.9-0.5 1.3 0.4 2 1.4 1 2-0.2 0.2-0.5 0.4-0.7 0.5l-0.3 0.3c-0.3 0.4-0.5 0.8-0.7 1.2-0.3 0.8-0.5 1.6-0.9 2.4-0.8 1.8-2.9 3.2-6.8 3.3-3.7 0.1-3.7-2.9 0-2.9zm-13.3 12.5c0.4 0.1 0.8 0.2 1.1 0.3 1.3 0.5 2 1.1 1.7 2-0.1 0.2-0.3 0.4-0.5 0.6 0 0-0.4 0.3-0.6 0.4 0.7 0.6 1.2 1.3 1.6 2 0.3 0.5 0.5 0.9 0.3 1.4-0.4 1.2-3.4 1.3-4.9 0.6-0.6-0.3-0.9-0.7-0.8-1.1v-0.1c-0.2-0.3-0.3-0.5-0.5-0.8 0-0.1-0.1-0.1-0.1-0.2l-0.3-0.3c-0.2-0.2-0.8-0.6-0.1-0.1-0.1-0.1-0.2-0.2-0.4-0.2h-0.8-1.2c-0.1 0-0.5 0-0.6 0.1-0.2 0-0.4 0.1-0.6 0.1-0.3 0-0.6 0.1-0.8 0.1h-0.1c-0.5 0.1-1 0.3-1.4 0.4-0.3 0.1-0.5 0.2-0.8 0.3 0 0-0.3 0.1-0.4 0.1-0.4 0.2-0.8 0.3-1.1 0.5l-1.2 0.6c-0.2 0.1-0.3 0.2-0.5 0.3 0 0-0.1 0-0.1 0.1l-0.1 0.1c-0.7 0.5-1.3 1-1.7 1.5 0 0 0 0.1-0.1 0.1l-0.1 0.1c-0.1 0.1-0.2 0.2-0.2 0.3l-0.3 0.6c0 0.1-0.1 0.2-0.1 0.3v0.3c0 0.1 0.1 0.2 0.1 0.3v0.1c0 0.1 0.2 0.3 0.2 0.3l0.1 0.1 0.2 0.1c0.1 0 0.1 0.1 0.2 0.1 1.1 0.6 1.1 1.5 0 2.1-2 1-4.3 1.7-7.1 1.7-1.6 0-2.9-0.7-2.9-1.5s1.3-1.4 2.9-1.5c0.4 0 0.8-0.1 1.2-0.2-1.6-2-0.1-4.5 2.4-6.2s6.1-3.4 10.2-4c0-0.2-0.1-0.3 0-0.5 0-1.6 2.7-2.6 5.7-2 0.6 0.3 1.5 0.5 2.5 0.7zm-27.8-12.4c0.8-0.7 2.6-1 3.9-0.5 0.4 0.1 0.8 0.3 1.2 0.4 0 0 0.9 0.2 0.4 0.1 0.3 0.1 0.6 0.1 1 0.2h0.4 0.2 0.2 0.1c0.1 0 0.2 0 0.3-0.1 0.3-0.1 0.6-0.2 1-0.3 0.3-0.1 0.6-0.2 0.9-0.3 0.8-0.3 1.7-0.6 2.6-0.7 2.6-0.5 5.2-0.3 7.6 0.3 0.3 0.1 0.5 0.1 0.8 0.2 0.1 0 0.2 0 0.3 0.1h0.2c0.3-0.1 0.3-0.2 0.6-0.4 0.8-0.7 2.5-0.9 3.9-0.5 1.3 0.4 1.9 1.3 1 2-1.8 1.4-4.4 2.3-7.7 1.6-0.6-0.1-1.2-0.3-1.7-0.4 0.1 0-0.5-0.1-0.6-0.1-0.2 0-0.4-0.1-0.7-0.1h-0.1-0.3-0.5c-0.2 0-0.4 0-0.7 0.1-0.1 0-0.3 0.1-0.4 0.1-0.4 0.1-0.7 0.2-1 0.3-0.2 0.1-0.4 0.1-0.6 0.2-1 0.4-1.9 0.7-3.1 1-2.8 0.5-5.7-0.1-8.1-0.9-1.4-0.7-2-1.6-1.1-2.3zm-26.7 35.4v0c0.1 0 0.1-0.1 0.2-0.1 0.2-0.1 0.4-0.2 0.5-0.3 0.1 0 0.1-0.1 0.1-0.1 0.1-0.1 0.2-0.1 0.3-0.2 0.3-0.3 0.5-0.6 0.5-1 0-1 1.8-1.6 3.6-1.4 0.3 0 0.6 0.1 0.9 0.1v-0.1c0.1-0.3 0.3-0.6 0.5-0.9 0.6-0.7 1.9-1.3 3.5-1 1.4 0.2 2.6 1.1 2 1.8-0.6 0.9-0.7 1.8-2 2.5-1 0.5-2.3 0.7-3.6 0.7"></path></g><path class="st13" d="m88.6-0.4"></path><path class="st14" d="m0.2 66.2"></path><g class="st11"><path class="st12" d="m3.5 7.1c-5.7 2.4 1.3 4 6.2 2.7 2.6-0.7 3.2-1.7 4.4-2.5 2.6-0.1 3.4-1.4 4.8-2.4 2.4-1.6 4-2.3 7.8-3 2.5-0.4 15.3-1 13.4-3.5-1.3-1.7-10.5 1.1-13.5 1.1-4.7 0-6.6 0.2-11 1-2.6 0.5-12.2-0.2-12.2 2 0 1.5 5.8 1.2 6 2.3 0.3 1.4-4.5 1.7-5.9 2.3zm12.3-0.6-1.5 0.8c0.3-0.3 0.8-0.6 1.5-0.8z"></path></g><g class="st11"><path class="st12" d="m70.4-0.1"></path><path class="st12" d="m49.2-4.4"></path></g><g class="st15"><path class="st16" d="m58.4 34.1c-1.9 0.6-5.8 1.6-6.8 3.3-0.8 1.4 0.4 3.1-0.3 4.5-1.4 2.7-6.4 3.5-11.4 3.6 2.3-2.8 6.4-5.3 7.6-8.3 1-2.6 0.3-3.8 3.6-6 3.7-2.5 10.2-3.4 15.7-4.8 1.9-0.5 5.8-2 6.3 0 0.6 2.2-6.8 2-9 2.9-2.2 1-1.9 2.8-2.8 3.9-1.9 2.6-6.9 1.5-8.9 3.2l6-2.3z"></path></g><g class="st15"><path class="st16" d="m47.1 55.2c1.6-1 1.3-2.3 2.9-3.2 2.1-1.2 3.9-0.6 6.7-0.9 2-0.2 3.7-0.9 5.8-0.8 0.3 1.6-4.4 2.9-7.1 2.9l0.4 0.2"></path></g><g class="st15"><path class="st16" d="m82.5 45.9c-0.2 1 0.1 2.3 1 3.2 1.5 1.6 3.3 1.2 5.4 2.2 2.2 1 2.3 3.5 5.9 3.7 1.4-2.3-1.3-3.5-3.5-5.4-1.9-1.6-1.8-2.3-1.5-4 0.3-1.6 1.5-2-2.1-2.4-0.8-0.1-2.1 0.7-3.4 0.6-1-0.1-2.3-1-3.4-1.3-1.1-0.2-6.1-1.2-7.3-1-5.8 0.7-0.3 1.9 2.1 2.4 9.3 1.9 0.5 2.2-0.4 5.1 3.2 0.4 6.3-1.2 7.6-2.5 0.6 0.1 1.6 0.2 2.1 0.4l-2.5-1z"></path></g><g class="st15"><path class="st16" d="m117 28.4c-5.8-0.9-9.3-2.3-15.6-0.8-5.5 1.3-6.9 3-6.3 6 0.3 1.4 4.9 5.6 0.9 5.8-1.3-0.9-0.5-1.7-0.9-2.8s-1.4-1.6-2.2-2.6c-1.8-2.2-1.4-4.5-1.6-6.9-1.8-0.1-3.5 0.2-5.4 0.1-1.1-2.3 18.3-2 21.8-1.9 3.7 0.2 7.8 0.9 11.4 1.5"></path></g><g class="st15"><path class="st16" d="m108.6 6.7c0 1.2 0.4 8.4-3 5-0.1-0.1-0.1-3.4 0-3.7 0.4-1.5 2.7-1.9 4.6-3l-1.6 1.7z"></path></g><g class="st15"><path class="st16" d="m56.3 13.2c0.6 2.2-17.4 3.3-21.1 3.7-3.8 0.4-6.2 1.3-9.7 2.2-2.6 0.7-6.3 0.4-8.4 1.2 2.2-1.2 6.4-2.4 9.6-2.9 5-0.9 9.8-2.3 14.8-3 4.2-0.6 8.4-0.3 11.9-2 2.5-1.2 3.7-3.5 7.9-3.6 2.6 2.2 0.4 6.3 5.6 7.3 4.4 0.9 10.4-0.8 15.2-0.6-2.6 1.7-9.4 1-13.4 1.3-2.6 0.2-5.3 0.7-8.1 0.4-2.4-0.3-2.4-0.9-5-0.6-3.8 0.5-5.8 3.2-6 4.9-0.4 3.2 0.9 3.8-4.9 6.1 3.3-2.9 2.5-5.3 4.2-8.4 0.8-1.5 2.4-2.1 4.4-2.9 1.6-0.7 6.4-2.1 2.2-2.8l0.8-0.3z"></path></g><g class="st15"><path class="st16" d="m21.2 41.6c-3.4-0.4-4.9-2.2-7.2-3-2.1 2.7 4 4 5.2 6.2 1.7 3.2-2.1 3.1-6.4 4.1 0.7 1.6 5.7-0.2 7.7 1 1.8 1.2-1.9 3.5-3.1 4.3 6.4 0.9 7.4-4.5 7.6-6.6 0.2-1.9 0-2.9 3-4.3 2.3-1.1 4.8-1.3 4.1-3.2-3.3 1.2-7.6 3-12.2 1.9l1.3-0.4z"></path></g><g class="st15"><path class="st16" d="m22.1 1.8c-1.4 0.3-3.5 0.6-4.6 1.2-1.2 0.6-0.8 1.3-1.7 2-1 0.8-2.7 1.4-3.8 2.1-1 0.7-1.9 1.4-3.8 1.3 0.2-0.8 2-1.2 2.9-1.8 0.8-0.6 1.6-1.2 2.3-1.8 2.9-2.2-1.9-1-2.5-2.3 2-0.5 4.6-0.3 6.8-0.6s4.1-0.8 6.3-1.1c3.2-0.4 6-1.1 9.5-1-2.2 1.7-8.9 1.1-11.8 2.4l0.4-0.4z"></path></g><g class="st15"><path class="st16" d="m125.5 43.8c-0.7-0.7-1.5-1.1-1.6-1.9-0.2-0.7-0.2-1.1-1.1-1.7-2.1-1.3-5.2-2.2-7.8-3.1-0.9-0.3-2.6-0.9-2.7 0.1 0 0.6 1.3 0.9 2 1.3l-0.8-0.6c1 0.4 2.2 0.9 3.2 1.4 0.4 0.2 0.4 0.5 1 0.6s1.4-0.1 2 0.1c1.9 0.5 2.8 2.6 2.9 3.6 0.2 1 0.1 2.3-2 2.7-2.5 0.5-3.8-0.1-6.1-0.4-1.6-0.2-3.2 0-4.7-0.1-2-0.2-3.8-0.7-4.9-1.5-0.6-0.5-1.4-1-2.4-1.3-0.7-0.2-1.5-0.2-2.2-0.4-1.3-0.5-1.5-0.9-3.3-0.5-1 0.2-1.8 0.7-2.5 1.2-1.2 0.8-0.2 1.1 1.1 0.4 1.2-0.6 1.4-0.8 3.2-0.6s2.3 0.6 3.7 1.1c0.7 0.3 1.8 0.4 2.4 0.8 0.4 0.3 0.3 0.5 0.9 0.8 1.1 0.5 3.5 0.5 4.9 0.6 1.8 0.1 3.2 0.5 5 0.7 2.4 0.3 6.9 0.5 9.3 0.2"></path></g><g class="st11"><path class="st12" d="m14.7 31.1c-3.6 1-5.8 0.1-9.1-0.4-2.1-0.3-4.2-0.7-5-1.9-1.4-1.9 2-1.7 4.8-1.9 3.4-0.2 7-0.4 10.1-1.2 3.9-1.1 10.8-2.2 9.7 1.3-0.7 2.1-4.8 2.6-8.1 3.5-1 0.3-1.2 0.6-2.5 0.7-1.2 0.1-2.7-0.5-3.4 0.2l3.5-0.3z"></path></g><g class="st15"><path class="st16" d="m18.9 28c-0.6 0.9-7.7 1.6-9.6 1.6-0.9 0-4.1-0.2-3.3-0.9 0.6-0.5 4.5-0.2 5.5-0.3 2.7-0.4 5.2-2 8.2-1.7 4 0.4-1.5 2.6-3.5 1.6l2.7-0.3z"></path></g><g class="st11"><path class="st12" d="m112.9-2.9"></path></g><path class="st14" d="M81.2,9.7c-2.6,0-12.4,5-12.1,1.6C69.4,9.1,80.1,8,83,8.8c0.5,1-0.5,0.9-1.8,1.2V9.7z"></path><path class="st14" d="m2.1 39.8c0.1 0.4-1.6 1.9-1.9 2.3 2.3 0.3 6.1-0.1 7.1 1.6 1.8-0.9 1.2-2.9 1.1-4.4"></path><g class="st15"><path class="st16" d="m57.7 31.4c-1.2 2.1-5.5 3-7 5-0.8 1.1-1.6 2.3-1.9 3.5-0.2 0.9 1 2.9-1.5 2.8-0.5-1.5 0.5-3.9 1.2-5.3 0.5-1 1.8-1.8 2.5-2.8s0.6-1.8 1.9-2.7c1.4-1 6.8-3.6 9.3-3.5 4.9 0.1-3.6 2.5-4.5 3.5v-0.5z"></path></g><g class="st15"><path class="st16" d="m24.5 44.8c0.2 1.1-0.5 2.4-0.7 3.5-0.5 0.1-1.6 0.1-2.1 0 0.2-1.2 0.5-2.5 0.6-3.8 0.8-0.1 2.4-0.3 2.8-0.3l-0.6 0.6z"></path></g><g class="st15"><path class="st16" d="m62.8 14.7c-2.6 0.9-2.4-2.7-5.3-3.1-1 0.6-1.8 1.5-3.2 1.7 0.2-0.7 4.4-3.8 6.6-3.4 1 0.2 1.2 3.6 1.9 4.5v0.3z"></path></g><g class="st15"><path class="st16" d="m100.2 27.2c-1.4 0.7-4.2 1.8-5.6 2.2-0.5-1.6 4.5-3.6 7.2-3.1 0 0.4-0.5 0.6-1.2 0.8h-0.4z"></path></g><g class="st15"><path class="st16" d="m87.5 47.4c-1.3-0.3-0.6-1.5-1.5-2.1-0.5-0.4-2.8-0.9-3.5-0.9-0.9 1.5 1.7 1.1 2.8 1.8 0.4 0.3 1.2 3.4 2.8 1.1l-0.6 0.1z"></path></g><g class="st15"><path class="st16" d="m53.6 55.8c0.8-1.1 0.5-2.3 1-3.4-1.5 0.5-1.8 1.9-2.1 2.7 0.3 0.2 0.7 0.6 1.1 0.7l-0.9-0.1"></path></g><g class="st15"><path class="st16" d="m90.7 19.7c2.2-1.1 2.3-1.8 2.9-3.2 0.5-1.2 2.6-2.2 2.8-3.2-4.3-0.1-4.3 2.1-4.7 3.7-0.2 0.7-1.2 1.5-1.3 1.9-0.2 0.7-1.2 1.4 1.3 1.1l-1-0.3z"></path></g><g class="st15"><path class="st16" d="m116.3-4.4v-0.2h-5"></path></g><g class="st11"><path class="st12" d="m21.1-3.1"></path></g><path class="st17" d="m125.3 26.5c-5.5 2.6-11.2 4.4-17.1 6.6s-9.8 7.1-18.3 6.3c-1.7-4.9 8.7-10.8 9.4-16.1 0.6-4.6-0.9-6.2 6.9-8.5 7-2.1 10.4-6.1 13.8-10"></path><path class="st17" d="m62.5 50.1c8.9-0.7 16.3 0.5 24.8-1.8 3.8-1 6.6-3 10.3-3.9 3-0.7 7.5-0.4 10.9-1.1"></path></g><linearGradient id="ad" x1="45.96" x2="35.49" y1="11.36" y2="16.3" gradientUnits="userSpaceOnUse"><stop stop-color="#522100" offset="0"></stop><stop stop-color="#9A5600" offset=".5153"></stop><stop stop-color="#522100" offset="1"></stop></linearGradient><path class="st18" d="m42.8 14.6c-1.6 1.2-3.6 1.7-4.5 1.2-0.9-0.6-0.7-1.8 0.9-3.1 1.6-1.2 4-1.9 4.9-1.4 0.9 0.7 0.3 2.1-1.3 3.3z"></path><linearGradient id="ac" x1="44.36" x2="35.28" y1="29.13" y2="37.07" gradientUnits="userSpaceOnUse"><stop stop-color="#522100" offset="0"></stop><stop stop-color="#9A5600" offset=".5153"></stop><stop stop-color="#522100" offset="1"></stop></linearGradient><path class="st19" d="m42.5 34.8c-1.3 1.9-3.5 2.7-4.9 1.7-1.5-1-2-3-0.7-4.9s3.8-3 5.2-2c1.5 1 1.6 3.3 0.4 5.2z"></path><path d="m42.5 34.9c0.5-0.8 0.7-1.6 0.7-2.4-1.5-0.6-3.4 0.2-4.4 2-0.5 0.7-0.8 1.5-0.8 2.3 1.5 0.6 3.4-0.2 4.5-1.9z"></path><path d="m42.8 14.6c0.6-0.5 1.1-1 1.3-1.5-1-0.3-2.8 0.2-4.2 1.3-0.6 0.5-1.1 1-1.3 1.5 1.1 0.4 2.8-0.2 4.2-1.3z"></path><linearGradient id="ab" x1="80.95" x2="70.47" y1="11.36" y2="16.3" gradientTransform="matrix(-1 0 0 1 149.7 0)" gradientUnits="userSpaceOnUse"><stop stop-color="#522100" offset="0"></stop><stop stop-color="#9A5600" offset=".5153"></stop><stop stop-color="#522100" offset="1"></stop></linearGradient><path class="st20" d="m71.9 14.6c1.6 1.2 3.6 1.7 4.5 1.2 0.9-0.6 0.7-1.8-0.9-3.1-1.6-1.2-4-1.9-4.9-1.4-0.9 0.7-0.3 2.1 1.3 3.3z"></path><linearGradient id="aa" x1="79.35" x2="70.27" y1="29.13" y2="37.07" gradientTransform="matrix(-1 0 0 1 149.7 0)" gradientUnits="userSpaceOnUse"><stop stop-color="#522100" offset="0"></stop><stop stop-color="#9A5600" offset=".5153"></stop><stop stop-color="#522100" offset="1"></stop></linearGradient><path class="st21" d="m72.2 34.8c1.3 1.9 3.5 2.7 4.9 1.7 1.5-1 2-3 0.7-4.9s-3.8-3-5.2-2-1.6 3.3-0.4 5.2z"></path><path d="m72.3 34.9c-0.5-0.8-0.7-1.6-0.7-2.4 1.5-0.6 3.4 0.2 4.4 2 0.5 0.8 0.7 1.6 0.7 2.4-1.5 0.5-3.4-0.3-4.4-2z"></path><path d="m71.9 14.6c-0.6-0.5-1.1-1-1.3-1.5 1-0.3 2.8 0.2 4.2 1.3 0.6 0.5 1.1 1 1.3 1.5-1 0.4-2.8-0.2-4.2-1.3z"></path><radialGradient id="z" cx="56.59" cy="5.041" r="58.97" gradientUnits="userSpaceOnUse"><stop stop-color="#7F260F" offset=".1939"></stop><stop stop-color="#681E0E" offset="1"></stop></radialGradient><path class="st22" d="m57.2 4.1c-2.6 0-5.1 0.1-7.5 0.4v38.4c2.4-0.1 4.9-0.2 7.6-0.2s5.3 0.1 7.8 0.2v-38.4c-2.5-0.3-5.1-0.4-7.9-0.4z"></path><radialGradient id="y" cx="56.59" cy="5.041" r="58.97" gradientUnits="userSpaceOnUse"><stop stop-color="#7F260F" offset=".1939"></stop><stop stop-color="#681E0E" offset="1"></stop></radialGradient><path class="st23" d="m90.6 15.8c-3-2.9-6.6-5.5-10.9-7.4 5 11.1 4.7 24.2 3.7 36.7 5.8 1.2 10.2 2.6 13.5 3.9 1.4-11.3-0.8-23.3-6.3-33.2z"></path><radialGradient id="x" cx="-105" cy="5.041" r="58.97" gradientTransform="matrix(-1 0 0 1 -103.1 0)" gradientUnits="userSpaceOnUse"><stop stop-color="#7F260F" offset=".1939"></stop><stop stop-color="#681E0E" offset="1"></stop></radialGradient><path class="st24" d="m23.9 15.8c3-2.9 6.6-5.5 10.9-7.4-5 11.1-4.7 24.2-3.7 36.7-5.8 1.2-10.2 2.6-13.5 3.9-1.5-11.2 0.8-23.2 6.3-33.2z"></path><linearGradient id="w" x1="51.78" x2="51.78" y1="41.14" y2="5.943" gradientUnits="userSpaceOnUse"><stop stop-color="#AD5900" offset="0"></stop><stop stop-color="#FFA236" offset="1"></stop></linearGradient><path class="st25" d="m51.8 5.9c-0.2 0-0.3-0.1-0.3-0.3v-1c0-0.2 0.1-0.3 0.3-0.3s0.3 0.1 0.3 0.3v1c0 0.1-0.1 0.3-0.3 0.3z"></path><linearGradient id="u" x1="51.78" x2="51.78" y1="41.14" y2="5.943" gradientUnits="userSpaceOnUse"><stop stop-color="#AD5900" offset="0"></stop><stop stop-color="#FFA236" offset="1"></stop></linearGradient><path class="st26" d="m51.8 40.4c-0.2 0-0.3-0.1-0.3-0.3v-1.9c0-0.2 0.1-0.3 0.3-0.3s0.3 0.1 0.3 0.3v1.9c0 0.1-0.1 0.3-0.3 0.3zm0-3.2c-0.2 0-0.3-0.1-0.3-0.3v-1.9c0-0.2 0.1-0.3 0.3-0.3s0.3 0.1 0.3 0.3v1.9c0 0.2-0.1 0.3-0.3 0.3zm0-3.1c-0.2 0-0.3-0.1-0.3-0.3v-1.9c0-0.2 0.1-0.3 0.3-0.3s0.3 0.1 0.3 0.3v1.9c0 0.2-0.1 0.3-0.3 0.3zm0-3.1c-0.2 0-0.3-0.1-0.3-0.3v-1.9c0-0.2 0.1-0.3 0.3-0.3s0.3 0.1 0.3 0.3v1.9c0 0.1-0.1 0.3-0.3 0.3zm0-3.2c-0.2 0-0.3-0.1-0.3-0.3v-1.9c0-0.2 0.1-0.3 0.3-0.3s0.3 0.1 0.3 0.3v1.9c0 0.2-0.1 0.3-0.3 0.3zm0-3.1c-0.2 0-0.3-0.1-0.3-0.3v-1.9c0-0.2 0.1-0.3 0.3-0.3s0.3 0.1 0.3 0.3v1.9c0 0.1-0.1 0.3-0.3 0.3zm0-3.2c-0.2 0-0.3-0.1-0.3-0.3v-1.9c0-0.2 0.1-0.3 0.3-0.3s0.3 0.1 0.3 0.3v1.9c0 0.2-0.1 0.3-0.3 0.3zm0-3.1c-0.2 0-0.3-0.1-0.3-0.3v-1.9c0-0.2 0.1-0.3 0.3-0.3s0.3 0.1 0.3 0.3v1.9c0 0.2-0.1 0.3-0.3 0.3zm0-3.1c-0.2 0-0.3-0.1-0.3-0.3v-1.9c0-0.2 0.1-0.3 0.3-0.3s0.3 0.1 0.3 0.3v1.9c0 0.1-0.1 0.3-0.3 0.3zm0-3.2c-0.2 0-0.3-0.1-0.3-0.3v-1.9c0-0.2 0.1-0.3 0.3-0.3s0.3 0.1 0.3 0.3v1.9c0 0.2-0.1 0.3-0.3 0.3zm0-3.1c-0.2 0-0.3-0.1-0.3-0.3v-1.9c0-0.2 0.1-0.3 0.3-0.3s0.3 0.1 0.3 0.3v1.9c0 0.2-0.1 0.3-0.3 0.3z"></path><linearGradient id="t" x1="51.78" x2="51.78" y1="41.14" y2="5.943" gradientUnits="userSpaceOnUse"><stop stop-color="#AD5900" offset="0"></stop><stop stop-color="#FFA236" offset="1"></stop></linearGradient><path class="st27" d="m51.8 42.6c-0.2 0-0.3-0.1-0.3-0.3v-1c0-0.2 0.1-0.3 0.3-0.3s0.3 0.1 0.3 0.3v1c0 0.2-0.1 0.3-0.3 0.3z"></path><linearGradient id="s" x1="63.46" x2="63.46" y1="41.14" y2="5.943" gradientUnits="userSpaceOnUse"><stop stop-color="#AD5900" offset="0"></stop><stop stop-color="#FFA236" offset="1"></stop></linearGradient><path class="st28" d="m63.5 5.9c-0.2 0-0.3-0.1-0.3-0.3v-1c0-0.2 0.1-0.3 0.3-0.3s0.3 0.1 0.3 0.3v1c0 0.1-0.2 0.3-0.3 0.3z"></path><linearGradient id="r" x1="63.46" x2="63.46" y1="41.14" y2="5.943" gradientUnits="userSpaceOnUse"><stop stop-color="#AD5900" offset="0"></stop><stop stop-color="#FFA236" offset="1"></stop></linearGradient><path class="st29" d="m63.5 40.4c-0.2 0-0.3-0.1-0.3-0.3v-1.9c0-0.2 0.1-0.3 0.3-0.3s0.3 0.1 0.3 0.3v1.9c0 0.1-0.2 0.3-0.3 0.3zm0-3.2c-0.2 0-0.3-0.1-0.3-0.3v-1.9c0-0.2 0.1-0.3 0.3-0.3s0.3 0.1 0.3 0.3v1.9c0 0.2-0.2 0.3-0.3 0.3zm0-3.1c-0.2 0-0.3-0.1-0.3-0.3v-1.9c0-0.2 0.1-0.3 0.3-0.3s0.3 0.1 0.3 0.3v1.9c0 0.2-0.2 0.3-0.3 0.3zm0-3.1c-0.2 0-0.3-0.1-0.3-0.3v-1.9c0-0.2 0.1-0.3 0.3-0.3s0.3 0.1 0.3 0.3v1.9c0 0.1-0.2 0.3-0.3 0.3zm0-3.2c-0.2 0-0.3-0.1-0.3-0.3v-1.9c0-0.2 0.1-0.3 0.3-0.3s0.3 0.1 0.3 0.3v1.9c0 0.2-0.2 0.3-0.3 0.3zm0-3.1c-0.2 0-0.3-0.1-0.3-0.3v-1.9c0-0.2 0.1-0.3 0.3-0.3s0.3 0.1 0.3 0.3v1.9c0 0.1-0.2 0.3-0.3 0.3zm0-3.2c-0.2 0-0.3-0.1-0.3-0.3v-1.9c0-0.2 0.1-0.3 0.3-0.3s0.3 0.1 0.3 0.3v1.9c0 0.2-0.2 0.3-0.3 0.3zm0-3.1c-0.2 0-0.3-0.1-0.3-0.3v-1.9c0-0.2 0.1-0.3 0.3-0.3s0.3 0.1 0.3 0.3v1.9c0 0.2-0.2 0.3-0.3 0.3zm0-3.1c-0.2 0-0.3-0.1-0.3-0.3v-1.9c0-0.2 0.1-0.3 0.3-0.3s0.3 0.1 0.3 0.3v1.9c0 0.1-0.2 0.3-0.3 0.3zm0-3.2c-0.2 0-0.3-0.1-0.3-0.3v-1.9c0-0.2 0.1-0.3 0.3-0.3s0.3 0.1 0.3 0.3v1.9c0 0.2-0.2 0.3-0.3 0.3zm0-3.1c-0.2 0-0.3-0.1-0.3-0.3v-1.9c0-0.2 0.1-0.3 0.3-0.3s0.3 0.1 0.3 0.3v1.9c0 0.2-0.2 0.3-0.3 0.3z"></path><linearGradient id="q" x1="63.46" x2="63.46" y1="41.14" y2="5.943" gradientUnits="userSpaceOnUse"><stop stop-color="#AD5900" offset="0"></stop><stop stop-color="#FFA236" offset="1"></stop></linearGradient><path class="st30" d="m63.5 42.6c-0.2 0-0.3-0.1-0.3-0.3v-1c0-0.2 0.1-0.3 0.3-0.3s0.3 0.1 0.3 0.3v1c0 0.2-0.2 0.3-0.3 0.3z"></path><linearGradient id="p" x1="30.64" x2="30.64" y1="41.14" y2="5.943" gradientUnits="userSpaceOnUse"><stop stop-color="#AD5900" offset="0"></stop><stop stop-color="#FFA236" offset="1"></stop></linearGradient><path class="st31" d="m29.3 45.4c-0.2 0-0.3-0.1-0.3-0.3 0-0.3-0.1-0.7-0.1-1 0-0.2 0.1-0.3 0.3-0.4 0.2 0 0.3 0.1 0.4 0.3 0 0.3 0.1 0.7 0.1 1-0.1 0.2-0.2 0.4-0.4 0.4zm-0.2-2.3c-0.2 0-0.3-0.1-0.3-0.3-0.1-0.7-0.1-1.3-0.2-1.9 0-0.2 0.1-0.3 0.3-0.3s0.3 0.1 0.4 0.3c0 0.6 0.1 1.3 0.2 1.9-0.1 0.1-0.2 0.3-0.4 0.3zm-0.3-3.2c-0.2 0-0.3-0.1-0.3-0.3 0-0.7-0.1-1.3-0.1-1.9 0-0.2 0.1-0.3 0.3-0.3s0.3 0.1 0.3 0.3c0 0.6 0.1 1.3 0.1 1.9 0 0.1-0.1 0.3-0.3 0.3zm-0.2-3.2c-0.2 0-0.3-0.1-0.3-0.3 0-0.7 0-1.3-0.1-1.9 0-0.2 0.1-0.3 0.3-0.3s0.3 0.1 0.3 0.3c0 0.6 0 1.3 0.1 1.9 0.1 0.1-0.1 0.3-0.3 0.3zm0-3.2c-0.2 0-0.3-0.1-0.3-0.3v-0.7-1.3c0-0.2 0.2-0.3 0.3-0.3 0.2 0 0.3 0.1 0.3 0.3v1.3 0.7c0 0.1-0.2 0.3-0.3 0.3zm0-3.2c-0.2 0-0.3-0.2-0.3-0.3 0-0.7 0-1.3 0.1-1.9 0-0.2 0.2-0.3 0.3-0.3 0.2 0 0.3 0.2 0.3 0.3 0 0.6-0.1 1.3-0.1 1.9 0 0.1-0.1 0.3-0.3 0.3zm0.1-3.2c-0.2 0-0.3-0.2-0.3-0.3 0-0.6 0.1-1.3 0.2-1.9 0-0.2 0.2-0.3 0.4-0.3s0.3 0.2 0.3 0.3c-0.1 0.6-0.1 1.3-0.2 1.9 0 0.1-0.2 0.3-0.4 0.3zm0.3-3.2c-0.2 0-0.3-0.2-0.3-0.4 0.1-0.6 0.2-1.3 0.2-1.9 0-0.2 0.2-0.3 0.4-0.3s0.3 0.2 0.3 0.4c-0.1 0.6-0.2 1.3-0.2 1.9-0.1 0.1-0.2 0.3-0.4 0.3zm0.4-3.2c-0.2 0-0.4-0.2-0.3-0.4 0.1-0.6 0.2-1.3 0.3-1.9 0-0.2 0.2-0.3 0.4-0.3s0.3 0.2 0.3 0.4c-0.1 0.6-0.2 1.2-0.3 1.9-0.1 0.2-0.2 0.3-0.4 0.3zm0.6-3.2c-0.2 0-0.4-0.2-0.3-0.4 0.1-0.6 0.3-1.3 0.5-1.9 0-0.2 0.2-0.3 0.4-0.2 0.2 0 0.3 0.2 0.2 0.4-0.2 0.6-0.3 1.2-0.4 1.9-0.1 0.1-0.2 0.2-0.4 0.2zm0.8-3.1c-0.3-0.1-0.4-0.2-0.3-0.4 0.2-0.6 0.4-1.3 0.6-1.9 0.1-0.2 0.2-0.3 0.4-0.2s0.3 0.2 0.2 0.4l-0.6 1.8c0 0.2-0.1 0.3-0.3 0.3zm1.1-3h-0.1c-0.2-0.1-0.2-0.3-0.2-0.4 0.5-1.2 0.8-1.8 0.8-1.8 0.1-0.2 0.3-0.3 0.5-0.2 0.1 0.1 0.2 0.3 0.1 0.5 0 0-0.3 0.6-0.8 1.7 0 0.1-0.2 0.2-0.3 0.2z"></path><linearGradient id="o" x1="22.24" x2="22.24" y1="41.14" y2="5.943" gradientUnits="userSpaceOnUse"><stop stop-color="#AD5900" offset="0"></stop><stop stop-color="#FFA236" offset="1"></stop></linearGradient><path class="st32" d="m18.9 48.5c-0.2 0-0.3-0.1-0.3-0.3v-0.2c0-0.2 0.1-0.3 0.3-0.4 0.2 0 0.3 0.1 0.4 0.3v0.2c0 0.2-0.2 0.3-0.4 0.4zm-0.2-1.5c-0.2 0-0.3-0.1-0.3-0.3-0.1-0.6-0.1-1.3-0.2-1.9 0-0.2 0.1-0.3 0.3-0.3s0.3 0.1 0.3 0.3c0 0.7 0.1 1.3 0.2 1.9 0 0.1-0.1 0.3-0.3 0.3zm-0.3-3.2c-0.2 0-0.3-0.1-0.3-0.3v-1.7-0.2c0-0.2 0.1-0.3 0.3-0.3s0.3 0.1 0.3 0.3v0.2 1.7c0 0.2-0.1 0.3-0.3 0.3zm0-3.2c-0.2 0-0.3-0.2-0.3-0.3 0-0.6 0.1-1.3 0.1-1.9 0-0.2 0.2-0.3 0.3-0.3 0.2 0 0.3 0.2 0.3 0.3 0 0.6-0.1 1.3-0.1 1.9 0 0.2-0.1 0.3-0.3 0.3zm0.2-3.2c-0.2 0-0.3-0.2-0.3-0.4 0.1-0.6 0.1-1.3 0.2-1.9 0-0.2 0.2-0.3 0.4-0.3s0.3 0.2 0.3 0.4c-0.1 0.6-0.2 1.3-0.2 1.9-0.1 0.2-0.2 0.3-0.4 0.3zm0.4-3.2s-0.1 0 0 0c-0.2 0-0.4-0.2-0.3-0.4 0.1-0.6 0.2-1.3 0.3-1.9 0-0.2 0.2-0.3 0.4-0.3s0.3 0.2 0.3 0.4c-0.1 0.6-0.2 1.3-0.3 1.9-0.1 0.2-0.3 0.3-0.4 0.3zm0.5-3.2c-0.2 0-0.4-0.2-0.3-0.4 0.1-0.6 0.3-1.3 0.4-1.9 0-0.2 0.2-0.3 0.4-0.2 0.2 0 0.3 0.2 0.2 0.4-0.2 0.6-0.3 1.2-0.4 1.9 0 0.1-0.1 0.2-0.3 0.2zm0.8-3.1s-0.1 0 0 0c-0.3-0.1-0.4-0.2-0.3-0.4 0.2-0.6 0.3-1.3 0.5-1.9 0.1-0.2 0.2-0.3 0.4-0.2s0.3 0.2 0.2 0.4c-0.2 0.6-0.4 1.2-0.5 1.8 0 0.2-0.2 0.3-0.3 0.3zm0.9-3.1h-0.1c-0.2-0.1-0.3-0.2-0.2-0.4l0.6-1.8c0.1-0.2 0.3-0.3 0.4-0.2 0.2 0.1 0.3 0.2 0.2 0.4l-0.6 1.8c0 0.1-0.1 0.2-0.3 0.2zm1.1-3h-0.1c-0.2-0.1-0.2-0.3-0.2-0.4 0.2-0.6 0.5-1.2 0.8-1.8 0.1-0.2 0.3-0.2 0.4-0.2 0.2 0.1 0.2 0.3 0.2 0.4-0.3 0.6-0.5 1.2-0.8 1.8 0 0.1-0.1 0.2-0.3 0.2zm1.3-3h-0.1c-0.2-0.1-0.2-0.3-0.2-0.4 0.3-0.6 0.6-1.2 0.9-1.7 0.1-0.2 0.3-0.2 0.4-0.1 0.2 0.1 0.2 0.3 0.1 0.4-0.3 0.6-0.6 1.1-0.9 1.7 0.1 0.1 0 0.1-0.2 0.1zm1.5-2.8h-0.2c-0.2-0.1-0.2-0.3-0.1-0.4 0.3-0.6 0.7-1.1 1-1.7 0.1-0.2 0.3-0.2 0.4-0.1 0.2 0.1 0.2 0.3 0.1 0.4-0.3 0.5-0.7 1.1-1 1.7 0 0-0.1 0.1-0.2 0.1z"></path><linearGradient id="n" x1="83.52" x2="83.52" y1="41.14" y2="5.943" gradientUnits="userSpaceOnUse"><stop stop-color="#AD5900" offset="0"></stop><stop stop-color="#FFA236" offset="1"></stop></linearGradient><path class="st33" d="m84.9 45.4s-0.1 0 0 0c-0.2 0-0.3-0.2-0.3-0.4 0-0.3 0.1-0.7 0.1-1 0-0.2 0.2-0.3 0.4-0.3s0.3 0.2 0.3 0.4c0 0.3-0.1 0.7-0.1 1-0.1 0.2-0.3 0.3-0.4 0.3zm0.2-2.3c-0.2 0-0.3-0.2-0.3-0.4 0.1-0.6 0.1-1.3 0.2-1.9 0-0.2 0.2-0.3 0.4-0.3s0.3 0.2 0.3 0.3c0 0.6-0.1 1.3-0.2 1.9-0.1 0.3-0.2 0.4-0.4 0.4zm0.3-3.2s-0.1 0 0 0c-0.2 0-0.3-0.2-0.3-0.3 0-0.7 0.1-1.3 0.1-1.9 0-0.2 0.2-0.3 0.3-0.3 0.2 0 0.3 0.2 0.3 0.3 0 0.6-0.1 1.3-0.1 1.9 0 0.2-0.2 0.3-0.3 0.3zm0.1-3.2c-0.2 0-0.3-0.2-0.3-0.3 0-0.7 0-1.3 0.1-1.9 0-0.2 0.2-0.3 0.3-0.3 0.2 0 0.3 0.2 0.3 0.3 0 0.6 0 1.3-0.1 1.9 0.1 0.2-0.1 0.3-0.3 0.3zm0.1-3.2c-0.2 0-0.3-0.1-0.3-0.3v-0.7-1.3c0-0.2 0.1-0.3 0.3-0.3s0.3 0.1 0.3 0.3v1.3 0.7c0 0.1-0.1 0.3-0.3 0.3zm0-3.2c-0.2 0-0.3-0.1-0.3-0.3 0-0.7 0-1.3-0.1-1.9 0-0.2 0.1-0.3 0.3-0.3s0.3 0.1 0.3 0.3c0 0.6 0.1 1.3 0.1 1.9 0 0.1-0.1 0.3-0.3 0.3zm-0.2-3.2c-0.2 0-0.3-0.1-0.3-0.3 0-0.6-0.1-1.3-0.2-1.9 0-0.2 0.1-0.3 0.3-0.3s0.3 0.1 0.4 0.3c0.1 0.6 0.1 1.3 0.2 1.9 0 0.1-0.2 0.3-0.4 0.3zm-0.3-3.2c-0.2 0-0.3-0.1-0.3-0.3-0.1-0.6-0.2-1.3-0.2-1.9 0-0.2 0.1-0.3 0.3-0.4 0.2 0 0.3 0.1 0.4 0.3 0.1 0.6 0.2 1.3 0.2 1.9 0 0.2-0.1 0.3-0.4 0.4 0.1 0 0.1 0 0 0zm-0.4-3.2c-0.2 0-0.3-0.1-0.3-0.3-0.1-0.6-0.2-1.3-0.3-1.9 0-0.2 0.1-0.3 0.3-0.4 0.2 0 0.3 0.1 0.4 0.3 0.1 0.6 0.2 1.3 0.3 1.9 0 0.2-0.2 0.3-0.4 0.4zm-0.6-3.2c-0.2 0-0.3-0.1-0.3-0.3-0.1-0.6-0.3-1.3-0.4-1.9 0-0.2 0.1-0.3 0.2-0.4 0.2 0 0.4 0.1 0.4 0.2 0.2 0.6 0.3 1.2 0.5 1.9 0 0.3-0.1 0.5-0.4 0.5 0.1 0 0 0 0 0zm-0.8-3.1c-0.1 0-0.3-0.1-0.3-0.2l-0.6-1.8c-0.1-0.2 0-0.4 0.2-0.4 0.2-0.1 0.4 0 0.4 0.2 0.2 0.6 0.4 1.2 0.6 1.9 0.1 0.1 0 0.2-0.3 0.3 0.1 0 0 0 0 0zm-1-3c-0.1 0-0.3-0.1-0.3-0.2-0.5-1.1-0.8-1.7-0.8-1.7-0.1-0.2 0-0.3 0.1-0.4 0.2-0.1 0.4 0 0.4 0.1 0 0 0.4 0.6 0.8 1.8 0.1 0.2 0 0.4-0.2 0.4z"></path><linearGradient id="m" x1="91.92" x2="91.92" y1="41.14" y2="5.943" gradientUnits="userSpaceOnUse"><stop stop-color="#AD5900" offset="0"></stop><stop stop-color="#FFA236" offset="1"></stop></linearGradient><path class="st34" d="m95.3 48.5c-0.1 0-0.1 0 0 0-0.2 0-0.4-0.2-0.3-0.4v-0.2c0-0.2 0.2-0.3 0.4-0.3s0.3 0.2 0.3 0.4v0.2c-0.2 0.2-0.3 0.3-0.4 0.3zm0.2-1.5c-0.2 0-0.3-0.2-0.3-0.4 0.1-0.6 0.1-1.2 0.2-1.9 0-0.2 0.2-0.3 0.3-0.3 0.2 0 0.3 0.2 0.3 0.3 0 0.7-0.1 1.3-0.2 1.9 0 0.3-0.1 0.4-0.3 0.4zm0.3-3.2c-0.2 0-0.3-0.2-0.3-0.3v-1.7-0.2h0.7-0.3 0.3v0.2 1.7c-0.1 0.2-0.3 0.3-0.4 0.3zm0-3.2c-0.2 0-0.3-0.1-0.3-0.3 0-0.6-0.1-1.3-0.1-1.9 0-0.2 0.1-0.3 0.3-0.3s0.3 0.1 0.3 0.3c0 0.6 0.1 1.3 0.1 1.9 0 0.1-0.1 0.3-0.3 0.3zm-0.2-3.2c-0.2 0-0.3-0.1-0.3-0.3-0.1-0.6-0.1-1.3-0.2-1.9 0-0.2 0.1-0.3 0.3-0.4 0.2 0 0.3 0.1 0.4 0.3 0.1 0.6 0.2 1.3 0.2 1.9-0.1 0.2-0.2 0.4-0.4 0.4zm-0.4-3.2c-0.2 0-0.3-0.1-0.3-0.3-0.1-0.6-0.2-1.3-0.3-1.9 0-0.2 0.1-0.3 0.3-0.4 0.2 0 0.3 0.1 0.4 0.3 0.1 0.6 0.2 1.3 0.3 1.9-0.1 0.2-0.2 0.4-0.4 0.4zm-0.6-3.2c-0.2 0-0.3-0.1-0.3-0.3-0.1-0.6-0.3-1.3-0.4-1.9 0-0.2 0.1-0.3 0.2-0.4 0.2 0 0.4 0.1 0.4 0.2 0.2 0.6 0.3 1.3 0.4 1.9 0.1 0.3 0 0.5-0.3 0.5 0.1 0 0 0 0 0zm-0.7-3.1c-0.1 0-0.3-0.1-0.3-0.2-0.2-0.6-0.3-1.2-0.5-1.8-0.1-0.2 0-0.3 0.2-0.4s0.4 0 0.4 0.2c0.2 0.6 0.4 1.2 0.5 1.9 0 0.1-0.1 0.2-0.3 0.3zm-1-3.1c-0.1 0-0.3-0.1-0.3-0.2l-0.6-1.8c-0.1-0.2 0-0.4 0.2-0.4 0.2-0.1 0.4 0 0.4 0.2l0.6 1.8c0.1 0.2 0 0.4-0.2 0.4h-0.1zm-1.1-3c-0.1 0-0.3-0.1-0.3-0.2-0.2-0.6-0.5-1.2-0.8-1.8-0.1-0.2 0-0.4 0.2-0.4 0.2-0.1 0.4 0 0.4 0.2 0.3 0.6 0.5 1.2 0.8 1.8 0.1 0.2 0 0.4-0.2 0.4h-0.1zm-1.3-3c-0.1 0-0.2-0.1-0.3-0.2-0.3-0.6-0.6-1.2-0.9-1.7-0.1-0.2 0-0.4 0.1-0.4 0.2-0.1 0.4 0 0.4 0.1 0.3 0.6 0.6 1.2 0.9 1.7 0.1 0.2 0 0.4-0.2 0.4 0.1 0.1 0.1 0.1 0 0.1zm-1.5-2.8c-0.1 0-0.2-0.1-0.3-0.2-0.3-0.6-0.6-1.1-1-1.7-0.1-0.2 0-0.3 0.1-0.4 0.2-0.1 0.4 0 0.5 0.1 0.3 0.5 0.7 1.1 1 1.7 0.1 0.2 0 0.4-0.1 0.4-0.1 0.1-0.1 0.1-0.2 0.1z"></path><linearGradient id="l" x1="10.71" x2="104.1" y1="45.79" y2="45.79" gradientUnits="userSpaceOnUse"><stop stop-color="#AD5900" offset="0"></stop><stop stop-color="#FFA236" offset=".5153"></stop><stop stop-color="#AD5900" offset="1"></stop></linearGradient><path class="st35" d="m11 50.7c-0.1 0-0.2-0.1-0.3-0.2-0.1-0.2 0-0.4 0.1-0.5 0 0 0.6-0.4 1.8-0.9 0.2-0.1 0.4 0 0.4 0.1 0.1 0.2 0 0.4-0.1 0.4-1.1 0.6-1.7 0.9-1.7 0.9 0 0.2-0.1 0.2-0.2 0.2zm92.5 0s-0.1-0.1-0.4-0.2c-0.2-0.1-0.2-0.3-0.1-0.4 0.1-0.2 0.3-0.2 0.4-0.1 0.5 0.3 0.6 0.4 0.5 0.6l-0.6-0.2 0.3 0.1-0.1 0.2zm-1.3-0.8h-0.2c-0.5-0.3-1.1-0.6-1.8-0.9-0.2-0.1-0.2-0.3-0.2-0.4 0.1-0.2 0.3-0.2 0.4-0.2l1.8 0.9c0.2 0.1 0.2 0.3 0.1 0.4 0.1 0.1 0 0.2-0.1 0.2zm-88.2-0.7c-0.1 0-0.2-0.1-0.3-0.2-0.1-0.2 0-0.4 0.2-0.4 0.6-0.3 1.2-0.5 1.8-0.8 0.2-0.1 0.4 0 0.4 0.2 0.1 0.2 0 0.4-0.2 0.4-0.6 0.3-1.2 0.5-1.8 0.8h-0.1zm85.2-0.7h-0.1c-0.6-0.2-1.2-0.5-1.8-0.7-0.2-0.1-0.3-0.3-0.2-0.4 0.1-0.2 0.3-0.3 0.4-0.2 0.6 0.2 1.2 0.5 1.8 0.7 0.2 0.1 0.2 0.3 0.2 0.4s-0.2 0.2-0.3 0.2zm-82.2-0.5c-0.1 0-0.3-0.1-0.3-0.2-0.1-0.2 0-0.4 0.2-0.4 0.6-0.2 1.2-0.5 1.9-0.7 0.2-0.1 0.4 0 0.4 0.2 0.1 0.2 0 0.4-0.2 0.4-0.6 0.2-1.2 0.5-1.8 0.7h-0.2zm79.2-0.7h-0.1l-1.8-0.6c-0.2-0.1-0.3-0.2-0.2-0.4s0.2-0.3 0.4-0.2c0.6 0.2 1.3 0.4 1.9 0.6 0.2 0.1 0.3 0.2 0.2 0.4-0.2 0.1-0.3 0.2-0.4 0.2zm-76.1-0.4c-0.1 0-0.3-0.1-0.3-0.2-0.1-0.2 0-0.4 0.2-0.4 0.6-0.2 1.2-0.4 1.9-0.6 0.2-0.1 0.4 0 0.4 0.2 0.1 0.2 0 0.4-0.2 0.4-0.6 0.2-1.3 0.4-1.9 0.6h-0.1zm73-0.7c-0.1 0-0.1 0 0 0-0.7-0.2-1.3-0.4-2-0.6-0.2-0.1-0.3-0.2-0.2-0.4 0-0.2 0.2-0.3 0.4-0.2 0.6 0.2 1.3 0.4 1.9 0.6 0.2 0.1 0.3 0.2 0.2 0.4-0.1 0.1-0.2 0.2-0.3 0.2zm-69.9-0.3c-0.1 0-0.3-0.1-0.3-0.2-0.1-0.2 0-0.4 0.2-0.4 0.6-0.2 1.2-0.4 1.9-0.5 0.2 0 0.4 0.1 0.4 0.2 0 0.2-0.1 0.4-0.2 0.4-0.7 0.1-1.3 0.3-2 0.5zm66.7-0.6c-0.7-0.2-1.3-0.3-2-0.5-0.2 0-0.3-0.2-0.2-0.4 0-0.2 0.2-0.3 0.4-0.2 0.7 0.2 1.3 0.3 1.9 0.5 0.2 0 0.3 0.2 0.2 0.4 0 0.1-0.1 0.2-0.3 0.2zm-63.6-0.3c-0.1 0-0.3-0.1-0.3-0.2 0-0.2 0.1-0.4 0.2-0.4 0.6-0.2 1.3-0.3 1.9-0.5 0.2 0 0.4 0.1 0.4 0.2 0 0.2-0.1 0.4-0.2 0.4-0.6 0.2-1.3 0.4-2 0.5 0.1 0 0.1 0 0 0zm60.4-0.5c-0.7-0.2-1.3-0.3-2-0.4-0.2 0-0.3-0.2-0.3-0.4s0.2-0.3 0.4-0.3c0.7 0.1 1.3 0.3 1.9 0.4 0.2 0 0.3 0.2 0.2 0.4 0.1 0.2 0 0.3-0.2 0.3zm-57.2-0.2c-0.2 0-0.3-0.1-0.3-0.3s0.1-0.4 0.3-0.4c0.6-0.1 1.3-0.3 1.9-0.4 0.2 0 0.3 0.1 0.4 0.3 0 0.2-0.1 0.3-0.3 0.4-0.6 0.1-1.3 0.2-2 0.4 0.1 0 0.1 0 0 0zm54-0.5c-0.7-0.1-1.3-0.3-2-0.4-0.2 0-0.3-0.2-0.3-0.4s0.2-0.3 0.4-0.3c0.7 0.1 1.3 0.2 1.9 0.4 0.2 0 0.3 0.2 0.3 0.4s-0.1 0.3-0.3 0.3zm-50.8-0.2c-0.2 0-0.3-0.1-0.3-0.3s0.1-0.3 0.3-0.4c0.6-0.1 1.3-0.2 1.9-0.3 0.2 0 0.3 0.1 0.4 0.3 0 0.2-0.1 0.3-0.3 0.4-0.6 0.1-1.3 0.2-2 0.3 0.1 0 0.1 0 0 0zm47.6-0.4c-0.7-0.1-1.3-0.2-2-0.3-0.2 0-0.3-0.2-0.3-0.4s0.2-0.3 0.4-0.3c0.7 0.1 1.3 0.2 1.9 0.3 0.2 0 0.3 0.2 0.3 0.4s-0.1 0.3-0.3 0.3zm-44.3-0.1c-0.2 0-0.3-0.1-0.3-0.3s0.1-0.3 0.3-0.4c0.6-0.1 1.3-0.2 1.9-0.3 0.2 0 0.3 0.1 0.4 0.3 0 0.2-0.1 0.3-0.3 0.4-0.7 0.1-1.4 0.2-2 0.3zm41.1-0.4c-0.7-0.1-1.3-0.2-2-0.3-0.2 0-0.3-0.2-0.3-0.4s0.2-0.3 0.4-0.3c0.7 0.1 1.3 0.2 2 0.3 0.2 0 0.3 0.2 0.3 0.4-0.1 0.2-0.3 0.3-0.4 0.3zm-37.9-0.1c-0.2 0-0.3-0.1-0.3-0.3s0.1-0.3 0.3-0.4c0.6-0.1 1.3-0.2 2-0.2 0.2 0 0.3 0.1 0.4 0.3 0 0.2-0.1 0.3-0.3 0.4-0.8 0.1-1.4 0.1-2.1 0.2zm34.6-0.3c-0.7-0.1-1.3-0.1-2-0.2-0.2 0-0.3-0.2-0.3-0.4s0.2-0.3 0.4-0.3c0.7 0.1 1.3 0.1 2 0.2 0.2 0 0.3 0.2 0.3 0.4-0.1 0.2-0.2 0.3-0.4 0.3zm-31.3-0.1c-0.2 0-0.3-0.1-0.3-0.3s0.1-0.3 0.3-0.4c0.6-0.1 1.3-0.1 2-0.2 0.2 0 0.3 0.1 0.4 0.3 0 0.2-0.1 0.3-0.3 0.4-0.8 0.1-1.5 0.2-2.1 0.2zm28.1-0.2c-0.7-0.1-1.3-0.1-2-0.2-0.2 0-0.3-0.2-0.3-0.4s0.2-0.3 0.3-0.3c0.7 0 1.3 0.1 2 0.2 0.2 0 0.3 0.2 0.3 0.4s-0.2 0.3-0.3 0.3zm-24.9 0c-0.2 0-0.3-0.1-0.3-0.3s0.1-0.3 0.3-0.4c0.6-0.1 1.3-0.1 2-0.1 0.2 0 0.3 0.1 0.3 0.3s-0.1 0.3-0.3 0.3c-0.7 0.1-1.3 0.1-2 0.2zm21.6-0.2c-0.7 0-1.3-0.1-2-0.1-0.2 0-0.3-0.2-0.3-0.3 0-0.2 0.2-0.3 0.3-0.3 0.7 0 1.3 0.1 2 0.1 0.2 0 0.3 0.2 0.3 0.3s-0.1 0.3-0.3 0.3zm-18.3-0.1c-0.2 0-0.3-0.1-0.3-0.3s0.1-0.3 0.3-0.3c0.6 0 1.3-0.1 2-0.1 0.2 0 0.3 0.1 0.3 0.3s-0.1 0.3-0.3 0.3c-0.7 0.1-1.4 0.1-2 0.1zm15-0.1c-0.7 0-1.3 0-2-0.1-0.2 0-0.3-0.2-0.3-0.3 0-0.2 0.2-0.3 0.3-0.3 0.7 0 1.3 0 2 0.1 0.2 0 0.3 0.2 0.3 0.3 0.1 0.2-0.1 0.3-0.3 0.3zm-11.7 0c-0.2 0-0.3-0.1-0.3-0.3s0.1-0.3 0.3-0.3c0.6 0 1.3 0 2-0.1 0.2 0 0.3 0.1 0.3 0.3s-0.1 0.3-0.3 0.3c-0.7 0-1.4 0.1-2 0.1zm8.5-0.1h-2c-0.2 0-0.3-0.1-0.3-0.3s0.1-0.3 0.3-0.3h2c0.2 0 0.3 0.2 0.3 0.3 0 0.2-0.2 0.3-0.3 0.3zm-5.3 0c-0.2 0-0.3-0.1-0.3-0.3s0.1-0.3 0.3-0.3h2c0.2 0 0.3 0.1 0.3 0.3s-0.1 0.3-0.3 0.3h-2z"></path><radialGradient id="j" cx="18.5" cy="62" r="27.99" gradientTransform="matrix(.8775 0 0 .9575 -.4777 9.214)" gradientUnits="userSpaceOnUse"><stop stop-color="#DA5E00" offset=".1429"></stop><stop stop-color="#681E0E" offset="1"></stop></radialGradient><path class="st36" d="m11.2 63.8c5.7 12.3 9.6 29.1 10.1 48.8-10.7-3.2-19.8-38.8-10.1-48.8z"></path><linearGradient id="i" x1="20.55" x2="24.22" y1="84.28" y2="83.29" gradientTransform="matrix(.918 .0471 -.0032 .9938 -8.166 6.351)" gradientUnits="userSpaceOnUse"><stop stop-color="#662500" offset="0"></stop><stop stop-color="#260000" offset="1"></stop></linearGradient><path class="st37" d="m12.8 90.5c1.1 4.2 1.4 7.7 0.7 7.9s-2.1-3.1-3.2-7.2c-1.1-4.2-1.4-7.7-0.7-7.9s2.1 3 3.2 7.2z"></path><linearGradient id="h" x1="22.16" x2="22.16" y1="47.17" y2="118.8" gradientUnits="userSpaceOnUse"><stop stop-color="#AD5900" offset="0"></stop><stop stop-color="#EF8F22" offset=".2194"></stop><stop stop-color="#AD5900" offset="1"></stop></linearGradient><path class="st38" d="m24.9 117.2c-0.1 0-0.2-0.1-0.3-0.2 0 0-0.3-0.6-0.8-1.8-0.1-0.2 0-0.4 0.2-0.4 0.2-0.1 0.4 0 0.4 0.2 0.5 1.2 0.8 1.8 0.8 1.8 0.1 0.2 0 0.4-0.1 0.4-0.1-0.1-0.1 0-0.2 0zm-1.2-3.1c-0.1 0-0.3-0.1-0.3-0.2-0.2-0.6-0.4-1.2-0.6-1.9-0.1-0.2 0-0.4 0.2-0.4 0.2-0.1 0.4 0 0.4 0.2 0.2 0.6 0.4 1.3 0.6 1.9 0.1 0.2 0 0.4-0.2 0.4h-0.1zm-1-3.1c-0.1 0-0.3-0.1-0.3-0.2-0.2-0.6-0.3-1.3-0.5-1.9 0-0.2 0.1-0.4 0.2-0.4 0.2 0 0.4 0.1 0.4 0.2 0.2 0.6 0.3 1.3 0.5 1.9 0.1 0.1 0 0.3-0.3 0.4 0.1 0 0.1 0 0 0zm-0.8-3.2c-0.1 0-0.3-0.1-0.3-0.3-0.1-0.6-0.3-1.3-0.4-1.9 0-0.2 0.1-0.4 0.3-0.4s0.4 0.1 0.4 0.3c0.1 0.6 0.3 1.3 0.4 1.9 0 0.2-0.1 0.4-0.4 0.4 0.1 0 0 0 0 0zm-0.7-3.2c-0.2 0-0.3-0.1-0.3-0.3-0.1-0.6-0.2-1.3-0.3-1.9 0-0.2 0.1-0.3 0.3-0.4 0.2 0 0.3 0.1 0.4 0.3 0.1 0.6 0.2 1.3 0.3 1.9 0 0.2-0.1 0.4-0.4 0.4 0.1 0 0.1 0 0 0zm-0.5-3.2c-0.2 0-0.3-0.1-0.3-0.3-0.1-0.6-0.2-1.3-0.3-2 0-0.2 0.1-0.3 0.3-0.4 0.2 0 0.3 0.1 0.4 0.3 0.1 0.7 0.2 1.3 0.3 1.9-0.1 0.3-0.2 0.5-0.4 0.5zm-0.5-3.3c-0.2 0-0.3-0.1-0.3-0.3-0.1-0.6-0.1-1.3-0.2-2 0-0.2 0.1-0.3 0.3-0.4 0.2 0 0.3 0.1 0.4 0.3 0.1 0.7 0.1 1.3 0.2 1.9 0 0.4-0.1 0.5-0.4 0.5 0.1 0 0.1 0 0 0zm-0.3-3.2c-0.2 0-0.3-0.1-0.3-0.3-0.1-0.6-0.1-1.3-0.2-2 0-0.2 0.1-0.3 0.3-0.4 0.2 0 0.3 0.1 0.4 0.3 0 0.7 0.1 1.3 0.2 2-0.1 0.2-0.2 0.4-0.4 0.4zm-0.3-3.3c-0.2 0-0.3-0.1-0.3-0.3 0-0.6-0.1-1.3-0.1-2 0-0.2 0.1-0.3 0.3-0.3s0.3 0.1 0.3 0.3c0 0.7 0.1 1.3 0.1 2 0.1 0.2 0 0.3-0.3 0.3 0.1 0 0.1 0 0 0zm-0.1-3.2c-0.2 0-0.3-0.1-0.3-0.3 0-0.6 0-1.3-0.1-2 0-0.2 0.1-0.3 0.3-0.3s0.3 0.1 0.3 0.3c0 0.7 0 1.3 0.1 2 0 0.1-0.1 0.2-0.3 0.3zm-0.1-3.3c-0.2 0-0.3-0.1-0.3-0.3v-1.7-0.3c0-0.2 0.1-0.3 0.3-0.3s0.3 0.1 0.3 0.3v0.3 1.7c0 0.1-0.1 0.3-0.3 0.3zm0-3.3c-0.2 0-0.3-0.2-0.3-0.3v-2c0-0.2 0.1-0.3 0.3-0.3s0.3 0.2 0.3 0.3v2c0 0.2-0.1 0.3-0.3 0.3zm0.1-3.3c-0.2 0-0.3-0.2-0.3-0.3 0-0.6 0-1.3 0.1-2 0-0.2 0.2-0.3 0.3-0.3 0.2 0 0.3 0.2 0.3 0.3 0 0.7-0.1 1.3-0.1 2 0 0.2-0.1 0.3-0.3 0.3zm0.1-3.2c-0.2 0-0.3-0.2-0.3-0.3v-0.8c0.1-0.4 0.2-0.8 0.2-1.2 0-0.2 0.2-0.3 0.4-0.2 0.2 0 0.3 0.2 0.2 0.4-0.1 0.4-0.2 0.7-0.2 1.1v0.8s-0.1 0.2-0.3 0.2zm0.7-3.2c-0.1 0-0.1 0 0 0-0.3-0.1-0.4-0.3-0.3-0.4 0.2-0.7 0.5-1.3 0.7-1.9 0.1-0.2 0.3-0.2 0.4-0.1 0.2 0.1 0.2 0.3 0.1 0.4-0.3 0.5-0.5 1.1-0.7 1.8 0 0.1-0.1 0.2-0.2 0.2zm1.4-3c-0.1 0-0.1 0-0.2-0.1s-0.2-0.3-0.1-0.5c0.4-0.5 0.8-0.9 1.3-1 0-0.1 0.1-0.2 0.2-0.2 0.2-0.1 0.4 0 0.4 0.2 0 0.1 0 0.1 0.1 0.2v0.3c0 0.1-0.1 0.2-0.2 0.2-0.4 0.1-0.8 0.3-1.2 0.9h-0.3zm0.9-2.3c-0.1 0-0.3-0.1-0.3-0.2-0.2-0.6-0.4-1.2-0.5-1.9 0-0.2 0.1-0.4 0.2-0.4 0.2 0 0.4 0.1 0.4 0.2 0.2 0.7 0.3 1.3 0.5 1.9 0.1 0.2 0 0.4-0.2 0.4h-0.1zm-0.8-3.2c-0.2 0-0.3-0.1-0.3-0.3-0.1-0.6-0.2-1.3-0.3-2 0-0.2 0.1-0.3 0.3-0.4 0.2 0 0.3 0.1 0.4 0.3 0.1 0.6 0.2 1.3 0.3 1.9-0.1 0.3-0.2 0.4-0.4 0.5zm-0.6-3.2c-0.2 0-0.3-0.1-0.3-0.3-0.1-0.7-0.1-1.3-0.2-2 0-0.2 0.1-0.3 0.3-0.3s0.3 0.1 0.3 0.3c0 0.6 0.1 1.3 0.2 1.9 0.1 0.2 0 0.3-0.3 0.4 0.1 0 0.1 0 0 0zm-0.2-3.3c-0.2 0-0.3-0.1-0.3-0.3v-1.3-0.7c0-0.2 0.2-0.3 0.3-0.3 0.2 0 0.3 0.2 0.3 0.3v0.7 1.3c0 0.1-0.1 0.3-0.3 0.3zm0-3.3c-0.2 0-0.3-0.2-0.3-0.3 0-0.5 0.1-1.1 0.1-1.6v-0.4c0-0.2 0.2-0.3 0.4-0.3s0.3 0.2 0.3 0.4v0.4c-0.1 0.5-0.1 1-0.1 1.6-0.1 0.1-0.2 0.2-0.4 0.2zm0.3-3.2c-0.2 0-0.3-0.2-0.3-0.3v-0.5-0.9c0-0.2 0.1-0.3 0.3-0.3s0.3 0.1 0.3 0.3v0.9 0.6s-0.2 0.2-0.3 0.2z"></path></g></svg>