<svg enable-background="new 0 0 162.7 166" version="1.1" viewBox="0 0 192 192" xml:space="preserve" xmlns="http://www.w3.org/2000/svg" width="192" height="192"><g transform="rotate(0 3.14 2.18) translate(21.3644884824038 20.447308617364214) scale(0.9171798650395847)"><style type="text/css"> .st0{fill:#294CCC;} .st1{fill:#0A1C60;} .st2{fill:#030920;} .st3{fill:#FFFFFF;} </style><path class="st0" d="m126 138.1c-29.6-5.3-59.7-5.3-89.3 0-3.3-36.8-6.6-73.7-10.1-110.5-0.5-4.9 2.8-9.7 7.3-10.4 31.5-4.8 63.3-4.8 94.8 0 4.5 0.7 7.8 5.4 7.3 10.4-3.4 36.9-6.7 73.7-10 110.5z"></path><path class="st1" d="m126 138.1c-29.6-5.3-59.7-5.3-89.3 0-1.1-12-2.1-24.1-3.3-36.3 31.9-5.6 64.1-5.6 96 0-1.3 12.2-2.3 24.2-3.4 36.3z"></path><path class="st2" d="m35.5 126.4 1.1 11.9c29.6-5.3 59.7-5.3 89.3 0l1.1-11.9c-30.1 6.1-61.3 6.1-91.5 0z"></path><path class="st0" d="m3.4 125c50.6 11.5 105.2 11.5 155.8 0 0.1 35.2-155.8 35.2-155.8 0z"></path><path class="st3" d="m78 113.8-3.6 3.6-1.3-1.3c-0.3-0.3-0.7-0.3-1 0l-1.5 1.5c-0.3 0.3-0.3 0.7 0 1l2 2h-4.7c-0.8 0-1.4-0.6-1.4-1.4v-8.6c0-0.8 0.6-1.4 1.4-1.4h8.6c0.8 0 1.4 0.6 1.4 1.4l0.1 3.2zm-2.9-0.3h-7.2v1.4h7.2v-1.4zm1.4-2.9h-8.6v1.4h8.6v-1.4zm-8.6 5.7v1.4h2.2v-1.4h-2.2zm11.5-0.3-5 5-2.9-2.9 1.1-1.1 1.8 1.8 3.9-3.9 1.1 1.1z"></path><path class="st3" d="m56.3 109.4h-7.6c-0.6 0-1.1 0.4-1.3 1l-2 6.1v3c0 0.8 0.6 1.4 1.4 1.4h11.5c0.8 0 1.4-0.6 1.4-1.4v-3l-2.1-6.1c-0.1-0.7-0.7-1.1-1.3-1zm-0.2 7.1-1.4 1.4h-4.3l-1.4-1.4h-2.1l1.7-5.2c0.1-0.3 0.4-0.5 0.7-0.5h6.5c0.3 0 0.6 0.2 0.7 0.5l1.7 5.2h-2.1z"></path><path class="st3" d="m105.8 117.6c0 0.8 0.6 1.4 1.4 1.4h5.7v2.2l2.2-2.2h0.7c0.8 0 1.4-0.6 1.4-1.4v-1.4h-11.5v1.4h0.1zm10.1-8.6h-8.6c-0.8 0-1.4 0.6-1.4 1.4v1.4h11.5v-1.4c-0.1-0.8-0.8-1.4-1.5-1.4zm-10.1 3.6h11.5v2.9h-11.5v-2.9z"></path><path class="st3" d="m96.9 110.1v-0.7h-8.6v0.7h-2.2v2.9c0 1.1 1 2.2 2.2 2.2v0.7c0.3 1.1 2.2 1.9 3.6 2.2v1.4h-2.2s-0.7 1.1-0.7 1.4h7.2c0-0.3-0.7-1.4-0.7-1.4h-2.2v-1.5c1.4-0.3 3.3-1.1 3.6-2.2v-0.7c1.1-0.1 2.2-1 2.2-2.2v-2.9l-2.2 0.1zm-8.6 3.6c-0.4 0-0.7-0.4-0.7-0.7v-1.4h0.7v2.1zm6 1.8-1.7-1.1-1.7 1 0.7-1.9-1.9-1.2h2.2l0.7-1.9 0.7 1.9h2l-1.6 1.3 0.6 1.9zm3.3-2.6c0 0.4-0.4 0.7-0.7 0.7v-2.2h0.7v1.5z"></path></g></svg>