<svg enable-background="new 0 0 211.5 198.5" version="1.1" viewBox="0 0 192 192" xml:space="preserve" xmlns="http://www.w3.org/2000/svg" width="192" height="192"><g transform="rotate(0 3.14 2.18) translate(10.544511664155422 9.912288569192327) scale(0.8429641266174558)"><style type="text/css"> .st0{fill:none;stroke:#54596B;stroke-width:6.0656;stroke-miterlimit:10;} .st1{fill:#2B5F9A;} .st2{fill:#1D4776;} .st3{fill:#E7FBFD;} .st4{fill:#BDE9F0;} .st5{fill:#9FD3DD;} .st6{fill:#52839B;} .st7{fill:none;stroke:#9FD3DD;stroke-width:1.2131;stroke-miterlimit:10;} .st8{fill:none;stroke:#9FD3DD;stroke-width:1.2131;stroke-miterlimit:10;stroke-dasharray:3.825,3.825;} .st9{fill:none;stroke:#54596B;stroke-width:6.0656;stroke-linecap:round;stroke-miterlimit:10;} .st10{fill:none;stroke:#929099;stroke-width:1.8197;stroke-linecap:round;stroke-miterlimit:10;} </style><polyline class="st0" points="137 54.9 166.8 54.9 175.9 64 175.9 164.3 159.1 164.3"></polyline><path class="st1" d="m107.4 143.7c-25.9 0-48.7 4.1-61.6 10.3v29.4h0.1c12.9-6.1 35.6-10.2 61.5-10.2s48.6 4.1 61.5 10.2c0.1 0 0.1-0.1 0.2-0.1v-29.2c-12.8-6.3-35.6-10.4-61.7-10.4z"></path><ellipse class="st2" cx="56.9" cy="164.3" rx="3.1" ry="5.7"></ellipse><path class="st3" d="m128.8 89.7c-10.6 0-19.2-15.6-19.2-34.8s8.6-34.8 19.2-34.8 19.2 15.6 19.2 34.8-8.6 34.8-19.2 34.8z"></path><rect class="st3" x="60.6" y="20.1" width="68.3" height="69.7"></rect><rect class="st4" x="60.6" y="54.6" width="68.3" height="35.2"></rect><path class="st5" d="m60.6 89.7c-10.6 0-19.2-15.6-19.2-34.8s8.6-34.8 19.2-34.8 19.2 15.6 19.2 34.8-8.7 34.8-19.2 34.8z"></path><ellipse class="st6" cx="60.6" cy="54.9" rx="8.1" ry="14.8"></ellipse><line class="st7" x1="78.2" x2="80" y1="43.9" y2="43.9"></line><line class="st8" x1="83.8" x2="143.1" y1="43.9" y2="43.9"></line><line class="st7" x1="145" x2="146.9" y1="43.9" y2="43.9"></line><path class="st4" d="m148 54.9v-0.4h-38.3v0.4c0 19.2 8.6 34.8 19.2 34.8 10.5 0 19.1-15.6 19.1-34.8z"></path><polygon class="st3" points="148 50.7 79.7 50.7 79.7 56.5 116.5 109 118.5 109 148 56.5"></polygon><polyline class="st9" points="65.5 54.9 35.8 54.9 26.6 64 26.6 164.3 55.6 164.3"></polyline><polyline class="st10" points="65.5 53.7 35.8 53.7 25.4 64 25.4 165.6 55.6 165.6"></polyline><path class="st2" d="m107.5 170.1c-24.8 0-47.6 3.7-61.6 9.8v4c13.4-6.4 36.4-10.2 61.6-10.2 25.3 0 48.3 3.8 61.7 10.3v-4.1c-14-6.2-36.9-9.8-61.7-9.8z"></path></g></svg>