<svg enable-background="new 0 0 199.5 104.4" version="1.1" viewBox="0 0 192 192" xml:space="preserve" xmlns="http://www.w3.org/2000/svg" width="192" height="192"><g transform="rotate(0 3.14 2.18) translate(2.3468541628685102 45.55341770368977) scale(0.9341959684501895)"><style type="text/css"> .st0{opacity:0.32;fill:url(#i);enable-background:new ;} .st1{fill:#B65D0A;} .st2{fill:#C16C0E;} .st3{fill:#391100;} .st4{fill:url(#h);} .st5{fill:url(#g);} .st6{fill:url(#f);} .st7{fill:url(#e);} .st8{fill:url(#d);} .st9{fill:url(#c);} .st10{fill:url(#b);} .st11{fill:url(#a);} .st12{fill:url(#r);} .st13{fill:url(#q);} .st14{fill:url(#p);} .st15{fill:url(#o);} .st16{fill:none;stroke:#4C1505;stroke-width:1.8265;stroke-linecap:round;stroke-miterlimit:10;} .st17{fill:none;stroke:#FFFFFF;stroke-width:1.8265;stroke-linecap:round;stroke-miterlimit:10;} .st18{fill:none;stroke:#4C1505;stroke-width:2.0474;stroke-linecap:round;stroke-miterlimit:10;} .st19{fill:url(#n);} .st20{fill:url(#m);} .st21{fill:none;stroke:#FFFFFF;stroke-width:2.1085;stroke-linecap:round;stroke-miterlimit:10;} .st22{fill:#4C1505;} .st23{opacity:0.32;fill:url(#l);enable-background:new ;} .st24{opacity:0.32;fill:url(#k);enable-background:new ;} .st25{opacity:0.32;fill:url(#j);enable-background:new ;} </style><radialGradient id="i" cx="89.69" cy="30.07" r="64" gradientUnits="userSpaceOnUse"><stop stop-color="#C5780D" offset="0"></stop><stop stop-color="#C3760D" offset=".4525"></stop><stop stop-color="#BC700C" offset=".6155"></stop><stop stop-color="#B1650C" offset=".7317"></stop><stop stop-color="#A0560A" offset=".8256"></stop><stop stop-color="#8A4209" offset=".9061"></stop><stop stop-color="#6F2A07" offset=".976"></stop><stop stop-color="#642006" offset="1"></stop></radialGradient><path class="st0" d="m138.5 40.5c-1.8 2.1-4.7 2.3-7.7 2.2s-5.5 0.1-8-1.1c-3-1.5-2.7-3.8-5.6-7.1-1.1-1.2-3.2-2.3-3.7-3.9-0.4-1.5-0.7-3-0.8-4.6h-0.1-25.6c-19.9 0-36 16.1-36 36v16.4h97.6v-16.4c0-8.9-3.2-16.9-8.5-23.2-0.5 0.5-1.1 1.1-1.6 1.7z"></path><path class="st1" d="m138.5 40.5c-1.8 2.1-4.7 2.3-7.7 2.2s-5.5 0.1-8-1.1c-3-1.5-2.7-3.8-5.6-7.1-1.1-1.2-3.2-2.3-3.7-3.9-0.4-1.5-0.7-3-0.8-4.6h-0.1-25.6c-19.9 0-36 16.1-36 36v16.4h97.6v-16.4c0-8.9-3.2-16.9-8.5-23.2-0.5 0.5-1.1 1.1-1.6 1.7z"></path><path class="st2" d="m97.8 58.5h-1v-1.4l0.4-0.1c0.1 0 0.3-0.1 0.3-0.2l0.8 0.6c-0.1 0.2-0.3 0.3-0.5 0.4v0.7z"></path><path class="st2" d="m101.7 48.8h-1v-1.4l0.4-0.1c0.1 0 0.3-0.1 0.3-0.2l0.8 0.6c-0.1 0.2-0.3 0.3-0.5 0.4v0.7z"></path><path class="st2" d="m70.3 33.6h-1v-1.4l0.4-0.1c0.1 0 0.3-0.1 0.3-0.2l0.8 0.6c-0.1 0.2-0.3 0.3-0.5 0.4v0.7z"></path><path class="st2" d="m72.1 42.7h-1v-1.4l0.4-0.1c0.1 0 0.3-0.1 0.3-0.2l0.8 0.6c-0.1 0.2-0.3 0.3-0.5 0.4v0.7z"></path><path class="st2" d="m79 33.6h-1v-1.4l0.4-0.1c0.1 0 0.3-0.1 0.3-0.2l0.8 0.6c-0.1 0.2-0.3 0.3-0.5 0.4v0.7z"></path><path class="st2" d="m103.2 39.1h-1v-1.4l0.4-0.1c0.1 0 0.3-0.1 0.3-0.2l0.8 0.6c-0.1 0.2-0.3 0.3-0.5 0.4v0.7z"></path><path class="st2" d="m86.7 60.5h-1v-1.4l0.4-0.1c0.1 0 0.3-0.1 0.3-0.2l0.8 0.6c-0.1 0.2-0.3 0.3-0.5 0.4v0.7z"></path><path class="st2" d="m86.9 32.7h-1v-1.4l0.4-0.1c0.1 0 0.3-0.1 0.3-0.2l0.8 0.6c-0.1 0.2-0.3 0.3-0.5 0.4v0.7z"></path><path class="st2" d="m101.2 63.2-0.9-0.4c0.2-0.5 0.3-1 0.1-1.5l1-0.3c0.2 0.7 0.1 1.5-0.2 2.2z"></path><path class="st2" d="m83.9 57.9-0.9-0.4c0.2-0.5 0.3-1 0.1-1.5l1-0.3c0.2 0.7 0.1 1.5-0.2 2.2z"></path><path class="st2" d="m69.6 59.6-0.9-0.4c0.2-0.5 0.3-1 0.1-1.5l1-0.3c0.2 0.7 0.1 1.5-0.2 2.2z"></path><path class="st2" d="m65.7 42.6-0.9-0.4c0.2-0.5 0.3-1 0.1-1.5l1-0.3c0.2 0.7 0.1 1.5-0.2 2.2z"></path><path class="st2" d="m109.3 60.2-0.9-0.4c0.2-0.5 0.3-1 0.1-1.5l1-0.3c0.1 0.7 0.1 1.5-0.2 2.2z"></path><path class="st2" d="m83 63.4h-0.6c-0.8 0-1.6-0.1-2.3-0.2l0.2-1c0.5 0.1 1.1 0.2 1.6 0.2-0.1-0.3-0.1-0.6-0.2-0.9l-0.1-0.2 0.1-0.2c0.2-0.3 0.7-0.5 1.1-0.3l-0.2 0.4c0.2 0.6 0.3 1.1 0.4 1.7v0.5zm-0.6-1.9c0 0.1 0.1 0.1 0 0z"></path><path class="st2" d="m110 33h-1v-1.4l0.4-0.1c0.1 0 0.3-0.1 0.3-0.2l0.8 0.6c-0.1 0.2-0.3 0.3-0.5 0.4v0.7z"></path><path class="st2" d="m107.1 30.5-0.9-0.4c0.2-0.5 0.3-1 0.1-1.5l1-0.3c0.2 0.7 0.2 1.5-0.2 2.2z"></path><path class="st2" d="m92 47h-0.6c-0.8 0-1.6-0.1-2.3-0.2l0.2-1c0.5 0.1 1.1 0.2 1.6 0.2-0.1-0.3-0.1-0.6-0.2-0.9l-0.1-0.2 0.1-0.2c0.2-0.3 0.7-0.5 1.1-0.3l-0.2 0.4c0.2 0.6 0.3 1.1 0.4 1.7v0.5zm-0.6-1.9c0 0.2 0.1 0.1 0 0z"></path><path class="st2" d="m115.9 32.9-0.2 0.5c-0.2 0.7-0.5 1.5-0.9 2.2l-0.9-0.4 0.6-1.5h-0.9-0.3l-0.2-0.2c-0.3-0.3-0.3-0.8 0-1.1l0.4 0.3c0.6 0 1.2 0 1.7 0.1l0.7 0.1zm-2 0.1c0.2 0 0.2 0 0 0z"></path><path class="st2" d="m58.4 48.5 0.2-0.5c0.3-0.7 0.6-1.5 1-2.2l0.9 0.5c-0.3 0.5-0.5 1-0.7 1.4 0.3 0 0.6 0.1 0.9 0.1h0.3v0.2c0.2 0.3 0.2 0.8 0 1.1l-0.4-0.3c-0.6 0-1.2-0.1-1.7-0.2l-0.5-0.1zm1.9 0c-0.1 0-0.1 0 0 0z"></path><path class="st2" d="m84.9 37.1c-0.1 0-0.3 0-0.4-0.1-0.3-0.1-0.4-0.4-0.3-0.7s0.4-0.4 0.7-0.3l0.2-0.2c0.1-0.1 0.1-0.2 0.1-0.3 0.1-0.1 0.1-0.2 0.2-0.4l0.1-0.4h0.4 0.5 0.7c0.1-0.1 0.3-0.2 0.5-0.3 0.1-0.1 0.3-0.2 0.4-0.2 0.1-0.2 0.3-0.3 0.5-0.3 0.3 0 0.5 0.3 0.5 0.5 0 0.4-0.5 0.6-1 0.9-0.1 0.1-0.3 0.1-0.4 0.2v0.5l-0.4-0.1c-0.2-0.1-0.5 0-0.7 0h-0.2s0 0.1-0.1 0.1c0 0.1-0.1 0.2-0.1 0.3-0.1 0.3-0.4 0.6-0.7 0.7-0.2 0.1-0.3 0.1-0.5 0.1z"></path><path class="st2" d="m74.9 35.2c0.1 0 0.2 0.1 0.4 0.2 0.2 0.2 0.3 0.5 0.1 0.7s-0.5 0.3-0.7 0.1c0 0-0.2 0-0.2 0.1-0.1 0.1-0.2 0.2-0.2 0.3-0.2 0.1-0.3 0.2-0.3 0.4l-0.2 0.3-0.4-0.1c-0.2-0.1-0.3-0.1-0.5-0.1s-0.4-0.1-0.7-0.2c-0.2 0.1-0.4 0.1-0.6 0.1-0.1 0-0.4 0.1-0.5 0.1-0.1 0.1-0.3 0.2-0.5 0.2-0.3-0.1-0.4-0.4-0.3-0.6 0.1-0.4 0.6-0.5 1.1-0.6 0.1 0 0.3-0.1 0.4-0.1l0.2-0.2 0.4 0.2c0.2 0.1 0.4 0.1 0.7 0.2h0.2l0.1-0.1c0.1-0.1 0.1-0.2 0.2-0.3 0.2-0.3 0.5-0.5 0.8-0.6h0.5z"></path><path class="st2" d="m113.8 65.1c-0.1 0-0.3 0-0.4-0.1-0.3-0.1-0.4-0.4-0.3-0.7s0.4-0.4 0.7-0.3l0.2-0.2c0.1-0.1 0.1-0.2 0.1-0.3 0.1-0.1 0.1-0.2 0.2-0.4l0.1-0.4h0.4 0.5 0.7c0.1-0.1 0.3-0.2 0.5-0.3 0.1-0.1 0.3-0.2 0.4-0.2 0.1-0.2 0.3-0.3 0.5-0.3 0.3 0 0.5 0.3 0.5 0.5 0 0.4-0.5 0.6-1 0.9-0.1 0.1-0.3 0.1-0.4 0.2l-0.1 0.3-0.4-0.1c-0.2-0.1-0.5 0-0.7 0h-0.2s0 0.1-0.1 0.1c0 0.1-0.1 0.2-0.1 0.3-0.1 0.3-0.4 0.6-0.7 0.7-0.1 0.3-0.3 0.3-0.4 0.3z"></path><path class="st2" d="m133 63.7c0 0.1 0.1 0.3 0.1 0.4 0 0.3-0.2 0.5-0.5 0.5s-0.5-0.2-0.5-0.5c0 0-0.1-0.1-0.2-0.1h-0.4-0.4-0.4l-0.1-0.4c-0.1-0.2-0.1-0.3-0.2-0.5s-0.2-0.4-0.2-0.7c-0.1-0.1-0.3-0.2-0.4-0.4-0.1-0.1-0.3-0.3-0.4-0.3-0.2 0-0.3-0.2-0.4-0.3-0.1-0.3 0.1-0.5 0.3-0.6 0.4-0.1 0.8 0.2 1.2 0.6l0.3 0.3h0.3l0.1 0.4c0 0.2 0.1 0.4 0.2 0.7 0 0.1 0.1 0.1 0.1 0.2h0.2 0.3c0.3 0 0.7 0.1 0.9 0.4-0.1 0.1 0 0.2 0.1 0.3z"></path><path class="st2" d="m144.3 47.5c0 0.1 0.1 0.3 0.1 0.4 0 0.3-0.2 0.5-0.5 0.5s-0.5-0.2-0.5-0.5c0 0-0.1-0.1-0.2-0.1h-0.4-0.4-0.4l-0.1-0.4c-0.1-0.2-0.1-0.3-0.2-0.5s-0.2-0.4-0.2-0.7c-0.1-0.1-0.3-0.2-0.4-0.4-0.1-0.1-0.3-0.3-0.4-0.3-0.2 0-0.3-0.2-0.4-0.3-0.1-0.3 0.1-0.5 0.3-0.6 0.4-0.1 0.8 0.2 1.2 0.6l0.3 0.3h0.3l0.1 0.4c0 0.2 0.1 0.4 0.2 0.7 0 0.1 0.1 0.1 0.1 0.2h0.2 0.3c0.3 0 0.7 0.1 0.9 0.4 0 0 0.1 0.2 0.1 0.3z"></path><path class="st2" d="m78.3 49.5c-0.1 0-0.3 0-0.4-0.1-0.3-0.1-0.4-0.4-0.3-0.7s0.4-0.4 0.7-0.3l0.2-0.2c0.1-0.1 0.1-0.2 0.1-0.3 0.1-0.1 0.1-0.2 0.2-0.4l0.1-0.4h0.4 0.5 0.7c0.1-0.1 0.3-0.2 0.5-0.3 0.1-0.1 0.3-0.2 0.4-0.2 0.1-0.2 0.3-0.3 0.5-0.3 0.3 0 0.5 0.3 0.5 0.5 0 0.4-0.5 0.6-1 0.9-0.1 0.1-0.3 0.1-0.4 0.2v0.4l-0.4-0.1c-0.2-0.1-0.5 0-0.7 0h-0.2s0 0.1-0.1 0.1c0 0.1-0.1 0.2-0.1 0.3-0.1 0.3-0.4 0.6-0.7 0.7-0.2 0.1-0.3 0.2-0.5 0.2z"></path><path class="st2" d="m114.2 42.8c-0.1 0-0.3 0-0.4-0.1-0.3-0.1-0.4-0.4-0.3-0.7s0.4-0.4 0.7-0.3l0.2-0.2c0.1-0.1 0.1-0.2 0.1-0.3 0.1-0.1 0.1-0.2 0.2-0.4l0.1-0.4h0.4 0.5 0.7c0.1-0.1 0.3-0.2 0.5-0.3 0.1-0.1 0.3-0.2 0.4-0.2 0.1-0.2 0.3-0.3 0.5-0.3 0.3 0 0.5 0.3 0.5 0.5 0 0.4-0.5 0.6-1 0.9-0.1 0.1-0.3 0.1-0.4 0.2l-0.1 0.3-0.4-0.1c-0.2-0.1-0.5 0-0.7 0h-0.2s0 0.1-0.1 0.1c0 0.1-0.1 0.2-0.1 0.3-0.1 0.3-0.4 0.6-0.7 0.7-0.2 0.2-0.3 0.3-0.4 0.3z"></path><polygon class="st2" points="64.5 63.8 63.6 63.4 64.7 61.1 66.9 61.7 66.6 62.7 65.3 62.3"></polygon><polygon class="st2" points="55.6 65.2 53.2 64.1 53.8 61.9 54.8 62.2 54.4 63.5 56 64.3"></polygon><polygon class="st2" points="96.2 34.1 95.2 34.1 95.2 31.7 96.8 32.8 98.1 32.3 98.5 33.2 96.7 34 96.2 33.7"></polygon><polygon class="st2" points="108.2 48.1 107.2 48.1 107.2 45.8 108.7 46.9 110 46.3 110.4 47.2 108.6 48 108.2 47.7"></polygon><polygon class="st2" points="123.5 49.4 122.7 47.6 123 47.2 122.6 47.2 122.6 46.2 125 46.3 123.8 47.8 124.4 49.1"></polygon><polygon class="st2" points="120.4 58.5 119 56.7 120.3 54.8 121.2 55.4 120.2 56.7 121.1 57.9"></polygon><polygon class="st2" points="99.2 29.6 97.9 27.9 99.2 26 100.5 26 99.1 27.8 100 29"></polygon><circle class="st3" cx="76.9" cy="41.4" r="1"></circle><radialGradient id="h" cx="75.99" cy="60.83" r="2.368" gradientTransform="matrix(1 0 0 -1 0 103.9)" gradientUnits="userSpaceOnUse"><stop stop-color="#BFBFBF" offset="0"></stop><stop stop-color="#fff" offset="1"></stop></radialGradient><circle class="st4" cx="76.9" cy="40.7" r="1"></circle><circle class="st3" cx="63" cy="44.8" r="1"></circle><radialGradient id="g" cx="62.04" cy="57.52" r="2.368" gradientTransform="matrix(1 0 0 -1 0 103.9)" gradientUnits="userSpaceOnUse"><stop stop-color="#BFBFBF" offset="0"></stop><stop stop-color="#fff" offset="1"></stop></radialGradient><circle class="st5" cx="63" cy="44" r="1"></circle><circle class="st3" cx="86.5" cy="55" r="1"></circle><radialGradient id="f" cx="85.52" cy="47.3" r="2.368" gradientTransform="matrix(1 0 0 -1 0 103.9)" gradientUnits="userSpaceOnUse"><stop stop-color="#BFBFBF" offset="0"></stop><stop stop-color="#fff" offset="1"></stop></radialGradient><circle class="st6" cx="86.5" cy="54.2" r="1"></circle><circle class="st3" cx="101.4" cy="55" r="1"></circle><radialGradient id="e" cx="100.4" cy="47.3" r="2.368" gradientTransform="matrix(1 0 0 -1 0 103.9)" gradientUnits="userSpaceOnUse"><stop stop-color="#BFBFBF" offset="0"></stop><stop stop-color="#fff" offset="1"></stop></radialGradient><circle class="st7" cx="101.4" cy="54.2" r="1"></circle><circle class="st3" cx="115.5" cy="55" r="1"></circle><radialGradient id="d" cx="114.6" cy="47.3" r="2.368" gradientTransform="matrix(1 0 0 -1 0 103.9)" gradientUnits="userSpaceOnUse"><stop stop-color="#BFBFBF" offset="0"></stop><stop stop-color="#fff" offset="1"></stop></radialGradient><circle class="st8" cx="115.5" cy="54.2" r="1"></circle><circle class="st3" cx="129.9" cy="57" r="1"></circle><radialGradient id="c" cx="129" cy="45.25" r="2.368" gradientTransform="matrix(1 0 0 -1 0 103.9)" gradientUnits="userSpaceOnUse"><stop stop-color="#BFBFBF" offset="0"></stop><stop stop-color="#fff" offset="1"></stop></radialGradient><circle class="st9" cx="129.9" cy="56.2" r="1"></circle><circle class="st3" cx="142.3" cy="61.4" r="1"></circle><radialGradient id="b" cx="141.3" cy="40.86" r="2.368" gradientTransform="matrix(1 0 0 -1 0 103.9)" gradientUnits="userSpaceOnUse"><stop stop-color="#BFBFBF" offset="0"></stop><stop stop-color="#fff" offset="1"></stop></radialGradient><circle class="st10" cx="142.3" cy="60.6" r="1"></circle><circle class="st3" cx="71.8" cy="56.4" r="1"></circle><radialGradient id="a" cx="70.87" cy="45.88" r="2.368" gradientTransform="matrix(1 0 0 -1 0 103.9)" gradientUnits="userSpaceOnUse"><stop stop-color="#BFBFBF" offset="0"></stop><stop stop-color="#fff" offset="1"></stop></radialGradient><circle class="st11" cx="71.8" cy="55.6" r="1"></circle><circle class="st3" cx="58.8" cy="59.9" r="1"></circle><radialGradient id="r" cx="57.82" cy="42.41" r="2.368" gradientTransform="matrix(1 0 0 -1 0 103.9)" gradientUnits="userSpaceOnUse"><stop stop-color="#BFBFBF" offset="0"></stop><stop stop-color="#fff" offset="1"></stop></radialGradient><circle class="st12" cx="58.8" cy="59.1" r="1"></circle><circle class="st3" cx="92.6" cy="40.8" r="1"></circle><radialGradient id="q" cx="91.61" cy="61.46" r="2.368" gradientTransform="matrix(1 0 0 -1 0 103.9)" gradientUnits="userSpaceOnUse"><stop stop-color="#BFBFBF" offset="0"></stop><stop stop-color="#fff" offset="1"></stop></radialGradient><circle class="st13" cx="92.6" cy="40" r="1"></circle><circle class="st3" cx="107.9" cy="40.8" r="1"></circle><radialGradient id="p" cx="107" cy="61.46" r="2.368" gradientTransform="matrix(1 0 0 -1 0 103.9)" gradientUnits="userSpaceOnUse"><stop stop-color="#BFBFBF" offset="0"></stop><stop stop-color="#fff" offset="1"></stop></radialGradient><circle class="st14" cx="107.9" cy="40" r="1"></circle><circle class="st3" cx="137.1" cy="45.4" r="1"></circle><radialGradient id="o" cx="136.2" cy="56.89" r="2.368" gradientTransform="matrix(1 0 0 -1 0 103.9)" gradientUnits="userSpaceOnUse"><stop stop-color="#BFBFBF" offset="0"></stop><stop stop-color="#fff" offset="1"></stop></radialGradient><circle class="st15" cx="137.1" cy="44.6" r="1"></circle><path class="st16" d="m53.7 51.6c1.3-0.9 7.6 6.2 10.8 5.3 2.1-0.6 2.4-10.1 5.2-10.6 2.3-0.4 6.3 8.1 8.9 7.8 2.4-0.3 3.8-9.7 6.4-9.9 2.4-0.2 5.6 8.7 8.1 8.6s4.7-9.3 7.3-9.3c2.5 0 4.8 9.2 7.4 9.3 2.5 0.1 5.6-8.8 8.1-8.6s3.9 9.6 6.3 10c2.5 0.4 6.8-8.1 9.2-7.5 2.5 0.6 2.3 10.1 4.6 10.9 2.4 0.9 8.4-6.5 10.5-5.4"></path><path class="st17" d="m53.7 50.1c1.3-0.9 7.6 6.2 10.8 5.3 2.1-0.6 2.4-10.1 5.2-10.6 2.3-0.4 6.3 8.1 8.9 7.8 2.4-0.3 3.8-9.7 6.4-9.9 2.4-0.2 5.6 8.7 8.1 8.6s4.7-9.3 7.3-9.3c2.5 0 4.8 9.2 7.4 9.3 2.5 0.1 5.6-8.8 8.1-8.6s3.9 9.6 6.3 10c2.5 0.4 6.8-8.1 9.2-7.5 2.5 0.6 2.3 10.1 4.6 10.9 2.4 0.9 8.4-6.5 10.5-5.4"></path><path class="st18" d="m51.4 68c14-1.7 30.3-2.7 47.7-2.7 17.9 0 34.7 1 49 2.8"></path><radialGradient id="n" cx="56.67" cy="16.29" r="249.2" gradientTransform="matrix(1 0 0 -1 0 103.9)" gradientUnits="userSpaceOnUse"><stop stop-color="#642006" offset="0"></stop><stop stop-color="#4C1505" offset="1"></stop></radialGradient><path class="st19" d="m99.8 65.4c-51.9 0-94 8.5-94 18.9 0 7.5 27.8 6 50.5 4.1 0-11.3 87-11.3 87 0 27.1 1.8 50.5 3.5 50.5-4.1 0-10.4-42.1-18.9-94-18.9z"></path><linearGradient id="m" x1="5.8" x2="193.8" y1="27.94" y2="27.94" gradientTransform="matrix(1 0 0 -1 0 103.9)" gradientUnits="userSpaceOnUse"><stop stop-color="#642006" offset=".1236"></stop><stop stop-color="#B65D0A" offset=".7921"></stop><stop stop-color="#B65D0A" offset="1"></stop></linearGradient><path class="st20" d="m99.8 70.4c47.7 0 87 6.9 93.1 16.1 0.5-0.7 0.8-1.3 0.9-2.2 0-10.4-42.1-18.9-94-18.9s-94 8.5-94 18.9c0 0.9 0.5 1.5 1 2.2 6.1-9.2 45.3-16.1 93-16.1z"></path><path class="st18" d="m6.6 84c9.2-9.2 45.5-16.7 93.6-16.7s86.4 7.5 93.4 16.5"></path><path class="st21" d="m5.1 83.8c6.2-10.1 46.4-17.9 95-17.9s88.8 7.8 95 17.9"></path><path class="st22" d="m139.9 39-1.6 1.8c-0.5 0.6-1.2 1.1-2 1.4-1.5 0.6-3.1 0.8-4.7 0.8s-3.1 0-4.7-0.1-3.2-0.3-4.7-1.1c-0.7-0.4-1.4-0.9-1.9-1.6s-0.9-1.4-1.3-2c-0.8-1.3-1.6-2.6-2.6-3.7-0.5-0.5-1.2-1-1.7-1.6-0.6-0.6-1.2-1.2-1.5-2.1-0.4-1.6-0.6-3.2-0.5-4.8 0 0 0-0.1 0.1-0.1h0.1c0.2 1.6 0.6 3.1 1.1 4.5 0.3 0.6 0.8 1.1 1.4 1.6s1.2 0.9 1.9 1.5c1.2 1.2 2.1 2.5 2.8 4 0.4 0.7 0.7 1.4 1.1 2s1 1.1 1.6 1.4c2.6 1.6 5.9 1.2 9 1.4 1.6 0.1 3.1 0 4.6-0.6 1.4-0.3 2.3-1.7 3.5-2.7v0z"></path><path class="st1" d="m121.1 18.7c-0.6 0-1.1 0.3-1.3 0.9-0.4 1 0.1 2.1 0.4 2.7l0.5 0.8c0.4 0.8 0.8 0.7 1.7 0.7h0.8c0.7 0 1.2 0 1.6-0.6l0.2-1.2c0.7-0.8 0.3-1.3-0.3-2.2l-0.1-0.1c-0.5-0.6-1.2-1-1.9-1h-0.5-1.1z"></path><path class="st22" d="m119.7 19.6c-0.2 0.9 0.2 1.8 0.6 2.6l0.6 0.8c0.2 0.3 0.4 0.5 0.7 0.5h1.1s0.8 0 1.1 0 0.5-0.2 0.8-0.4l-0.1 0.1 0.3-1.2v-0.1c0.3-0.3 0.4-0.6 0.4-1-0.1-0.4-0.3-0.7-0.5-1.1 0.3 0.3 0.6 0.6 0.8 1 0.1 0.2 0.1 0.5 0 0.7s-0.2 0.4-0.3 0.6v-0.1l-0.2 1.2v0.1c-0.2 0.3-0.7 0.7-1.2 0.7h-1.2c-0.4 0-0.7 0-1.2-0.1-0.2 0-0.5-0.1-0.7-0.3s-0.3-0.4-0.4-0.5l-0.5-0.8c-0.2-0.4-0.4-0.9-0.4-1.4 0.1-0.4 0.1-0.9 0.3-1.3z"></path><path class="st1" d="m135.2 24.1-0.6 0.8c-0.2 0.3-0.2 0.8-0.1 1.1l0.6 1.2c0.2 0.3 0.5 0.5 0.9 0.5h1.2c0.3 0 0.6-0.1 0.8-0.4l0.8-1c0.3-0.4 0.3-0.9 0-1.3l-0.7-1c-0.2-0.3-0.5-0.4-0.9-0.4h-1.3c-0.1 0-0.5 0.2-0.7 0.5z"></path><path class="st1" d="m125.3 27.4-0.4 1.4c-0.7 1-0.1 1.8 0.5 2.9l0.2 0.4c0.6 1.1 1.7 1.7 2.9 1.7h0.3c1 0 2 0.4 2.7-0.4l0.6-0.9c1.1-1.1 2.8-1.6-0.4-4.3l-0.1-0.1c-0.6-0.9-1.9-2.1-3-2.1h-0.7c-1 0-2 0.5-2.6 1.4z"></path><radialGradient id="l" cx="122.5" cy="82.6" r="2.732" gradientTransform="matrix(1 0 0 -1 0 103.9)" gradientUnits="userSpaceOnUse"><stop stop-color="#C5780D" offset="0"></stop><stop stop-color="#C3760D" offset=".4525"></stop><stop stop-color="#BC700C" offset=".6155"></stop><stop stop-color="#B1650C" offset=".7317"></stop><stop stop-color="#A0560A" offset=".8256"></stop><stop stop-color="#8A4209" offset=".9061"></stop><stop stop-color="#6F2A07" offset=".976"></stop><stop stop-color="#642006" offset="1"></stop></radialGradient><path class="st23" d="m121.1 18.7c-0.6 0-1.1 0.3-1.3 0.9-0.4 1 0.1 2.1 0.4 2.7l0.5 0.8c0.4 0.8 0.8 0.7 1.7 0.7h0.8c0.7 0 1.2 0 1.6-0.6l0.2-1.2c0.7-0.8 0.3-1.3-0.3-2.2l-0.1-0.1c-0.5-0.6-1.2-1-1.9-1h-0.5-1.1z"></path><radialGradient id="k" cx="136.8" cy="78.19" r="2.213" gradientTransform="matrix(1 0 0 -1 0 103.9)" gradientUnits="userSpaceOnUse"><stop stop-color="#C5780D" offset="0"></stop><stop stop-color="#C3760D" offset=".4525"></stop><stop stop-color="#BC700C" offset=".6155"></stop><stop stop-color="#B1650C" offset=".7317"></stop><stop stop-color="#A0560A" offset=".8256"></stop><stop stop-color="#8A4209" offset=".9061"></stop><stop stop-color="#6F2A07" offset=".976"></stop><stop stop-color="#642006" offset="1"></stop></radialGradient><path class="st24" d="m135.2 24.1-0.6 0.8c-0.2 0.3-0.2 0.8-0.1 1.1l0.6 1.2c0.2 0.3 0.5 0.5 0.9 0.5h1.2c0.3 0 0.6-0.1 0.8-0.4l0.8-1c0.3-0.4 0.3-0.9 0-1.3l-0.7-1c-0.2-0.3-0.5-0.4-0.9-0.4h-1.3c-0.1 0-0.5 0.2-0.7 0.5z"></path><radialGradient id="j" cx="129.1" cy="73.94" r="4.269" gradientTransform="matrix(1 0 0 -1 0 103.9)" gradientUnits="userSpaceOnUse"><stop stop-color="#C5780D" offset="0"></stop><stop stop-color="#C3760D" offset=".4525"></stop><stop stop-color="#BC700C" offset=".6155"></stop><stop stop-color="#B1650C" offset=".7317"></stop><stop stop-color="#A0560A" offset=".8256"></stop><stop stop-color="#8A4209" offset=".9061"></stop><stop stop-color="#6F2A07" offset=".976"></stop><stop stop-color="#642006" offset="1"></stop></radialGradient><path class="st25" d="m125.3 27.4-0.4 1.4c-0.7 1-0.1 1.8 0.5 2.9l0.2 0.4c0.6 1.1 1.7 1.7 2.9 1.7h0.3c1 0 2 0.4 2.7-0.4l0.6-0.9c1.1-1.1 2.8-1.6-0.4-4.3l-0.1-0.1c-0.6-0.9-1.9-2.1-3-2.1h-0.7c-1 0-2 0.5-2.6 1.4z"></path><path class="st22" d="m124.9 28.8c-0.2 0.4-0.3 0.9-0.1 1.3s0.5 0.8 0.7 1.2c0.3 0.4 0.5 0.8 0.8 1.1s0.7 0.6 1.1 0.8 0.8 0.3 1.3 0.3 1 0 1.4 0.1c0.5 0 0.9 0 1.2-0.2l0.2-0.2 0.6-0.9c0.4-0.3 0.7-0.6 1.1-0.9 0.3-0.3 0.5-0.6 0.3-1-0.1-0.4-0.4-0.8-0.6-1.1-0.3-0.4-0.6-0.7-0.9-1 0.4 0.3 0.7 0.6 1.1 0.9 0.3 0.3 0.7 0.7 0.8 1.2 0.1 0.2 0.1 0.5 0.1 0.8-0.1 0.3-0.2 0.5-0.4 0.7-0.3 0.4-0.7 0.7-1 1l-0.6 0.9-0.3 0.3c-0.5 0.4-1.1 0.4-1.6 0.4s-0.9-0.1-1.4-0.1-1-0.1-1.5-0.4c-0.5-0.2-0.9-0.6-1.2-1s-0.5-0.9-0.7-1.3-0.5-0.8-0.6-1.3c-0.3-0.7-0.2-1.2 0.2-1.6z"></path><path class="st22" d="m134.6 26c0.2 0.3 0.4 0.6 0.7 0.8 0.2 0.3 0.4 0.5 0.7 0.6 0.2 0.1 0.6 0 1 0h0.5c0.1 0 0.2-0.1 0.3-0.1 0.2-0.1 0.4-0.5 0.6-0.7l0.3-0.4c0.1-0.1 0.2-0.2 0.2-0.3 0.1-0.3 0.1-0.5-0.1-0.8s-0.3-0.6-0.5-1c0.3 0.2 0.5 0.5 0.8 0.8 0.3 0.2 0.5 0.7 0.4 1.1 0 0.2-0.1 0.4-0.3 0.6l-0.3 0.4c-0.2 0.3-0.3 0.6-0.8 0.9-0.2 0.1-0.4 0.2-0.7 0.2h-0.6c-0.4 0-0.7 0-1.1-0.1s-0.7-0.6-0.8-0.9c0-0.4-0.2-0.7-0.3-1.1z"></path></g></svg>