<svg width="192" height="192" enable-background="new 0 0 200 200" version="1.1" viewBox="0 0 192 192" xml:space="preserve" xmlns="http://www.w3.org/2000/svg"><g transform="rotate(0 3.14 2.18) translate(-7.512954416530249 -21.98409497690109) scale(1.1813175967649672)"><path d="m128.9 81.26-1.09 13.23c-3.271 6.583-9.142 12.92-15.04 16.93-3.785-3.375-7.986-9.316-11.1-14.88l-1.665 1.052-1.665-1.052c-3.111 5.565-7.313 11.51-11.1 14.88-5.904-4.014-11.78-10.35-15.04-16.93l-1.1-13.21-33.85 10.17v38.41h125.5v-38.41l-33.9-10.13z" fill="#414042"></path><polygon points="113.1 129.8 129.8 81.62 100 97.6 70.23 81.62 86.9 129.8" fill="#DCDDDE"></polygon><path d="m127.4 76.29c-5.955 10.24-17.46 14.87-27.39 16.04-9.926-1.174-21.43-5.808-27.39-16.04l-1.51 4.976 1.091 13.23c3.268 6.583 9.14 12.92 15.04 16.93 4.512-4.022 9.622-11.7 12.76-18.03 3.143 6.332 8.251 14 12.76 18.03 5.903-4.014 11.77-10.35 15.04-16.93l1.09-13.23-1.5-4.95z" fill="#fff"></path><polygon points="71.1 81.26 37.25 91.43 37.25 96.33 71.5 86.05" fill="#58595B"></polygon><polygon points="128.9 81.26 128.5 86.05 162.7 96.33 162.7 91.43" fill="#58595B"></polygon><polygon points="63.37 120.6 68.38 129.8 87.67 129.8 71.1 81.26 60.52 84.44 59.97 110.6 68.69 113.2"></polygon><polygon points="131.6 129.8 136.6 120.6 131.3 113.2 140 110.6 139.5 84.44 128.9 81.26 112.3 129.8"></polygon><polygon points="61.76 73.62 37.25 98.13 12.74 73.62" fill="#DCDDDE"></polygon><polygon points="22.21 77.54 52.3 77.54 37.25 92.59" fill="#F1F2F2"></polygon><path d="m47.7 78.58c-0.125 0-0.251-0.048-0.347-0.144-0.191-0.191-0.191-0.501 0-0.693l7.435-7.435c0.191-0.191 0.501-0.191 0.693 0 0.191 0.191 0.191 0.502 0 0.693l-7.435 7.434c-0.09 0.09-0.21 0.14-0.34 0.14z" fill="#231F20"></path><rect x="35.29" y="93.97" width="3.922" height="34.4" fill="#DCDDDE"></rect><ellipse transform="matrix(-.7071 -.7071 .7071 -.7071 24.17 167.9)" cx="46.86" cy="78.93" rx="3.86" ry="3.473" fill="#81A32E"></ellipse><path d="m40.86 85.42c-0.125 0-0.25-0.048-0.347-0.144-0.191-0.191-0.191-0.502 0-0.693l5.531-5.531c0.191-0.191 0.501-0.191 0.693 0 0.191 0.191 0.191 0.502 0 0.693l-5.531 5.531c-0.09 0.09-0.21 0.14-0.34 0.14z" fill="#231F20"></path><ellipse transform="matrix(-.7071 -.7071 .7071 -.7071 9.696 173.9)" cx="40.86" cy="84.93" rx="3.86" ry="3.473" fill="#81A32E"></ellipse><path d="m36.97 89.31c-0.125 0-0.251-0.048-0.347-0.144-0.191-0.191-0.191-0.502 0-0.693l3.431-3.431c0.191-0.191 0.501-0.191 0.693 0s0.191 0.502 0 0.693l-3.43 3.431c-0.09 0.09-0.22 0.14-0.34 0.14z" fill="#231F20"></path><path d="m37.25 123.5c-5.753 0-10.42 2.824-10.42 6.312h20.84c0-3.4-4.66-6.3-10.42-6.3z" fill="#DCDDDE"></path><g fill="#414042"><circle cx="100" cy="120.6" r="2.011"></circle><path d="m97.23 93.76c-3.104-2.873-9.745-5.267-14.91-4.354-2.584 3.793-2.579 15.07 0 18.86 5.162 0.913 11.8-1.48 14.91-4.355 0.462-1.994 1.457-3.197 1.603-5.073-0.14-1.87-1.13-3.07-1.6-5.07z"></path><path d="m102.8 93.76c3.105-2.873 9.744-5.267 14.91-4.354 2.583 3.793 2.579 15.07 0 18.86-5.162 0.913-11.8-1.48-14.91-4.355-0.462-1.994-1.457-3.197-1.601-5.073 0.1-1.87 1.1-3.07 1.6-5.07z"></path></g><path d="m90.48 101.6c-1.418-0.926 1.852-1.884 1.852-3.259 0-1.374-3.271-2.332-1.854-3.258s8.826 3.258 8.826 3.258-7.41 4.26-8.83 3.26z"></path><path d="m109.5 95.13c1.416 0.926-1.854 1.883-1.854 3.26-1e-3 1.372 3.271 2.328 1.853 3.258-1.416 0.925-8.824-3.258-8.824-3.258s7.4-4.14 8.8-3.21z"></path><path d="m97.23 93.77c-1.259 0.831-1.866 2.508-1.951 5.072 0.084 2.564 0.691 4.24 1.951 5.071 0.497-1.88 0.745-3.021 0.745-5.071s-0.25-3.18-0.75-5.06z"></path><path d="m102.8 93.77c1.26 0.831 1.866 2.508 1.951 5.072-0.085 2.564-0.691 4.24-1.951 5.071-0.497-1.88-0.745-3.021-0.745-5.071s0.2-3.18 0.7-5.06z"></path><path d="m102.8 93.76c-1.843-0.696-3.69-0.695-5.533 0-0.186 1.735-0.279 2.755-0.279 4.625 1e-3 1.865 0.093 3.786 0.279 5.522 1.842 0.698 3.69 0.706 5.537 0.014 0.182-1.741 0.272-3.668 0.272-5.537-0.1-1.84-0.1-2.86-0.3-4.6z" fill="#414042"></path></g></svg>