<svg enable-background="new 0 0 89.4 82.5" version="1.1" viewBox="0 0 192 192" xml:space="preserve" xmlns="http://www.w3.org/2000/svg" width="192" height="192"><g transform="rotate(0 3.14 2.18) translate(22.909014614736677 29.442287051408258) scale(1.6333181091678954)"><style type="text/css"> .st0{fill:url(#i);} .st1{fill:url(#h);} .st2{fill:url(#g);} .st3{fill:url(#f);} .st4{fill:url(#e);} .st5{fill:url(#d);} .st6{fill:url(#c);} .st7{opacity:0.14;fill:#670B61;} .st8{fill:url(#b);} .st9{opacity:0.19;fill:#770500;} .st10{fill:url(#a);} .st11{fill:url(#p);} .st12{fill:url(#o);} .st13{fill:url(#n);} .st14{opacity:0.66;fill:#FFFFFF;} .st15{opacity:0.26;fill:#770500;} .st16{opacity:0.74;fill:url(#m);} .st17{opacity:0.13;fill:#770500;} .st18{fill:url(#l);} .st19{fill:url(#k);} .st20{opacity:0.38;fill:#FFFFFF;} .st21{opacity:0.45;fill:url(#j);} </style><linearGradient id="i" x1="32.39" x2="57.69" y1="35.3" y2="76.85" gradientUnits="userSpaceOnUse"><stop stop-color="#FFF81F" offset="0"></stop><stop stop-color="#FFC51F" offset=".4663"></stop><stop stop-color="#DE9200" offset="1"></stop></linearGradient><path class="st0" d="m44 16.6c-42 1.6-42.5 42.1-42.5 42.1v0.7c0 11 18.9 19.8 42.3 19.8 23.3 0 42.3-8.9 42.3-19.8-1.4-44.3-42.1-42.8-42.1-42.8z"></path><linearGradient id="h" x1="32.83" x2="71.44" y1="21.22" y2="21.22" gradientUnits="userSpaceOnUse"><stop stop-color="#01A30A" offset=".4607"></stop><stop stop-color="#049000" offset="1"></stop></linearGradient><path class="st1" d="m44 16.6c-4.1 0.2-7.8 0.7-11.2 1.5l5.1 6s16.7-4.9 33.5 1.8c-12.1-9.8-27.4-9.3-27.4-9.3z"></path><linearGradient id="g" x1="25.88" x2="26.4" y1=".8348" y2="12.41" gradientUnits="userSpaceOnUse"><stop stop-color="#8F8E96" offset="0"></stop><stop stop-color="#A1A1A7" offset=".1749"></stop><stop stop-color="#BEBDC1" offset=".4999"></stop><stop stop-color="#CFCFD1" offset=".7824"></stop><stop stop-color="#D5D5D7" offset=".9888"></stop></linearGradient><path class="st2" d="m43.6 15.5s-31.4-2.2-36.8-11.5c0 0-3.6-5.8 13.5 0.7 0 0 22.8 8.7 24.8 10.3s0 0.4 0 0.4l-1.5 0.1z"></path><linearGradient id="f" x1="43.97" x2="15.74" y1="16.84" y2="8.064" gradientUnits="userSpaceOnUse"><stop stop-color="#ADADB2" offset="0"></stop><stop stop-color="#A8A8AD" offset=".12"></stop><stop stop-color="#96969B" offset=".6215"></stop><stop stop-color="#909095" offset=".9888"></stop></linearGradient><path class="st3" d="m44.9 15c-0.1 0-0.1-0.1-0.2-0.2-3.2-0.2-29.1-2.6-38.1-10.8 5.4 9.3 36.8 11.5 36.8 11.5h1.5s2 1.2 0-0.5z"></path><linearGradient id="e" x1="17.09" x2="45.5" y1="47.75" y2="47.75" gradientUnits="userSpaceOnUse"><stop stop-color="#3FBDFF" offset=".1404"></stop><stop stop-color="#1488CD" offset=".7135"></stop></linearGradient><path class="st4" d="m44.2 16.6c-12.2 0.5-20.9 4.2-27.1 9.3l16.5 52.7c0.8 0.1 1.7 0.2 2.5 0.3 0.8-17.6 7.3-51.3 9.4-62.3h-1.3z"></path><linearGradient id="d" x1="33.34" x2="41.57" y1="29.32" y2="67.59" gradientUnits="userSpaceOnUse"><stop stop-color="#FF6F79" offset=".005618"></stop><stop stop-color="#f00" offset=".4438"></stop><stop stop-color="#B80000" offset=".9719"></stop></linearGradient><path class="st5" d="m26 20.5c-24.1 10.4-24.5 38.3-24.5 38.3v0.7c0 11 18.9 19.8 42.3 19.8 15.3 0 28.8-3.8 36.2-9.6-3.6-44.4-40.6-49-54-49.2z"></path><linearGradient id="c" x1="18.65" x2="26.27" y1="26.18" y2="56.66" gradientUnits="userSpaceOnUse"><stop stop-color="#A3DCFF" offset=".005618"></stop><stop stop-color="#3FB6FF" offset=".4101"></stop><stop stop-color="#006097" offset="1"></stop></linearGradient><path class="st6" d="m2.1 62.7c6.2-32.7 34.9-38.8 41.4-39.7-7-1.9-13.4-2.4-17.5-2.5-24.1 10.4-24.4 38.3-24.4 38.3v0.7c0 1.1 0.2 2.2 0.5 3.2z"></path><path class="st7" d="m41.5 22.8c-9.3 1.9-32.4 8.5-39.8 34-0.1 1.3-0.1 2-0.1 2v0.7c0 1.1 0.2 2.2 0.6 3.2 6.1-32.7 34.8-38.8 41.3-39.7-0.9-0.3-1.1 0-2-0.2z"></path><linearGradient id="b" x1="59.07" x2="56.55" y1="71.18" y2="35.88" gradientUnits="userSpaceOnUse"><stop stop-color="#DBB68E" offset="0"></stop><stop stop-color="#EEDCC9" offset=".6292"></stop><stop stop-color="#F7EEE5" offset="1"></stop></linearGradient><path class="st8" d="m79.9 69.8c-2.4-30.1-20-41.9-35.4-46.5-1.9 5.1-8.2 25-5.8 55.9 1.6 0.1 3.3 0.1 5 0.1 15.4 0.1 28.8-3.8 36.2-9.5z"></path><path class="st9" d="m35.7 77.2c-9.8-0.5-18.7-2.7-25.2-5.8 6.8 4 16.8 6.8 28.2 7.4-1.8-25.3 1.9-43.2 4.4-51.9-3.6 9.5-9.1 27-7.4 50.3z"></path><linearGradient id="a" x1="41.09" x2="47.14" y1="21.52" y2="21.52" gradientUnits="userSpaceOnUse"><stop stop-color="#FFE460" offset=".03371"></stop><stop stop-color="#FF9A00" offset="1"></stop></linearGradient><path class="st10" d="m47.1 21.5c0 1.4-1.4 2.5-3 2.5-1.7 0-3-1.1-3-2.5s1.4-2.5 3-2.5c1.7 0 3 1.1 3 2.5z"></path><linearGradient id="p" x1="41.09" x2="47.14" y1="17.97" y2="17.97" gradientUnits="userSpaceOnUse"><stop stop-color="#f00" offset=".2191"></stop><stop stop-color="#7F0400" offset=".8202"></stop></linearGradient><path class="st11" d="m47.1 18c0 1.1-1.4 2-3 2-1.7 0-3-0.9-3-2s1.4-2 3-2c1.7 0 3 0.9 3 2z"></path><linearGradient id="o" x1="42.84" x2="45.39" y1="14.95" y2="14.95" gradientUnits="userSpaceOnUse"><stop stop-color="#FF4C00" offset="0"></stop><stop stop-color="#FF6F00" offset=".7847"></stop><stop stop-color="#FF7800" offset=".9775"></stop></linearGradient><path class="st12" d="m45.4 16c0 0.6-0.6 1.1-1.3 1.1s-1.3-0.5-1.3-1.1v-2.1c0-0.6 0.6-1.1 1.3-1.1s1.3 0.5 1.3 1.1v2.1z"></path><radialGradient id="n" cx="43.1" cy="-33.98" r="6.566" gradientTransform="matrix(1 0 0 .8422 0 38.4)" gradientUnits="userSpaceOnUse"><stop stop-color="#FF741F" offset=".03933"></stop><stop stop-color="#FFD923" offset="1"></stop></radialGradient><path class="st13" d="m48.6 10.5c0 1.8-1.8 3.2-4.1 3.2-2.2 0-4.1-1.5-4.1-3.2 0-1.8 1.8-3.2 4.1-3.2s4.1 1.4 4.1 3.2z"></path><path class="st14" d="m47.2 9.5c0.3 1.1-0.7 1.2-2.2 1.4s-3 0.6-3.2-0.5c-0.3-1.1 0.7-2.3 2.2-2.5 1.5-0.3 2.9 0.5 3.2 1.6z"></path><path class="st15" d="m46.9 22.5s15.7 12.3 30.5 9.9c0 0-3.8-5.6-7.3-8.2 0 0-8.4-4.2-23-3.4l-0.2 1.7z"></path><linearGradient id="m" x1="50.58" x2="74.18" y1="16.76" y2="22.46" gradientUnits="userSpaceOnUse"><stop stop-color="#1D74D5" offset=".6011"></stop><stop stop-color="#0035B1" offset="1"></stop></linearGradient><path class="st16" d="m45.3 14.3-0.1 0.3c37.3 2.6 42.2 11.8 42.8 15 0-0.1 0.1-0.1 0.1-0.2 0 0.1 2.6-12.4-42.8-15.1z"></path><path class="st15" d="m41.5 20.1s-6.7-1.9-10.3-1.5c0 0-5.9 1.3-8.6 3.5 0 0 15.6 0.7 18.5-0.7l0.4-1.3z"></path><path class="st15" d="m42.9 19.9s2.8 1.3 3.3 3.3c0 0 1.8-1.8-0.1-3.6 0 0-1.6 0.6-3.2 0.3z"></path><path class="st17" d="m71.2 26.3c7.2 6.3 13 16.4 13.5 32.6 0 11-18.9 19.8-42.3 19.8-15.5 0-29-3.9-36.3-9.7 7.1 6.3 21.2 10.6 37.4 10.6 23.3 0 42.2-8.9 42.2-19.8-0.5-17-6.9-27.3-14.5-33.5z"></path><linearGradient id="l" x1="66.09" x2="66.69" y1="13.35" y2="26.85" gradientUnits="userSpaceOnUse"><stop stop-color="#8F8E96" offset="0"></stop><stop stop-color="#D5D5D7" offset=".5337"></stop></linearGradient><path class="st18" d="m44.9 16.3s11.6 10.6 36.6 14.8c0 0 5.4 0.8 6.5-1.6 0 0 2.5-12.5-42.8-15.2l-0.3 2z"></path><linearGradient id="k" x1="87.89" x2="56.73" y1="25.03" y2="15.34" gradientUnits="userSpaceOnUse"><stop stop-color="#ADADB2" offset="0"></stop><stop stop-color="#A8A8AD" offset=".12"></stop><stop stop-color="#96969B" offset=".6215"></stop><stop stop-color="#909095" offset=".9888"></stop></linearGradient><path class="st19" d="m45.8 14.2s22.3 0.9 33.4 5.9c0 0 9.2 3.4 9.2 8.7 0 0 1.4-6.2-10.8-10.5 0 0-14.5-5.4-31.8-4.7 0 0 0.1 0.5 0 0.6z"></path><path class="st20" d="m61.5 25.3s27.2 9.1 26.8 3.2c0 0 0-1.4-1.4-3 0.1 0 1.1 7.9-25.4-0.2z"></path><linearGradient id="j" x1="56.05" x2="56.05" y1="40.52" y2="47.63" gradientUnits="userSpaceOnUse"><stop stop-color="#fff" offset="0"></stop><stop stop-color="#F0DFCE" offset="1"></stop></linearGradient><path class="st21" d="m44.4 38.5s9.3-0.7 14.2-2.4c0 0 6.9 3.4 9.3 10.6 0 0-11.8 4.8-23.6 3.1 0.1 0-0.7-8.9 0.1-11.3z"></path></g></svg>