<svg enable-background="new 0 0 105.7 44.3" version="1.1" viewBox="0 0 192 192" xml:space="preserve" xmlns="http://www.w3.org/2000/svg" width="192" height="192"><g transform="rotate(0 3.14 2.18) translate(0.6197912029025616 54.608588635221864) scale(1.7996265810773102)"><style type="text/css"> .st0{fill:#75383C;} .st1{fill:#FE1F0F;} </style><path class="st0" d="M94.8,12.9c0.8,0.6,1.5,1.3,2,2H61.7c0.3-0.7,0.7-1.4,1.4-2H94.8z"></path><path class="st0" d="m98.3 19.9h-37c-0.1-0.7-0.1-1.3 0-2h36.4c0.2 0.7 0.4 1.4 0.6 2z"></path><path class="st0" d="m98.2 24.9h-36c-0.3-0.7-0.5-1.4-0.6-2h36.8c0 0.7 0 1.4-0.2 2z"></path><path class="st0" d="m97.3 29.9h-33.4c-0.4-0.6-0.8-1.3-1.1-2h35.1c-0.1 0.7-0.4 1.4-0.6 2z"></path><path class="st0" d="m95 34.9h-28.1c-0.9-0.6-1.1-1.2-1.8-2h31.3c-0.5 0.8-0.5 1.4-1.4 2z"></path><path class="st0" d="m80.5 40c-3.4 0-6.9-0.7-9.9-2.3h20.9c-3.3 1.8-7.5 2.4-11 2.3z"></path><path class="st0" d="m65.1 9.7c2.3-1.3 5.4-1.6 8.3-1.8 5.9-0.4 12.6-0.3 18 1.5 0.3 0.1 0.5 0.2 0.7 0.3h-27z"></path><path class="st0" d="M11.2,12.9c-0.8,0.6-1.5,1.3-2,2h35.1c-0.3-0.7-0.7-1.4-1.4-2H11.2z"></path><path class="st0" d="m7.8 19.9h37c0.1-0.7 0.1-1.3 0-2h-36.4c-0.3 0.7-0.5 1.4-0.6 2z"></path><path class="st0" d="m7.8 24.9h36.1c0.3-0.7 0.5-1.4 0.6-2h-36.9c0 0.7 0.1 1.4 0.2 2z"></path><path class="st0" d="m8.8 29.9h33.3c0.4-0.6 0.8-1.3 1.1-2h-35.1c0.2 0.7 0.4 1.4 0.7 2z"></path><path class="st0" d="m11.3 34.9h27.9c0.9-0.6 1-1.2 1.7-2h-31.3c0.5 0.8 0.8 1.4 1.7 2z"></path><path class="st0" d="m25.6 40c3.4 0 6.9-0.7 9.9-2.3h-20.9c3.3 1.8 7.4 2.4 11 2.3z"></path><path class="st0" d="m40.9 9.7c-2.3-1.3-5.4-1.6-8.3-1.8-5.9-0.4-12.6-0.3-18 1.5-0.3 0.1-0.5 0.2-0.7 0.3h27c0.1 0 0 0 0 0z"></path><path class="st0" d="m102.6 19c0-0.3 0.1-0.6-0.2-0.8-0.4-0.3-0.9-0.3-1.3-0.4s-0.8-0.3-1-0.7c-1.2-5.4-6.8-9.3-11.8-10.8-3.6-1-7.5-1.3-11.3-1.1-5.3 0.2-10.6 0.9-15.9 1.4-2.7 0.2-5.4 0.3-8.1 0.3s-5.4 0-8.1-0.3c-5.3-0.5-10.6-1.2-15.9-1.4-3.8-0.2-7.7 0.1-11.4 1.2-5 1.5-10.6 5.4-11.8 10.8-0.2 0.4-0.6 0.6-1 0.7s-0.9 0.1-1.3 0.4c-0.2 0.2-0.2 0.5-0.2 0.8v4c0 0.6 0.2 0.9 0.7 1.1s1 0.3 1 0.8 0.1 1 0.2 1.6c0.7 4.5 1.7 8.8 5.4 11.7 2.1 1.7 5 2.8 7.5 3.2 3 0.4 6.1 0.7 9.1 0.5 6.2-0.4 12.6-3 15.9-8.5 1.9-2.6 3.3-5.5 4.7-8.3 0.9-1.9 2.2-6.3 4.8-6.6h0.3 0.3c2.6 0.4 3.9 4.7 4.8 6.6 1.4 2.9 2.8 5.7 4.7 8.3 3.3 5.5 9.8 8 15.9 8.5 3.1 0.2 6.1 0 9.1-0.5 2.6-0.4 5.1-1 7.2-2.7 3.7-2.9 5-7.7 5.7-12.2 0.1-0.5 0.2-1 0.2-1.6s0.5-0.7 0.9-0.8c0.5-0.2 0.7-0.6 0.7-1.1 0.2-1.4 0.2-2.7 0.2-4.1zm-64.9 19v0zm6.7-16.3c-0.7 4.7-2.5 10.7-6.1 13.8-3.4 3-8.2 4.2-12.7 4.2-4.3 0-9.6-0.8-13-3.6-3-2.5-3.9-6-4.5-9.7-0.9-6.3 0.5-13.1 6.7-16.1 5.4-2.5 12-2.6 17.8-2.1 2.8 0.2 5.9 0.7 8.2 2.5 0.1 0.1 0.3 0.2 0.4 0.3 3.1 2.9 3.7 6.9 3.2 10.7zm23.9 16.3v-0.1 0.1zm29.6-11.6c-0.6 3.7-1.5 7.2-4.5 9.7-3.4 2.9-8.7 3.7-13 3.6-4.5-0.1-9.3-1.2-12.7-4.2-3.6-3.2-5.4-9.2-6.1-13.8-0.6-3.9 0-7.8 3.2-10.7 0.1-0.1 0.3-0.2 0.4-0.3 2.3-1.8 5.3-2.2 8.2-2.5 5.8-0.5 12.4-0.4 17.8 2.1 6.2 3 7.6 9.9 6.7 16.1z"></path><path class="st1" d="m102.6 18.4c0-0.3 0.1-0.6-0.2-0.8-0.4-0.3-0.9-0.3-1.3-0.4s-0.8-0.3-1-0.7c-1.2-5.4-6.8-9.3-11.8-10.8-3.6-1-7.5-1.3-11.3-1.2-5.3 0.2-10.6 0.9-15.9 1.4-2.7 0.2-5.4 0.3-8.1 0.3s-5.4 0-8.1-0.3c-5.3-0.4-10.6-1.1-15.9-1.4-3.8-0.2-7.7 0.1-11.3 1.2-5 1.5-10.6 5.4-11.8 10.8-0.2 0.4-0.6 0.6-1 0.7s-0.9 0.1-1.3 0.4c-0.2 0.2-0.2 0.5-0.2 0.8v4c0 0.6 0.2 0.9 0.7 1.1 0.4 0.2 0.9 0.3 0.9 0.9 0 0.5 0.1 1 0.2 1.6 0.7 4.5 1.7 8.8 5.4 11.7 2.1 1.7 5 2.8 7.5 3.2 3 0.4 6.1 0.7 9.1 0.5 6.2-0.4 12.6-3 15.9-8.5 1.9-2.6 3.3-5.5 4.7-8.3 0.9-1.9 2.2-6.3 4.8-6.6h0.3 0.3c2.6 0.4 3.9 4.7 4.8 6.6 1.4 2.9 2.8 5.7 4.7 8.3 3.3 5.5 9.8 8 15.9 8.5 3.1 0.2 6.1 0 9.1-0.5 2.6-0.4 5.1-1 7.2-2.7 3.7-2.9 5-7.7 5.7-12.2 0.1-0.5 0.2-1 0.2-1.6s0.5-0.7 0.9-0.8c0.5-0.2 0.7-0.6 0.7-1.1 0.2-1.4 0.2-2.8 0.2-4.1zm-64.9 18.9v0 0zm6.7-16.2c-0.7 4.7-2.5 10.7-6.1 13.8-3.4 3-8.2 4.2-12.7 4.2-4.3 0-9.6-0.8-13-3.6-3-2.5-3.9-6-4.5-9.7-0.9-6.3 0.5-13.1 6.7-16.1 5.4-2.5 12-2.6 17.8-2.1 2.8 0.2 5.9 0.7 8.2 2.5 0.1 0.1 0.3 0.2 0.4 0.3 3.1 2.9 3.7 6.8 3.2 10.7zm23.9 16.3v-0.1 0.1zm29.6-11.6c-0.6 3.7-1.5 7.2-4.5 9.7-3.4 2.9-8.7 3.7-13 3.6-4.5-0.1-9.3-1.2-12.7-4.2-3.6-3.2-5.4-9.2-6.1-13.8-0.6-3.9 0-7.8 3.2-10.7 0.1-0.1 0.3-0.2 0.4-0.3 2.3-1.8 5.3-2.2 8.2-2.5 5.8-0.5 12.4-0.4 17.8 2.1 6.2 3 7.6 9.8 6.7 16.1z"></path><path class="st1" d="M94.8,12.1c0.8,0.7,1.5,1.5,2,2.4H61.7c0.3-0.8,0.7-1.6,1.4-2.4H94.8z"></path><path class="st1" d="m98.3 19.5h-37c-0.1-0.8-0.1-1.6 0-2.4h36.4l0.6 2.4z"></path><path class="st1" d="m98.2 24.5h-36c-0.3-0.8-0.5-1.6-0.6-2.4h36.8c0 0.8 0 1.6-0.2 2.4z"></path><path class="st1" d="m97.3 29.5h-33.4c-0.4-0.8-0.8-1.6-1.1-2.4h35.1c-0.1 0.8-0.4 1.6-0.6 2.4z"></path><path class="st1" d="m95 34.5h-28.1c-0.9-0.7-1.1-1.5-1.8-2.4h31.3c-0.5 0.9-0.5 1.7-1.4 2.4z"></path><path class="st1" d="m80.5 39.4c-3.4 0-6.9-0.7-9.9-2.3h20.9c-3.3 1.8-7.5 2.3-11 2.3z"></path><path class="st1" d="m65.1 9.1c2.3-1.3 5.4-1.6 8.3-1.8 5.8-0.4 12.6-0.3 18 1.5 0.3 0.1 0.5 0.2 0.7 0.3h-27z"></path><path class="st1" d="M11.2,12.1c-0.8,0.7-1.5,1.5-2,2.4h35.1c-0.3-0.8-0.7-1.6-1.4-2.4H11.2z"></path><path class="st1" d="m7.8 19.5h37c0.1-0.8 0.1-1.6 0-2.4h-36.4c-0.3 0.8-0.5 1.6-0.6 2.4z"></path><path class="st1" d="m7.8 24.5h36.1c0.3-0.8 0.5-1.6 0.6-2.4h-36.9c0 0.8 0.1 1.6 0.2 2.4z"></path><path class="st1" d="m8.8 29.5h33.3c0.4-0.8 0.8-1.6 1.1-2.4h-35.1c0.2 0.8 0.4 1.6 0.7 2.4z"></path><path class="st1" d="m11.3 34.5h27.9c0.9-0.7 1-1.5 1.7-2.4h-31.3c0.5 0.9 0.8 1.7 1.7 2.4z"></path><path class="st1" d="m25.6 39.4c3.4 0 6.9-0.7 9.9-2.3h-20.9c3.3 1.8 7.4 2.3 11 2.3z"></path><path class="st1" d="m40.9 9.1c-2.3-1.3-5.4-1.6-8.3-1.8-5.9-0.4-12.6-0.3-18 1.5-0.3 0.1-0.5 0.2-0.7 0.3h27c0.1 0 0 0 0 0z"></path></g></svg>