<svg enable-background="new 0 0 149.3 99.7" version="1.1" viewBox="0 0 192 192" xml:space="preserve" xmlns="http://www.w3.org/2000/svg" width="192" height="192"><g transform="rotate(0 3.14 2.18) translate(7.906655421083272 40.57214057534602) scale(1.1824610010592849)"><style type="text/css"> .st0{fill:#FFCF53;} .st1{fill:#FFE7A9;} .st2{fill:#E9516C;} .st3{fill:#EF8598;} .st4{fill:#F6B9C4;} .st5{fill:#FCFCFC;} .st6{fill:#1FC3F3;} .st7{fill:#169ED9;} .st8{fill:#E6A530;} .st9{fill:#E9AE44;} .st10{fill:#2367AA;} .st11{fill:#ACEBFF;} </style><path class="st0" d="m105.1 30.2c-2.4-0.4-6.4 5.4-8.6 5.8s-4.2-2.8-12.4-2.8c-8.3 0-10.4 2.8-12.6 2.2-2-0.6-2.5-3.2-0.8-5.1 1.9-1.9 4.3-6.4 4.3-10.1-0.1-7.9-6.4-14.2-14.2-14.2s-14.1 6.3-14.1 14.1c0 6.4 2.7 8.7 6.7 12 3 2.5-1 7.3-2.8 11.3-3 6.9-1.9 17.2 8.5 17.2h35.9c6.3 0 11.6-9.7 12.3-13.6 1.3-7.4 0.2-16.4-2.2-16.8z"></path><path class="st1" d="m54.4 43.4c2.8-3.4 5.7-8.8 2.8-11.3-3.9-3.3-6.7-5.6-6.7-12 0-7.2 5.3-13 12.2-14-0.6 0-1.2-0.1-1.9-0.1-7.8 0-14.1 6.3-14.1 14.1 0 6.4 2.7 8.7 6.7 12 3 2.5-1 7.3-2.8 11.3-1.3 2.9-1.8 6.4-1.2 9.4 0.7-3.3 2.1-5.8 5-9.4z"></path><path class="st1" d="m71.5 35.4c-0.5-0.2-0.9-0.4-1.2-0.8 2 4.6 5.5 2.4 13.8 2.4s10.3 3.3 12.4 2.8c2.2-0.4 6.1-6.2 8.6-5.8 1.5 0.3 2.5 3.7 2.7 8.1 0.3-6-0.8-11.6-2.7-11.9-2.4-0.4-6.4 5.4-8.6 5.8s-4.2-2.8-12.4-2.8c-8.3 0-10.5 2.8-12.6 2.2z"></path><path class="st1" d="m60.8 9.8c7.1 0 13 5.2 14 12.1 0.1-0.6 0.2-1.2 0.2-1.8-0.1-7.8-6.4-14.1-14.2-14.1s-14.1 6.3-14.1 14.1c0 0.8 0 1.5 0.1 2.1 0.9-7 6.8-12.4 14-12.4z"></path><path class="st2" d="m48.6 13.7c0-0.3-0.4-0.5-0.6-0.3-1.2 1-4.2 2.8-8.2 0.2-0.5-0.3-1 0.1-1 0.7 0 1.4 0.4 3.7 2.4 5.3 0 0-1.2 1.2-1.8 3.3-0.2 0.6 0.2 1.2 0.8 1.1 1.6-0.3 4.6-0.6 7.1 1 0.2 0.1 0.4 0.1 0.5-0.1 0.4-0.8 1.3-2.5 2.8-3.9 0.6-0.5 0.6-1.5 0.1-2.1-0.9-1-2-2.7-2.1-5.2z"></path><path class="st3" d="m51 20.4c0.2-0.5 0.1-1.1-0.3-1.5-0.9-1-2-2.7-2.1-5.2 0-0.3-0.4-0.5-0.6-0.3-1.2 1-4.2 2.8-8.2 0.2-0.5-0.3-1 0.1-1 0.7 0 1.4 0.4 3.7 2.4 5.3 0 0.1 3.6 3 9.8 0.8z"></path><path class="st4" d="m40.1 14.7c3.9 2.5 7 1.5 8.7 0.4-0.1-0.4-0.1-0.9-0.2-1.4 0-0.3-0.4-0.5-0.6-0.3-1.2 1-4.2 2.8-8.2 0.2-0.5-0.3-1 0.1-1 0.7 0 0.2 0 0.5 0.1 0.8 0.2-0.5 0.7-0.7 1.2-0.4z"></path><ellipse class="st5" transform="matrix(.8158 -.5783 .5783 .8158 2.542 34.72)" cx="55.8" cy="13.4" rx="4.8" ry="3.2"></ellipse><path class="st6" d="m54.8 10.2c-0.3 0.2-0.6 0.3-0.9 0.6-1.3 1-2.2 2.3-2.4 3.5 0.1 0.4 0.2 0.8 0.5 1.2 0.9 1 2.8 0.8 4.2-0.5s1.7-3.1 0.8-4.1c-0.6-0.7-1.4-0.9-2.2-0.7z"></path><path class="st7" d="m53.9 12.6c-1 0.7-1.7 1.6-2.1 2.5 0.1 0.1 0.1 0.2 0.2 0.3 0.9 1 2.8 0.8 4.2-0.5 1.1-1 1.5-2.4 1.2-3.4-1.2 0-2.4 0.4-3.5 1.1z"></path><path class="st8" d="m95 43.7s4.7 7.3-4.1 9.7c-8.2 2.2-26.9-0.8-22.6-13.8 0 0-0.7 3.8 2.5 7.1 3.4 3.5 27.4 7.9 24.2-3"></path><path class="st9" d="M49.4,53.3c-0.3,1.5,5.3,7.3,9.7,7.3H95c3,0,7.6-4,8.8-6C90.3,58.9,79,59.9,49.4,53.3z"></path><path class="st6" d="m135.9 51.8c-9.5 1.7-20.4 11.1-35.2 16 0.4 5 0.3 12.9 0.4 17.5 4.8 1.1 11.2 1.3 16.5 1 28.1-1.8 34.2-37.3 18.3-34.5z"></path><path class="st6" d="m49.6 63.4c-12.9-3.9-21.1-6.2-26.4-7-9-1.5-18.1 4.9-18.2 14.3v0.8c0.5 21.8 35.6 16.6 44.2 12.6-0.3-7 0.1-15.7 0.4-20.7z"></path><path class="st10" d="m51.2 63.7c-12.9-3.9-22.8-6.4-28-7.3-7.6-1.3-15.2 3.1-17.5 10.1 2.7-1.7 16.4 1.8 43.5 7.6 0-4.1 0.8-7.7 2-10.4z"></path><path class="st7" d="m49.2 74.1c-27.1-5.8-40.8-9.4-43.5-7.6 0 0-2.2 5.7 1.3 11.8 0 0 8.3-5.5 42.2 0.3-0.1-1.5-0.1-3 0-4.5z"></path><path class="st10" d="m100.6 67.8c0.1 1.9 0.3 4.2 0.4 6.5 9-3.7 17.8-10.4 27.8-20.2-7.9 3.6-16.9 10-28.2 13.7z"></path><path class="st7" d="m140.6 52.3c-1.9-0.8-4-0.7-6-0.3-1.6 0.4-4.4 1.2-5.8 2.1-2.5 1.6-12.5 11.1-15.3 13.1-3.9 2.8-8.1 5.2-12.5 7.1 0.1 2.3 0.2 4.6 0.2 6.8 16.8-0.9 40.6-7.4 42.5-25.5-0.5-1.5-1.8-2.7-3.1-3.3z"></path><path class="st11" d="m10.7 59.5c2-1.9 5.9-3.9 10.6-4.9 7.7-1.7 20.2-1.8 36.9 1.7 20.8 4.3 33 3.9 45.9-1.5s24.9-6.6 35.1-3.1l-3.2 0.2c-16 2.8-35.9 29.5-72 18.3-21.7-6.7-33.6-12-40.6-13.5-3.6-0.8-8.1 0.2-11.1 1.8l-1.6 1z"></path></g></svg>