<svg width="192" height="192" enable-background="new 0 0 200 200" version="1.1" viewBox="0 0 192 192" xml:space="preserve" xmlns="http://www.w3.org/2000/svg"><g transform="rotate(0 3.14 2.18) translate(-16.197680693096615 -16.197680693096615) scale(1.1233810332224943)"><rect x="95.12" y="134.9" width="9.756" height="27.54" fill="#E4AA24"></rect><polygon points="157.3 162.4 157.3 127.3 124.5 117.5 100 136.3 75.5 117.5 42.7 127.3 42.7 162.4" fill="#BE202E"></polygon><polygon points="157.3 162.4 157.3 127.3 124.5 117.5 100 136.3 75.5 117.5 42.7 127.3 42.7 162.4" fill="#BE202E"></polygon><polygon points="124.5 117.5 100 136.3 75.5 117.5 60.7 121.9 60.7 162.4 139.3 162.4 139.3 121.9" fill="#E4AA24"></polygon><polygon points="75.5 117.5 70.46 119 70.46 162.4 95.12 162.4 95.12 132.5" fill="#FBC935"></polygon><polygon points="124.5 117.5 129.5 119 129.5 162.4 104.9 162.4 104.9 132.5" fill="#FBC935"></polygon><g fill="#FCE49A"><polygon points="70.46 154.6 70.46 145.8 95.12 133.5 95.12 142.2"></polygon><polygon points="70.46 160.2 70.46 157.4 95.12 145.1 95.12 147.9"></polygon></g><g fill="#FCE49A"><polygon points="129.5 154.6 129.5 145.8 104.9 133.5 104.9 142.2"></polygon><polygon points="129.5 160.2 129.5 157.4 104.9 145.1 104.9 147.9"></polygon></g><path d="m100 37.58c-50.73 0-55.08 65.94-29.54 81.42 3.621 11.58 9.972 23.34 29.54 23.34s25.92-11.75 29.54-23.34c25.6-15.5 21.2-81.42-29.5-81.42zm0 93.02c-15.18 0-20.59-12.06-20.59-23.34 0-0.835 0.063-1.663 0.191-2.482 1.627 0.336 3.331 0.504 5.094 0.504 5.772 0 10.98-4.514 15.31-8.927 4.329 4.414 9.533 8.927 15.31 8.927 1.762 0 3.465-0.168 5.094-0.504 0.127 0.819 0.189 1.652 0.189 2.482 0 11.2-5.4 23.3-20.6 23.3zm0-39.37-2.556 2.607c-3.809 3.883-8.302 7.854-12.75 7.854-11.72 0-17.86-8.499-17.86-16.9 0-4.231 1.514-8.119 4.266-10.95 3.168-3.261 7.868-4.983 13.59-4.983 4.882 0 9.529 1.883 12.75 5.166l2.56 2.6 2.557-2.606c3.221-3.284 7.866-5.167 12.75-5.167 5.725 0 10.43 1.725 13.59 4.984 2.752 2.831 4.268 6.72 4.268 10.95 0 8.395-6.134 16.89-17.86 16.89-4.449 0-8.941-3.97-12.75-7.852l-2.6-2.62z" fill="#603A17"></path><g fill="#764E2A"><path d="m63.26 84.6c0 0.042-2e-3 0.085-3e-3 0.127v-0.13z"></path><path d="m136.7 84.6c1e-3 0.042 2e-3 0.085 3e-3 0.127v-0.13z"></path><path d="m100 37.58c-25.12 0-36.37 24.04-36.73 46.5 0.33-9.582 7.267-18.8 21.42-18.8 6.085 0 11.55 2.411 15.31 6.241 3.755-3.829 9.222-6.241 15.31-6.241 14.16 0 21.1 9.214 21.42 18.8-0.3-22.46-11.6-46.5-36.7-46.5z"></path></g><path d="m100 71.52c-3.755-3.829-9.221-6.241-15.31-6.241-29.49 0-27.67 39.99 0 39.99 6.085 0 11.55-5.097 15.31-8.928 3.756 3.829 9.221 8.928 15.31 8.928 27.67 0 29.49-39.99 0-39.99-6.1-0.03-11.5 2.39-15.3 6.21zm-16.66 22.34c-4.846 0-8.775-3.421-8.775-7.64h17.55c0.01 4.22-3.92 7.64-8.77 7.64zm24.56-7.64h17.55c0 4.219-3.93 7.64-8.775 7.64-4.8 0-8.7-3.42-8.7-7.64z" fill="#C3996C"></path><path d="m106.7 57.09c-2.349 0.678-4.625 1.767-6.688 3.247-2.063-1.481-4.34-2.569-6.689-3.247-2.846-0.825-5.79-1.055-8.617-0.757 2.829 0.299 5.546 1.127 7.95 2.417 2.403 1.287 4.492 3.034 6.078 5.077l1.28 1.64 1.277-1.646c1.586-2.043 3.676-3.79 6.078-5.077 2.404-1.29 5.121-2.118 7.949-2.417-2.8-0.29-5.8-0.06-8.6 0.77z" fill="#603A17"></path><path d="m71.55 77.67c0.562-1.051 1.407-1.895 2.353-2.642 0.962-0.724 2.089-1.301 3.347-1.603 1.251-0.311 2.642-0.333 3.958 6e-3 1.319 0.325 2.536 0.988 3.528 1.813 1.812 1.513 3.366 3.328 4.553 5.247 0.611 0.943 1.07 1.813 1.725 2.421 0.658 0.635 1.714 1.004 2.811 1.359-1.089 0.345-2.314 0.52-3.603 0.067-0.638-0.216-1.206-0.599-1.689-0.982-0.486-0.387-0.905-0.786-1.308-1.169-0.801-0.766-1.549-1.485-2.329-2.178-0.77-0.687-1.592-1.37-2.375-1.987-1.448-1.112-3.004-1.688-4.87-1.696-1.87 0-3.92 0.54-6.1 1.34z" fill="#A97D51"></path><path d="m128.5 77.67c-2.18-0.797-4.232-1.345-6.102-1.342-1.865 9e-3 -3.422 0.584-4.869 1.697-0.783 0.615-1.605 1.301-2.373 1.987-0.78 0.691-1.528 1.411-2.332 2.178-0.4 0.383-0.82 0.782-1.31 1.169-0.481 0.384-1.051 0.766-1.688 0.982-1.286 0.451-2.514 0.277-3.603-0.067 1.101-0.354 2.152-0.725 2.813-1.359 0.652-0.607 1.113-1.479 1.728-2.421 1.185-1.92 2.741-3.735 4.554-5.247 0.99-0.826 2.209-1.489 3.524-1.813 1.315-0.339 2.705-0.316 3.959-7e-3 1.257 0.302 2.386 0.88 3.345 1.604 0.9 0.75 1.8 1.59 2.4 2.64z" fill="#A97D51"></path><path d="m100 91.23-2.556 2.607c-3.809 3.883-8.302 7.854-12.75 7.854-2.875 0-5.409-0.519-7.603-1.414-0.811 2.172-1.263 4.508-1.263 6.974 0 13.05 6.867 26.92 24.17 26.92s24.17-13.87 24.17-26.92c0-2.466-0.453-4.802-1.263-6.974-2.193 0.896-4.728 1.414-7.604 1.414-4.447 0-8.939-3.973-12.75-7.854l-2.6-2.62zm-6.96 31.57c-3.078 0-5.571-2.493-5.571-5.571s2.493-5.571 5.571-5.571h13.92c3.077 0 5.571 2.493 5.571 5.571s-2.493 5.571-5.571 5.571h-13.96z" fill="#C3996C"></path><path d="m92.12 86.22c0 4.219-3.929 7.64-8.776 7.64-4.846 0-8.775-3.421-8.775-7.64h-3.311c0 6.426 5.31 11.46 12.09 11.46 6.777 0 12.09-5.035 12.09-11.46h-3.31z" fill="#BE202E"></path><path d="m107.9 86.22c0 4.219 3.93 7.64 8.774 7.64 4.847 0 8.776-3.421 8.776-7.64h3.31c0 6.426-5.31 11.46-12.09 11.46-6.774 0-12.09-5.035-12.09-11.46h3.3z" fill="#BE202E"></path><g fill="#A97D51"><polygon points="97.84 89.4 93.56 99.31 106.4 99.31 102.2 89.4"></polygon><path d="m84.69 68.86c6.085 0 11.55 2.411 15.31 6.241 3.756-3.829 9.221-6.241 15.31-6.241 13.63 0 20.56 8.542 21.36 17.73 0.893-10.42-5.965-21.31-21.36-21.31-6.086 0-11.55 2.411-15.31 6.241-3.755-3.829-9.221-6.241-15.31-6.241-15.39 0-22.25 10.9-21.36 21.31 0.81-9.18 7.74-17.73 21.37-17.73z"></path><path d="m119.8 120.3c-3.783 6.039-10.17 10.32-19.78 10.32-9.612 0-16-4.279-19.78-10.32 0.614 3.289 2.061 6.705 5.096 9.27 3.678 2.861 8.515 4.631 14.68 4.631 6.17 0 11.01-1.77 14.68-4.629 3-2.6 4.5-6 5.1-9.3z"></path></g><path d="m73.81 114c1.429-2.425 3.945-4.169 6.714-4.588 0 0-3.445 13.26 4.88 20.17l-6.559-8e-3 -5.03-15.6z" fill="#603A17"></path><path d="m126.2 114c-1.43-2.425-3.944-4.169-6.715-4.588 0 0 3.444 13.26-4.881 20.17l6.559-8e-3 5-15.6z" fill="#603A17"></path><path d="m108.4 42.05c-0.577-0.963-1.539-1.689-2.672-1.979-1.03-0.279-2.232-0.224-3.245 0.221-1.021 0.445-1.88 1.219-2.42 2.165-0.029 0.052-0.05 0.108-0.077 0.161-0.027-0.054-0.048-0.108-0.077-0.161-0.541-0.946-1.401-1.72-2.42-2.164-1.021-0.444-2.201-0.505-3.261-0.219-1.104 0.283-2.088 1.014-2.658 1.976-0.578 0.958-0.757 2.132-0.498 3.187 0.247 1.074 1.066 2.02 2.062 2.393 0.997 0.388 2.148 0.304 2.978-0.359 0.813-0.642 1.127-1.763 0.795-2.644 0.13 0.93-0.343 1.839-1.077 2.235-0.709 0.393-1.654 0.345-2.327-0.036-1.452-0.762-1.569-2.79-0.673-3.953 0.436-0.595 1.08-1 1.784-1.122 0.744-0.136 1.496-0.04 2.186 0.221 1.41 0.497 2.496 1.881 2.481 3.559h6e-3c1e-3 4e-3 0 9e-3 0 0.014v1e-3c0.104 1.088-0.17 2.252-0.81 3.233-0.636 0.989-1.638 1.786-2.826 2.186 0.732-0.102 1.448-0.374 2.107-0.765h4.457c0.658 0.392 1.375 0.663 2.106 0.765-1.188-0.399-2.188-1.196-2.826-2.186-0.638-0.982-0.913-2.146-0.81-3.233v-0.015h8e-3c-0.018-1.677 1.068-3.062 2.48-3.559 0.695-0.26 1.426-0.36 2.199-0.219 0.676 0.116 1.342 0.527 1.771 1.12 0.896 1.155 0.777 3.185-0.674 3.953-0.678 0.379-1.604 0.432-2.33 0.036-0.729-0.396-1.207-1.306-1.074-2.235-0.332 0.882-0.02 2.002 0.797 2.644 0.814 0.659 1.984 0.749 2.977 0.359 0.998-0.374 1.812-1.318 2.061-2.381 0.2-1.09 0-2.25-0.6-3.21z" fill="#FBC935"></path><path d="m145 68.15c0 1.498-0.56 2.979-1.642 4.423 0.168 0.74 0.321 1.482 0.463 2.228 1.962-2.102 2.97-4.332 2.97-6.651 0-10.48-20.56-18.68-46.8-18.68s-46.9 8.21-46.9 18.68c0 2.318 1.005 4.548 2.966 6.648 0.139-0.747 0.288-1.493 0.458-2.235-1.076-1.44-1.633-2.918-1.633-4.413 0-9.156 20.61-16.89 45.01-16.89s45 7.73 45 16.89z" fill="#FBC935"></path><path d="m56.43 73.44c-0.774-0.111-1.555-0.109-2.331 0.049-5.33 1.085-8.337 8.412-6.719 16.37 1.423 6.993 5.949 12.14 10.64 12.54-3.06-8.64-3.69-19.04-1.59-28.96z" fill="#C3996C"></path><path d="m55.8 76.96c-0.121-0.014-0.243-0.029-0.36-0.029-0.211 0-0.423 0.021-0.628 0.062-1.849 0.377-2.902 2.329-3.367 3.458-0.988 2.406-1.19 5.572-0.557 8.685 0.968 4.755 3.519 8.062 5.914 9.231-1.68-6.67-2.06-14.09-0.99-21.41z" fill="#A97D51"></path><path d="m143.6 73.44c0.775-0.111 1.557-0.109 2.33 0.049 5.33 1.085 8.339 8.412 6.721 16.37-1.423 6.993-5.949 12.14-10.64 12.54 3-8.64 3.7-19.04 1.6-28.96z" fill="#C3996C"></path><path d="m144.2 76.96c0.121-0.014 0.242-0.029 0.359-0.029 0.209 0 0.422 0.021 0.629 0.062 1.846 0.377 2.899 2.329 3.365 3.458 0.988 2.406 1.191 5.572 0.56 8.685-0.97 4.755-3.522 8.062-5.915 9.231 1.6-6.67 2-14.09 0.9-21.41z" fill="#A97D51"></path><path d="m93.56 99.31v1.546l3.031 1.627 0.713 2.354c1.443 1.081 3.955 1.084 5.402 0l0.714-2.354 3.03-1.627v-1.546c-3-2.29-9.76-2.29-12.84-0.04z" fill="#603A17"></path></g></svg>