<svg enable-background="new 0 0 215.3 199.2" version="1.1" viewBox="0 0 192 192" xml:space="preserve" xmlns="http://www.w3.org/2000/svg" xmlns:xlink="http://www.w3.org/1999/xlink" width="192" height="192"><g transform="rotate(0 3.14 2.18) translate(19.80373560636545 29.063698293091875) scale(0.7055209666077273)"><style type="text/css"> .st0{fill:#2B2B8E;} .st1{fill:#000078;} .st2{fill:#0505A8;stroke:#367CFF;stroke-miterlimit:10;} .st3{fill:#0505A8;} .st4{fill:#090959;} .st5{opacity:0.68;fill:#090959;} .st6{fill:none;stroke:#367CFF;stroke-miterlimit:10;} .st7{fill:#6B6BD6;} .st8{clip-path:url(#a);} .st9{fill:#F4E23B;} .st10{fill:#C9B528;} .st11{fill:#CEBA29;} </style><path class="st0" d="m5.4 151c1.1 8.9 7.6 15.3 15.1 19.5 12.3 6.9 27 9.4 40.9 11.1 55.9 6.9 139.3-18.1 146.3-25.9 7.1-7.8 4.9-21.6-22.5-31.4-10.7-3.8-62.8-10.7-76.9-10.7-85.6 0.1-104.3 26.1-102.9 37.4z"></path><path class="st0" d="m57.3 120.9c6-2.3 19-17.5 19.3-45s15-32.8 5.4-36.4c-9.7-3.6-30 1.1-34 3.4s-4.3-4.7 2.7-11 27.6-24.4 46.3-24.4 31 14.7 38 46c4.2 16.5 10.6 21.1 9.4 38.5-1 14.7 8.4 26.2 13.6 34.2 2.8 4.3-4.7 37.3-53.3 33.7s-47.4-39-47.4-39z"></path><path class="st1" d="m75.3 37c14.1-5.5 16.1-12.8 19-9.5 4.7 5.2-5.6 21.8-8.8 15.2-2.6-5.3-13.9-4.5-13.9-4.5l3.7-1.2z"></path><path class="st2" d="m-224 146.1c1 8 6.9 13.8 13.7 17.6 11.2 6.2 24.5 8.5 37.1 10.1 50.7 6.3 126.3-16.4 132.7-23.5s4.5-19.6-20.4-28.5c-9.7-3.4-56.9-9.7-69.8-9.7-77.6 0.1-94.6 23.7-93.3 34z"></path><path class="st3" d="m-181.7 120.9c6-2.3 20.7-17.3 21-44.8s13.3-33 3.7-36.6c-9.7-3.6-30 1.1-34 3.4s-4.3-4.7 2.7-11 27.6-24.4 46.3-24.4 31 14.7 38 46 21.7 67.7 23 72.7-4.7 37.3-53.3 33.7-47.4-39-47.4-39z"></path><path class="st4" d="m-163.7 37c14.5-4.5 12.7-15.4 18.7-8.4s-5 17.3-8.5 14.1-13.9-4.5-13.9-4.5l3.7-1.2z"></path><path class="st5" d="m-105.7 45.4c1.8 8.1-6.3 31.7-14.3 41.5s-14.4 28.2-11.8 37.7 3 27 6.3 29.6 29.6 0.5 36.4-11.6 7.6-19.7 7.6-19.7-15.2-32.7-24.2-77.5z"></path><path class="st1" d="m-83.9 117.8c-54.6 48.9-88.7-4.7-88.7-4.7-3.4 4.9-9.1 7.8-9.1 7.8s5.5 34.3 47.2 37.3c2.6 0.2 5 0.3 7.3 0.3 48.5-4.2 47.4-27.6 46.2-32.3l-2.9-8.4z"></path><path class="st1" d="m-85.8 112.6c2.3 7.6 6.1 14.8 6.1 14.8s0 8.7-8.1 18.2c-9 10.6-37.6 13.9-44.4 12.4 2.9-3.2 4-10.5 2.7-19.6 0-0.1 31 0.5 43.7-25.8z"></path><path d="m-40.7 151.1c-6.4 7.1-82.5 30.6-132.7 22.8 0 0 32 0.4 47.7-7.9 15.7-8.4 36.3-18.9 47-20.3s38 5.4 38 5.4z"></path><path class="st6" d="m-173.4 173.9c14.1 0.1 29.3-0.9 42.6-5.7 9.3-3.4 17.7-9 26.6-13.2 7-3.3 14-7 21.7-8.5 14-2.8 28.3 1.3 41.8 4.6"></path><path d="m158.6 128c0.8-5.1-5.2 30.5-53.8 26.9s-47.4-34-47.4-34-3.4 46.3 60.6 43.9c25.8-1 37.3-14.6 40.6-36.8z"></path><path class="st1" d="m76.1 82.1c0.9-5.1 0.3 11.2 12.3 16.3 8.2 3.4-12.6 20.8-15.5 5-1-5.7 2.3-15.8 3.2-21.3z"></path><path d="m207.6 155.6c-7.1 7.8-91 34.7-146.3 26.1 0 0 35.4 0 53.4-11.7 16.7-10.1 39.2-21.8 51-23.4s41.9 9 41.9 9z"></path><path class="st7" d="m61.3 181.7c6.4-0.1 12.9-0.5 19.2-1.4 3.2-0.4 6.4-1 9.5-1.7s6.2-1.5 9.3-2.6c3-1 6-2.2 8.9-3.6s5.6-3.1 8.4-4.7c5.6-3.3 11.1-6.5 16.8-9.6 5.7-3 11.5-5.9 17.6-8.1 3-1.1 6.1-2.1 9.3-2.7 3.2-0.7 6.5-0.9 9.7-0.8 6.5 0.2 12.9 1.7 19.1 3.5s12.3 3.9 18.5 5.6c-6.3-1.5-12.4-3.4-18.7-5.1-6.2-1.7-12.5-3-18.9-3.2-3.2-0.1-6.4 0.2-9.5 0.8s-6.2 1.6-9.2 2.7c-6 2.3-11.8 5.1-17.4 8.1-5.7 3-11.2 6.2-16.8 9.5-2.8 1.6-5.6 3.3-8.5 4.7s-6 2.6-9 3.6c-12.4 4.1-25.5 5.3-38.3 5z"></path><path class="st5" d="m157.9 124.9c-5.5-7.8-14.4-17.2-13.5-31.4 1.2-18.4-4.2-22.3-8.8-38.6 1.7 7.5-1.8 26.5-9.3 35.6s-18.8 27-16.4 35.9 2.8 25.3 5.9 27.6c3.1 2.4 24.3-1 33.5-11 11.3-12 8.6-18.1 8.6-18.1z"></path><defs><path id="b" d="m57.3 120.1c6-2.3 19-17.6 19.3-45.1s15-32.7 5.4-36.3c-9.7-3.6-30 1.1-34 3.4s-4.3-4.7 2.7-11 27.6-24.4 46.3-24.4 31 14.7 38 46c3.4 15.1 9.3 26.1 9.2 40.5-0.1 16.6 13.6 30.3 14.3 32.9 1.3 5-5.2 36.6-53.8 33s-47.4-39-47.4-39z"></path></defs><clipPath id="a"><use xlink:href="#b"></use></clipPath><g class="st8"><polygon class="st9" points="93 124.3 86 120.2 78.9 123.7 80.6 115.9 75 110.1 82.9 109.3 86.7 102.2 90 109.5 97.9 110.9 91.9 116.3"></polygon><polygon class="st9" points="83.7 70.5 79.7 68.2 75.7 70.2 76.6 65.7 73.5 62.4 78 62 80.1 57.9 82 62.1 86.5 62.9 83.1 65.9"></polygon><polygon class="st9" points="70.9 27.5 67 25.2 62.9 27.2 63.9 22.8 60.7 19.5 65.2 19 67.4 15 69.2 19.1 73.7 19.9 70.3 23"></polygon><polygon class="st10" points="140.1 136.9 134.3 136.2 130.4 140.6 129.2 134.8 123.7 132.5 128.9 129.6 129.4 123.7 133.8 127.7 139.5 126.4 137.1 131.8"></polygon><polygon class="st9" points="136.1 73.9 130.3 73.2 126.4 77.6 125.2 71.8 119.7 69.5 124.9 66.6 125.4 60.7 129.8 64.7 135.5 63.4 133.1 68.8"></polygon><polygon class="st9" points="108.8 144.6 103.9 144 100.6 147.7 99.6 142.8 95 140.9 99.4 138.4 99.8 133.5 103.5 136.8 108.3 135.8 106.3 140.3"></polygon><polygon class="st9" points="108.8 95.9 103.8 95.3 100.5 99.1 99.5 94.2 94.9 92.2 99.3 89.7 99.7 84.7 103.4 88.1 108.2 87 106.2 91.6"></polygon><polygon class="st9" points="104.6 53.8 100.9 46.8 92.9 45.9 98.5 40.1 96.8 32.1 104 35.7 111 31.6 110 39.7 115.9 45 107.9 46.5"></polygon><polygon class="st10" points="134.1 112.3 130.4 105.3 122.4 104.4 128 98.6 126.3 90.6 133.5 94.2 140.5 90.1 139.5 98.2 145.4 103.5 137.4 105"></polygon><path class="st11" d="m228.9 58.4c-2.9-2.7-6.6-4.4-10.9-4.8-6-0.5-11.6 1.9-15.3 6.1 1.7-0.5 3.4-0.7 5.4-0.5 8.7 0.7 15.2 8.3 14.4 17.1-0.5 6.4-4.7 11.5-10.5 13.5 1 0.2 1.9 0.4 2.9 0.5 10 0.8 18.8-6.4 19.8-16.4-2.3-4.6-4.3-9.8-5.8-15.5z"></path><polygon class="st9" points="131 39.1 127.1 36.8 123.1 38.8 124 34.3 120.8 31 125.3 30.6 127.5 26.5 129.3 30.7 133.8 31.5 130.5 34.5"></polygon><polygon class="st9" points="104.7 17.5 99.9 14.7 95 17.1 96.1 11.7 92.3 7.7 97.7 7.1 100.4 2.2 102.6 7.3 108.1 8.2 104 11.9"></polygon></g></g></svg>