<svg width="192" height="192" version="1.1" xmlns="http://www.w3.org/2000/svg" viewBox="0 0 192 192"><g transform="rotate(0 3.14 2.18) translate(4.507902665305451 15.583261816347417) scale(1.926149417572517)"><g transform="translate(-351.3 -281.1)"><g transform="translate(-184.5 -684.9)"><path d="m620.1 1015c-3.5-9.4-18.6-16.5-36.7-16.5s-33.3 7.1-36.7 16.5h-0.8v4.1c0 11.4 16.8 20.6 37.5 20.6s37.5-9.2 37.5-20.6v-4.1h-0.8z" fill="#e28824"></path><path d="m620.1 1011c-3.5-9.4-18.6-16.5-36.7-16.5s-33.3 7.1-36.7 16.5h-0.8v4.1c0 11.4 16.8 20.6 37.5 20.6s37.5-9.2 37.5-20.6v-4.1h-0.8z" fill="#f9c441"></path><path d="m620.1 1006c-3.5-9.4-18.6-16.5-36.7-16.5s-33.3 7.1-36.7 16.5h-0.8v4.1c0 11.4 16.8 20.6 37.5 20.6s37.5-9.2 37.5-20.6v-4.1h-0.8z" fill="#e28824"></path><path d="m620.1 1001c-3.5-9.4-18.6-16.5-36.7-16.5s-33.3 7.1-36.7 16.5h-0.8v4.1c0 11.4 16.8 20.6 37.5 20.6s37.5-9.2 37.5-20.6v-4.1h-0.8z" fill="#f9c441"></path><path d="m620.1 996.6c-3.5-9.4-18.6-16.5-36.7-16.5s-33.3 7.1-36.7 16.5h-0.8v4.1c0 11.4 16.8 20.6 37.5 20.6s37.5-9.2 37.5-20.6v-4.1h-0.8z" fill="#e28824"></path><g fill="#ce5f02"><path d="m549.2 1003v11c0 1.5 1.2 2.6 2.6 2.6s2.6-1.2 2.6-2.6v-1.9c0-1.5 1.2-2.6 2.6-2.6 1.5 0 2.6 1.2 2.6 2.6v9.4c0 1.4 1.2 2.6 2.6 2.6 1.5 0 2.6-1.2 2.6-2.6v-18.6h-15.6z"></path><path d="m617.5 1003v14.7c0 1.4-1.2 2.6-2.6 2.6-1.5 0-2.6-1.2-2.6-2.6v-1.9c0-1.4-1.2-2.6-2.6-2.6-1.5 0-2.6 1.2-2.6 2.6v6.6c0 1.5-1.2 2.6-2.6 2.6s-2.6-1.2-2.6-2.6v-19.5h15.6z"></path><path d="m570.2 1010v14.1c0 1.4 1.2 2.6 2.6 2.6s2.6-1.2 2.6-2.6v-2.5c0-1.4 1.2-2.6 2.6-2.6 1.5 0 2.6 1.2 2.6 2.6v8.7c0 1.5 1.2 2.6 2.6 2.6s2.6-1.2 2.6-2.6v-5.7c0-1.5 1.2-2.6 2.6-2.6s2.6 1.2 2.6 2.6v3.8c0 1.5 1.2 2.6 2.6 2.6 1.5 0 2.6-1.2 2.6-2.6v-18.5h-26z"></path></g><ellipse cx="583.3" cy="996.6" rx="37.5" ry="20.6" fill="#f9c441"></ellipse><ellipse cx="583.3" cy="995.9" rx="32.1" ry="17" fill="#e28824"></ellipse><g fill="#f9c441"><rect x="551.2" y="995.6" width="64.3" height="2"></rect><rect x="582.3" y="978.9" width="2" height="35.3"></rect><rect x="593.1" y="978.7" width="2" height="35.5"></rect><rect x="603.8" y="982.2" width="2" height="29.1"></rect><rect x="571.6" y="978.7" width="2" height="35.5"></rect><rect x="560.9" y="982.2" width="2" height="29.1"></rect><rect x="551" y="1001" width="64.6" height="2"></rect><rect x="556.3" y="1007" width="53" height="2"></rect><rect x="551" y="989.6" width="64.6" height="2"></rect><rect x="556.3" y="983.7" width="53" height="2"></rect></g><path d="m577.7 993.2c0-0.6 0.4-1 1-1h9.3c0.5 0 1 0.4 1 1v7.3c0 0.6-0.4 1-1 1h-9.3c-0.6 0-1-0.4-1-1v-7.3z" fill="#ffd731"></path><path d="m577.7 993.2c0-0.6 0.4-1 1-1h9.3c0.5 0 1 0.4 1 1v5.3c0 0.6-0.4 1-1 1h-9.3c-0.6 0-1-0.4-1-1v-5.3z" fill="#fff9a9"></path></g></g></g></svg>